<svg width="346" height="196" viewBox="0 0 346 196" fill="none" xmlns="http://www.w3.org/2000/svg">
<g clip-path="url(#clip0_8_1069)">
<path d="M207.556 119.195C206.321 119.195 205.113 118.829 204.085 118.142C203.058 117.455 202.257 116.479 201.784 115.336C201.311 114.194 201.187 112.937 201.428 111.724C201.669 110.511 202.264 109.397 203.137 108.523C204.011 107.648 205.123 107.052 206.335 106.811C207.547 106.57 208.803 106.693 209.944 107.166C211.086 107.639 212.062 108.44 212.748 109.468C213.435 110.496 213.801 111.705 213.802 112.942C213.8 114.599 213.141 116.188 211.97 117.36C210.8 118.533 209.212 119.192 207.556 119.195ZM138.517 119.195C137.282 119.195 136.074 118.829 135.047 118.142C134.019 117.455 133.218 116.479 132.745 115.336C132.272 114.194 132.149 112.937 132.389 111.724C132.63 110.511 133.225 109.397 134.098 108.523C134.972 107.648 136.085 107.052 137.296 106.811C138.508 106.57 139.764 106.693 140.906 107.166C142.047 107.639 143.023 108.44 143.709 109.468C144.396 110.496 144.763 111.705 144.763 112.942C144.761 114.599 144.103 116.188 142.932 117.361C141.761 118.533 140.173 119.193 138.517 119.195ZM209.796 81.5373L222.279 59.8983C222.449 59.6027 222.56 59.2764 222.605 58.9379C222.65 58.5995 222.627 58.2555 222.539 57.9257C222.451 57.5958 222.299 57.2866 222.092 57.0156C221.884 56.7446 221.625 56.5172 221.33 56.3464C221.035 56.1755 220.709 56.0645 220.37 56.0197C220.032 55.975 219.689 55.9973 219.359 56.0855C219.03 56.1737 218.721 56.3259 218.45 56.5336C218.179 56.7413 217.952 57.0003 217.781 57.2959L205.141 79.2083C195.475 74.7928 184.619 72.3341 173.036 72.3341C161.452 72.3341 150.597 74.7963 140.931 79.2083L128.292 57.2959C128.122 57.0002 127.895 56.7411 127.624 56.5333C127.354 56.3254 127.045 56.173 126.715 56.0846C126.386 55.9962 126.042 55.9736 125.704 56.0181C125.366 56.0626 125.04 56.1734 124.745 56.344C124.449 56.5146 124.19 56.7418 123.983 57.0126C123.775 57.2834 123.623 57.5925 123.534 57.9222C123.446 58.2519 123.423 58.5958 123.468 58.9343C123.512 59.2727 123.623 59.5991 123.794 59.8947L136.277 81.5373C114.842 93.2063 100.181 114.925 98.0361 140.586H248.037C245.89 114.925 231.23 93.2063 209.796 81.5373Z" fill="white"/>
</g>
<defs>
<clipPath id="clip0_8_1069">
<rect width="150" height="84.5865" fill="white" transform="translate(98 56)"/>
</clipPath>
</defs>
</svg>
