<svg width="346" height="196" viewBox="0 0 346 196" fill="none" xmlns="http://www.w3.org/2000/svg">
<path d="M112.884 86.4933L129.512 108.382V86.4933H132.836V113.666H129.321L112.695 91.5842V113.666H109.369V86.4933H112.884Z" fill="white"/>
<path d="M159.819 112.601C157.628 113.439 155.264 113.856 152.731 113.856C142.89 113.856 137.967 109.138 137.967 99.6997C137.967 90.7687 142.717 86.3026 152.217 86.3026C154.942 86.3026 157.476 86.6837 159.818 87.4447V90.4847C157.476 89.5977 155.068 89.1537 152.597 89.1537C145.187 89.1537 141.483 92.6703 141.483 99.6997C141.483 107.236 145.129 111.007 152.428 111.007C153.592 111.007 154.884 110.854 156.304 110.549V101.315H159.819V112.601Z" fill="white"/>
<path d="M165.424 103.177V86.4945H168.937V103.176C168.937 108.395 171.534 111.008 176.729 111.008C181.922 111.008 184.52 108.395 184.52 103.176V86.4945H188.034V103.176C188.034 110.298 184.266 113.857 176.729 113.857C169.192 113.857 165.424 110.298 165.424 103.177Z" fill="white"/>
<path d="M212.035 110.816V113.666H194.306V86.4933H197.819V110.816H212.035Z" fill="white"/>
<path d="M226.969 82.9092L240.479 113.666H236.584L233.068 105.114H224.083L225.051 102.267H231.892L226.818 89.9524L217.107 113.666H213.46L226.969 82.9092Z" fill="white"/>
<path d="M244.184 113.666V86.4933H255.775C260.944 86.4933 263.528 88.6667 263.528 93.0104C263.528 96.5458 261.002 99.162 255.947 100.858L265.276 113.666H260.639L251.995 101.448V99.1509C257.188 98.3254 259.784 96.3305 259.784 93.1646C259.784 90.6574 258.34 89.4013 255.454 89.4013H247.699V113.667H244.184L244.184 113.666Z" fill="white"/>
<path d="M278.446 86.4933V105.838C278.446 111.056 275.374 113.665 269.229 113.665V110.816C273.03 110.816 274.93 109.154 274.93 105.837V86.4933H278.446Z" fill="white"/>
<path d="M284.715 112.715V109.485C287.566 110.498 290.643 111.006 293.95 111.006C298.624 111.006 300.962 109.296 300.962 105.873C300.962 102.964 299.238 101.503 295.793 101.503H292.295C286.609 101.503 283.763 99.035 283.763 94.0942C283.763 88.9012 287.407 86.3018 294.692 86.3018C297.858 86.3018 300.803 86.6848 303.528 87.444V90.6743C300.802 89.6599 297.858 89.1529 294.692 89.1529C289.751 89.1529 287.281 90.8005 287.281 94.0942C287.281 97.0063 288.952 98.4635 292.295 98.4635H295.793C301.58 98.4635 304.477 100.935 304.477 105.873C304.477 111.195 300.968 113.856 293.949 113.856C290.643 113.856 287.566 113.474 284.715 112.715Z" fill="white"/>
<path d="M279.334 85.6041V104.949C279.334 110.169 276.262 112.776 270.117 112.776V109.927C273.918 109.927 275.819 108.265 275.819 104.948V85.6041H279.334Z" fill="white"/>
<path d="M285.603 111.826V108.596C288.455 109.609 291.531 110.118 294.839 110.118C299.513 110.118 301.851 108.407 301.851 104.986C301.851 102.075 300.127 100.616 296.681 100.616H293.184C287.497 100.616 284.651 98.1461 284.651 93.2049C284.651 88.012 288.294 85.413 295.581 85.413C298.747 85.413 301.692 85.796 304.416 86.5551V89.7858C301.691 88.7711 298.747 88.2641 295.581 88.2641C290.64 88.2641 288.17 89.9117 288.17 93.2053C288.17 96.1175 289.839 97.5747 293.184 97.5747H296.681C302.468 97.5747 305.365 100.045 305.365 104.986C305.365 110.307 301.857 112.967 294.838 112.967C291.532 112.967 288.454 112.585 285.603 111.826Z" fill="white"/>
<path d="M253.135 127.281L251.845 123.357H250.927L252.708 128.316C252.667 128.424 252.599 128.588 252.507 128.81C252.414 129.032 252.359 129.154 252.345 129.178C252.297 129.25 252.238 129.311 252.167 129.36C252.096 129.41 251.987 129.434 251.838 129.434C251.79 129.434 251.734 129.429 251.671 129.421C251.608 129.412 251.506 129.388 251.366 129.349V130.087C251.456 130.111 251.532 130.126 251.593 130.136C251.654 130.145 251.742 130.149 251.856 130.149C252.324 130.149 252.653 130.014 252.844 129.745C253.036 129.475 253.365 128.726 253.833 127.498C254.031 126.976 254.276 126.301 254.571 125.473C254.963 124.372 255.217 123.667 255.33 123.358H254.435L253.135 127.281ZM248.343 127.612C247.759 127.612 247.361 127.347 247.147 126.816C247.033 126.535 246.976 126.167 246.976 125.714C246.976 125.088 247.115 124.638 247.394 124.365C247.672 124.093 247.996 123.956 248.366 123.956C248.79 123.956 249.111 124.123 249.33 124.455C249.548 124.788 249.657 125.208 249.657 125.714C249.657 126.284 249.549 126.743 249.33 127.091C249.111 127.438 248.782 127.612 248.343 127.612ZM246.233 128.174H246.98V127.559C247.151 127.79 247.312 127.958 247.463 128.062C247.716 128.239 248.026 128.328 248.393 128.328C249.049 128.328 249.562 128.076 249.933 127.572C250.303 127.068 250.488 126.436 250.488 125.674C250.488 124.871 250.301 124.263 249.926 123.85C249.551 123.438 249.063 123.232 248.461 123.232C248.172 123.232 247.904 123.293 247.657 123.414C247.41 123.536 247.199 123.712 247.021 123.943V121.546H246.233V128.174Z" fill="white"/>
<path d="M46.5715 117.425L73.3251 132.129L100.216 117.226L105.229 75.6495L73.2913 64.6791L41.5566 75.8472L46.5715 117.425Z" fill="#B3B3B3"/>
<path d="M73.2168 128.616L97.3917 115.236L102.064 78.0524L73.2168 68.2152V128.616Z" fill="white"/>
<path d="M73.2173 128.616V68.2141L45.1182 78.2297L49.4154 115.414L73.2173 128.616Z" fill="white"/>
<path d="M81.1571 100.369L73.2167 104.083H64.8475L60.9133 113.923L53.5957 114.058L73.2167 70.4086L81.1571 100.369ZM80.3896 98.5L73.2692 84.404L67.4288 98.2574H73.2163L80.3896 98.5Z" fill="#B3B3B3"/>
<path d="M79.8966 98.2682H73.2318L73.2168 104.074L82.4326 104.083L86.7398 114.06L93.7416 114.189L73.2168 70.4086L73.2694 84.404L79.8966 98.2682Z" fill="#B3B3B3"/>
<path d="M278.077 124.691C278.077 126.827 276.406 128.402 274.355 128.402C272.304 128.402 270.633 126.827 270.633 124.691C270.633 122.54 272.304 120.981 274.355 120.981C276.406 120.981 278.077 122.54 278.077 124.691ZM276.448 124.691C276.448 123.356 275.479 122.443 274.355 122.443C273.231 122.443 272.262 123.356 272.262 124.691C272.262 126.013 273.231 126.94 274.355 126.94C275.479 126.94 276.448 126.011 276.448 124.691Z" fill="white"/>
<path d="M286.108 124.691C286.108 126.827 284.436 128.402 282.385 128.402C280.334 128.402 278.663 126.827 278.663 124.691C278.663 122.541 280.334 120.981 282.385 120.981C284.436 120.981 286.108 122.54 286.108 124.691ZM284.478 124.691C284.478 123.356 283.51 122.443 282.385 122.443C281.261 122.443 280.293 123.356 280.293 124.691C280.293 126.013 281.261 126.94 282.385 126.94C283.51 126.94 284.478 126.011 284.478 124.691Z" fill="white"/>
<path d="M293.805 121.205V127.866C293.805 130.607 292.189 131.726 290.278 131.726C288.48 131.726 287.397 130.523 286.989 129.539L288.408 128.949C288.66 129.553 289.279 130.265 290.276 130.265C291.499 130.265 292.257 129.511 292.257 128.091V127.557H292.2C291.836 128.007 291.133 128.4 290.246 128.4C288.391 128.4 286.691 126.784 286.691 124.705C286.691 122.61 288.391 120.981 290.246 120.981C291.131 120.981 291.834 121.374 292.2 121.81H292.257V121.206H293.805V121.205ZM292.373 124.705C292.373 123.398 291.501 122.443 290.392 122.443C289.268 122.443 288.326 123.398 288.326 124.705C288.326 125.998 289.268 126.94 290.392 126.94C291.501 126.94 292.373 125.998 292.373 124.705Z" fill="white"/>
<path d="M296.354 117.3V128.174H294.765V117.3H296.354Z" fill="white"/>
<path d="M302.547 125.912L303.812 126.756C303.404 127.359 302.42 128.4 300.72 128.4C298.612 128.4 297.038 126.771 297.038 124.689C297.038 122.483 298.626 120.979 300.538 120.979C302.463 120.979 303.405 122.511 303.713 123.339L303.882 123.761L298.922 125.815C299.302 126.56 299.892 126.94 300.72 126.94C301.55 126.94 302.125 126.531 302.547 125.912ZM298.654 124.577L301.97 123.201C301.787 122.737 301.239 122.414 300.593 122.414C299.765 122.414 298.612 123.145 298.654 124.577Z" fill="white"/>
<path d="M264.618 123.726V122.152H269.923C269.975 122.426 270.001 122.751 270.001 123.102C270.001 124.283 269.678 125.743 268.638 126.784C267.626 127.838 266.333 128.4 264.62 128.4C261.444 128.4 258.774 125.814 258.774 122.638C258.774 119.463 261.444 116.877 264.62 116.877C266.376 116.877 267.627 117.566 268.568 118.465L267.457 119.575C266.783 118.943 265.869 118.451 264.618 118.451C262.299 118.451 260.486 120.32 260.486 122.638C260.486 124.957 262.299 126.826 264.618 126.826C266.122 126.826 266.978 126.222 267.527 125.673C267.972 125.228 268.265 124.592 268.38 123.724L264.618 123.726Z" fill="white"/>
</svg>
