<svg width="346" height="196" viewBox="0 0 346 196" fill="none" xmlns="http://www.w3.org/2000/svg">
<g clip-path="url(#clip0_8_951)">
<path d="M95.8211 53.6313C95.8211 55.464 94.7051 56.8198 92.7906 56.8198C91.1964 56.8198 90 55.464 90 53.6313C90 51.8762 91.2754 50.4414 92.9501 50.4414C94.7051 50.4414 95.8211 51.8762 95.8211 53.6313ZM91.408 149.468V76.1587H94.413V149.468H91.408ZM194.361 97.2351C194.361 134.195 173.844 150.997 151.385 150.997C128.442 150.997 109.863 132.823 109.863 98.7637C109.863 63.7917 129.089 45.0048 153 45.0048C176.427 45.0021 194.361 63.4822 194.361 97.2351ZM112.908 97.9988C112.908 126.023 126.49 147.793 151.527 147.793C176.737 147.793 191.197 125.353 191.197 97.6799C191.197 72.0176 179.611 48.5979 153.173 48.5979C126.735 48.5979 112.908 70.6484 112.908 97.9988ZM205.39 141.525C210.431 144.885 219.133 148.13 226.617 148.13C240.82 148.13 253.452 138.193 253.452 123.567C253.452 109.995 245.038 102.913 230.751 96.8292C217.965 91.3846 206.468 85.4751 206.468 70.9659C206.468 55.8472 218.38 45.1535 234.569 45.1535C243.275 45.1535 249.842 47.5972 252.896 49.7354L251.683 52.3719C249.086 50.5405 242.069 48.2068 234.435 48.2068C217.326 48.2068 209.873 61.135 209.873 70.6524C209.873 83.7977 220.063 88.1933 233.197 94.4552C248.469 101.938 256.562 108.536 256.562 122.893C256.562 138.319 245.567 150.84 226.018 150.84C217.922 150.84 208.607 148.092 204.025 144.578L205.39 141.525Z" fill="white"/>
</g>
<defs>
<clipPath id="clip0_8_951">
<rect width="166.562" height="106" fill="white" transform="translate(90 45)"/>
</clipPath>
</defs>
</svg>
