<svg width="346" height="196" viewBox="0 0 346 196" fill="none" xmlns="http://www.w3.org/2000/svg">
<g clip-path="url(#clip0_8_893)">
<path d="M207.044 65.1437C207.044 74.3548 199.577 81.8219 190.366 81.8219H173.255V48.4656H190.366C199.577 48.4656 207.044 55.9327 207.044 65.1437Z" stroke="white" stroke-width="7.49125"/>
<path d="M139.465 65.1437C139.465 74.3548 146.932 81.8219 156.143 81.8219H173.254V48.4656H156.143C146.932 48.4656 139.465 55.9327 139.465 65.1437Z" stroke="white" stroke-width="7.49125"/>
<path d="M139.465 98.5005C139.465 107.712 146.932 115.179 156.143 115.179H173.254V81.8224H156.143C146.932 81.8224 139.465 89.2894 139.465 98.5005Z" stroke="white" stroke-width="7.49125"/>
<path d="M139.465 131.856C139.465 141.067 147.039 148.534 156.251 148.534C165.581 148.534 173.254 140.97 173.254 131.64V115.178H156.143C146.932 115.178 139.465 122.645 139.465 131.856Z" stroke="white" stroke-width="7.49125"/>
<path d="M173.255 98.5005C173.255 107.712 180.722 115.179 189.933 115.179H190.366C199.577 115.179 207.044 107.712 207.044 98.5005C207.044 89.2894 199.577 81.8224 190.366 81.8224H189.933C180.722 81.8224 173.255 89.2894 173.255 98.5005Z" stroke="white" stroke-width="7.49125"/>
</g>
<defs>
<clipPath id="clip0_8_893">
<rect width="74.5101" height="107" fill="white" transform="translate(136 45)"/>
</clipPath>
</defs>
</svg>
