<svg width="346" height="196" viewBox="0 0 346 196" fill="none" xmlns="http://www.w3.org/2000/svg">
<g clip-path="url(#clip0_8_189)">
<path d="M292.693 71.3425C292.693 71.0672 292.472 70.7918 292.252 70.6819C291.701 70.4065 290.875 70.1863 289.222 70.1863C285.474 70.1863 282.113 72.058 280.68 75.1413V71.3425C280.68 71.0121 280.405 70.7367 280.074 70.7367H274.454C274.123 70.7367 273.847 71.0121 273.847 71.3425V96.9982C273.847 97.3284 274.123 97.6033 274.454 97.6033H280.35C280.68 97.6033 280.956 97.3284 280.956 96.9982V85.4364C280.956 80.2613 284.538 77.7289 289.222 77.7289C290.324 77.7289 291.425 77.9489 291.921 78.1691C292.307 78.2794 292.693 78.004 292.693 77.6187V71.3425ZM254.947 91.2724C250.924 91.2724 247.783 88.4094 247.783 84.1149C247.783 79.8208 250.924 76.9581 254.947 76.9581C258.969 76.9581 262.11 79.8208 262.11 84.1149C262.11 88.4645 259.024 91.2724 254.947 91.2724ZM254.947 70.0761C246.681 70.0761 240.51 75.7468 240.51 84.1703C240.51 92.5386 246.681 98.2644 254.947 98.2644C263.212 98.2644 269.384 92.594 269.384 84.1703C269.439 75.8017 263.268 70.0761 254.947 70.0761ZM222.16 91.2724C218.137 91.2724 214.996 88.4094 214.996 84.1149C214.996 79.8208 218.137 76.9581 222.16 76.9581C226.182 76.9581 229.323 79.8208 229.323 84.1149C229.268 88.4645 226.182 91.2724 222.16 91.2724ZM222.16 70.0761C213.894 70.0761 207.723 75.7468 207.723 84.1703C207.723 92.5386 213.894 98.2644 222.16 98.2644C230.425 98.2644 236.597 92.594 236.597 84.1703C236.597 75.8017 230.425 70.0761 222.16 70.0761ZM189.373 91.3824C185.35 91.3824 182.32 88.5199 182.32 84.1703C182.32 79.8208 185.35 76.9581 189.373 76.9581C193.34 76.9581 196.426 79.7107 196.426 84.1703C196.426 88.5746 193.34 91.3824 189.373 91.3824ZM202.708 60.0012H196.812C196.481 60.0012 196.206 60.2762 196.206 60.6069V74.5908C194.388 72.0032 191.356 70.0212 187.169 70.0212C180.611 70.0212 175.046 75.0861 175.046 84.1703C175.046 93.2544 180.611 98.2644 187.279 98.2644C191.191 98.2644 194.277 96.5576 196.206 93.8048V96.9429C196.206 97.2731 196.481 97.5486 196.812 97.5486H202.708C203.039 97.5486 203.314 97.2731 203.314 96.9429V60.5516C203.314 60.2762 203.039 60.0012 202.708 60.0012ZM171.133 89.4552C171.133 95.5662 166.67 98.209 159.506 98.209C154.547 98.209 150.304 96.8878 147.879 94.135C147.714 93.9148 147.714 93.5846 147.879 93.3641L151.296 88.9598C151.516 88.685 151.957 88.685 152.177 88.9048C153.996 90.722 156.751 91.8778 160.223 91.8778C162.207 91.8778 163.804 91.3271 163.804 89.8407C163.804 88.4094 162.372 88.0792 157.853 87.0879C153.886 86.2624 148.926 84.4458 148.926 78.6096C148.926 73.1593 153.225 70.0761 160.278 70.0761C164.907 70.0761 168.213 71.4527 170.582 73.6549C170.803 73.8748 170.803 74.2053 170.637 74.4806L167.386 78.6649C167.166 78.9402 166.78 78.9951 166.56 78.7747C164.961 77.3434 162.316 76.4625 159.727 76.4625C157.522 76.4625 156.31 77.1783 156.31 78.3342C156.31 79.6557 157.743 79.9859 162.537 81.0322C167.166 82.0781 171.133 83.8401 171.133 89.4552ZM143.857 89.4552C143.857 95.5662 139.393 98.209 132.23 98.209C127.27 98.209 123.028 96.8878 120.603 94.135C120.438 93.9148 120.438 93.5846 120.603 93.3641L124.019 88.9598C124.24 88.685 124.681 88.685 124.901 88.9048C126.72 90.722 129.475 91.8778 132.946 91.8778C134.93 91.8778 136.528 91.3271 136.528 89.8407C136.528 88.4094 135.095 88.0792 130.577 87.0879C126.609 86.2624 121.649 84.4458 121.649 78.6096C121.649 73.1593 125.948 70.0761 133.001 70.0761C137.63 70.0761 140.936 71.4527 143.306 73.6549C143.526 73.8748 143.526 74.2053 143.361 74.4806L140.11 78.6649C139.889 78.9402 139.504 78.9951 139.283 78.7747C137.685 77.3434 135.04 76.4625 132.45 76.4625C130.246 76.4625 129.034 77.1783 129.034 78.3342C129.034 79.6557 130.466 79.9859 135.261 81.0322C139.889 82.0781 143.857 83.8401 143.857 89.4552ZM108.48 86.7577C108.48 89.7307 106.055 92.263 102.308 92.263C99.8287 92.263 98.506 91.162 98.506 89.4005C98.506 87.9141 99.6634 86.7577 101.812 86.4275L108.48 85.6016V86.7577ZM103.796 70.1312C98.1755 70.1312 93.9325 72.0032 92.0037 75.7468C91.8936 76.0221 91.9486 76.3525 92.2241 76.5176L96.5225 79.6004C96.7978 79.8208 97.1838 79.7107 97.349 79.4355C98.5614 77.2883 101.206 76.5726 103.796 76.5726C106.992 76.5726 108.48 77.6736 108.48 79.2704V79.7107C108.48 80.3715 108.094 80.702 107.102 80.8117L99.7183 81.4726C94.759 81.9681 91.1221 84.9962 91.1221 89.8958C91.1221 94.8507 94.8693 98.2644 100.214 98.2644C104.402 98.2644 107.102 96.2274 108.48 94.0799V97.108C108.48 97.4382 108.756 97.7137 109.086 97.7137H114.982C115.313 97.7137 115.589 97.4382 115.589 97.108V81.087C115.589 73.5995 111.621 70.1312 103.796 70.1312ZM86.2728 60.6069V96.9982C86.2728 97.3284 85.9973 97.6033 85.6668 97.6033H79.7154C79.3849 97.6033 79.1096 97.3284 79.1096 96.9982V60.6069C79.1096 60.2762 79.3849 60.0012 79.7154 60.0012H85.6668C85.9973 60.0012 86.2728 60.2762 86.2728 60.6069ZM59.3269 91.3271C55.3046 91.3271 52.2735 88.4645 52.2735 84.1149C52.2735 79.766 55.3046 76.9032 59.3269 76.9032C63.3497 76.9032 66.3254 79.6557 66.3254 84.1149C66.3254 88.5199 63.3497 91.3271 59.3269 91.3271ZM72.6621 70.7367H66.7661C66.4354 70.7367 66.1599 71.0121 66.1599 71.3425V74.4806C64.6724 72.058 61.531 70.0761 57.3984 70.0761C50.7309 70.0761 45 75.0861 45 84.0603C45 92.9788 50.4553 97.8788 57.619 97.8788C61.4761 97.8788 64.5067 96.2824 66.2702 93.7497V95.4565C66.2702 99.3101 64.3966 102.394 58.3901 102.394C55.3595 102.394 52.935 101.403 50.7858 99.4752C50.5103 99.2555 50.0694 99.3101 49.9042 99.5857L47.259 104.045C46.9285 104.596 46.9837 104.926 47.2041 105.146C49.9594 107.514 53.5413 109 58.721 109C70.0174 109 73.3235 102.724 73.3235 95.7867V71.2874C73.2686 70.9572 72.993 70.7367 72.6621 70.7367Z" fill="white"/>
<path d="M297.497 69.178H297.838C297.945 69.178 298.037 69.1677 298.111 69.1472C298.187 69.1267 298.247 69.0969 298.294 69.0577C298.339 69.0185 298.373 68.9709 298.393 68.9142C298.414 68.8577 298.425 68.7921 298.425 68.7179C298.425 68.6457 298.415 68.5822 298.397 68.5275C298.377 68.4729 298.348 68.4278 298.305 68.3925C298.263 68.3576 298.208 68.331 298.139 68.3135C298.071 68.2957 297.986 68.287 297.885 68.287H297.497V69.178ZM297.497 69.512V70.5493H297.039V67.9357H297.885C298.22 67.9357 298.47 67.9965 298.632 68.1188C298.795 68.2408 298.876 68.4207 298.876 68.6592C298.876 68.8431 298.823 68.9992 298.719 69.1281C298.614 69.257 298.458 69.3462 298.251 69.3949C298.284 69.4145 298.313 69.4387 298.338 69.4683C298.362 69.4977 298.385 69.5314 298.407 69.5708L299.076 70.5493H298.642C298.576 70.5493 298.529 70.5249 298.498 70.4762L297.908 69.5913C297.89 69.566 297.869 69.5462 297.845 69.5328C297.82 69.5191 297.783 69.512 297.731 69.512H297.497ZM296.071 69.2483C296.071 69.4221 296.093 69.5894 296.137 69.7493C296.179 69.9096 296.241 70.06 296.321 70.1993C296.402 70.3389 296.497 70.4655 296.608 70.5787C296.721 70.6921 296.844 70.7893 296.981 70.8702C297.118 70.9515 297.266 71.0141 297.424 71.0579C297.582 71.1018 297.747 71.1239 297.919 71.1239C298.178 71.1239 298.42 71.0749 298.646 70.9772C298.871 70.8795 299.068 70.7461 299.235 70.5774C299.403 70.4081 299.534 70.2103 299.631 69.9825C299.728 69.7548 299.776 69.5102 299.776 69.2483C299.776 69.0745 299.754 68.9065 299.71 68.7441C299.666 68.5822 299.604 68.4312 299.524 68.2916C299.444 68.1518 299.347 68.0245 299.235 67.9093C299.122 67.794 298.998 67.6957 298.861 67.6146C298.724 67.5338 298.576 67.4707 298.416 67.4256C298.257 67.3809 298.091 67.3582 297.919 67.3582C297.662 67.3582 297.42 67.4074 297.195 67.5062C296.97 67.605 296.774 67.7398 296.608 67.9106C296.442 68.0817 296.311 68.2818 296.215 68.5116C296.119 68.741 296.071 68.9866 296.071 69.2483ZM295.778 69.2483C295.778 69.0509 295.804 68.8607 295.854 68.6783C295.906 68.4957 295.977 68.3249 296.07 68.1654C296.164 68.0063 296.276 67.8619 296.406 67.7319C296.537 67.602 296.682 67.4902 296.84 67.3962C296.999 67.3026 297.169 67.2304 297.35 67.1796C297.532 67.1286 297.722 67.1033 297.919 67.1033C298.117 67.1033 298.307 67.1286 298.49 67.1796C298.673 67.2304 298.844 67.3026 299.002 67.3962C299.16 67.4902 299.305 67.602 299.436 67.7319C299.567 67.8619 299.679 68.0063 299.772 68.1654C299.865 68.3249 299.936 68.4957 299.987 68.6783C300.039 68.8607 300.064 69.0509 300.064 69.2483C300.064 69.4437 300.039 69.6325 299.987 69.8156C299.936 69.998 299.865 70.1686 299.772 70.3269C299.679 70.4849 299.567 70.6292 299.436 70.7591C299.305 70.8891 299.16 71.0009 299.002 71.0943C298.844 71.1881 298.673 71.2607 298.49 71.3113C298.307 71.3621 298.117 71.3874 297.919 71.3874C297.722 71.3874 297.532 71.3621 297.35 71.3113C297.169 71.2607 296.999 71.1881 296.84 71.0943C296.682 71.0009 296.537 70.8891 296.406 70.7591C296.276 70.6292 296.164 70.4849 296.07 70.3269C295.977 70.1686 295.906 69.9987 295.854 69.8167C295.804 69.6352 295.778 69.4457 295.778 69.2483Z" fill="white"/>
</g>
<path d="M103.968 136.487C104.02 135.969 104.082 135.451 104.148 134.934C104.23 134.303 104.316 133.673 104.399 133.042C104.421 132.877 104.453 132.712 104.457 132.546C104.458 132.478 104.407 132.398 104.358 132.343C104.187 132.15 104.008 131.964 103.83 131.776C103.402 131.325 102.972 130.876 102.545 130.424C102.285 130.148 102.029 129.869 101.772 129.591C101.748 129.565 101.727 129.536 101.685 129.483C101.855 129.446 102.003 129.41 102.153 129.381C102.679 129.28 103.206 129.18 103.733 129.081C104.326 128.968 104.919 128.856 105.512 128.745C105.626 128.724 105.706 128.675 105.766 128.565C106.202 127.761 106.647 126.961 107.088 126.16C107.26 125.849 107.431 125.537 107.604 125.226C107.616 125.205 107.634 125.187 107.662 125.152C107.814 125.422 107.963 125.679 108.106 125.939C108.595 126.828 109.08 127.719 109.574 128.604C109.61 128.669 109.705 128.724 109.782 128.739C110.598 128.903 111.416 129.06 112.234 129.215C112.648 129.294 113.063 129.367 113.478 129.444C113.518 129.452 113.555 129.471 113.605 129.488C113.588 129.517 113.58 129.542 113.563 129.559C113.176 129.969 112.787 130.377 112.4 130.788C111.916 131.302 111.44 131.824 110.948 132.331C110.796 132.488 110.867 132.654 110.882 132.814C110.92 133.213 110.98 133.611 111.032 134.009C111.083 134.391 111.138 134.773 111.186 135.156C111.233 135.534 111.273 135.913 111.318 136.292C111.325 136.348 111.338 136.404 111.349 136.473C111.325 136.487 111.301 136.487 111.261 136.477C110.729 136.225 110.215 135.983 109.7 135.741C109.043 135.433 108.386 135.124 107.728 134.819C107.688 134.8 107.625 134.796 107.586 134.814C107.144 135.015 106.705 135.223 106.266 135.428C105.788 135.652 105.31 135.874 104.833 136.1C104.571 136.225 104.312 136.358 104.052 136.487C104.028 136.487 104.004 136.487 103.968 136.487Z" fill="white"/>
<path d="M122.993 136.487C123.045 135.969 123.107 135.451 123.173 134.934C123.255 134.303 123.341 133.673 123.424 133.042C123.446 132.877 123.478 132.712 123.481 132.546C123.483 132.478 123.432 132.398 123.383 132.343C123.212 132.15 123.033 131.964 122.855 131.776C122.427 131.325 121.997 130.876 121.57 130.424C121.31 130.148 121.054 129.869 120.797 129.591C120.773 129.565 120.752 129.536 120.71 129.483C120.88 129.446 121.028 129.41 121.178 129.381C121.704 129.28 122.231 129.18 122.758 129.081C123.351 128.968 123.944 128.856 124.537 128.745C124.651 128.724 124.731 128.675 124.791 128.565C125.227 127.761 125.671 126.961 126.113 126.16C126.285 125.849 126.456 125.537 126.628 125.227C126.64 125.205 126.659 125.187 126.686 125.152C126.839 125.422 126.988 125.679 127.131 125.939C127.62 126.828 128.104 127.719 128.599 128.604C128.635 128.669 128.73 128.724 128.807 128.739C129.623 128.903 130.441 129.06 131.259 129.215C131.673 129.294 132.088 129.367 132.503 129.444C132.543 129.452 132.58 129.471 132.629 129.488C132.613 129.517 132.605 129.542 132.588 129.559C132.201 129.969 131.812 130.377 131.425 130.788C130.941 131.302 130.465 131.824 129.973 132.331C129.821 132.488 129.892 132.654 129.907 132.814C129.945 133.213 130.005 133.611 130.057 134.009C130.108 134.391 130.163 134.773 130.211 135.156C130.258 135.534 130.298 135.913 130.343 136.292C130.35 136.348 130.363 136.404 130.374 136.473C130.35 136.487 130.326 136.487 130.286 136.477C129.754 136.225 129.239 135.983 128.724 135.741C128.068 135.433 127.411 135.124 126.753 134.819C126.712 134.8 126.65 134.796 126.611 134.814C126.169 135.015 125.73 135.223 125.291 135.428C124.813 135.652 124.335 135.874 123.858 136.1C123.596 136.225 123.337 136.358 123.077 136.487C123.053 136.487 123.029 136.487 122.993 136.487Z" fill="white"/>
<path d="M142.018 136.487C142.07 135.969 142.131 135.451 142.198 134.934C142.279 134.303 142.365 133.673 142.449 133.042C142.471 132.877 142.503 132.712 142.506 132.546C142.507 132.478 142.456 132.398 142.407 132.343C142.237 132.15 142.057 131.964 141.88 131.776C141.452 131.325 141.021 130.876 140.594 130.424C140.334 130.148 140.079 129.869 139.821 129.591C139.797 129.565 139.777 129.536 139.734 129.483C139.904 129.446 140.053 129.41 140.202 129.381C140.729 129.28 141.256 129.18 141.782 129.081C142.375 128.968 142.968 128.856 143.562 128.745C143.675 128.724 143.755 128.675 143.815 128.565C144.252 127.761 144.696 126.961 145.138 126.16C145.309 125.849 145.481 125.537 145.653 125.227C145.665 125.205 145.683 125.187 145.711 125.152C145.863 125.422 146.012 125.679 146.155 125.939C146.644 126.828 147.129 127.719 147.623 128.604C147.659 128.669 147.755 128.724 147.831 128.739C148.648 128.903 149.465 129.06 150.283 129.215C150.697 129.294 151.113 129.367 151.527 129.444C151.567 129.452 151.605 129.471 151.654 129.488C151.637 129.517 151.629 129.542 151.613 129.559C151.225 129.969 150.836 130.377 150.45 130.788C149.966 131.302 149.489 131.824 148.998 132.331C148.845 132.488 148.916 132.654 148.931 132.814C148.969 133.213 149.029 133.611 149.081 134.009C149.132 134.391 149.187 134.773 149.235 135.156C149.282 135.534 149.323 135.913 149.367 136.292C149.374 136.348 149.388 136.404 149.398 136.473C149.375 136.487 149.351 136.487 149.31 136.477C148.779 136.225 148.264 135.983 147.749 135.741C147.092 135.433 146.435 135.124 145.777 134.819C145.737 134.8 145.674 134.796 145.635 134.814C145.194 135.015 144.755 135.223 144.315 135.428C143.837 135.652 143.359 135.874 142.883 136.1C142.62 136.225 142.362 136.358 142.101 136.487C142.077 136.487 142.053 136.487 142.018 136.487Z" fill="white"/>
<path d="M161.043 136.487C161.095 135.969 161.156 135.451 161.223 134.934C161.304 134.303 161.39 133.673 161.474 133.042C161.495 132.877 161.528 132.712 161.531 132.546C161.532 132.478 161.481 132.398 161.432 132.343C161.262 132.15 161.082 131.964 160.905 131.776C160.477 131.325 160.046 130.876 159.619 130.424C159.359 130.148 159.104 129.869 158.846 129.591C158.822 129.565 158.801 129.536 158.759 129.483C158.929 129.446 159.078 129.41 159.227 129.381C159.754 129.28 160.28 129.18 160.807 129.081C161.4 128.968 161.993 128.856 162.587 128.745C162.7 128.724 162.78 128.675 162.84 128.565C163.276 127.761 163.721 126.961 164.163 126.16C164.334 125.849 164.505 125.537 164.678 125.227C164.69 125.205 164.708 125.187 164.736 125.152C164.888 125.422 165.037 125.679 165.18 125.939C165.669 126.828 166.154 127.719 166.648 128.604C166.684 128.669 166.78 128.724 166.856 128.739C167.672 128.903 168.49 129.06 169.308 129.215C169.722 129.294 170.137 129.367 170.552 129.444C170.592 129.452 170.629 129.471 170.679 129.488C170.662 129.517 170.654 129.542 170.638 129.559C170.25 129.969 169.861 130.377 169.474 130.788C168.991 131.302 168.514 131.824 168.023 132.331C167.87 132.488 167.941 132.654 167.956 132.814C167.994 133.213 168.054 133.611 168.106 134.009C168.157 134.391 168.212 134.773 168.26 135.156C168.307 135.534 168.348 135.913 168.392 136.292C168.399 136.348 168.413 136.404 168.423 136.473C168.4 136.487 168.376 136.487 168.335 136.476C168.217 136.426 168.114 136.392 168.016 136.345C167.607 136.149 167.2 135.947 166.79 135.752C166.13 135.439 165.467 135.129 164.804 134.82C164.764 134.802 164.701 134.795 164.662 134.813C164.22 135.014 163.781 135.222 163.341 135.428C162.863 135.651 162.385 135.873 161.908 136.1C161.645 136.225 161.387 136.357 161.126 136.487C161.102 136.487 161.078 136.487 161.043 136.487Z" fill="white"/>
<path d="M180.068 136.487C180.119 135.969 180.181 135.451 180.247 134.934C180.329 134.303 180.415 133.673 180.498 133.042C180.52 132.877 180.553 132.712 180.556 132.546C180.557 132.478 180.506 132.398 180.457 132.343C180.286 132.15 180.107 131.964 179.929 131.776C179.501 131.325 179.071 130.876 178.644 130.424C178.384 130.148 178.128 129.869 177.871 129.591C177.847 129.565 177.826 129.536 177.784 129.483C177.954 129.446 178.103 129.41 178.252 129.381C178.779 129.28 179.305 129.18 179.832 129.081C180.425 128.968 181.018 128.856 181.611 128.745C181.725 128.724 181.805 128.675 181.865 128.565C182.301 127.761 182.746 126.961 183.187 126.16C183.359 125.849 183.53 125.537 183.703 125.227C183.715 125.205 183.733 125.187 183.761 125.152C183.913 125.422 184.062 125.679 184.205 125.939C184.694 126.828 185.179 127.719 185.673 128.604C185.709 128.669 185.805 128.724 185.881 128.739C186.697 128.903 187.515 129.06 188.333 129.215C188.747 129.294 189.162 129.367 189.577 129.444C189.617 129.452 189.654 129.471 189.704 129.488C189.687 129.517 189.679 129.542 189.662 129.559C189.275 129.969 188.886 130.377 188.499 130.788C188.015 131.302 187.539 131.824 187.048 132.331C186.895 132.488 186.966 132.654 186.981 132.814C187.019 133.213 187.079 133.611 187.131 134.009C187.181 134.386 187.232 134.763 187.281 135.141C187.317 135.431 187.349 135.722 187.385 136.012C187.404 136.161 187.427 136.311 187.448 136.473C187.424 136.487 187.401 136.487 187.36 136.476C187.242 136.426 187.139 136.392 187.041 136.345C186.631 136.149 186.225 135.947 185.815 135.752C185.154 135.439 184.492 135.129 183.829 134.82C183.788 134.801 183.726 134.795 183.687 134.813C183.245 135.014 182.806 135.222 182.366 135.427C181.888 135.651 181.41 135.873 180.933 136.1C180.67 136.225 180.411 136.357 180.151 136.487C180.127 136.487 180.103 136.487 180.068 136.487Z" fill="white"/>
<mask id="path-8-outside-1_8_189" maskUnits="userSpaceOnUse" x="78.3633" y="108" width="44" height="10" fill="black">
<rect fill="white" x="78.3633" y="108" width="44" height="10"/>
<path d="M79.3633 109.115H82.0731C82.6498 109.115 83.1501 109.208 83.574 109.395C83.998 109.582 84.3245 109.859 84.5537 110.226C84.7866 110.589 84.9031 111.036 84.9031 111.567C84.9031 111.96 84.8191 112.317 84.6511 112.638C84.4868 112.959 84.2596 113.228 83.9693 113.446C83.6791 113.66 83.343 113.807 82.961 113.887L82.7147 113.978H79.8216L79.8101 113.377H82.2335C82.6689 113.377 83.0317 113.293 83.322 113.125C83.6122 112.957 83.8299 112.735 83.975 112.46C84.124 112.181 84.1985 111.884 84.1985 111.567C84.1985 111.188 84.1164 110.862 83.9521 110.587C83.7917 110.308 83.553 110.094 83.236 109.945C82.919 109.796 82.5314 109.722 82.0731 109.722H80.0679V117.456H79.3633V109.115ZM84.5136 117.456L82.3538 113.726L83.11 113.721L85.2641 117.381V117.456H84.5136Z"/>
<path d="M89.2734 117.57C88.8686 117.57 88.4962 117.496 88.1563 117.347C87.8202 117.198 87.5261 116.988 87.274 116.717C87.0258 116.446 86.8329 116.125 86.6954 115.754C86.5617 115.38 86.4949 114.971 86.4949 114.528V114.282C86.4949 113.805 86.5655 113.373 86.7069 112.987C86.8482 112.602 87.0429 112.271 87.2912 111.996C87.5395 111.721 87.8221 111.511 88.1391 111.366C88.4599 111.217 88.796 111.143 89.1474 111.143C89.5407 111.143 89.8902 111.213 90.1958 111.355C90.5013 111.492 90.7572 111.689 90.9634 111.945C91.1735 112.197 91.332 112.497 91.4389 112.844C91.5459 113.188 91.5993 113.568 91.5993 113.984V114.402H86.9074V113.818H90.9176V113.738C90.91 113.39 90.8393 113.066 90.7056 112.764C90.5758 112.458 90.381 112.21 90.1213 112.019C89.8616 111.828 89.5369 111.733 89.1474 111.733C88.8571 111.733 88.5898 111.794 88.3453 111.916C88.1047 112.038 87.8966 112.214 87.7209 112.443C87.549 112.668 87.4153 112.938 87.3198 113.251C87.2282 113.56 87.1824 113.904 87.1824 114.282V114.528C87.1824 114.872 87.232 115.193 87.3313 115.491C87.4344 115.785 87.5796 116.045 87.7667 116.27C87.9577 116.495 88.183 116.671 88.4427 116.797C88.7024 116.923 88.9889 116.986 89.302 116.986C89.6687 116.986 89.9933 116.919 90.276 116.786C90.5586 116.648 90.8126 116.432 91.0379 116.138L91.4676 116.47C91.3339 116.669 91.1658 116.852 90.9634 117.02C90.7648 117.189 90.5261 117.322 90.2473 117.421C89.9685 117.521 89.6439 117.57 89.2734 117.57Z"/>
<path d="M94.8983 116.797L96.8862 111.257H97.5909L95.2707 117.456H94.7723L94.8983 116.797ZM93.0994 111.257L95.1103 116.814L95.2191 117.456H94.715L92.389 111.257H93.0994Z"/>
<path d="M99.6811 111.257V117.456H98.9993V111.257H99.6811ZM98.879 109.464C98.879 109.334 98.9191 109.225 98.9993 109.137C99.0833 109.046 99.1979 109 99.343 109C99.4882 109 99.6028 109.046 99.6868 109.137C99.7746 109.225 99.8185 109.334 99.8185 109.464C99.8185 109.59 99.7746 109.699 99.6868 109.791C99.6028 109.878 99.4882 109.922 99.343 109.922C99.1979 109.922 99.0833 109.878 98.9993 109.791C98.9191 109.699 98.879 109.59 98.879 109.464Z"/>
<path d="M104.149 117.57C103.744 117.57 103.371 117.496 103.032 117.347C102.695 117.198 102.401 116.988 102.149 116.717C101.901 116.446 101.708 116.125 101.571 115.754C101.437 115.38 101.37 114.971 101.37 114.528V114.282C101.37 113.805 101.441 113.373 101.582 112.987C101.723 112.602 101.918 112.271 102.167 111.996C102.415 111.721 102.697 111.511 103.014 111.366C103.335 111.217 103.671 111.143 104.023 111.143C104.416 111.143 104.766 111.213 105.071 111.355C105.377 111.492 105.632 111.689 105.839 111.945C106.049 112.197 106.207 112.497 106.314 112.844C106.421 113.188 106.475 113.568 106.475 113.984V114.402H101.783V113.818H105.793V113.738C105.785 113.39 105.715 113.066 105.581 112.764C105.451 112.458 105.256 112.21 104.997 112.019C104.737 111.828 104.412 111.733 104.023 111.733C103.732 111.733 103.465 111.794 103.221 111.916C102.98 112.038 102.772 112.214 102.596 112.443C102.424 112.668 102.291 112.938 102.195 113.251C102.103 113.56 102.058 113.904 102.058 114.282V114.528C102.058 114.872 102.107 115.193 102.207 115.491C102.31 115.785 102.455 116.045 102.642 116.27C102.833 116.495 103.058 116.671 103.318 116.797C103.578 116.923 103.864 116.986 104.177 116.986C104.544 116.986 104.869 116.919 105.151 116.786C105.434 116.648 105.688 116.432 105.913 116.138L106.343 116.47C106.209 116.669 106.041 116.852 105.839 117.02C105.64 117.189 105.401 117.322 105.123 117.421C104.844 117.521 104.519 117.57 104.149 117.57Z"/>
<path d="M109.745 116.006L111.24 111.257H111.721L111.435 112.535L109.871 117.456H109.39L109.745 116.006ZM108.192 111.257L109.504 116.035L109.785 117.456H109.287L107.488 111.257H108.192ZM113.583 116.018L114.861 111.257H115.566L113.767 117.456H113.274L113.583 116.018ZM111.819 111.257L113.291 115.966L113.664 117.456H113.182L111.584 112.529L111.315 111.257H111.819Z"/>
<path d="M120.795 115.875C120.795 115.707 120.753 115.54 120.669 115.376C120.585 115.212 120.423 115.061 120.182 114.924C119.945 114.786 119.596 114.67 119.134 114.574C118.79 114.498 118.483 114.412 118.211 114.316C117.944 114.221 117.719 114.106 117.535 113.973C117.352 113.839 117.213 113.679 117.117 113.491C117.022 113.304 116.974 113.083 116.974 112.827C116.974 112.598 117.024 112.382 117.123 112.18C117.226 111.973 117.371 111.794 117.558 111.641C117.749 111.484 117.978 111.362 118.246 111.274C118.517 111.187 118.821 111.143 119.157 111.143C119.634 111.143 120.043 111.225 120.383 111.389C120.726 111.549 120.988 111.769 121.168 112.048C121.351 112.327 121.443 112.642 121.443 112.993H120.761C120.761 112.779 120.698 112.577 120.572 112.386C120.449 112.195 120.268 112.038 120.027 111.916C119.791 111.794 119.5 111.733 119.157 111.733C118.801 111.733 118.513 111.786 118.292 111.893C118.07 112 117.908 112.136 117.805 112.3C117.705 112.464 117.656 112.634 117.656 112.81C117.656 112.947 117.677 113.073 117.719 113.188C117.765 113.299 117.845 113.402 117.959 113.497C118.078 113.593 118.246 113.682 118.463 113.766C118.681 113.85 118.964 113.933 119.311 114.013C119.812 114.124 120.22 114.259 120.537 114.42C120.858 114.576 121.095 114.771 121.248 115.004C121.4 115.233 121.477 115.512 121.477 115.84C121.477 116.096 121.423 116.331 121.316 116.545C121.21 116.755 121.055 116.936 120.852 117.089C120.654 117.242 120.413 117.36 120.131 117.444C119.852 117.528 119.539 117.57 119.191 117.57C118.668 117.57 118.225 117.485 117.862 117.313C117.503 117.137 117.23 116.908 117.043 116.625C116.859 116.339 116.768 116.035 116.768 115.714H117.449C117.472 116.035 117.574 116.289 117.753 116.476C117.933 116.66 118.152 116.789 118.412 116.866C118.675 116.942 118.935 116.98 119.191 116.98C119.542 116.98 119.837 116.929 120.073 116.826C120.31 116.723 120.49 116.587 120.612 116.419C120.734 116.251 120.795 116.069 120.795 115.875Z"/>
</mask>
<path d="M79.3633 109.115H82.0731C82.6498 109.115 83.1501 109.208 83.574 109.395C83.998 109.582 84.3245 109.859 84.5537 110.226C84.7866 110.589 84.9031 111.036 84.9031 111.567C84.9031 111.96 84.8191 112.317 84.6511 112.638C84.4868 112.959 84.2596 113.228 83.9693 113.446C83.6791 113.66 83.343 113.807 82.961 113.887L82.7147 113.978H79.8216L79.8101 113.377H82.2335C82.6689 113.377 83.0317 113.293 83.322 113.125C83.6122 112.957 83.8299 112.735 83.975 112.46C84.124 112.181 84.1985 111.884 84.1985 111.567C84.1985 111.188 84.1164 110.862 83.9521 110.587C83.7917 110.308 83.553 110.094 83.236 109.945C82.919 109.796 82.5314 109.722 82.0731 109.722H80.0679V117.456H79.3633V109.115ZM84.5136 117.456L82.3538 113.726L83.11 113.721L85.2641 117.381V117.456H84.5136Z" fill="white"/>
<path d="M89.2734 117.57C88.8686 117.57 88.4962 117.496 88.1563 117.347C87.8202 117.198 87.5261 116.988 87.274 116.717C87.0258 116.446 86.8329 116.125 86.6954 115.754C86.5617 115.38 86.4949 114.971 86.4949 114.528V114.282C86.4949 113.805 86.5655 113.373 86.7069 112.987C86.8482 112.602 87.0429 112.271 87.2912 111.996C87.5395 111.721 87.8221 111.511 88.1391 111.366C88.4599 111.217 88.796 111.143 89.1474 111.143C89.5407 111.143 89.8902 111.213 90.1958 111.355C90.5013 111.492 90.7572 111.689 90.9634 111.945C91.1735 112.197 91.332 112.497 91.4389 112.844C91.5459 113.188 91.5993 113.568 91.5993 113.984V114.402H86.9074V113.818H90.9176V113.738C90.91 113.39 90.8393 113.066 90.7056 112.764C90.5758 112.458 90.381 112.21 90.1213 112.019C89.8616 111.828 89.5369 111.733 89.1474 111.733C88.8571 111.733 88.5898 111.794 88.3453 111.916C88.1047 112.038 87.8966 112.214 87.7209 112.443C87.549 112.668 87.4153 112.938 87.3198 113.251C87.2282 113.56 87.1824 113.904 87.1824 114.282V114.528C87.1824 114.872 87.232 115.193 87.3313 115.491C87.4344 115.785 87.5796 116.045 87.7667 116.27C87.9577 116.495 88.183 116.671 88.4427 116.797C88.7024 116.923 88.9889 116.986 89.302 116.986C89.6687 116.986 89.9933 116.919 90.276 116.786C90.5586 116.648 90.8126 116.432 91.0379 116.138L91.4676 116.47C91.3339 116.669 91.1658 116.852 90.9634 117.02C90.7648 117.189 90.5261 117.322 90.2473 117.421C89.9685 117.521 89.6439 117.57 89.2734 117.57Z" fill="white"/>
<path d="M94.8983 116.797L96.8862 111.257H97.5909L95.2707 117.456H94.7723L94.8983 116.797ZM93.0994 111.257L95.1103 116.814L95.2191 117.456H94.715L92.389 111.257H93.0994Z" fill="white"/>
<path d="M99.6811 111.257V117.456H98.9993V111.257H99.6811ZM98.879 109.464C98.879 109.334 98.9191 109.225 98.9993 109.137C99.0833 109.046 99.1979 109 99.343 109C99.4882 109 99.6028 109.046 99.6868 109.137C99.7746 109.225 99.8185 109.334 99.8185 109.464C99.8185 109.59 99.7746 109.699 99.6868 109.791C99.6028 109.878 99.4882 109.922 99.343 109.922C99.1979 109.922 99.0833 109.878 98.9993 109.791C98.9191 109.699 98.879 109.59 98.879 109.464Z" fill="white"/>
<path d="M104.149 117.57C103.744 117.57 103.371 117.496 103.032 117.347C102.695 117.198 102.401 116.988 102.149 116.717C101.901 116.446 101.708 116.125 101.571 115.754C101.437 115.38 101.37 114.971 101.37 114.528V114.282C101.37 113.805 101.441 113.373 101.582 112.987C101.723 112.602 101.918 112.271 102.167 111.996C102.415 111.721 102.697 111.511 103.014 111.366C103.335 111.217 103.671 111.143 104.023 111.143C104.416 111.143 104.766 111.213 105.071 111.355C105.377 111.492 105.632 111.689 105.839 111.945C106.049 112.197 106.207 112.497 106.314 112.844C106.421 113.188 106.475 113.568 106.475 113.984V114.402H101.783V113.818H105.793V113.738C105.785 113.39 105.715 113.066 105.581 112.764C105.451 112.458 105.256 112.21 104.997 112.019C104.737 111.828 104.412 111.733 104.023 111.733C103.732 111.733 103.465 111.794 103.221 111.916C102.98 112.038 102.772 112.214 102.596 112.443C102.424 112.668 102.291 112.938 102.195 113.251C102.103 113.56 102.058 113.904 102.058 114.282V114.528C102.058 114.872 102.107 115.193 102.207 115.491C102.31 115.785 102.455 116.045 102.642 116.27C102.833 116.495 103.058 116.671 103.318 116.797C103.578 116.923 103.864 116.986 104.177 116.986C104.544 116.986 104.869 116.919 105.151 116.786C105.434 116.648 105.688 116.432 105.913 116.138L106.343 116.47C106.209 116.669 106.041 116.852 105.839 117.02C105.64 117.189 105.401 117.322 105.123 117.421C104.844 117.521 104.519 117.57 104.149 117.57Z" fill="white"/>
<path d="M109.745 116.006L111.24 111.257H111.721L111.435 112.535L109.871 117.456H109.39L109.745 116.006ZM108.192 111.257L109.504 116.035L109.785 117.456H109.287L107.488 111.257H108.192ZM113.583 116.018L114.861 111.257H115.566L113.767 117.456H113.274L113.583 116.018ZM111.819 111.257L113.291 115.966L113.664 117.456H113.182L111.584 112.529L111.315 111.257H111.819Z" fill="white"/>
<path d="M120.795 115.875C120.795 115.707 120.753 115.54 120.669 115.376C120.585 115.212 120.423 115.061 120.182 114.924C119.945 114.786 119.596 114.67 119.134 114.574C118.79 114.498 118.483 114.412 118.211 114.316C117.944 114.221 117.719 114.106 117.535 113.973C117.352 113.839 117.213 113.679 117.117 113.491C117.022 113.304 116.974 113.083 116.974 112.827C116.974 112.598 117.024 112.382 117.123 112.18C117.226 111.973 117.371 111.794 117.558 111.641C117.749 111.484 117.978 111.362 118.246 111.274C118.517 111.187 118.821 111.143 119.157 111.143C119.634 111.143 120.043 111.225 120.383 111.389C120.726 111.549 120.988 111.769 121.168 112.048C121.351 112.327 121.443 112.642 121.443 112.993H120.761C120.761 112.779 120.698 112.577 120.572 112.386C120.449 112.195 120.268 112.038 120.027 111.916C119.791 111.794 119.5 111.733 119.157 111.733C118.801 111.733 118.513 111.786 118.292 111.893C118.07 112 117.908 112.136 117.805 112.3C117.705 112.464 117.656 112.634 117.656 112.81C117.656 112.947 117.677 113.073 117.719 113.188C117.765 113.299 117.845 113.402 117.959 113.497C118.078 113.593 118.246 113.682 118.463 113.766C118.681 113.85 118.964 113.933 119.311 114.013C119.812 114.124 120.22 114.259 120.537 114.42C120.858 114.576 121.095 114.771 121.248 115.004C121.4 115.233 121.477 115.512 121.477 115.84C121.477 116.096 121.423 116.331 121.316 116.545C121.21 116.755 121.055 116.936 120.852 117.089C120.654 117.242 120.413 117.36 120.131 117.444C119.852 117.528 119.539 117.57 119.191 117.57C118.668 117.57 118.225 117.485 117.862 117.313C117.503 117.137 117.23 116.908 117.043 116.625C116.859 116.339 116.768 116.035 116.768 115.714H117.449C117.472 116.035 117.574 116.289 117.753 116.476C117.933 116.66 118.152 116.789 118.412 116.866C118.675 116.942 118.935 116.98 119.191 116.98C119.542 116.98 119.837 116.929 120.073 116.826C120.31 116.723 120.49 116.587 120.612 116.419C120.734 116.251 120.795 116.069 120.795 115.875Z" fill="white"/>
<path d="M79.3633 109.115H82.0731C82.6498 109.115 83.1501 109.208 83.574 109.395C83.998 109.582 84.3245 109.859 84.5537 110.226C84.7866 110.589 84.9031 111.036 84.9031 111.567C84.9031 111.96 84.8191 112.317 84.6511 112.638C84.4868 112.959 84.2596 113.228 83.9693 113.446C83.6791 113.66 83.343 113.807 82.961 113.887L82.7147 113.978H79.8216L79.8101 113.377H82.2335C82.6689 113.377 83.0317 113.293 83.322 113.125C83.6122 112.957 83.8299 112.735 83.975 112.46C84.124 112.181 84.1985 111.884 84.1985 111.567C84.1985 111.188 84.1164 110.862 83.9521 110.587C83.7917 110.308 83.553 110.094 83.236 109.945C82.919 109.796 82.5314 109.722 82.0731 109.722H80.0679V117.456H79.3633V109.115ZM84.5136 117.456L82.3538 113.726L83.11 113.721L85.2641 117.381V117.456H84.5136Z" stroke="white" stroke-width="0.362963" mask="url(#path-8-outside-1_8_189)"/>
<path d="M89.2734 117.57C88.8686 117.57 88.4962 117.496 88.1563 117.347C87.8202 117.198 87.5261 116.988 87.274 116.717C87.0258 116.446 86.8329 116.125 86.6954 115.754C86.5617 115.38 86.4949 114.971 86.4949 114.528V114.282C86.4949 113.805 86.5655 113.373 86.7069 112.987C86.8482 112.602 87.0429 112.271 87.2912 111.996C87.5395 111.721 87.8221 111.511 88.1391 111.366C88.4599 111.217 88.796 111.143 89.1474 111.143C89.5407 111.143 89.8902 111.213 90.1958 111.355C90.5013 111.492 90.7572 111.689 90.9634 111.945C91.1735 112.197 91.332 112.497 91.4389 112.844C91.5459 113.188 91.5993 113.568 91.5993 113.984V114.402H86.9074V113.818H90.9176V113.738C90.91 113.39 90.8393 113.066 90.7056 112.764C90.5758 112.458 90.381 112.21 90.1213 112.019C89.8616 111.828 89.5369 111.733 89.1474 111.733C88.8571 111.733 88.5898 111.794 88.3453 111.916C88.1047 112.038 87.8966 112.214 87.7209 112.443C87.549 112.668 87.4153 112.938 87.3198 113.251C87.2282 113.56 87.1824 113.904 87.1824 114.282V114.528C87.1824 114.872 87.232 115.193 87.3313 115.491C87.4344 115.785 87.5796 116.045 87.7667 116.27C87.9577 116.495 88.183 116.671 88.4427 116.797C88.7024 116.923 88.9889 116.986 89.302 116.986C89.6687 116.986 89.9933 116.919 90.276 116.786C90.5586 116.648 90.8126 116.432 91.0379 116.138L91.4676 116.47C91.3339 116.669 91.1658 116.852 90.9634 117.02C90.7648 117.189 90.5261 117.322 90.2473 117.421C89.9685 117.521 89.6439 117.57 89.2734 117.57Z" stroke="white" stroke-width="0.362963" mask="url(#path-8-outside-1_8_189)"/>
<path d="M94.8983 116.797L96.8862 111.257H97.5909L95.2707 117.456H94.7723L94.8983 116.797ZM93.0994 111.257L95.1103 116.814L95.2191 117.456H94.715L92.389 111.257H93.0994Z" stroke="white" stroke-width="0.362963" mask="url(#path-8-outside-1_8_189)"/>
<path d="M99.6811 111.257V117.456H98.9993V111.257H99.6811ZM98.879 109.464C98.879 109.334 98.9191 109.225 98.9993 109.137C99.0833 109.046 99.1979 109 99.343 109C99.4882 109 99.6028 109.046 99.6868 109.137C99.7746 109.225 99.8185 109.334 99.8185 109.464C99.8185 109.59 99.7746 109.699 99.6868 109.791C99.6028 109.878 99.4882 109.922 99.343 109.922C99.1979 109.922 99.0833 109.878 98.9993 109.791C98.9191 109.699 98.879 109.59 98.879 109.464Z" stroke="white" stroke-width="0.362963" mask="url(#path-8-outside-1_8_189)"/>
<path d="M104.149 117.57C103.744 117.57 103.371 117.496 103.032 117.347C102.695 117.198 102.401 116.988 102.149 116.717C101.901 116.446 101.708 116.125 101.571 115.754C101.437 115.38 101.37 114.971 101.37 114.528V114.282C101.37 113.805 101.441 113.373 101.582 112.987C101.723 112.602 101.918 112.271 102.167 111.996C102.415 111.721 102.697 111.511 103.014 111.366C103.335 111.217 103.671 111.143 104.023 111.143C104.416 111.143 104.766 111.213 105.071 111.355C105.377 111.492 105.632 111.689 105.839 111.945C106.049 112.197 106.207 112.497 106.314 112.844C106.421 113.188 106.475 113.568 106.475 113.984V114.402H101.783V113.818H105.793V113.738C105.785 113.39 105.715 113.066 105.581 112.764C105.451 112.458 105.256 112.21 104.997 112.019C104.737 111.828 104.412 111.733 104.023 111.733C103.732 111.733 103.465 111.794 103.221 111.916C102.98 112.038 102.772 112.214 102.596 112.443C102.424 112.668 102.291 112.938 102.195 113.251C102.103 113.56 102.058 113.904 102.058 114.282V114.528C102.058 114.872 102.107 115.193 102.207 115.491C102.31 115.785 102.455 116.045 102.642 116.27C102.833 116.495 103.058 116.671 103.318 116.797C103.578 116.923 103.864 116.986 104.177 116.986C104.544 116.986 104.869 116.919 105.151 116.786C105.434 116.648 105.688 116.432 105.913 116.138L106.343 116.47C106.209 116.669 106.041 116.852 105.839 117.02C105.64 117.189 105.401 117.322 105.123 117.421C104.844 117.521 104.519 117.57 104.149 117.57Z" stroke="white" stroke-width="0.362963" mask="url(#path-8-outside-1_8_189)"/>
<path d="M109.745 116.006L111.24 111.257H111.721L111.435 112.535L109.871 117.456H109.39L109.745 116.006ZM108.192 111.257L109.504 116.035L109.785 117.456H109.287L107.488 111.257H108.192ZM113.583 116.018L114.861 111.257H115.566L113.767 117.456H113.274L113.583 116.018ZM111.819 111.257L113.291 115.966L113.664 117.456H113.182L111.584 112.529L111.315 111.257H111.819Z" stroke="white" stroke-width="0.362963" mask="url(#path-8-outside-1_8_189)"/>
<path d="M120.795 115.875C120.795 115.707 120.753 115.54 120.669 115.376C120.585 115.212 120.423 115.061 120.182 114.924C119.945 114.786 119.596 114.67 119.134 114.574C118.79 114.498 118.483 114.412 118.211 114.316C117.944 114.221 117.719 114.106 117.535 113.973C117.352 113.839 117.213 113.679 117.117 113.491C117.022 113.304 116.974 113.083 116.974 112.827C116.974 112.598 117.024 112.382 117.123 112.18C117.226 111.973 117.371 111.794 117.558 111.641C117.749 111.484 117.978 111.362 118.246 111.274C118.517 111.187 118.821 111.143 119.157 111.143C119.634 111.143 120.043 111.225 120.383 111.389C120.726 111.549 120.988 111.769 121.168 112.048C121.351 112.327 121.443 112.642 121.443 112.993H120.761C120.761 112.779 120.698 112.577 120.572 112.386C120.449 112.195 120.268 112.038 120.027 111.916C119.791 111.794 119.5 111.733 119.157 111.733C118.801 111.733 118.513 111.786 118.292 111.893C118.07 112 117.908 112.136 117.805 112.3C117.705 112.464 117.656 112.634 117.656 112.81C117.656 112.947 117.677 113.073 117.719 113.188C117.765 113.299 117.845 113.402 117.959 113.497C118.078 113.593 118.246 113.682 118.463 113.766C118.681 113.85 118.964 113.933 119.311 114.013C119.812 114.124 120.22 114.259 120.537 114.42C120.858 114.576 121.095 114.771 121.248 115.004C121.4 115.233 121.477 115.512 121.477 115.84C121.477 116.096 121.423 116.331 121.316 116.545C121.21 116.755 121.055 116.936 120.852 117.089C120.654 117.242 120.413 117.36 120.131 117.444C119.852 117.528 119.539 117.57 119.191 117.57C118.668 117.57 118.225 117.485 117.862 117.313C117.503 117.137 117.23 116.908 117.043 116.625C116.859 116.339 116.768 116.035 116.768 115.714H117.449C117.472 116.035 117.574 116.289 117.753 116.476C117.933 116.66 118.152 116.789 118.412 116.866C118.675 116.942 118.935 116.98 119.191 116.98C119.542 116.98 119.837 116.929 120.073 116.826C120.31 116.723 120.49 116.587 120.612 116.419C120.734 116.251 120.795 116.069 120.795 115.875Z" stroke="white" stroke-width="0.362963" mask="url(#path-8-outside-1_8_189)"/>
<path d="M93.483 133.747L93.4829 133.747C93.3661 134.207 93.1938 134.592 92.9638 134.902L93.483 133.747ZM93.483 133.747C93.5998 133.284 93.6576 132.743 93.6576 132.127V130.723C93.6576 130.23 93.6191 129.787 93.5414 129.394M93.483 133.747L93.395 133.725C93.5095 133.27 93.5668 132.738 93.5668 132.127V130.723C93.5668 130.234 93.5286 129.797 93.4523 129.411L93.5414 129.394C93.5414 129.394 93.5414 129.394 93.5414 129.394M93.5414 129.394C93.4676 129.002 93.3565 128.659 93.2068 128.368M93.5414 129.394L93.2068 128.368M93.2068 128.368C93.061 128.073 92.8786 127.828 92.6586 127.636C92.4432 127.444 92.1941 127.301 91.9123 127.206C91.6342 127.106 91.3299 127.057 91.0003 127.057C90.5883 127.057 90.2163 127.132 89.8859 127.283C89.5542 127.431 89.2731 127.659 89.043 127.964L89.0425 127.965C88.8165 128.27 88.6442 128.652 88.5236 129.107L88.5234 129.108C88.4065 129.564 88.3487 130.103 88.3487 130.723V132.127C88.3487 132.62 88.3873 133.065 88.465 133.462L88.465 133.462C88.5427 133.854 88.6558 134.198 88.8054 134.494C88.9547 134.788 89.1366 135.036 89.3517 135.235L89.353 135.236C89.5721 135.432 89.8214 135.577 90.1001 135.673C90.3781 135.768 90.6822 135.815 91.0117 135.815C91.4273 135.815 91.7996 135.741 92.1265 135.589C92.4581 135.437 92.7373 135.208 92.9636 134.902L93.2068 128.368ZM93.2068 128.368C93.2069 128.368 93.207 128.368 93.2071 128.368L93.1257 128.409L93.2064 128.367C93.2065 128.367 93.2067 128.367 93.2068 128.368ZM92.7155 129.621L92.7153 129.62C92.6665 129.317 92.5938 129.053 92.498 128.828C92.4024 128.604 92.2822 128.419 92.1384 128.271L92.1376 128.271C91.9981 128.124 91.8339 128.015 91.6443 127.943L91.6423 127.943L91.6423 127.943C91.4562 127.868 91.2427 127.829 91.0003 127.829C90.7035 127.829 90.4455 127.889 90.2237 128.007L90.2232 128.008C90.0056 128.122 89.8221 128.294 89.6731 128.526L89.6728 128.527C89.5236 128.756 89.4087 129.047 89.3302 129.402C89.2555 129.757 89.2177 130.168 89.2177 130.637V132.207C89.2177 132.577 89.2422 132.914 89.291 133.218L92.7155 129.621ZM92.7155 129.621C92.7679 129.925 92.7944 130.263 92.7944 130.637V132.207M92.7155 129.621L92.7944 132.207M92.7944 132.207C92.7944 132.668 92.7565 133.078 92.6817 133.437C92.607 133.792 92.4939 134.089 92.3442 134.33C92.195 134.566 92.0111 134.744 91.793 134.866C91.5758 134.983 91.3164 135.043 91.0117 135.043C90.7737 135.043 90.5603 135.005 90.3701 134.93C90.184 134.851 90.0191 134.737 89.8751 134.585C89.7341 134.43 89.6134 134.238 89.5138 134.01C89.4142 133.781 89.3397 133.517 89.291 133.218L92.7944 132.207ZM79.8056 131.572L79.8536 131.586L79.891 131.553C80.0909 131.375 80.303 131.235 80.5271 131.132C80.7476 131.033 81.0502 130.98 81.4405 130.98C81.7358 130.98 81.9943 131.03 82.2178 131.127C82.4422 131.225 82.6293 131.363 82.7803 131.543L82.7803 131.543L82.7816 131.545C82.9373 131.722 83.0557 131.931 83.1361 132.172L83.1362 132.173C83.2167 132.411 83.2575 132.674 83.2575 132.963C83.2575 133.304 83.2182 133.604 83.1409 133.865L83.1407 133.866C83.0672 134.123 82.9578 134.339 82.8139 134.515L82.8138 134.516C82.6745 134.687 82.4996 134.818 82.2874 134.907L82.2868 134.908C82.079 134.997 81.832 135.043 81.5436 135.043C81.1877 135.043 80.8849 134.98 80.6325 134.858C80.3848 134.736 80.1876 134.555 80.0399 134.313C79.8915 134.071 79.7935 133.769 79.7489 133.405L79.7391 133.325H79.6588H79H78.9009L78.9096 133.424C78.9448 133.822 79.0349 134.173 79.1819 134.475L79.1819 134.475L79.1824 134.476C79.3326 134.776 79.5273 135.027 79.7669 135.227C80.005 135.425 80.2749 135.574 80.5757 135.673L80.5771 135.673C80.8806 135.768 81.2029 135.815 81.5436 135.815C81.9846 135.815 82.37 135.745 82.6972 135.601C83.0227 135.458 83.2924 135.257 83.5045 134.997L83.5049 134.996C83.7153 134.734 83.8714 134.429 83.9738 134.083C84.0759 133.737 84.1264 133.36 84.1264 132.952C84.1264 132.527 84.066 132.144 83.9435 131.804C83.8214 131.461 83.6474 131.168 83.4205 130.925C83.1936 130.678 82.9209 130.491 82.6034 130.364C82.2894 130.233 81.9414 130.168 81.5608 130.168C81.2044 130.168 80.8805 130.221 80.5901 130.328C80.398 130.398 80.2343 130.469 80.1005 130.543L80.3651 128.001H83.8696H83.9603V127.91V127.268V127.178H83.8696H79.6989H79.6168L79.6086 127.259L79.2019 131.321L79.1943 131.397L79.2671 131.417L79.8056 131.572ZM85.6409 134.792L85.6408 134.792C85.5402 134.902 85.4909 135.037 85.4909 135.192C85.4909 135.343 85.5407 135.476 85.6408 135.585L85.6408 135.585L85.6421 135.587C85.7501 135.699 85.8938 135.752 86.0629 135.752C86.2349 135.752 86.3809 135.7 86.4893 135.587C86.5937 135.478 86.6463 135.344 86.6463 135.192C86.6463 135.033 86.5947 134.895 86.4893 134.785C86.3809 134.672 86.2349 134.62 86.0629 134.62C85.8927 134.62 85.7485 134.675 85.6409 134.792Z" fill="white" stroke="white" stroke-width="0.181481"/>
<defs>
<clipPath id="clip0_8_189">
<rect width="255.062" height="49" fill="white" transform="translate(45 60)"/>
</clipPath>
</defs>
</svg>
