<svg width="346" height="196" viewBox="0 0 346 196" fill="none" xmlns="http://www.w3.org/2000/svg">
<path d="M49.3515 91.8054C49.3515 91.8054 46.994 91.5696 46.994 93.6443V102.933H62.4595V105.715C62.4595 105.715 62.5066 107.082 61.0449 107.082H46.994V119.153H63.874C63.874 119.153 74.1057 117.597 74.2 107.082V91.8054H49.3515ZM73.7285 77H43.2691C32.2358 79.5933 32 88.6463 32 88.6463V119.2H43.6934V91.381C43.6934 89.0235 46.051 88.5991 46.051 88.5991H73.6814L73.7285 77ZM113.948 110.43C113.147 110.949 112.534 111.373 112.109 111.609C110.6 112.552 109.186 113.259 107.866 113.825C105.933 114.626 104.235 115.004 102.679 115.004C97.3982 115.004 93.0132 113.4 89.524 110.147C85.9877 106.894 84.2431 102.792 84.2431 97.8878C84.2431 93.1256 85.7991 89.0235 89.0054 85.4872C92.1645 81.998 96.0309 80.2534 100.557 80.2534C102.443 80.2534 104.471 80.5835 106.546 81.2436C109.28 82.0923 111.449 83.4125 113.241 85.0628L110.223 88.4105C108.95 87.1374 107.253 86.2416 105.32 85.6758C103.858 85.2514 102.255 85.0156 100.463 85.0156C97.3039 85.0156 94.6163 86.2887 92.4474 88.8349C90.3256 91.4282 89.2411 94.4458 89.2411 98.0293C89.2411 101.566 90.4671 104.489 92.9189 106.799C95.3708 109.11 98.4827 110.289 102.255 110.289C103.811 110.289 105.414 109.77 107.064 108.827C108.432 107.79 109.139 107.271 109.139 107.271V99.9153H98.9071L100.369 95.3417H113.948V110.43ZM144.738 101.471C144.738 105.008 143.465 108.072 140.966 110.666C138.467 113.259 135.355 114.579 131.63 114.579C128.188 114.579 125.217 113.306 122.624 110.76C120.031 108.214 118.758 105.149 118.758 101.518C118.758 97.935 119.983 94.8702 122.435 92.2297C124.887 89.5893 127.905 88.3162 131.394 88.3162C135.308 88.3162 138.467 89.5893 140.966 92.0883C143.465 94.5401 144.738 97.6992 144.738 101.471ZM139.975 101.566C139.975 99.1609 139.174 97.1334 137.571 95.4831C135.968 93.7857 133.987 92.9841 131.583 92.9841C129.367 92.9841 127.48 93.8329 125.877 95.5774C124.321 97.2749 123.52 99.2552 123.52 101.471C123.52 103.782 124.321 105.762 125.877 107.412C127.433 109.063 129.414 109.911 131.771 109.911C133.987 109.911 135.873 109.11 137.476 107.459C139.174 105.762 139.975 103.782 139.975 101.566ZM175.15 101.471C175.15 105.008 173.877 108.072 171.378 110.666C168.879 113.259 165.767 114.579 162.042 114.579C158.6 114.579 155.63 113.306 153.036 110.76C150.443 108.214 149.17 105.149 149.17 101.518C149.17 97.935 150.396 94.8702 152.848 92.2297C155.299 89.5893 158.317 88.3162 161.806 88.3162C165.72 88.3162 168.879 89.5893 171.378 92.0883C173.877 94.5401 175.15 97.6992 175.15 101.471ZM170.341 101.566C170.341 99.1609 169.539 97.1334 167.936 95.4831C166.333 93.7857 164.352 92.9841 161.948 92.9841C159.732 92.9841 157.846 93.8329 156.243 95.5774C154.687 97.2749 153.885 99.2552 153.885 101.471C153.885 103.782 154.687 105.762 156.243 107.412C157.798 109.063 159.779 109.911 162.136 109.911C164.352 109.911 166.238 109.11 167.842 107.459C169.539 105.762 170.341 103.782 170.341 101.566ZM203.252 113.872L198.867 114.532V110.289L197.924 111.373C197.075 112.175 196.132 112.787 195.142 113.306C193.633 114.013 192.03 114.343 190.38 114.343C186.938 114.343 184.014 113.07 181.657 110.571C179.299 108.072 178.073 105.008 178.073 101.518C178.073 97.8878 179.252 94.7759 181.61 92.2297C183.967 89.6364 186.796 88.3634 190.238 88.3634C192.219 88.3634 193.916 88.6934 195.331 89.3064C196.368 89.7779 197.217 90.3908 197.971 91.1453C198.207 91.4753 198.443 91.8054 198.725 92.1354V80.9607L203.393 80.3006L203.252 113.872ZM199.15 101.801C199.15 99.3024 198.301 97.1806 196.604 95.4831C194.906 93.7386 192.973 92.8898 190.757 92.8898C188.305 92.8898 186.372 93.6914 184.863 95.3417C183.449 96.8977 182.741 98.8308 182.741 101.094C182.741 103.64 183.496 105.762 184.957 107.412C186.419 109.063 188.258 109.864 190.568 109.864C192.784 109.864 194.765 109.11 196.509 107.554C198.254 105.998 199.15 104.065 199.15 101.801ZM227.959 85.5815H214.851V94.493H225.036V99.0666H214.851V113.825L209.759 114.579V80.9607H226.969L227.959 85.5815ZM238.474 82.9882L235.315 86.9488L232.297 82.9882L235.456 79.0746L238.474 82.9882ZM237.531 113.872L232.863 114.532V89.6364L237.531 88.9292V113.872ZM258.654 88.6463L256.438 93.7385C256.155 93.6914 255.872 93.6914 255.542 93.6914C255.071 93.6914 254.646 93.7386 254.175 93.7857C253.703 93.8329 253.232 94.0215 252.713 94.3044C251.723 94.7287 250.874 95.6717 250.167 97.0391C249.365 98.6422 248.941 100.387 248.941 102.179V113.825L244.273 114.579V89.6364L248.611 88.8349V94.0215C249.177 93.1256 249.743 92.2297 250.308 91.2867C251.11 90.3437 252.053 89.6836 253.09 89.2592C253.656 89.0235 254.646 88.882 256.202 88.7406C257.711 88.6463 258.56 88.5991 258.654 88.6463ZM293.546 113.872L288.878 114.532V97.4635C288.878 95.9075 288.548 94.7287 287.841 94.0215C287.133 93.3142 286.096 92.937 284.729 92.937C283.078 92.937 281.852 93.5971 281.004 94.9645C280.438 95.9075 280.108 96.8977 280.108 97.8878V113.778L275.44 114.626V97.5106C275.44 96.0018 275.11 94.8702 274.403 94.0686C273.695 93.267 272.799 92.8898 271.621 92.8898H271.149C269.499 92.8898 268.32 93.5499 267.566 94.9645C267 96.0018 266.717 97.322 266.717 98.9251V113.731L261.86 114.579V89.5421L266.245 88.7877V91.994C266.717 91.2396 267.236 90.6266 267.66 90.2022C268.933 89.0235 270.395 88.4577 272.045 88.4577C273.884 88.4577 275.251 88.7406 276.194 89.3535C276.996 89.8722 277.75 90.8624 278.552 92.2769C280.155 89.7307 282.418 88.4577 285.436 88.4577C288.312 88.4577 290.434 89.3535 291.848 91.1924C292.98 92.7012 293.546 94.9173 293.546 97.7935V113.872ZM314.905 106.328C314.905 108.638 314.104 110.524 312.5 111.986C310.897 113.495 308.87 114.202 306.418 114.202C304.579 114.202 302.929 113.778 301.42 112.929C299.911 112.08 298.78 111.09 298.072 109.958L301.373 107.035C301.609 107.412 301.844 107.695 302.033 107.884C303.259 109.157 304.721 109.77 306.418 109.77C307.597 109.77 308.54 109.44 309.2 108.827C309.907 108.214 310.237 107.365 310.237 106.234C310.237 104.96 309.436 104.112 307.833 103.64C304.673 102.697 302.929 102.131 302.693 102.037C301.231 101.283 300.194 100.481 299.534 99.5853C298.78 98.5479 298.402 97.1806 298.402 95.436C298.402 93.267 299.204 91.5225 300.76 90.0608C302.316 88.6463 304.202 87.939 306.371 87.939C308.021 87.939 309.53 88.3162 310.944 89.0706C312.359 89.825 313.349 90.6266 313.962 91.5225L311.18 94.5401C310.756 94.1158 310.284 93.7386 309.813 93.4085C308.681 92.6069 307.597 92.2297 306.607 92.2297C305.616 92.2297 304.815 92.4655 304.202 92.8898C303.447 93.4085 303.07 94.2101 303.07 95.2474C303.07 96.2375 303.4 96.992 304.155 97.4635C304.768 97.8407 306.088 98.265 308.21 98.7365C310.284 99.2552 311.935 100.104 313.066 101.33C314.386 102.65 314.905 104.253 314.905 106.328Z" fill="white"/>
</svg>
