<svg width="346" height="196" viewBox="0 0 346 196" fill="none" xmlns="http://www.w3.org/2000/svg">
<g clip-path="url(#clip0_5_601)">
<path d="M179.786 141.082C179.886 140.076 180.006 139.07 180.135 138.065C180.293 136.838 180.46 135.613 180.623 134.388C180.665 134.067 180.728 133.746 180.734 133.424C180.737 133.293 180.638 133.137 180.543 133.03C180.211 132.654 179.863 132.292 179.517 131.928C178.685 131.052 177.849 130.179 177.02 129.3C176.514 128.765 176.017 128.222 175.518 127.682C175.471 127.632 175.43 127.575 175.348 127.472C175.679 127.4 175.967 127.33 176.258 127.274C177.281 127.077 178.304 126.884 179.328 126.69C180.48 126.472 181.633 126.254 182.786 126.038C183.006 125.996 183.162 125.902 183.278 125.688C184.126 124.125 184.99 122.571 185.848 121.014C186.182 120.41 186.515 119.805 186.849 119.201C186.873 119.159 186.909 119.124 186.962 119.056C187.258 119.58 187.547 120.08 187.825 120.585C188.775 122.312 189.717 124.044 190.678 125.764C190.748 125.89 190.934 125.997 191.083 126.027C192.669 126.346 194.257 126.649 195.847 126.952C196.652 127.105 197.459 127.247 198.264 127.397C198.342 127.412 198.415 127.448 198.51 127.482C198.479 127.538 198.462 127.586 198.43 127.62C197.678 128.417 196.922 129.21 196.17 130.008C195.23 131.007 194.304 132.021 193.349 133.005C193.052 133.312 193.191 133.634 193.22 133.945C193.294 134.721 193.41 135.493 193.512 136.267C193.61 137.01 193.717 137.752 193.81 138.496C193.902 139.231 193.981 139.967 194.067 140.703C194.08 140.813 194.107 140.921 194.127 141.056C194.082 141.082 194.035 141.082 193.957 141.062C193.728 140.964 193.526 140.897 193.336 140.806C192.541 140.426 191.751 140.033 190.954 139.655C189.671 139.045 188.384 138.443 187.095 137.844C187.016 137.807 186.894 137.794 186.819 137.829C185.96 138.22 185.107 138.623 184.252 139.024C183.323 139.458 182.393 139.89 181.467 140.33C180.957 140.573 180.454 140.831 179.947 141.082C179.901 141.082 179.855 141.082 179.786 141.082Z" fill="white"/>
<path d="M204.694 141.082C204.794 140.076 204.914 139.07 205.043 138.065C205.201 136.838 205.368 135.613 205.531 134.388C205.573 134.067 205.636 133.746 205.642 133.424C205.644 133.293 205.545 133.137 205.451 133.03C205.119 132.654 204.77 132.292 204.425 131.928C203.593 131.052 202.757 130.179 201.928 129.3C201.422 128.765 200.925 128.222 200.425 127.682C200.379 127.632 200.338 127.575 200.256 127.472C200.587 127.4 200.875 127.33 201.166 127.274C202.189 127.077 203.212 126.884 204.236 126.69C205.388 126.472 206.541 126.254 207.694 126.038C207.914 125.996 208.07 125.902 208.186 125.688C209.034 124.125 209.898 122.571 210.756 121.014C211.09 120.41 211.422 119.805 211.757 119.201C211.78 119.159 211.817 119.124 211.87 119.056C212.166 119.58 212.455 120.08 212.733 120.585C213.683 122.312 214.625 124.044 215.586 125.764C215.656 125.89 215.842 125.997 215.991 126.027C217.577 126.346 219.165 126.649 220.755 126.952C221.56 127.105 222.367 127.247 223.172 127.397C223.25 127.412 223.323 127.448 223.418 127.482C223.387 127.538 223.37 127.586 223.338 127.62C222.586 128.417 221.83 129.21 221.078 130.008C220.138 131.007 219.212 132.021 218.257 133.005C217.96 133.312 218.098 133.634 218.128 133.945C218.202 134.721 218.318 135.493 218.42 136.267C218.516 137 218.616 137.733 218.71 138.467C218.782 139.03 218.843 139.595 218.913 140.159C218.949 140.45 218.994 140.74 219.035 141.056C218.989 141.082 218.943 141.082 218.864 141.062C218.636 140.964 218.434 140.897 218.244 140.806C217.449 140.426 216.659 140.033 215.862 139.655C214.578 139.045 213.291 138.443 212.003 137.844C211.924 137.807 211.802 137.794 211.727 137.829C210.868 138.22 210.015 138.623 209.16 139.024C208.231 139.458 207.301 139.89 206.375 140.33C205.865 140.573 205.362 140.831 204.855 141.082C204.809 141.082 204.763 141.082 204.694 141.082Z" fill="white"/>
<path d="M106.541 141.082C106.642 140.076 106.761 139.07 106.891 138.065C107.049 136.838 107.216 135.614 107.378 134.388C107.421 134.067 107.484 133.746 107.49 133.424C107.492 133.293 107.393 133.137 107.298 133.03C106.967 132.654 106.618 132.292 106.273 131.928C105.441 131.052 104.605 130.179 103.775 129.3C103.27 128.765 102.773 128.222 102.273 127.682C102.226 127.632 102.186 127.575 102.104 127.472C102.434 127.4 102.723 127.33 103.014 127.274C104.036 127.077 105.06 126.884 106.083 126.69C107.236 126.472 108.388 126.254 109.541 126.038C109.762 125.996 109.917 125.902 110.034 125.688C110.882 124.125 111.745 122.571 112.604 121.014C112.937 120.41 113.27 119.805 113.605 119.201C113.628 119.159 113.664 119.124 113.718 119.056C114.014 119.58 114.303 120.08 114.581 120.585C115.531 122.312 116.473 124.044 117.434 125.765C117.504 125.89 117.689 125.997 117.838 126.027C119.424 126.346 121.013 126.649 122.602 126.952C123.407 127.105 124.214 127.247 125.02 127.397C125.097 127.412 125.17 127.448 125.266 127.482C125.234 127.538 125.218 127.586 125.186 127.62C124.433 128.417 123.677 129.21 122.926 130.008C121.986 131.007 121.06 132.021 120.105 133.005C119.808 133.312 119.946 133.634 119.976 133.945C120.05 134.721 120.165 135.493 120.267 136.267C120.366 137.01 120.473 137.752 120.566 138.496C120.658 139.231 120.736 139.967 120.823 140.703C120.836 140.813 120.862 140.921 120.883 141.056C120.837 141.082 120.791 141.082 120.712 141.062C119.679 140.573 118.679 140.103 117.678 139.633C116.401 139.034 115.126 138.434 113.846 137.841C113.768 137.805 113.647 137.797 113.571 137.831C112.713 138.223 111.859 138.625 111.005 139.025C110.077 139.46 109.147 139.891 108.222 140.331C107.712 140.573 107.209 140.831 106.703 141.082C106.657 141.082 106.611 141.082 106.541 141.082Z" fill="white"/>
<path d="M131.203 141.082C131.303 140.076 131.423 139.07 131.552 138.065C131.71 136.838 131.877 135.613 132.04 134.388C132.082 134.067 132.145 133.746 132.151 133.424C132.154 133.293 132.055 133.137 131.96 133.03C131.628 132.654 131.28 132.292 130.934 131.928C130.102 131.052 129.266 130.179 128.437 129.3C127.931 128.765 127.434 128.222 126.935 127.682C126.888 127.632 126.848 127.575 126.765 127.472C127.096 127.4 127.384 127.33 127.675 127.274C128.698 127.077 129.721 126.884 130.745 126.69C131.897 126.472 133.05 126.254 134.203 126.038C134.423 125.996 134.579 125.902 134.695 125.688C135.543 124.125 136.407 122.571 137.265 121.014C137.599 120.41 137.932 119.805 138.266 119.201C138.29 119.159 138.326 119.124 138.379 119.056C138.675 119.58 138.964 120.08 139.242 120.585C140.192 122.312 141.134 124.044 142.095 125.764C142.165 125.89 142.351 125.997 142.5 126.027C144.086 126.346 145.675 126.649 147.264 126.952C148.069 127.105 148.876 127.247 149.681 127.397C149.759 127.412 149.832 127.448 149.927 127.482C149.896 127.538 149.879 127.586 149.847 127.62C149.095 128.417 148.339 129.21 147.587 130.008C146.647 131.007 145.721 132.021 144.766 133.005C144.469 133.312 144.608 133.634 144.637 133.945C144.711 134.721 144.827 135.493 144.929 136.267C145.027 137.01 145.134 137.752 145.227 138.496C145.319 139.231 145.398 139.967 145.484 140.703C145.497 140.813 145.524 140.921 145.544 141.056C145.499 141.082 145.452 141.082 145.374 141.062C144.341 140.573 143.34 140.103 142.339 139.633C141.063 139.034 139.787 138.434 138.508 137.841C138.43 137.805 138.308 137.797 138.232 137.831C137.374 138.223 136.521 138.625 135.666 139.025C134.738 139.46 133.809 139.891 132.883 140.331C132.373 140.573 131.871 140.831 131.364 141.082C131.318 141.082 131.272 141.082 131.203 141.082Z" fill="white"/>
<path d="M155.617 141.082C155.718 140.076 155.837 139.07 155.967 138.065C156.125 136.838 156.292 135.613 156.455 134.388C156.497 134.067 156.56 133.746 156.566 133.424C156.568 133.293 156.469 133.137 156.375 133.03C156.043 132.654 155.694 132.292 155.349 131.928C154.517 131.052 153.681 130.179 152.851 129.3C152.346 128.765 151.849 128.222 151.349 127.682C151.302 127.632 151.262 127.575 151.18 127.472C151.511 127.4 151.799 127.33 152.09 127.274C153.113 127.077 154.136 126.884 155.159 126.69C156.312 126.472 157.464 126.254 158.617 126.038C158.838 125.996 158.993 125.902 159.11 125.688C159.958 124.125 160.821 122.571 161.68 121.014C162.013 120.41 162.346 119.805 162.681 119.201C162.704 119.159 162.74 119.124 162.794 119.056C163.09 119.58 163.379 120.08 163.657 120.585C164.607 122.312 165.549 124.044 166.51 125.764C166.58 125.89 166.765 125.997 166.914 126.027C168.5 126.346 170.089 126.649 171.678 126.952C172.483 127.105 173.291 127.247 174.096 127.397C174.173 127.412 174.247 127.448 174.342 127.482C174.311 127.538 174.294 127.586 174.262 127.62C173.51 128.417 172.753 129.21 172.002 130.008C171.062 131.007 170.136 132.021 169.181 133.005C168.884 133.312 169.022 133.634 169.052 133.945C169.126 134.721 169.242 135.493 169.344 136.267C169.442 137.01 169.549 137.752 169.642 138.496C169.734 139.231 169.812 139.967 169.899 140.703C169.912 140.813 169.939 140.921 169.959 141.056C169.913 141.082 169.867 141.082 169.788 141.062C168.755 140.573 167.755 140.103 166.754 139.633C165.478 139.034 164.202 138.434 162.922 137.841C162.844 137.805 162.723 137.797 162.647 137.831C161.789 138.223 160.936 138.625 160.081 139.025C159.153 139.46 158.224 139.891 157.298 140.331C156.788 140.573 156.285 140.831 155.779 141.082C155.733 141.082 155.687 141.082 155.617 141.082Z" fill="white"/>
<path d="M114.18 85.6688C114.331 84.8775 114.471 84.1148 114.626 83.2688C108.953 83.2688 103.358 83.2688 97.731 83.2688C97.731 80.876 97.731 78.5553 97.731 76.1696C97.8712 76.1696 98.0105 76.1696 98.1498 76.1696C105.854 76.1696 113.559 76.1711 121.263 76.1645C121.585 76.1642 121.693 76.2308 121.748 76.5927C122.014 78.3497 122.005 80.1179 121.926 81.8769C121.862 83.3113 121.673 84.7504 121.408 86.163C120.984 88.4295 120.204 90.5876 119.108 92.6231C118.439 93.8657 117.646 95.0243 116.749 96.116C114.499 98.8557 111.667 100.815 108.483 102.301C106.388 103.278 104.198 103.929 101.905 104.29C99.9451 104.598 97.9768 104.648 96.0172 104.537C93.2112 104.379 90.4892 103.73 87.8801 102.666C86.1124 101.945 84.4344 101.053 82.8603 99.9638C81.9184 99.3123 81.0268 98.6056 80.1687 97.8464C78.1773 96.0844 76.5157 94.0564 75.1504 91.7805C74.8116 91.2157 74.431 90.6669 74.1681 90.0675C73.6624 88.9149 73.1948 87.743 72.7705 86.5579C72.2192 85.0181 71.9419 83.4132 71.6991 81.7968C71.4623 80.2196 71.4288 78.6361 71.522 77.0609C71.6016 75.7131 71.8297 74.3655 72.0983 73.0392C72.5291 70.9113 73.277 68.8807 74.2633 66.9463C75.1608 65.186 76.2474 63.5484 77.5152 62.0267C79.3735 59.796 81.5404 57.922 84.014 56.4187C86.5481 54.8786 89.2708 53.7965 92.1774 53.1478C94.6534 52.5952 97.1537 52.4911 99.6625 52.6009C101.608 52.686 103.52 53.076 105.394 53.6226C107.215 54.1536 108.95 54.8938 110.613 55.7977C111.977 56.5394 113.273 57.3915 114.469 58.388C114.857 58.7111 115.243 59.0357 115.67 59.3927C113.944 61.1707 112.254 62.9124 110.619 64.5971C109.544 63.8417 108.543 63.0299 107.44 62.3936C106.361 61.7708 105.2 61.2717 104.035 60.8193C102.784 60.3333 101.467 60.0431 100.123 59.9395C99.0895 59.8598 98.0509 59.7982 97.0149 59.8044C96.3869 59.8081 95.7621 59.9878 95.1319 60.0333C93.8272 60.1275 92.5979 60.5143 91.3817 60.9509C89.3933 61.6647 87.6044 62.7264 85.966 64.0596C84.4655 65.2806 83.2026 66.7074 82.1489 68.322C80.7795 70.4205 79.8891 72.7053 79.4182 75.1715C79.1112 76.7788 79.0705 78.3954 79.1632 80.0065C79.2733 81.9197 79.7293 83.7763 80.4497 85.5634C81.1385 87.2718 82.0547 88.8459 83.1962 90.2859C84.6499 92.1196 86.4043 93.6102 88.4229 94.7947C89.8211 95.6152 91.2969 96.252 92.8604 96.673C94.0439 96.9917 95.2422 97.2461 96.4757 97.2833C97.067 97.3012 97.6581 97.3505 98.2493 97.3505C99.8461 97.3506 101.421 97.1224 102.938 96.6484C104.16 96.2668 105.362 95.7941 106.523 95.2549C107.834 94.646 109 93.798 110.08 92.8214C111.384 91.6414 112.442 90.2793 113.157 88.6861C113.586 87.7309 113.837 86.6963 114.18 85.6688Z" fill="white"/>
<path d="M229.038 77.4072C229.038 86.2765 229.045 95.1095 229.03 103.942C229.027 105.487 228.735 107.001 228.302 108.484C227.842 110.063 227.189 111.56 226.267 112.925C225.571 113.955 224.776 114.899 223.829 115.724C222.739 116.676 221.566 117.497 220.234 118.041C219.376 118.391 218.455 118.603 217.55 118.822C215.609 119.291 213.626 119.361 211.647 119.251C209.854 119.151 208.118 118.727 206.461 117.997C205.373 117.517 204.373 116.903 203.431 116.188C202.063 115.15 200.942 113.876 200.009 112.446C199.435 111.566 198.945 110.63 198.392 109.675C200.585 108.721 202.688 107.807 204.76 106.905C205.216 107.638 205.622 108.373 206.107 109.053C207.191 110.572 208.527 111.805 210.319 112.449C211.218 112.772 212.149 112.851 213.113 112.805C214.165 112.755 215.196 112.66 216.21 112.364C217.422 112.009 218.508 111.423 219.421 110.559C220.324 109.705 220.964 108.665 221.399 107.492C221.841 106.298 222.107 105.077 222.124 103.805C222.137 102.798 222.126 101.79 222.126 100.702C221.643 101.069 221.228 101.389 220.807 101.702C219.173 102.917 217.361 103.753 215.371 104.18C214.294 104.411 213.192 104.496 212.096 104.409C209.697 104.22 207.478 103.449 205.395 102.251C204.235 101.584 203.102 100.885 202.193 99.8867C201.081 98.6658 200.038 97.3871 199.25 95.9271C198.777 95.0504 198.271 94.1772 197.929 93.2474C197.556 92.2302 197.305 91.1594 197.095 90.0934C196.938 89.2958 196.861 88.4678 196.871 87.6549C196.896 85.5798 197.329 83.5816 198.151 81.6674C198.881 79.9666 199.824 78.3921 200.995 76.9676C202.283 75.3999 203.835 74.119 205.562 73.0527C206.952 72.194 208.428 71.5121 210.034 71.201C211.045 71.0054 212.089 70.8446 213.111 70.8795C215.789 70.9708 218.201 71.9142 220.383 73.4532C220.9 73.8183 221.402 74.2061 221.957 74.6175C221.989 73.8975 222.025 73.2288 222.047 72.5596C222.062 72.1093 222.068 72.0932 222.527 72.0931C224.553 72.0925 226.58 72.0928 228.606 72.0928C228.727 72.0928 228.847 72.0928 229.038 72.0928C229.038 73.8661 229.038 75.6185 229.038 77.4072ZM220.92 81.7066C220.331 80.8375 219.634 80.0692 218.797 79.4338C216.853 77.958 214.688 77.3448 212.257 77.7655C209.852 78.1818 207.993 79.4506 206.583 81.4062C205.462 82.9605 204.82 84.695 204.636 86.6114C204.518 87.8364 204.574 89.0397 204.84 90.2363C205.31 92.3541 206.317 94.1667 207.921 95.6405C208.736 96.3898 209.648 96.9794 210.691 97.3598C211.843 97.7804 213.017 97.9769 214.257 97.8794C215.396 97.7898 216.461 97.4929 217.459 96.9754C218.988 96.1819 220.179 95.0122 221.091 93.5491C222.494 91.2969 222.932 88.8392 222.616 86.2398C222.419 84.621 221.842 83.1222 220.92 81.7066Z" fill="white"/>
<path d="M160.77 84.7895C161.221 82.3592 162.125 80.148 163.52 78.1457C164.941 76.1067 166.722 74.4536 168.869 73.1914C170.675 72.1291 172.61 71.4113 174.675 71.0958C175.729 70.9347 176.811 70.8372 177.875 70.8752C180.167 70.957 182.379 71.4451 184.466 72.4457C186.091 73.2247 187.567 74.2002 188.891 75.4302C190.508 76.9316 191.77 78.6809 192.698 80.668C193.426 82.2251 193.941 83.8581 194.087 85.58C194.178 86.6481 194.28 87.728 194.219 88.7936C194.109 90.7386 193.652 92.6172 192.871 94.4162C192.251 95.8451 191.456 97.1651 190.477 98.3646C189.506 99.554 188.391 100.606 187.132 101.496C185.241 102.834 183.162 103.756 180.897 104.227C180.033 104.407 179.142 104.477 178.26 104.553C177.714 104.6 177.161 104.569 176.612 104.56C174.795 104.531 173.053 104.122 171.362 103.487C169.827 102.91 168.399 102.121 167.112 101.108C165.445 99.7962 164.035 98.2481 162.931 96.4207C161.847 94.625 161.149 92.6917 160.761 90.6421C160.51 89.3206 160.488 87.9791 160.542 86.6403C160.567 86.0313 160.684 85.4261 160.77 84.7895ZM168.179 85.613C168.106 86.1469 167.999 86.6788 167.966 87.2152C167.9 88.2902 168.014 89.3591 168.279 90.3994C168.859 92.6801 170.055 94.5843 171.922 96.0315C173.57 97.3088 175.469 97.9205 177.541 97.9201C178.264 97.92 179.007 97.8044 179.705 97.6121C182.302 96.8966 184.243 95.3025 185.542 92.9633C186.707 90.8667 187.113 88.6136 186.747 86.2243C186.573 85.0892 186.256 84.0049 185.734 82.9888C185.046 81.6494 184.132 80.488 182.912 79.5813C180.62 77.8786 178.081 77.2887 175.303 77.9672C172.462 78.6611 170.426 80.4169 169.118 82.9972C168.711 83.7996 168.493 84.6972 168.179 85.613Z" fill="white"/>
<path d="M157.839 86.8085C157.814 87.7985 157.851 88.76 157.749 89.7066C157.581 91.2736 157.176 92.7909 156.552 94.2453C155.729 96.1662 154.607 97.8792 153.155 99.3946C150.744 101.912 147.827 103.503 144.445 104.245C143.548 104.442 142.613 104.483 141.693 104.554C140.991 104.609 140.282 104.638 139.58 104.602C139.044 104.575 138.514 104.43 137.981 104.337C136.568 104.091 135.201 103.662 133.907 103.074C132.945 102.636 132.025 102.059 131.181 101.419C130.205 100.678 129.279 99.8506 128.431 98.966C127.534 98.0315 126.806 96.9528 126.185 95.8035C125.491 94.5172 124.944 93.1751 124.622 91.7537C124.427 90.8913 124.307 90.0078 124.215 89.1273C124.14 88.4085 124.106 87.6775 124.142 86.9565C124.246 84.8904 124.706 82.9021 125.532 80.9978C126.071 79.7556 126.75 78.5949 127.575 77.5316C128.916 75.8031 130.508 74.341 132.41 73.2336C133.873 72.3819 135.406 71.6934 137.067 71.3549C138.063 71.1521 139.079 71.022 140.092 70.9415C140.929 70.8751 141.78 70.8701 142.615 70.9445C143.857 71.0551 145.069 71.3433 146.26 71.7292C148.187 72.354 149.941 73.3038 151.517 74.5616C153.196 75.9021 154.572 77.5138 155.639 79.3914C156.465 80.8437 157.074 82.3777 157.439 83.9986C157.643 84.9075 157.71 85.8473 157.839 86.8085ZM133.225 82.0968C132.146 83.7902 131.613 85.6551 131.567 87.6491C131.536 89.0279 131.788 90.3716 132.288 91.6645C133.008 93.5223 134.16 95.0585 135.779 96.2091C137.83 97.6663 140.125 98.2311 142.61 97.7739C144.641 97.4003 146.367 96.4328 147.763 94.8845C148.494 94.0732 149.097 93.189 149.54 92.1909C150.395 90.2624 150.679 88.2625 150.347 86.1728C149.947 83.655 148.842 81.5299 146.879 79.8806C144.73 78.0745 142.263 77.3961 139.489 77.8446C137.599 78.1502 135.996 79.0318 134.64 80.3509C134.118 80.8585 133.705 81.4781 133.225 82.0968Z" fill="white"/>
<path d="M265.184 103.797C263.668 104.16 262.16 104.376 260.625 104.34C259.465 104.312 258.314 104.16 257.189 103.886C255.221 103.405 253.387 102.605 251.723 101.438C249.624 99.9655 247.911 98.1434 246.649 95.898C245.657 94.1315 245 92.2587 244.68 90.2582C244.498 89.1209 244.413 87.9784 244.48 86.8344C244.598 84.8093 245.023 82.8507 245.846 80.9819C246.644 79.1693 247.702 77.5433 249.072 76.1078C250.278 74.8436 251.608 73.7417 253.173 72.9669C254.223 72.4467 255.313 71.9889 256.422 71.6092C257.103 71.3757 257.85 71.3079 258.574 71.2288C259.232 71.157 259.9 71.1595 260.564 71.1484C262.696 71.1129 264.703 71.608 266.607 72.5618C268.507 73.5139 270.052 74.8842 271.377 76.5275C272.969 78.5021 274.067 80.7411 274.953 83.0996C275.082 83.4447 274.999 83.5545 274.662 83.6937C272.796 84.4639 270.947 85.2776 269.088 86.0648C267.342 86.8037 265.59 87.526 263.842 88.2596C262.127 88.9793 260.415 89.7062 258.7 90.4259C256.807 91.2207 254.911 92.0109 252.933 92.8378C253.191 93.292 253.415 93.7514 253.698 94.1697C254.544 95.4161 255.607 96.4337 256.98 97.0853C257.796 97.4728 258.655 97.7171 259.566 97.7982C261.733 97.991 263.768 97.5881 265.693 96.5716C267.004 95.8789 268.326 94.6145 269.14 93.188C269.405 93.3624 269.671 93.5339 269.933 93.7091C271.449 94.72 272.962 95.7357 274.484 96.7381C274.685 96.8704 274.711 96.9428 274.568 97.1547C273.814 98.2742 272.921 99.2809 271.9 100.144C270.988 100.914 269.985 101.587 268.975 102.227C267.886 102.917 266.678 103.364 265.432 103.701C265.356 103.722 265.284 103.763 265.184 103.797ZM258.33 84.4617C261.082 83.307 263.834 82.1523 266.605 80.9895C266.165 80.2443 265.626 79.6159 264.965 79.0735C263.947 78.2368 262.776 77.7637 261.487 77.6391C260.045 77.4994 258.637 77.7448 257.259 78.2115C254.86 79.0243 253.245 80.627 252.415 82.9977C252.12 83.8406 251.937 84.7283 251.767 85.6079C251.667 86.1271 251.692 86.6706 251.658 87.2597C253.921 86.3081 256.099 85.3925 258.33 84.4617Z" fill="white"/>
<path d="M233.979 54.4093C234.108 54.3589 234.237 54.2653 234.365 54.2647C236.549 54.2556 238.732 54.2612 240.916 54.2543C241.23 54.2533 241.363 54.3806 241.341 54.689C241.333 54.8097 241.341 54.9315 241.341 55.0528C241.341 70.9074 241.341 86.762 241.341 102.617C241.341 103.397 241.34 103.397 240.572 103.397C238.559 103.397 236.545 103.399 234.531 103.392C234.359 103.391 234.186 103.325 233.999 103.233C233.985 103.08 233.988 102.983 233.988 102.886C233.988 86.8482 233.988 70.8106 233.987 54.773C233.987 54.6518 233.982 54.5305 233.979 54.4093Z" fill="white"/>
<path d="M233.966 54.4353C233.982 54.5305 233.987 54.6518 233.987 54.773C233.988 70.8106 233.988 86.8482 233.988 102.886C233.988 102.983 233.985 103.08 233.982 103.211C233.958 103.078 233.918 102.912 233.918 102.746C233.915 86.7952 233.915 70.8448 233.917 54.8945C233.917 54.7502 233.939 54.6058 233.966 54.4353Z" fill="#73887B"/>
</g>
<defs>
<clipPath id="clip0_5_601">
<rect width="218.4" height="91" fill="white" transform="translate(64 52)"/>
</clipPath>
</defs>
</svg>
