<svg width="346" height="196" viewBox="0 0 346 196" fill="none" xmlns="http://www.w3.org/2000/svg">
<g clip-path="url(#clip0_5_1049)">
<mask id="mask0_5_1049" style="mask-type:luminance" maskUnits="userSpaceOnUse" x="98" y="23" width="151" height="151">
<path d="M248.136 23.1054H98.1362V173.105H248.136V23.1054Z" fill="white"/>
</mask>
<g mask="url(#mask0_5_1049)">
<path d="M135.457 46.2051V48.236C135.525 49.9282 135.239 51.6159 134.617 53.1911C133.995 54.7664 133.051 56.1945 131.846 57.3842C130.599 58.5556 129.131 59.4675 127.528 60.0666C125.926 60.6658 124.22 60.9403 122.51 60.8743C120.645 60.9331 118.787 60.6133 117.049 59.9344C115.31 59.2554 113.728 58.2313 112.396 56.9238C111.105 55.6655 110.085 54.1561 109.4 52.4885C108.714 50.821 108.378 49.0307 108.411 47.2281C108.387 45.4124 108.727 43.6103 109.413 41.9288C110.098 40.2473 111.115 38.7207 112.402 37.4394C113.688 36.1582 115.219 35.1486 116.904 34.4704C118.588 33.7923 120.392 33.4594 122.208 33.4916C124.486 33.4414 126.739 33.9786 128.75 35.0515C130.761 36.1244 132.462 37.6968 133.689 39.6175L129.242 42.1749C128.477 41.0099 127.424 40.0621 126.185 39.423C124.947 38.784 123.564 38.4753 122.171 38.5268C121.021 38.4865 119.875 38.6864 118.806 39.1138C117.738 39.5412 116.77 40.1866 115.964 41.009C115.16 41.8249 114.532 42.7968 114.118 43.8649C113.704 44.9329 113.513 46.0744 113.557 47.2191C113.522 48.3598 113.722 49.4957 114.143 50.5565C114.563 51.6173 115.197 52.5807 116.005 53.387C116.879 54.2059 117.908 54.8409 119.032 55.2544C120.156 55.6678 121.351 55.8513 122.548 55.794C126.569 55.794 129.277 53.9075 130.22 50.7935H122.247V46.2051H135.457Z" fill="white"/>
<path d="M143.228 44.7745C143.629 43.6697 144.373 42.7227 145.352 42.0727C146.331 41.4228 147.493 41.1042 148.667 41.164V46.5797C147.333 46.3734 145.972 46.6974 144.874 47.4823C144.299 47.9409 143.848 48.5355 143.56 49.2123C143.273 49.8892 143.159 50.6271 143.228 51.3591V60.3493H138.624V41.531H143.228V44.7745Z" fill="white"/>
<path d="M156.452 52.9327C157.088 55.3066 158.859 56.4755 161.755 56.4755C162.557 56.5228 163.358 56.3761 164.092 56.0477C164.825 55.7193 165.468 55.2189 165.967 54.589L169.878 56.8456C168.971 58.1615 167.74 59.2226 166.306 59.9274C164.871 60.6322 163.279 60.9572 161.683 60.8713C160.309 60.9352 158.936 60.7188 157.648 60.2355C156.361 59.7521 155.185 59.0118 154.192 58.0596C153.264 57.1272 152.536 56.0149 152.052 54.7911C151.569 53.5673 151.34 52.2576 151.381 50.9424C151.345 49.6361 151.572 48.336 152.05 47.1196C152.528 45.9033 153.245 44.7956 154.161 43.8628C155.087 42.9142 156.202 42.1698 157.433 41.6775C158.664 41.1853 159.984 40.956 161.309 41.0045C162.582 40.9635 163.849 41.1976 165.023 41.6909C166.197 42.1842 167.251 42.925 168.112 43.8628C169.007 44.8048 169.707 45.9144 170.172 47.1279C170.637 48.3413 170.857 49.6346 170.82 50.9334C170.811 51.6008 170.748 52.2664 170.632 52.9237L156.452 52.9327ZM165.973 49.1718C165.789 48.0809 165.214 47.0943 164.356 46.3963C163.498 45.6983 162.415 45.3368 161.309 45.3792C160.167 45.3005 159.034 45.6428 158.126 46.3414C157.219 47.0401 156.598 48.0468 156.381 49.1718H165.973Z" fill="white"/>
<path d="M188.312 41.5355H193.163V60.3523H188.312V58.1333C187.582 59.0443 186.646 59.7681 185.58 60.2448C184.515 60.7215 183.351 60.9373 182.186 60.8743C180.966 60.8873 179.758 60.639 178.642 60.1459C177.526 59.6529 176.529 58.9266 175.717 58.016C173.945 56.0942 172.988 53.559 173.05 50.9454C172.987 48.3425 173.945 45.8182 175.717 43.9109C176.527 42.9957 177.523 42.264 178.639 41.7649C179.754 41.2657 180.964 41.0106 182.186 41.0165C183.352 40.9545 184.516 41.1717 185.582 41.6499C186.647 42.1282 187.583 42.8539 188.312 43.7665V41.5355ZM183.09 56.2483C183.777 56.2699 184.462 56.1506 185.101 55.8978C185.741 55.6451 186.322 55.2642 186.809 54.7786C187.308 54.2761 187.699 53.6768 187.958 53.0176C188.216 52.3584 188.337 51.6532 188.313 50.9454C188.341 50.2417 188.221 49.54 187.962 48.8852C187.703 48.2304 187.31 47.6368 186.809 47.1423C185.808 46.1797 184.473 45.642 183.085 45.642C181.696 45.642 180.361 46.1797 179.361 47.1423C178.87 47.643 178.486 48.2385 178.234 48.8924C177.981 49.5463 177.864 50.2449 177.891 50.9454C177.868 51.6501 177.986 52.3522 178.238 53.0105C178.491 53.6688 178.872 54.2699 179.361 54.7786C179.849 55.265 180.431 55.6464 181.072 55.8991C181.714 56.1519 182.4 56.2708 183.088 56.2483" fill="white"/>
<path d="M209.084 46.2036H204.831V54.0264C204.831 56.0573 206.304 56.1009 209.084 55.943V60.3508C202.427 61.103 199.98 59.1834 199.98 54.0324V46.2096H196.705V41.5461H199.98V37.7445L204.831 36.2747V41.54H209.084V46.2036Z" fill="white"/>
<path d="M121.692 67.0904C122.875 67.0678 124.05 67.2825 125.148 67.7217C126.247 68.161 127.246 68.8159 128.087 69.6478C128.93 70.4587 129.596 71.4354 130.042 72.5164C130.489 73.5974 130.707 74.7592 130.682 75.9286C130.709 77.0987 130.492 78.2616 130.045 79.3434C129.598 80.4252 128.932 81.4022 128.087 82.2124C127.247 83.0458 126.248 83.7017 125.149 84.141C124.051 84.5804 122.875 84.7942 121.692 84.7698H117.06V93.4185H111.868V67.0919L121.692 67.0904ZM121.692 79.9182C122.209 79.9212 122.722 79.8188 123.199 79.6173C123.676 79.4157 124.107 79.1193 124.465 78.7459C124.824 78.3725 125.103 77.93 125.285 77.4454C125.467 76.9608 125.549 76.4443 125.525 75.9271C125.551 75.4101 125.471 74.8932 125.289 74.4083C125.107 73.9235 124.828 73.481 124.469 73.1082C124.11 72.7353 123.678 72.44 123.201 72.2405C122.723 72.041 122.209 71.9414 121.692 71.948H117.06V79.9212L121.692 79.9182Z" fill="white"/>
</g>
<path d="M134.216 67.3311H139.07V93.417H134.216V67.3311Z" fill="white"/>
<mask id="mask1_5_1049" style="mask-type:luminance" maskUnits="userSpaceOnUse" x="98" y="23" width="151" height="151">
<path d="M248.136 23.1054H98.1362V173.105H248.136V23.1054Z" fill="white"/>
</mask>
<g mask="url(#mask1_5_1049)">
<path d="M158.552 74.6153H163.407V93.42H158.552V91.2011C157.823 92.1132 156.887 92.8384 155.822 93.3166C154.756 93.7949 153.592 94.0124 152.426 93.9511C151.206 93.9661 149.997 93.7186 148.881 93.2254C147.765 92.7323 146.768 92.0049 145.957 91.0928C144.179 89.174 143.218 86.6378 143.278 84.0222C143.219 81.4148 144.18 78.8874 145.957 76.9787C146.767 76.0625 147.763 75.33 148.878 74.8303C149.994 74.3306 151.204 74.0752 152.426 74.0813C153.593 74.0198 154.757 74.2376 155.822 74.7164C156.888 75.1952 157.824 75.9212 158.552 76.8343V74.6153ZM153.333 89.3251C154.021 89.3471 154.705 89.228 155.345 88.9752C155.984 88.7224 156.566 88.3413 157.052 87.8553C157.55 87.3524 157.941 86.753 158.2 86.0939C158.458 85.4348 158.58 84.7298 158.557 84.0222C158.584 83.3186 158.464 82.617 158.205 81.9623C157.946 81.3075 157.553 80.7138 157.052 80.2191C156.573 79.7206 155.994 79.3289 155.353 79.0697C154.713 78.8104 154.024 78.6895 153.333 78.7147C152.641 78.6883 151.95 78.8087 151.307 79.068C150.664 79.3273 150.083 79.7195 149.602 80.2191C149.112 80.7202 148.729 81.3158 148.477 81.9696C148.224 82.6234 148.107 83.3217 148.133 84.0222C148.111 84.7267 148.229 85.4286 148.482 86.0867C148.734 86.7449 149.115 87.3461 149.602 87.8553C150.091 88.3424 150.674 88.7241 151.316 88.9769C151.957 89.2297 152.644 89.3482 153.333 89.3251Z" fill="white"/>
<path d="M170.411 91.0867C169.485 90.1614 168.757 89.0574 168.272 87.8418C167.786 86.6263 167.554 85.3246 167.587 84.0162C167.557 82.7037 167.793 81.3987 168.282 80.18C168.77 78.9613 169.5 77.8542 170.428 76.9254C171.356 75.9967 172.462 75.2656 173.681 74.7762C174.899 74.2869 176.204 74.0494 177.516 74.0782C179.23 74.0387 180.922 74.4705 182.408 75.3265C183.893 76.1826 185.115 77.43 185.941 78.9329L181.761 81.3805C181.36 80.5998 180.745 79.9491 179.988 79.5041C179.231 79.0591 178.363 78.8381 177.486 78.8667C176.81 78.8516 176.138 78.9755 175.512 79.2308C174.885 79.4862 174.318 79.8674 173.846 80.3509C173.373 80.8344 173.004 81.4099 172.763 82.0417C172.522 82.6735 172.413 83.3481 172.443 84.0237C172.427 84.701 172.544 85.3749 172.79 86.0065C173.035 86.6381 173.403 87.2148 173.872 87.7034C174.344 88.1777 174.907 88.5501 175.528 88.7975C176.149 89.0449 176.815 89.162 177.483 89.1416C178.366 89.1818 179.242 88.9686 180.008 88.5272C180.775 88.0858 181.398 87.4346 181.807 86.6503L186.019 89.0573C185.245 90.3609 184.185 91.4715 182.919 92.3051C181.653 93.1388 180.214 93.6736 178.71 93.8693C177.207 94.0649 175.679 93.9162 174.242 93.4344C172.805 92.9526 171.496 92.1503 170.414 91.0882" fill="white"/>
<path d="M193.77 86.014C194.415 88.3789 196.177 89.5448 199.081 89.5448C199.882 89.593 200.683 89.4481 201.416 89.1221C202.149 88.7961 202.793 88.2987 203.294 87.6718L207.205 89.9284C206.299 91.2472 205.068 92.3106 203.632 93.0164C202.196 93.7222 200.603 94.0467 199.005 93.9586C197.631 94.0237 196.259 93.8067 194.973 93.321C193.687 92.8354 192.514 92.0914 191.526 91.1349C190.595 90.2067 189.864 89.0972 189.378 87.8751C188.892 86.653 188.662 85.3442 188.703 84.0297C188.667 82.7247 188.895 81.4259 189.373 80.211C189.851 78.9961 190.569 77.8901 191.484 76.9591C192.41 76.0091 193.524 75.2632 194.756 74.7694C195.987 74.2756 197.308 74.0448 198.633 74.0918C199.908 74.0523 201.176 74.2879 202.352 74.7827C203.527 75.2775 204.582 76.0199 205.445 76.9591C207.249 78.8641 208.223 81.4072 208.153 84.0297C208.138 84.6968 208.076 85.362 207.965 86.02L193.77 86.014ZM203.291 82.253C203.11 81.1597 202.537 80.1698 201.678 79.4695C200.819 78.7692 199.734 78.4066 198.627 78.45C197.483 78.3726 196.35 78.7167 195.442 79.4173C194.534 80.1179 193.914 81.1266 193.699 82.253H203.291Z" fill="white"/>
</g>
<path d="M127.788 101.485V106.195H120.673V126.504H115.482V106.195H108.411V101.485H127.788Z" fill="white"/>
<mask id="mask2_5_1049" style="mask-type:luminance" maskUnits="userSpaceOnUse" x="98" y="23" width="151" height="151">
<path d="M248.136 23.1054H98.1362V173.105H248.136V23.1054Z" fill="white"/>
</mask>
<g mask="url(#mask2_5_1049)">
<path d="M135.873 127.019C134.563 127.043 133.261 126.802 132.046 126.312C130.83 125.821 129.726 125.091 128.799 124.164C127.873 123.237 127.142 122.133 126.652 120.918C126.161 119.702 125.921 118.4 125.944 117.09C125.914 115.784 126.152 114.486 126.644 113.276C127.135 112.066 127.87 110.97 128.803 110.055C129.723 109.118 130.824 108.377 132.04 107.88C133.256 107.382 134.56 107.138 135.873 107.161C137.842 107.164 139.765 107.748 141.402 108.842C143.039 109.935 144.315 111.488 145.071 113.306C145.827 115.123 146.028 117.123 145.65 119.055C145.271 120.986 144.33 122.763 142.944 124.16C142.022 125.093 140.92 125.828 139.704 126.32C138.488 126.811 137.184 127.049 135.873 127.019ZM135.873 122.279C136.548 122.297 137.22 122.178 137.847 121.927C138.474 121.676 139.043 121.299 139.518 120.819C140.463 119.809 140.988 118.478 140.988 117.095C140.988 115.712 140.463 114.381 139.518 113.371C139.044 112.889 138.476 112.509 137.849 112.257C137.222 112.004 136.549 111.883 135.873 111.901C135.197 111.882 134.524 112.002 133.896 112.255C133.268 112.508 132.699 112.888 132.225 113.371C131.299 114.39 130.787 115.718 130.787 117.095C130.787 118.472 131.299 119.8 132.225 120.819C132.701 121.3 133.27 121.677 133.898 121.928C134.525 122.179 135.198 122.298 135.873 122.279Z" fill="white"/>
</g>
<path d="M116.494 161.11L109.123 134.769H114.577L119.622 154.295L125.11 134.769H129.551L135.082 154.295L140.125 134.769H145.572L138.201 161.11H132.301L127.336 143.729L122.402 161.11H116.494Z" fill="white"/>
<mask id="mask3_5_1049" style="mask-type:luminance" maskUnits="userSpaceOnUse" x="98" y="23" width="151" height="151">
<path d="M248.136 23.1054H98.1362V173.105H248.136V23.1054Z" fill="white"/>
</mask>
<g mask="url(#mask3_5_1049)">
<path d="M155.053 161.63C153.743 161.652 152.442 161.41 151.228 160.919C150.013 160.427 148.91 159.697 147.984 158.77C147.057 157.844 146.327 156.741 145.835 155.526C145.344 154.312 145.102 153.011 145.124 151.701C145.091 150.395 145.328 149.096 145.82 147.886C146.312 146.676 147.048 145.58 147.982 144.667C148.902 143.728 150.003 142.987 151.219 142.49C152.435 141.992 153.739 141.748 155.053 141.772C157.686 141.772 160.212 142.818 162.074 144.68C163.936 146.542 164.982 149.068 164.982 151.701C164.982 154.334 163.936 156.86 162.074 158.722C160.212 160.584 157.686 161.63 155.053 161.63ZM155.053 156.89C155.73 156.911 156.404 156.792 157.033 156.541C157.663 156.29 158.233 155.912 158.71 155.43C159.647 154.417 160.167 153.087 160.167 151.706C160.167 150.326 159.647 148.996 158.71 147.982C157.729 147.038 156.42 146.511 155.059 146.511C153.697 146.511 152.389 147.038 151.408 147.982C150.488 149.004 149.979 150.331 149.979 151.706C149.979 153.082 150.488 154.408 151.408 155.43C151.883 155.911 152.451 156.289 153.078 156.54C153.706 156.791 154.378 156.91 155.053 156.89Z" fill="white"/>
<path d="M173.306 145.529C173.757 144.402 174.553 143.446 175.58 142.798C176.606 142.15 177.811 141.842 179.022 141.918V147.334C177.626 147.125 176.202 147.447 175.031 148.237C174.434 148.679 173.961 149.269 173.658 149.948C173.355 150.627 173.233 151.373 173.303 152.113V161.103H168.451V142.299H173.306V145.529Z" fill="white"/>
</g>
<path d="M199.936 161.11H194.301L187.442 152.566V161.11H182.601V134.769H187.444V150.576L193.912 142.302H199.706L192.151 151.585L199.936 161.11Z" fill="white"/>
<mask id="mask4_5_1049" style="mask-type:luminance" maskUnits="userSpaceOnUse" x="98" y="23" width="151" height="151">
<path d="M248.136 23.1054H98.1362V173.105H248.136V23.1054Z" fill="white"/>
</mask>
<g mask="url(#mask4_5_1049)">
<path d="M201.707 157.711C201.698 156.867 201.941 156.04 202.403 155.334C202.866 154.629 203.528 154.076 204.305 153.748C205.082 153.419 205.94 153.329 206.768 153.489C207.597 153.648 208.359 154.051 208.958 154.645C209.558 155.239 209.967 155.998 210.134 156.825C210.301 157.652 210.219 158.51 209.897 159.29C209.575 160.07 209.029 160.737 208.327 161.206C207.626 161.675 206.8 161.925 205.957 161.923C205.401 161.927 204.85 161.82 204.335 161.61C203.821 161.4 203.353 161.09 202.958 160.699C202.563 160.308 202.249 159.842 202.035 159.33C201.82 158.817 201.709 158.267 201.707 157.711ZM209.447 157.702C209.436 157.015 209.222 156.347 208.832 155.782C208.442 155.216 207.895 154.778 207.257 154.523C206.619 154.268 205.921 154.207 205.248 154.347C204.576 154.488 203.96 154.824 203.479 155.313C202.997 155.802 202.67 156.423 202.539 157.097C202.409 157.771 202.481 158.469 202.745 159.103C203.01 159.737 203.456 160.278 204.027 160.659C204.599 161.04 205.27 161.244 205.957 161.245C206.424 161.261 206.889 161.179 207.323 161.006C207.757 160.833 208.151 160.572 208.479 160.239C208.807 159.906 209.062 159.509 209.229 159.072C209.395 158.635 209.47 158.169 209.447 157.702ZM204.509 155.557H205.984C206.962 155.557 207.598 155.952 207.598 156.816V156.837C207.611 157.096 207.531 157.352 207.373 157.558C207.215 157.764 206.988 157.907 206.734 157.961L207.849 159.745H206.886L205.865 158.119H205.427V159.745H204.509V155.557ZM205.957 157.482C206.435 157.482 206.685 157.273 206.685 156.881V156.863C206.685 156.411 206.412 156.27 205.957 156.27H205.426V157.488L205.957 157.482Z" fill="white"/>
</g>
</g>
<defs>
<clipPath id="clip0_5_1049">
<rect width="150" height="150" fill="white" transform="translate(98.1362 23.1054)"/>
</clipPath>
</defs>
</svg>
