<svg width="346" height="196" viewBox="0 0 346 196" fill="none" xmlns="http://www.w3.org/2000/svg">
<path fill-rule="evenodd" clip-rule="evenodd" d="M231.339 63.5754C231.383 63.7379 231.405 63.9054 231.406 64.0738V90.2378C231.406 90.5736 231.317 90.9035 231.149 91.194C230.98 91.4846 230.738 91.7256 230.447 91.8927L208.487 104.536V129.596C208.487 130.278 208.125 130.907 207.533 131.251L161.694 157.639C161.589 157.699 161.474 157.737 161.36 157.777C161.317 157.792 161.277 157.818 161.231 157.83C160.911 157.914 160.574 157.914 160.254 157.83C160.201 157.815 160.153 157.787 160.103 157.768C159.998 157.73 159.889 157.696 159.789 157.639L113.959 131.251C113.667 131.084 113.426 130.842 113.257 130.552C113.089 130.261 113 129.932 113 129.596V51.1038C113 50.9322 113.024 50.7652 113.067 50.6031C113.081 50.5482 113.114 50.4982 113.134 50.4433C113.169 50.3432 113.203 50.2406 113.255 50.1476C113.291 50.0856 113.343 50.0355 113.386 49.9783C113.441 49.902 113.491 49.8233 113.556 49.7565C113.61 49.7017 113.682 49.6612 113.744 49.6135C113.813 49.5562 113.875 49.4942 113.954 49.4489L136.872 36.2548C137.163 36.0879 137.491 36 137.826 36C138.161 36 138.49 36.0879 138.78 36.2548L161.696 49.4489H161.701C161.777 49.4966 161.842 49.5562 161.911 49.6111C161.973 49.6588 162.042 49.7017 162.097 49.7542C162.164 49.8233 162.211 49.902 162.269 49.9783C162.309 50.0355 162.364 50.0856 162.397 50.1476C162.452 50.243 162.483 50.3432 162.521 50.4433C162.54 50.4982 162.574 50.5482 162.588 50.6055C162.632 50.768 162.654 50.9355 162.655 51.1038V100.129L181.751 89.1337V64.0714C181.751 63.9045 181.775 63.7352 181.818 63.5754C181.834 63.5182 181.865 63.4681 181.884 63.4132C181.923 63.3131 181.956 63.2105 182.008 63.1175C182.044 63.0555 182.097 63.0055 182.137 62.9482C182.194 62.8719 182.242 62.7932 182.309 62.7265C182.364 62.6716 182.433 62.6311 182.495 62.5834C182.566 62.5262 182.628 62.4642 182.705 62.4188L205.626 49.2248C205.916 49.0576 206.245 48.9696 206.579 48.9696C206.914 48.9696 207.243 49.0576 207.533 49.2248L230.449 62.4188C230.531 62.4665 230.593 62.5262 230.664 62.581C230.724 62.6287 230.793 62.6716 230.848 62.7241C230.914 62.7932 230.962 62.8719 231.019 62.9482C231.062 63.0055 231.115 63.0555 231.148 63.1175C231.203 63.2105 231.234 63.3131 231.272 63.4132C231.294 63.4681 231.325 63.5182 231.339 63.5754ZM227.586 89.1337V67.3765L219.566 71.9931L208.487 78.3719V100.129L227.588 89.1337H227.586ZM204.669 128.492V106.72L193.772 112.944L162.652 130.705V152.681L204.669 128.492ZM116.82 54.4065V128.492L158.832 152.679V130.707L136.884 118.286L136.877 118.281L136.868 118.276C136.794 118.233 136.732 118.171 136.663 118.119C136.603 118.071 136.534 118.033 136.481 117.98L136.477 117.973C136.415 117.914 136.372 117.84 136.319 117.773C136.271 117.709 136.214 117.654 136.176 117.587L136.174 117.58C136.131 117.508 136.105 117.422 136.074 117.341C136.043 117.27 136.002 117.203 135.983 117.127C135.959 117.036 135.954 116.938 135.945 116.845C135.935 116.774 135.916 116.702 135.916 116.631V116.626V65.402L124.84 59.0208L116.82 54.4065ZM137.829 40.1132L118.735 51.1038L137.824 62.0945L156.915 51.1015L137.824 40.1132H137.829ZM147.758 108.704L158.835 102.328V54.4065L150.815 59.0232L139.736 65.402V113.323L147.758 108.704ZM206.579 53.0831L187.488 64.0738L206.579 75.0645L225.668 64.0714L206.579 53.0831ZM204.669 78.3719L193.59 71.9931L185.571 67.3765V89.1337L196.648 95.5102L204.669 100.129V78.3719ZM160.74 127.402L188.743 111.416L202.74 103.427L183.663 92.4435L161.699 105.089L141.68 116.614L160.74 127.402Z" fill="white"/>
</svg>
