<svg width="274" height="147" viewBox="0 0 274 147" fill="none" xmlns="http://www.w3.org/2000/svg">
<path d="M214.86 20.0124L217.407 20.1943L219.226 20.922L220.136 21.6498L221.409 23.651V24.0148L223.774 24.5606L225.594 25.6522L227.231 28.0173L227.959 30.0186L228.868 32.9295L229.596 33.6572L230.688 33.4752L231.779 32.7475L233.235 31.1101H233.599V32.7475L233.235 34.7488L232.507 36.0223L232.871 36.75L234.144 38.0235L235.418 40.0247L236.146 42.026L236.51 43.4814L237.601 45.1188L239.602 47.302L241.24 49.3032L242.695 50.7587L243.969 52.2141L245.242 53.4876L245.97 54.5792V55.8527L245.06 57.3082L243.787 58.3997L243.059 58.5817L242.695 59.6733L241.785 60.7648L240.148 61.4926L235.782 62.0384L231.597 62.4022L229.232 62.948L228.686 63.4938V64.7673L228.868 65.3131L230.142 65.677L232.325 64.4035L233.235 64.7673L234.69 65.8589L235.418 66.9505V68.224L234.508 70.4072V73.5L233.781 75.3193L232.689 76.047L231.961 76.229H229.05L227.959 75.8651L227.595 75.1374L227.413 73.8639L226.503 72.7723L225.048 68.9517L223.956 67.3144L222.137 65.495L220.136 63.8577L218.498 62.2203L217.771 61.1287L217.225 59.3094V57.1262L217.953 54.3973L219.954 48.7574L220.682 46.3923V45.6646L219.226 49.3032L217.043 54.0334L216.133 57.3082V59.4913L216.861 61.6745L217.771 63.1299L219.59 64.7673L221.955 66.5866L223.774 68.224L225.048 70.2252L226.139 72.4084L226.503 74.7735V76.047L225.776 77.3205L224.138 78.9579L222.501 80.0495L221.955 80.5953L221.591 82.4146L221.227 82.5965L220.318 81.8688L219.226 80.4134L217.589 77.5025V77.1386H217.225L217.043 78.2302L215.587 80.0495L213.95 81.8688L211.585 84.2339L210.857 84.4158L210.493 83.6881L210.13 81.323H209.766L209.22 83.3242L208.128 86.0532L206.855 87.6906L205.217 88.9641H204.854L204.49 90.0557V90.2376L204.854 92.0569L205.581 97.3329L206.491 100.062L209.402 104.792L210.675 107.521V107.885L213.95 108.249L215.587 108.613L216.679 109.522L218.498 112.615L218.862 114.434L218.316 115.708L217.589 116.618L215.587 117.345L212.859 117.527L208.128 117.345L204.854 116.981L203.398 116.436L202.125 114.98L200.851 111.705L199.941 110.614L197.94 109.522L196.121 107.885L194.302 104.61L192.846 102.973L191.391 101.699L189.753 100.062L187.57 96.7871L185.751 93.6943L184.659 91.6931L183.386 90.6015L182.658 90.2376L179.019 90.0557L176.29 89.146L174.471 87.8725L173.016 86.4171L172.106 85.8713L171.014 86.0532L169.377 87.3267L168.104 89.146L164.829 94.9678L162.464 98.4245L160.281 101.517L158.825 104.064L157.915 106.793V108.431L159.735 109.704L160.644 110.796L163.373 111.887L164.465 112.615L165.193 113.525L165.375 113.889V115.344L164.647 116.436L162.828 117.345L159.553 118.073L157.006 118.437H153.913L151.366 117.891L149.729 117.163L148.637 116.436L147.727 115.526L147.182 114.434L147.363 112.797L148.273 110.978L148.455 110.25L147.727 109.886L146.454 108.431L146.272 108.067V106.429L147 103.7L148.273 100.426L148.819 97.8787L149.547 93.1485L151.548 85.5074L151.912 82.5965L149.365 82.7785H140.45L137.539 82.2327L134.81 81.323L129.898 79.3218L126.441 78.0483L124.804 77.8663L123.349 78.9579L121.529 81.6869L120.62 84.2339L119.892 87.3267L119.164 90.6015L118.255 92.9666L116.071 96.6052L115.526 98.0606L115.708 99.8799L116.617 101.517L118.073 103.155L119.892 104.61L122.075 106.429L124.076 107.521L124.986 107.885L126.078 108.067H130.626L132.081 108.795L133.355 110.25L134.083 111.887V113.889L133.355 114.798L132.263 115.344L129.534 115.708L124.804 116.254L121.529 116.618H118.436L116.617 115.708L114.798 113.707L112.251 112.069L110.068 110.614L107.885 108.976L105.519 106.975L103.518 105.338L99.8796 101.699L98.9699 100.062L98.788 99.3342V96.7871L99.3338 92.4208L98.9699 88.4183L98.2422 85.3255L97.3325 83.5062L96.6048 83.3242L95.1494 84.5978L93.6939 85.3255L88.7818 86.4171L87.1444 87.1448L85.689 88.7822L84.0516 91.1473L82.4142 92.6027L80.9588 93.3304L77.5021 94.604L75.8647 95.6955L74.7731 96.969L73.6815 99.1522L72.59 102.609L71.6803 107.703L71.4984 108.249L73.4996 107.885L74.0454 107.703H75.8647L77.684 108.431L79.8672 110.068L80.9588 111.887L81.3226 113.161V114.434L80.7768 115.708L80.0491 116.618L78.4117 117.345L74.9551 117.891L73.1357 118.073H68.9513L66.7682 117.527L65.6766 116.981L64.585 115.708L63.6754 112.797L62.5838 108.613L60.7645 105.338L60.4006 103.882V101.517L60.9464 97.5148V95.5136L60.2187 92.4208V90.7834L61.3103 89.328L62.7657 88.2364L65.6766 87.1448L66.0405 86.599L66.2224 83.3242L66.9501 80.4134L68.4055 76.4109L70.5887 70.771L71.6803 68.0421L73.3177 64.9493L75.6828 61.3106L78.0479 57.4901L80.413 52.578L81.6865 49.849L74.9551 50.0309L60.5825 50.2129L56.5801 50.3948L52.9414 50.9406L49.3028 52.0322L46.21 53.3057L43.481 54.7611L41.1159 56.5804L39.4786 58.2178L37.6593 60.9468L36.7496 63.3119L36.2038 65.8589V69.4975L37.1135 72.2265L38.7508 74.5916L40.7521 76.5928L42.5714 77.8663L43.8449 78.5941L44.9365 78.4121L46.21 77.8663L47.4835 77.6844L49.1209 78.0483L51.486 79.3218L53.8511 81.1411L56.2162 83.1423L59.6729 86.599L60.9464 88.2364L60.7645 88.6002L56.2162 89.6918L53.8511 90.0557H49.6667L46.7558 89.328L44.2088 88.0545L42.3895 86.4171L41.8437 85.5074L41.2979 82.9604L39.1147 82.0507L36.9315 80.7772L34.5664 78.5941L33.111 76.7747L31.6555 73.8639L30.9278 71.4988L30.564 69.1337V65.3131L31.1098 61.8564L32.0194 59.1275L33.4749 56.3985L35.2942 54.3973L36.2038 53.4876L38.0231 51.8502L40.7521 50.0309L45.3004 47.6658L49.3028 46.2104L54.033 45.1188L59.1271 44.3911L68.0417 43.6634L76.4105 42.9356L81.1407 42.2079L86.2348 40.9344L95.3313 38.0235L100.061 36.9319L102.427 36.5681L104.61 36.3861H113.16L123.349 36.9319L129.352 37.2958L134.083 37.4777H139.177L144.271 37.1139L153.731 35.8403L166.284 33.8391L171.378 32.7475L173.38 32.0198L176.109 30.5644L178.474 28.927L180.111 26.9257L181.93 25.4703L184.113 24.5606L186.479 24.0148L187.934 23.8329H191.209L193.756 24.1968H195.029L199.396 22.1955L202.125 21.104L204.49 20.5582L207.583 20.7401H209.766L213.222 20.1943L214.86 20.0124Z" fill="white"/>
<path d="M189.208 30.9282L189.572 31.1102L187.207 33.2933L185.933 35.4765L185.023 38.9332L184.841 40.2067V43.8453L185.387 46.7562L186.297 49.1213L187.934 51.6683V52.0322L190.663 52.2141L191.027 52.7599L191.209 55.125L192.301 55.8527L192.483 53.6696L193.028 52.578L193.21 52.396L195.393 52.2141H198.304L200.669 52.396L201.215 53.1238L201.579 54.7611L201.761 63.3119L207.401 68.9517L209.22 71.3168L210.676 74.2277L211.221 76.7748V78.2302L211.039 78.776H210.676L210.312 75.6832L209.584 74.0458L208.492 72.0446L207.037 70.2253L205.218 68.224L203.762 66.9505L201.761 65.1312L201.579 71.3168H198.304L197.94 71.1349L197.759 65.8589L196.121 65.677V71.1349L195.939 71.3168H192.483L192.301 70.771V57.854L191.391 56.9443L191.027 56.7624V70.0433L191.391 71.3168L192.483 71.8626L194.484 73.3181L196.303 74.7735L198.122 76.4109L199.396 77.8663L200.851 80.2314L201.761 82.4146L202.125 84.052V87.3267L201.579 89.6918L201.033 90.7834L202.307 90.2376L203.398 90.4196L202.671 90.7834L200.669 91.5111L200.488 91.6931H199.214L199.578 90.9654L200.488 89.5099L201.033 87.5087V84.9616L200.124 81.8688L198.85 79.5037L197.395 77.6844L195.575 75.8651L192.483 73.5L190.299 72.0446L189.026 71.4988L187.388 70.953L186.843 69.1337L186.479 68.7698H185.933L185.205 70.4072L184.478 71.1349L184.114 71.3168H176.473V52.2141H179.565L179.384 51.4864V49.3032L179.565 46.9381L179.929 46.2104V52.2141H182.658L184.478 52.396L185.387 53.1238L185.751 54.7611L185.933 66.9505L186.843 67.4963H187.207V53.4876L186.297 51.6683L184.478 48.2116L183.75 44.755V40.9344L184.66 36.75L186.115 33.8391L187.752 32.0198L189.208 30.9282Z" fill="black"/>
<path d="M171.015 36.2042H171.379L170.833 37.8416L169.741 41.2983L168.468 47.1201L167.194 50.5767L166.285 52.0322L169.377 52.2141L169.923 53.6696L170.651 56.0347L171.015 57.854L171.197 58.0359L171.561 52.2141H175.017V71.3168H171.379L171.015 70.0433L170.287 66.7686L170.105 65.3131H169.923L169.741 66.9505L169.559 71.3168H165.921L165.739 52.578L164.829 53.1238L164.647 55.8527L164.465 71.3168H161.009L160.827 64.4035V52.2141L165.011 52.0322L165.921 50.5767L166.83 47.8478L168.468 40.7525L169.377 38.5693L170.469 36.75L171.015 36.2042Z" fill="black"/>
<path d="M90.9651 52.2141H94.058L94.6037 52.7599L96.4231 58.7636L96.7869 60.401H97.1508L97.5146 58.7636L99.6978 52.396L99.8797 52.2141H103.154L103.336 52.578V70.953L103.154 71.3168H99.6978V63.8577L98.7882 66.7686L98.4243 66.9505H95.5134L94.9676 66.2228L94.7857 64.2215H94.4218V71.3168H90.9651L90.7832 71.1349V54.2153L90.9651 52.2141Z" fill="black"/>
<path d="M106.975 52.2141H111.887L113.524 52.578L114.07 54.0334L114.252 71.1349L114.07 71.3168L110.795 71.6807L107.339 72.9542L104.428 74.5916L102.063 76.4109L99.5156 78.9579L97.5143 81.505L96.9686 82.4146L96.7866 82.0507L97.8782 79.8676L99.1517 78.0483L100.789 76.229L102.972 74.0458L106.247 72.2265L108.976 71.3168L110.249 70.953V65.8589H108.794L108.612 70.771L108.248 71.1349L107.157 71.3168H105.155L104.974 71.1349V54.3973L105.519 52.7599L105.883 52.396L106.975 52.2141Z" fill="black"/>
<path d="M145.544 52.2141H148.819L149.365 53.1238L150.456 57.3082L150.638 58.0359L150.82 56.9443L151.002 52.9418L151.184 52.2141H154.459L154.641 52.396V65.8589L154.459 71.3168H151.002L150.093 68.0421L149.729 66.0408V65.1312H149.365L149.183 68.9517L149.001 71.3168H145.544L145.362 71.1349L145.544 52.2141Z" fill="black"/>
<path d="M115.344 52.2141H118.8L119.164 52.396L119.346 58.7636L121.529 52.396L121.711 52.2141H125.35L124.44 55.125L122.439 61.1287V62.4022L124.258 67.8602L124.986 70.953V71.3168H122.803L121.529 71.1349L120.984 70.0433L119.71 65.4951L119.528 64.4035H119.346V71.1349L120.438 72.5903L122.439 74.7735L124.986 77.1386L124.622 77.3205L122.257 75.6832L119.892 73.6819L118.255 71.6807L115.526 71.1349V58.5817L115.344 52.2141Z" fill="black"/>
<path d="M125.714 52.2141H134.265L134.81 52.396V55.6708L134.628 55.8527L129.171 56.0347L129.352 59.6733L133.719 59.8552V63.4938L133.537 63.6757L129.352 63.8577V67.6782H134.81V71.3168H125.896L125.714 71.1349V52.2141Z" fill="black"/>
<path d="M140.45 52.2141H143.907L144.089 52.7599V70.0433L143.907 71.3168H140.45V52.2141Z" fill="black"/>
<path d="M155.914 72.5904L156.278 72.7723L155.551 74.2277L155.369 75.3193V84.9616L154.641 87.8725L153.913 89.8738L153.549 90.0557L153.731 87.8725L153.913 86.4171V77.1386L154.641 74.2277L155.551 72.7723L155.914 72.5904Z" fill="black"/>
<path d="M228.505 37.2958L229.051 37.4777L227.413 38.5693L225.594 39.297L220.5 40.5705L218.681 41.4802L217.589 42.7537L216.861 44.3911V45.4827L217.407 46.5743L216.679 46.2104L215.952 45.1188L216.134 43.6634L217.043 41.4802L218.317 40.2067L220.136 39.297L225.412 38.2054L228.505 37.2958Z" fill="black"/>
<path d="M180.111 59.6733L180.839 60.5829L181.748 62.7661L182.112 63.4938V67.4963L181.384 67.8601L180.293 67.6782L180.111 67.4963V59.6733Z" fill="white"/>
<path d="M108.976 55.8527H110.249L110.431 56.0347V62.0384L109.704 62.2203L108.612 61.8564L108.43 56.5804L108.612 56.0347L108.976 55.8527Z" fill="white"/>
<path d="M180.839 76.4109L181.203 76.9567L179.929 79.8676L178.292 81.6869L176.836 82.7785L174.107 84.2339L172.652 84.4158L173.38 83.5062L176.836 81.1411L178.656 79.5037L180.475 76.9567L180.839 76.4109Z" fill="black"/>
<path d="M196.121 55.8527H197.94V60.401L196.303 59.4913L195.939 58.9455V56.3985L196.121 55.8527Z" fill="white"/>
<path d="M180.838 55.6708L182.112 55.8527L182.294 60.0371L181.93 60.5829L181.02 59.1275L180.475 57.3082V55.8527L180.838 55.6708Z" fill="white"/>
<path d="M195.939 60.9468L196.849 61.1287L197.576 61.6745V62.2203H196.485L195.939 61.8564V60.9468Z" fill="white"/>
</svg>
