<svg width="346" height="196" viewBox="0 0 346 196" fill="none" xmlns="http://www.w3.org/2000/svg">
<g clip-path="url(#clip0_8_1026)">
<path d="M205.624 77.0174H240.112V83.6675H226.431V118.653H219.59V83.6675H205.624V77.0174Z" fill="white"/>
<path d="M148.904 77.0174V83.6675H121.259V94.3655H143.491V101.016H121.259V112.003H148.904V118.653H114.419V83.6675H114.416V77.0174H148.904Z" fill="white"/>
<path d="M166.125 77.0347H157.173L189.238 118.67H198.216L182.182 97.8669L198.191 77.0665L189.238 77.0809L177.7 92.0516L166.125 77.0347Z" fill="white"/>
<path d="M175.312 106.775L170.829 100.952L157.147 118.702H166.125L175.312 106.775Z" fill="white"/>
<path fill-rule="evenodd" clip-rule="evenodd" d="M114.659 118.653L82.5507 77H74V118.636H80.8406V85.8996L106.065 118.653H114.659Z" fill="white"/>
<path d="M241.651 118.399C241.15 118.399 240.723 118.217 240.367 117.855C240.01 117.492 239.833 117.053 239.838 116.533C239.833 116.027 240.01 115.593 240.367 115.23C240.723 114.868 241.15 114.686 241.651 114.686C242.133 114.686 242.554 114.868 242.911 115.23C243.273 115.593 243.453 116.027 243.458 116.533C243.453 116.877 243.37 117.191 243.203 117.473C243.032 117.759 242.814 117.984 242.54 118.146C242.271 118.313 241.975 118.399 241.651 118.399Z" fill="white"/>
<path d="M253.325 100.859H256.357V113.059C256.352 114.181 256.12 115.14 255.666 115.946C255.207 116.753 254.572 117.368 253.757 117.802C252.946 118.232 251.995 118.451 250.915 118.451C249.928 118.451 249.043 118.265 248.255 117.902C247.467 117.54 246.841 116.996 246.382 116.28C245.919 115.564 245.691 114.672 245.691 113.603H248.728C248.732 114.071 248.834 114.476 249.029 114.815C249.223 115.154 249.492 115.412 249.835 115.593C250.183 115.774 250.582 115.865 251.031 115.865C251.518 115.865 251.935 115.76 252.273 115.545C252.611 115.335 252.871 115.02 253.052 114.601C253.228 114.185 253.321 113.67 253.325 113.059V100.859Z" fill="white"/>
<path d="M268.829 105.63C268.755 104.891 268.431 104.313 267.865 103.903C267.295 103.488 266.558 103.283 265.654 103.283C265.02 103.283 264.473 103.383 264.019 103.579C263.564 103.779 263.212 104.046 262.971 104.385C262.73 104.724 262.609 105.11 262.6 105.544C262.6 105.907 262.683 106.222 262.846 106.484C263.008 106.752 263.225 106.976 263.508 107.157C263.786 107.343 264.097 107.496 264.436 107.62C264.778 107.744 265.122 107.849 265.464 107.935L267.045 108.34C267.68 108.493 268.297 108.698 268.885 108.961C269.474 109.218 270.007 109.548 270.475 109.944C270.943 110.34 271.314 110.817 271.587 111.375C271.861 111.933 272 112.587 272 113.341C272 114.357 271.75 115.25 271.244 116.022C270.739 116.791 270.011 117.392 269.056 117.826C268.106 118.256 266.957 118.475 265.604 118.475C264.296 118.475 263.156 118.265 262.197 117.845C261.233 117.43 260.482 116.819 259.939 116.018C259.397 115.216 259.105 114.238 259.063 113.088H262.067C262.109 113.689 262.294 114.19 262.609 114.596C262.929 114.997 263.346 115.292 263.856 115.493C264.371 115.688 264.945 115.789 265.58 115.789C266.243 115.789 266.827 115.684 267.332 115.479C267.833 115.273 268.227 114.987 268.51 114.615C268.797 114.247 268.941 113.813 268.945 113.317C268.941 112.864 268.811 112.487 268.56 112.191C268.306 111.895 267.953 111.647 267.504 111.447C267.05 111.246 266.521 111.065 265.919 110.907L264 110.402C262.614 110.034 261.515 109.476 260.713 108.727C259.907 107.978 259.508 106.985 259.508 105.74C259.508 104.719 259.777 103.822 260.32 103.054C260.857 102.286 261.594 101.689 262.526 101.264C263.462 100.835 264.519 100.625 265.696 100.625C266.892 100.625 267.939 100.835 268.843 101.264C269.747 101.689 270.457 102.281 270.971 103.035C271.485 103.788 271.754 104.652 271.768 105.63H268.829Z" fill="white"/>
</g>
<defs>
<clipPath id="clip0_8_1026">
<rect width="198" height="42" fill="white" transform="translate(74 77)"/>
</clipPath>
</defs>
</svg>
