<svg width="346" height="196" viewBox="0 0 346 196" fill="none" xmlns="http://www.w3.org/2000/svg">
<path d="M160.739 159C159.117 159 157.506 158.575 156.084 157.757L141.268 148.994C139.055 147.757 140.135 147.32 140.865 147.068C143.816 146.036 144.414 145.803 147.564 144.016C147.895 143.827 148.328 143.894 148.667 144.094L160.049 150.841C160.46 151.063 161.044 151.063 161.425 150.841L205.805 125.248C206.216 125.015 206.483 124.538 206.483 124.05V72.8854C206.483 72.3749 206.216 71.9199 205.797 71.6646L161.433 46.0936C161.022 45.8494 160.478 45.8494 160.067 46.0936L115.713 71.6646C115.283 71.9088 115.01 72.386 115.01 72.8743V124.039C115.01 124.527 115.276 124.993 115.698 125.226L127.852 132.24C134.451 135.537 138.483 131.652 138.483 127.745V77.2472C138.483 76.5257 139.05 75.9708 139.772 75.9708H145.393C146.093 75.9708 146.671 76.5257 146.671 77.2472V127.768C146.671 136.558 141.871 141.608 133.529 141.608C130.962 141.608 128.94 141.608 123.297 138.833L111.655 132.129C108.777 130.465 107 127.357 107 124.039V72.8743C107 69.5448 108.777 66.4372 111.655 64.7946L156.08 39.1903C158.891 37.6032 162.623 37.6032 165.412 39.1903L209.781 64.8057C212.648 66.4594 214.436 69.5559 214.436 72.8854V124.05C214.436 127.368 212.648 130.465 209.781 132.129L165.412 157.734C163.99 158.555 162.379 158.977 160.735 158.977" fill="white"/>
<path d="M174.447 123.744C155.029 123.744 150.957 114.839 150.957 107.37C150.957 106.659 151.53 106.093 152.242 106.093H157.975C158.608 106.093 159.141 106.554 159.241 107.179C160.108 113.014 162.685 115.958 174.427 115.958C183.781 115.958 187.758 113.847 187.758 108.891C187.758 106.039 186.625 103.919 172.094 102.499C159.941 101.3 152.431 98.6251 152.431 88.9139C152.431 79.9685 159.985 74.6412 172.639 74.6412C186.847 74.6412 193.89 79.569 194.779 90.157C194.812 90.5232 194.679 90.8784 194.435 91.1447C194.19 91.4 193.846 91.5554 193.49 91.5554H187.725C187.125 91.5554 186.603 91.1336 186.481 90.5565C185.092 84.419 181.737 82.4546 172.616 82.4546C162.407 82.4546 161.219 86.0061 161.219 88.6698C161.219 91.8994 162.618 92.8428 176.394 94.663C190.036 96.472 196.512 99.0247 196.512 108.603C196.512 118.258 188.447 123.797 174.383 123.797M228.44 69.5359H229.928C231.15 69.5359 231.384 68.6813 231.384 68.1819C231.384 66.8722 230.484 66.8722 229.984 66.8722H228.451L228.44 69.5359ZM226.629 65.3406H229.928C231.061 65.3406 233.283 65.3406 233.283 67.8711C233.283 69.6358 232.15 70.002 231.472 70.224C232.794 70.3128 232.883 71.1785 233.061 72.3993C233.15 73.1651 233.294 74.4858 233.561 74.9298H231.528C231.472 74.4858 231.161 72.0442 231.161 71.911C231.028 71.3671 230.839 71.1008 230.162 71.1008H228.484V74.9409H226.629V65.3406ZM222.663 70.113C222.663 74.0863 225.873 77.3049 229.817 77.3049C233.794 77.3049 237.005 74.0197 237.005 70.113C237.005 66.1286 233.75 62.9656 229.806 62.9656C225.918 62.9656 222.652 66.0842 222.652 70.1019M238.382 70.1352C238.382 74.841 234.527 78.6811 229.828 78.6811C225.162 78.6811 221.274 74.8854 221.274 70.1352C221.274 65.2962 225.251 61.5893 229.828 61.5893C234.439 61.5893 238.371 65.3073 238.371 70.1352" fill="white"/>
</svg>
