<svg width="346" height="196" viewBox="0 0 346 196" fill="none" xmlns="http://www.w3.org/2000/svg">
<g clip-path="url(#clip0_1_2)">
<path d="M76.0128 91.5807C76.019 91.0642 76.2241 90.5705 76.5843 90.2053C76.9445 89.84 77.4313 89.632 77.9407 89.6258H80.5826C81.092 89.632 81.5788 89.84 81.939 90.2053C82.2992 90.5705 82.5043 91.0642 82.5105 91.5807V110.696C82.5105 114.413 83.3322 117.189 84.9756 119.023C86.619 120.858 89.0104 121.777 92.1499 121.782C95.1512 121.782 97.5075 120.862 99.2189 119.023C100.93 117.184 101.792 114.409 101.803 110.696V91.5807C101.811 91.0647 102.016 90.5721 102.377 90.2072C102.736 89.8423 103.222 89.6337 103.731 89.6258H106.373C106.883 89.6302 107.37 89.8376 107.731 90.2033C108.092 90.569 108.296 91.0636 108.301 91.5807V125.323C108.296 125.84 108.092 126.334 107.731 126.7C107.37 127.066 106.883 127.273 106.373 127.278H103.731C103.222 127.27 102.736 127.061 102.377 126.696C102.016 126.331 101.811 125.839 101.803 125.323V123.078C100.733 124.431 99.4257 125.572 97.9472 126.443C96.2721 127.478 93.9827 127.995 91.0789 127.995C88.9801 128.02 86.8959 127.638 84.9382 126.871C83.1116 126.164 81.4609 125.058 80.1034 123.632C78.7459 122.205 77.7149 120.493 77.0838 118.616C76.3396 116.421 75.9772 114.111 76.0128 111.789V91.5807Z" fill="white"/>
<path d="M122.639 81.9507C122.633 82.4673 122.428 82.9609 122.068 83.3262C121.708 83.6916 121.221 83.8995 120.712 83.9058H116.631C116.126 83.8942 115.644 83.6839 115.288 83.3191C114.932 82.9544 114.73 82.4638 114.724 81.9507V77.8132C114.73 77.2967 114.935 76.803 115.296 76.4377C115.656 76.0725 116.143 75.8645 116.651 75.8581H120.732C121.241 75.8645 121.728 76.0725 122.088 76.4377C122.448 76.803 122.653 77.2967 122.66 77.8132L122.639 81.9507ZM121.925 125.323C121.92 125.839 121.714 126.333 121.354 126.698C120.993 127.064 120.507 127.272 119.998 127.278H117.356C116.846 127.272 116.359 127.064 115.999 126.698C115.639 126.333 115.434 125.839 115.428 125.323V91.581C115.434 91.0644 115.639 90.5708 115.999 90.2055C116.359 89.8402 116.846 89.6322 117.356 89.626H119.998C120.507 89.6322 120.993 89.8402 121.354 90.2055C121.714 90.5708 121.92 91.0644 121.925 91.581V125.323Z" fill="white"/>
<path d="M135.563 125.323C135.557 125.84 135.353 126.333 134.992 126.698C134.632 127.064 134.145 127.272 133.636 127.278H130.994C130.485 127.272 129.998 127.064 129.638 126.698C129.277 126.333 129.072 125.84 129.066 125.323V77.8235C129.072 77.3069 129.277 76.8133 129.638 76.448C129.998 76.0827 130.485 75.8747 130.994 75.8684H133.636C134.145 75.8747 134.632 76.0827 134.992 76.448C135.353 76.8133 135.557 77.3069 135.563 77.8235V125.323Z" fill="white"/>
<path d="M157.128 88.9018C160.075 88.9018 162.431 89.4202 164.197 90.4569C165.734 91.3038 167.092 92.4483 168.195 93.8255V77.8235C168.202 77.3069 168.407 76.8133 168.767 76.448C169.127 76.0827 169.614 75.8747 170.124 75.8684H172.765C173.275 75.8747 173.762 76.0827 174.122 76.448C174.482 76.8133 174.687 77.3069 174.694 77.8235V125.323C174.687 125.839 174.482 126.333 174.122 126.698C173.762 127.064 173.275 127.272 172.765 127.278H170.124C169.614 127.272 169.127 127.064 168.767 126.698C168.407 126.333 168.202 125.839 168.195 125.323V123.078C167.095 124.511 165.703 125.687 164.115 126.526C162.361 127.505 160.031 127.995 157.128 127.995C154.989 128.013 152.867 127.607 150.882 126.799C148.983 126.021 147.267 124.846 145.846 123.351C144.371 121.78 143.208 119.936 142.419 117.92C141.523 115.634 141.011 113.213 140.906 110.755C140.858 110.031 140.834 109.246 140.834 108.4C140.834 107.554 140.858 106.77 140.906 106.049C141.006 103.591 141.514 101.168 142.405 98.8802C143.196 96.8813 144.365 95.0586 145.846 93.5152C147.276 92.0419 148.991 90.8835 150.882 90.1121C152.866 89.299 154.988 88.8879 157.128 88.9018ZM168.195 111.565C168.243 110.841 168.267 109.887 168.267 108.704C168.267 107.52 168.243 106.567 168.195 105.845C168.053 102.418 167.041 99.7745 165.163 97.9149C163.283 96.0553 160.843 95.1266 157.842 95.1289C154.711 95.1289 152.239 96.1426 150.426 98.17C148.613 100.197 147.613 102.949 147.427 106.424C147.38 107.776 147.38 109.128 147.427 110.479C147.618 113.955 148.617 116.706 150.426 118.734C152.235 120.761 154.707 121.779 157.842 121.789C160.789 121.789 163.216 120.869 165.125 119.03C167.034 117.191 168.057 114.703 168.195 111.565Z" fill="white"/>
<path d="M180.119 104.831C180.297 102.68 180.834 100.574 181.707 98.6043C182.526 96.7298 183.662 95.0146 185.063 93.5358C186.469 92.0693 188.158 90.911 190.024 90.1327C192.074 89.2885 194.271 88.8699 196.484 88.9017C198.84 88.8611 201.18 89.291 203.373 90.1672C205.343 90.9796 207.108 92.2298 208.537 93.8255C210.015 95.5054 211.134 97.4778 211.822 99.6181C212.61 102.066 212.996 104.629 212.965 107.204V109.159C212.959 109.675 212.753 110.169 212.393 110.534C212.033 110.899 211.546 111.107 211.037 111.114H186.467V111.548C186.563 114.831 187.549 117.352 189.429 119.113C191.308 120.874 193.655 121.766 196.47 121.789C199.089 121.789 201.052 121.414 202.36 120.665C203.547 120.014 204.62 119.171 205.539 118.168C205.829 117.852 206.167 117.584 206.538 117.372C206.946 117.204 207.384 117.13 207.824 117.155H209.966C210.497 117.157 211.007 117.364 211.393 117.734C211.594 117.895 211.746 118.109 211.835 118.352C211.923 118.595 211.943 118.859 211.893 119.113C211.685 120.14 211.272 121.112 210.68 121.971C209.907 123.116 208.925 124.099 207.786 124.868C206.335 125.852 204.747 126.609 203.073 127.112C200.93 127.746 198.702 128.043 196.47 127.995C194.264 128.029 192.076 127.597 190.044 126.726C188.18 125.91 186.493 124.729 185.08 123.251C183.645 121.736 182.492 119.97 181.68 118.037C180.804 115.956 180.273 113.743 180.109 111.486C179.874 109.274 179.878 107.043 180.119 104.831ZM186.474 105.049H206.535V104.831C206.535 101.887 205.618 99.533 203.784 97.7699C201.95 96.0069 199.511 95.1265 196.467 95.1288C195.151 95.1177 193.844 95.3515 192.611 95.8184C191.45 96.2592 190.383 96.9229 189.47 97.7734C188.552 98.6374 187.822 99.6861 187.327 100.852C186.792 102.111 186.5 103.461 186.467 104.831L186.474 105.049Z" fill="white"/>
<path d="M236.885 89.6258C237.397 89.6275 237.888 89.8335 238.252 90.1992C238.616 90.565 238.823 91.0612 238.83 91.5807V93.8978C238.824 94.4144 238.619 94.9079 238.258 95.2732C237.898 95.6386 237.411 95.8465 236.902 95.8528H232.744C227.28 95.8528 224.55 98.6284 224.55 104.18V125.323C224.543 125.839 224.338 126.333 223.978 126.698C223.618 127.063 223.131 127.271 222.621 127.278H219.98C219.47 127.271 218.983 127.063 218.623 126.698C218.263 126.333 218.058 125.839 218.051 125.323V91.5807C218.058 91.0642 218.263 90.5705 218.623 90.2053C218.983 89.84 219.47 89.632 219.98 89.6258H222.621C223.131 89.632 223.618 89.84 223.978 90.2053C224.338 90.5705 224.543 91.0642 224.55 91.5807V93.8254C225.386 92.4784 226.559 91.3794 227.949 90.6395C229.28 89.9636 231.017 89.6258 233.162 89.6258H236.885Z" fill="white"/>
<path fill-rule="evenodd" clip-rule="evenodd" d="M50.5393 68H27V127.319H51.5288L51.9741 127.316L52.4162 127.302L52.8548 127.285L53.29 127.261L53.7219 127.226L54.1468 127.185L54.5684 127.14L54.9901 127.085L55.4015 127.023L55.8129 126.954L56.2175 126.878L56.6188 126.795L57.0166 126.702L57.4076 126.605L57.7952 126.502L58.1761 126.388L58.5535 126.271L58.9275 126.143L59.2947 126.009L59.6551 125.871L60.0121 125.723L60.3657 125.568L60.7126 125.409L61.0526 125.24L61.3892 125.064L61.7156 124.881L62.042 124.692L62.3582 124.499L62.6711 124.295L62.9771 124.085L63.2797 123.868L63.5721 123.644L63.8611 123.416L64.1433 123.178L64.4187 122.933L64.6874 122.682L64.9526 122.426L65.2075 122.161L65.4558 121.892L65.7006 121.613L65.9352 121.33L66.1664 121.037L66.3874 120.74L66.6016 120.437L66.8124 120.123L67.0131 119.806L67.2068 119.482L67.3904 119.151L67.5707 118.816L67.7441 118.472L67.9073 118.12L68.0637 117.761L68.2099 117.399L68.3493 117.03L68.4819 116.654L68.6078 116.272L68.7267 115.882L68.8321 115.486L68.9341 115.082L69.026 114.675L69.1076 114.258L69.1858 113.838L69.2503 113.41L69.3082 112.975L69.3591 112.534L69.4 112.089L69.4306 111.634L69.4543 111.176L69.4679 110.71L69.4713 110.238L69.4611 109.655L69.4374 109.083L69.3966 108.528L69.3421 107.986L69.2707 107.462L69.1824 106.952L69.0837 106.455L68.9715 105.973L68.8457 105.507L68.7098 105.052L68.5601 104.611L68.3969 104.183L68.2269 103.769L68.0433 103.369L67.8529 102.983L67.6523 102.607L67.4415 102.245L67.2239 101.894L66.9994 101.556L66.7648 101.232L66.5268 100.918L66.2786 100.614L66.0304 100.321L65.772 100.042L65.5136 99.7732L65.2484 99.5146L64.9798 99.2663L64.7077 99.0284L64.4323 98.8008L64.1569 98.5801L63.8815 98.3733L63.6027 98.1768L63.3239 97.9871L63.045 97.8078L62.4909 97.4733L61.9434 97.1734L61.4062 96.9079L61.6544 96.7837L62.1712 96.4976L62.7017 96.1562L63.2422 95.7666L63.5143 95.5494L63.7863 95.3253L64.0583 95.0839L64.3303 94.8322L64.5989 94.5667L64.8676 94.2909L65.1293 94.0012L65.3912 93.6978L65.6462 93.3875L65.8944 93.0599L66.1358 92.722L66.3738 92.3738L66.6016 92.0117L66.8227 91.6394L67.0369 91.2532L67.2375 90.8567L67.4279 90.4498L67.6081 90.0292L67.7781 89.5947L67.9311 89.1534L68.0739 88.6982L68.2031 88.2327L68.3187 87.7569L68.4139 87.2673L68.4955 86.7708L68.5601 86.2571L68.6078 85.7364L68.6383 85.2054L68.6485 84.6641L68.6417 84.2296L68.6315 83.7986L68.6112 83.3746L68.5839 82.9573L68.5465 82.5401L68.5023 82.1298L68.4513 81.7264L68.3901 81.3265L68.3221 80.9299L68.2439 80.5403L68.1623 80.1542L68.0705 79.7714L67.9685 79.3956L67.8631 79.0266L67.7475 78.6611L67.6251 78.3026L67.4958 77.9474L67.3565 77.5957L67.2137 77.2544L67.0573 76.913L66.8974 76.582L66.7309 76.2545L66.554 75.9304L66.3738 75.6166L66.1834 75.3028L65.9862 74.9994L65.7822 74.6994L65.568 74.4064L65.3504 74.1202L65.1225 73.8374L64.888 73.5616L64.65 73.2927L64.4017 73.0272L64.1467 72.772L63.8849 72.5203L63.6163 72.2755L63.3409 72.0376L63.0552 71.8031L62.7663 71.579L62.4704 71.3583L62.1678 71.1446L61.855 70.9377L61.5388 70.7377L61.2158 70.5446L60.8859 70.3584L60.5494 70.1791L60.2025 70.0033L59.8523 69.8378L59.4953 69.6792L59.1315 69.524L58.7643 69.3792L58.3868 69.2413L58.0026 69.1102L57.615 68.9861L57.2172 68.8689L56.816 68.7586L56.408 68.6551L55.9932 68.5586L55.5715 68.4689L55.1465 68.3896L54.7113 68.3172L54.2726 68.2517L53.8273 68.1931L53.375 68.1414L52.916 68.1L52.4536 68.0621L51.9843 68.0345L51.5083 68.0172L51.0289 68.0034L50.5393 68Z" fill="white"/>
<path d="M257.651 126.229C255.685 125.276 254.126 123.983 252.94 122.349C251.787 120.715 251.211 118.877 251.211 116.868C251.211 113.736 252.499 111.149 255.041 109.141C257.583 107.132 261.108 105.805 265.514 105.124L276.19 103.626V101.549C276.19 96.6474 273.377 94.1964 267.717 94.1964C265.548 94.1964 263.785 94.6389 262.463 95.524C261.142 96.4091 260.159 97.4303 259.549 98.6218C259.345 99.0984 259.142 99.4047 258.939 99.575C258.735 99.7452 258.43 99.8132 258.057 99.8132H255.278C254.838 99.8132 254.499 99.643 254.16 99.3367C253.855 99.0303 253.685 98.6558 253.685 98.2133C253.685 97.124 254.194 95.8304 255.21 94.4006C256.227 92.9368 257.82 91.6773 259.955 90.622C262.091 89.5667 264.7 89.0221 267.784 89.0221C273.106 89.0221 276.902 90.2476 279.206 92.7326C281.511 95.2176 282.663 98.3154 282.663 102.026V125.242C282.663 125.719 282.494 126.127 282.189 126.434C281.884 126.74 281.477 126.91 281.003 126.91H277.884C277.41 126.91 277.037 126.74 276.732 126.434C276.461 126.127 276.292 125.719 276.292 125.242V122.111C275.241 123.676 273.716 125.004 271.75 126.025C269.784 127.046 267.208 127.591 264.056 127.591C261.785 127.659 259.616 127.183 257.651 126.229ZM273.207 119.353C275.207 117.311 276.19 114.315 276.19 110.434V108.426L267.852 109.651C264.429 110.128 261.853 110.945 260.091 112.068C258.328 113.226 257.447 114.655 257.447 116.358C257.447 118.298 258.227 119.83 259.82 120.851C261.413 121.906 263.311 122.417 265.48 122.417C268.666 122.417 271.208 121.396 273.207 119.353Z" fill="white"/>
<path d="M289.408 82.2818C289.103 81.9754 288.934 81.5669 288.934 81.0904V77.3798C288.934 76.9032 289.103 76.4947 289.408 76.1543C289.713 75.8139 290.12 75.6437 290.594 75.6437H294.763C295.238 75.6437 295.644 75.8139 295.983 76.1543C296.322 76.4947 296.492 76.9032 296.492 77.3798V81.1244C296.492 81.601 296.322 82.0095 295.983 82.3159C295.644 82.6222 295.238 82.7924 294.763 82.7924H290.56C290.086 82.7584 289.713 82.5882 289.408 82.2818ZM289.95 126.468C289.645 126.161 289.476 125.753 289.476 125.276V91.405C289.476 90.9284 289.645 90.5199 289.95 90.2135C290.255 89.9071 290.662 89.7369 291.137 89.7369H294.255C294.729 89.7369 295.136 89.9071 295.441 90.2135C295.746 90.5199 295.915 90.9284 295.915 91.405V125.276C295.915 125.753 295.746 126.161 295.441 126.468C295.136 126.774 294.729 126.944 294.255 126.944H291.137C290.662 126.944 290.289 126.774 289.95 126.468Z" fill="white"/>
<path d="M239.518 126.468C239.213 126.161 239.044 125.753 239.044 125.276V120.34C239.044 119.864 239.213 119.455 239.518 119.115C239.823 118.774 240.23 118.604 240.704 118.604H245.619C246.093 118.604 246.5 118.774 246.805 119.115C247.11 119.455 247.28 119.864 247.28 120.34V125.276C247.28 125.753 247.11 126.161 246.805 126.468C246.5 126.774 246.093 126.944 245.619 126.944H240.704C240.196 126.944 239.823 126.774 239.518 126.468Z" fill="white"/>
<path d="M318.25 75.5C318.25 79.2279 315.228 82.25 311.5 82.25C307.772 82.25 304.75 79.2279 304.75 75.5C304.75 71.7721 307.772 68.75 311.5 68.75C315.228 68.75 318.25 71.7721 318.25 75.5Z" fill="white" stroke="white" stroke-width="1.5"/>
<path d="M311.095 74.8991C311.507 74.8991 311.807 74.8166 311.987 74.6591C312.167 74.5091 312.265 74.2542 312.265 73.8942C312.265 73.5417 312.167 73.2942 311.987 73.1367C311.807 72.9867 311.507 72.9117 311.095 72.9117H310.255V74.8991H311.095ZM310.255 76.2716V79.1964H308.26V71.4643H311.305C312.325 71.4643 313.067 71.6368 313.539 71.9818C314.019 72.3192 314.252 72.8592 314.252 73.6017C314.252 74.1117 314.132 74.5316 313.884 74.8616C313.637 75.1841 313.269 75.4316 312.767 75.5816C313.044 75.6491 313.284 75.7916 313.502 76.0091C313.719 76.2266 313.937 76.5565 314.154 77.0065L315.242 79.1964H313.119L312.175 77.2765C311.987 76.894 311.792 76.624 311.597 76.489C311.402 76.3466 311.14 76.2716 310.817 76.2716H310.255Z" fill="black"/>
</g>
<defs>
<clipPath id="clip0_1_2">
<rect width="292" height="60" fill="white" transform="translate(27 68)"/>
</clipPath>
</defs>
</svg>
