<svg width="346" height="196" viewBox="0 0 346 196" fill="none" xmlns="http://www.w3.org/2000/svg">
<g clip-path="url(#clip0_8_883)">
<path d="M98.9169 72.4782H124.918C132.608 72.4782 138.101 74.6736 141.58 79.0645C145.059 83.4553 146.158 89.3098 145.059 96.8108C144.693 100.287 143.594 103.58 142.129 106.873C140.664 110.166 138.65 113.094 135.904 115.838C132.608 119.131 129.129 121.326 125.467 122.241C121.805 123.156 117.96 123.522 113.931 123.522H102.213L98.5506 142H85.001L98.9169 72.4782ZM110.269 83.6383L104.41 112.728C104.776 112.728 105.142 112.911 105.509 112.911C105.875 112.911 106.424 112.911 106.79 112.911C113.016 112.911 118.143 112.362 122.354 111.081C126.566 109.8 129.312 105.044 130.777 96.9938C131.876 90.2245 130.777 86.3825 127.298 85.2848C123.819 84.1871 119.608 83.8212 114.481 83.8212C113.748 83.8212 113.016 84.0042 112.283 84.0042C111.551 83.6383 110.819 83.6383 110.269 83.6383Z" fill="white"/>
<path d="M160.257 54H173.623L169.778 72.4782H181.863C188.455 72.6611 193.398 73.9418 196.694 76.5031C199.99 79.0644 200.906 84.0042 199.624 91.3222L193.032 123.705H179.483L185.708 92.7859C186.441 89.4927 186.074 87.2973 185.159 85.8337C184.06 84.553 181.863 83.8212 178.384 83.8212L167.581 83.6383L159.707 123.522H146.341L160.257 54Z" fill="white"/>
<path d="M213.906 72.4782H239.907C247.597 72.4782 253.09 74.6736 256.569 79.0645C260.048 83.4553 261.147 89.3098 260.048 96.8108C259.682 100.287 258.583 103.58 257.119 106.873C255.654 110.166 253.64 113.094 250.893 115.838C247.597 119.131 244.118 121.326 240.456 122.241C236.794 123.156 232.949 123.522 228.921 123.522H217.202L213.54 142H199.99L213.906 72.4782ZM225.259 83.6383L219.399 112.728C219.765 112.728 220.132 112.911 220.498 112.911C220.864 112.911 221.413 112.911 221.78 112.911C228.005 112.911 233.132 112.362 237.343 111.081C241.555 109.8 244.301 105.044 245.766 96.9938C246.865 90.2245 245.766 86.3825 242.287 85.2848C238.808 84.1871 234.597 83.8212 229.47 83.8212C228.738 83.8212 228.005 84.0042 227.273 84.0042C226.54 83.6383 225.808 83.6383 225.259 83.6383Z" fill="white"/>
</g>
<defs>
<clipPath id="clip0_8_883">
<rect width="175.413" height="88" fill="white" transform="translate(85 54)"/>
</clipPath>
</defs>
</svg>
