<svg width="346" height="196" viewBox="0 0 346 196" fill="none" xmlns="http://www.w3.org/2000/svg">
<g clip-path="url(#clip0_8_1084)">
<path d="M166.309 39.001C161.525 39.0232 156.958 39.4313 152.939 40.1429C141.099 42.2357 138.949 46.6161 138.949 54.6943V65.3632H166.928V68.9195H138.949H128.449C120.317 68.9195 113.197 73.8095 110.97 83.112C108.401 93.7748 108.287 100.429 110.97 111.562C112.959 119.85 117.708 125.755 125.84 125.755H135.46V112.965C135.46 103.726 143.45 95.5753 152.939 95.5753H180.885C188.664 95.5753 194.875 89.1668 194.875 81.3502V54.6943C194.875 47.1079 188.478 41.409 180.885 40.1429C176.079 39.3424 171.092 38.9787 166.309 39.001ZM151.178 47.5817C154.068 47.5817 156.428 49.9816 156.428 52.9325C156.428 55.8729 154.068 58.2506 151.178 58.2506C148.277 58.2506 145.927 55.8729 145.927 52.9325C145.927 49.9816 148.277 47.5817 151.178 47.5817Z" fill="url(#paint0_linear_8_1084)"/>
<path d="M198.363 68.9195V81.3502C198.363 90.9875 190.197 99.099 180.884 99.099H152.938C145.283 99.099 138.948 105.654 138.948 113.324V139.98C138.948 147.566 145.542 152.029 152.938 154.205C161.795 156.811 170.288 157.282 180.884 154.205C187.928 152.165 194.874 148.058 194.874 139.98V129.311H166.927V125.755H194.874H208.864C216.995 125.755 220.025 120.08 222.853 111.562C225.774 102.793 225.65 94.3608 222.853 83.112C220.844 75.0129 217.006 68.9195 208.864 68.9195H198.363ZM182.645 136.424C185.546 136.424 187.896 138.801 187.896 141.742C187.896 144.693 185.546 147.093 182.645 147.093C179.755 147.093 177.395 144.693 177.395 141.742C177.395 138.801 179.755 136.424 182.645 136.424Z" fill="url(#paint1_linear_8_1084)"/>
</g>
<defs>
<linearGradient id="paint0_linear_8_1084" x1="109" y1="39" x2="173.545" y2="93.973" gradientUnits="userSpaceOnUse">
<stop stop-color="white"/>
<stop offset="1" stop-color="white"/>
</linearGradient>
<linearGradient id="paint1_linear_8_1084" x1="181.973" y1="140.845" x2="158.811" y2="108.405" gradientUnits="userSpaceOnUse">
<stop stop-color="white"/>
<stop offset="1" stop-color="white"/>
</linearGradient>
<clipPath id="clip0_8_1084">
<rect width="128.102" height="117" fill="white" transform="translate(109 39)"/>
</clipPath>
</defs>
</svg>
