<svg width="346" height="196" viewBox="0 0 346 196" fill="none" xmlns="http://www.w3.org/2000/svg">
<g clip-path="url(#clip0_8_840)">
<path d="M173 110.905C180.384 110.905 186.37 104.934 186.37 97.568C186.37 90.202 180.384 84.2307 173 84.2307C165.616 84.2307 159.63 90.202 159.63 97.568C159.63 104.934 165.616 110.905 173 110.905Z" fill="white"/>
<path d="M173 124.893C212.62 124.893 244.739 112.659 244.739 97.568C244.739 82.4767 212.62 70.2427 173 70.2427C133.379 70.2427 101.261 82.4767 101.261 97.568C101.261 112.659 133.379 124.893 173 124.893Z" stroke="white"/>
<path d="M149.278 111.231C169.089 145.46 195.769 167.092 208.87 159.546C221.971 152.001 216.532 118.135 196.722 83.9054C176.911 49.6757 150.232 28.0441 137.13 35.5897C124.029 43.1354 129.468 77.001 149.278 111.231Z" stroke="white"/>
<path d="M149.278 83.9054C129.468 118.135 124.029 152.001 137.13 159.546C150.231 167.092 176.911 145.46 196.721 111.231C216.531 77.001 221.97 43.1354 208.869 35.5897C195.768 28.0441 169.088 49.6757 149.278 83.9054Z" stroke="white"/>
</g>
<defs>
<clipPath id="clip0_8_840">
<rect width="150" height="133.136" fill="white" transform="translate(98 31)"/>
</clipPath>
</defs>
</svg>
