<svg width="346" height="196" viewBox="0 0 346 196" fill="none" xmlns="http://www.w3.org/2000/svg">
<g clip-path="url(#clip0_5_791)">
<path fill-rule="evenodd" clip-rule="evenodd" d="M126.978 83.8532H146.166V87.3521H126.978V83.8532Z" fill="white"/>
<path fill-rule="evenodd" clip-rule="evenodd" d="M126.978 90.2333H146.166V93.7322H126.978V90.2333Z" fill="white"/>
<path fill-rule="evenodd" clip-rule="evenodd" d="M84.5732 97.3074C84.1907 97.423 83.7952 97.4901 83.396 97.5073C82.8083 97.5257 82.222 97.4421 81.6629 97.2602V92.922H92.0869V96.3119C91.5451 95.6578 90.9362 95.0623 90.2703 94.5352C89.6966 94.2366 89.0564 94.0891 88.41 94.1065C86.1973 94.1065 84.6132 95.578 84.5732 97.3074ZM191.709 92.922V94.8804H188.479C186.143 94.8804 185.1 96.2138 185.1 97.4746C185.1 99.0224 185.936 100.454 188.37 103.916L189.275 103.226C188.047 101.773 187.2 100.261 187.2 99.1532C187.2 97.8742 187.658 96.9732 189.275 96.9732H191.757V102.554L193.969 104.109V92.922H196.4L195.194 90.851H164.136L165.36 92.922H167.144V97.5981H163.377L163.453 94.9094C163.453 93.4234 162.614 90.851 159.994 90.851C159.673 90.8354 159.352 90.8831 159.05 90.9915C158.747 91.0999 158.469 91.2669 158.231 91.4828C157.993 91.6988 157.8 91.9595 157.663 92.2501C157.526 92.5407 157.448 92.8554 157.432 93.1763C157.432 93.2308 157.432 93.2853 157.432 93.3398C157.432 94.7205 158.577 96.152 161.349 96.7951L161.218 97.5908H159.99C159.899 97.5904 159.809 97.6079 159.725 97.6423C159.641 97.6768 159.564 97.7276 159.5 97.7917C159.435 97.8559 159.384 97.9322 159.349 98.0161C159.314 98.1001 159.296 98.1902 159.296 98.2812V98.3393C159.296 99.2004 161.694 101.457 162.45 101.457C162.995 101.457 163.14 101.043 163.177 99.6982H167.126V102.55L169.306 104.105V92.922H172.296V102.536L174.476 104.091V92.922H179.443V96.341C179.443 96.6098 179.341 96.7806 179.174 96.7806C178.753 96.7806 178.164 96.1666 177.521 96.1666C177.198 96.1666 176.762 96.7116 176.831 96.9768C176.831 97.3837 177.267 98.0341 178.142 99.1059L182.292 104.236L183.164 103.364C181.999 102.241 180.937 101.016 179.988 99.7054C180.421 99.4514 180.79 99.101 181.066 98.6813C181.342 98.2617 181.518 97.7841 181.58 97.2856V92.9256L191.709 92.922ZM161.553 93.7177L161.473 95.6979C160.041 95.4544 159.398 94.8041 159.398 93.7758C159.399 93.4208 159.518 93.0762 159.735 92.7956C159.953 92.515 160.257 92.3142 160.601 92.2244C160.993 92.2244 161.582 92.6204 161.527 93.7177H161.553ZM113.8 94.3354V92.9511H117.255L116.074 90.8764H74.8867L76.0712 92.9511H79.4902V96.6171C79.4902 96.7951 79.4357 96.9187 79.3739 96.9187C79.1123 96.9187 78.5637 96.2283 78.0695 96.2283C77.8402 96.2408 77.6232 96.3361 77.4588 96.4965C77.2945 96.6568 77.1939 96.8714 77.1757 97.1003C77.3313 97.9427 77.685 98.736 78.2076 99.4148L82.1316 104.832L83.0508 103.924C81.915 102.754 80.8726 101.496 79.9334 100.163C80.5691 99.6732 81.1181 99.08 81.5575 98.4083C82.1752 98.9824 82.9055 99.6437 83.7375 99.6437C84.236 99.6329 84.7308 99.556 85.209 99.4148C85.5992 100.056 86.1374 100.594 86.7784 100.984C87.4195 101.374 88.1447 101.605 88.8932 101.657C89.8888 101.657 90.8952 101.188 92.1632 100.225V102.507L94.2851 104.062V92.922H111.772V94.0919C111.133 94.1542 110.54 94.4563 110.114 94.9376C109.688 95.4189 109.46 96.0436 109.476 96.6861C109.476 97.9723 110.464 99.1895 112.441 100.279C111.883 100.902 111.207 101.406 110.451 101.762C109.695 102.119 108.876 102.32 108.041 102.354C106.911 102.354 106.588 102.031 106.588 101.449C106.588 100.759 107.278 100.018 109.4 100.018L108.488 97.8379C107.775 97.7459 107.052 97.8726 106.413 98.2012C106.281 98.1172 106.159 98.0185 106.05 97.9069L105.654 97.3183C105.647 97.2422 105.647 97.1656 105.654 97.0894C105.665 96.9226 105.709 96.7596 105.783 96.6098C105.857 96.46 105.96 96.3262 106.086 96.2162C106.212 96.1062 106.358 96.0221 106.516 95.9687C106.675 95.9153 106.842 95.8936 107.009 95.905H107.038C107.502 95.9055 107.964 95.9518 108.419 96.043L107.43 94.0447C107.098 93.9605 106.756 93.9177 106.413 93.9175C105.866 93.8687 105.319 94.0042 104.858 94.3025C104.397 94.6007 104.049 95.0446 103.87 95.5634L103.506 94.8731H96.0473L97.2354 96.9477H98.616C98.3577 97.4097 98.232 97.934 98.2527 98.4628C98.2527 100.025 100.236 102.096 102.082 102.096C103.106 101.964 104.067 101.533 104.847 100.857C105.211 102.372 107.391 104.102 109.316 104.102C112.081 104.102 115.704 101.406 115.704 97.7325C115.533 96.3951 114.842 95.1786 113.782 94.3463L113.8 94.3354ZM104.059 96.955C104.274 97.3699 104.535 97.7598 104.836 98.1177C103.314 99.571 101.93 100.349 100.869 100.349C100.313 100.349 100.037 100.127 100.037 99.6037C100.078 99.1264 100.231 98.6656 100.484 98.2585C100.736 97.8513 101.081 97.5094 101.49 97.2602C102.065 97.0223 102.686 96.9179 103.307 96.955H104.059ZM112.92 99.5819C112.534 99.3378 112.212 99.0032 111.983 98.6069C111.755 98.2106 111.626 97.7646 111.609 97.3074C111.609 96.3591 112.252 95.4908 113.04 95.4908C113.455 95.4908 113.792 95.8541 113.792 96.8714C113.736 97.8347 113.435 98.7677 112.917 99.5819H112.92ZM87.7814 99.9779C87.6235 99.976 87.4675 99.943 87.3223 99.8808C87.1771 99.8187 87.0456 99.7285 86.9353 99.6154C86.8249 99.5024 86.7379 99.3688 86.6793 99.2221C86.6206 99.0755 86.5914 98.9187 86.5933 98.7608C86.5933 98.7172 86.5933 98.6772 86.5933 98.6336C86.5757 98.3302 86.6181 98.0263 86.7182 97.7394C86.8183 97.4525 86.9742 97.1882 87.1767 96.9616C87.3793 96.7351 87.6246 96.5508 87.8986 96.4193C88.1726 96.2879 88.4699 96.2119 88.7733 96.1956H88.7988C90.0393 96.2302 91.2232 96.7219 92.1233 97.5763V97.8633C90.9424 98.7281 88.7697 99.938 87.7633 99.938L87.7814 99.9779Z" fill="white"/>
<path fill-rule="evenodd" clip-rule="evenodd" d="M71.0174 144.911V140.188H78.2077V143.095C77.9651 142.51 77.562 142.006 77.0451 141.641C76.6161 141.423 76.1422 141.307 75.6608 141.303C75.3246 141.288 74.9887 141.34 74.6724 141.454C74.356 141.569 74.0654 141.745 73.8171 141.972C73.5687 142.199 73.3676 142.473 73.2251 142.778C73.0826 143.083 73.0016 143.413 72.9866 143.749C72.9866 143.778 72.9866 143.807 72.9866 143.836C72.9866 145.217 74.8033 146.815 76.3184 146.815C77.0418 146.738 77.7235 146.438 78.2695 145.958V147.582L79.9336 148.763V145.009C80.5996 144.349 81.4163 143.86 82.3134 143.585C82.4585 143.601 82.5931 143.669 82.693 143.775C82.7929 143.882 82.8515 144.021 82.8584 144.167C82.6145 145.212 82.1982 146.209 81.6267 147.117L83.16 148.265C83.7146 147.37 84.0483 146.357 84.1337 145.307C84.1337 143.571 82.9238 142.19 81.6994 142.19C81.0477 142.272 80.4322 142.535 79.9227 142.949V140.184H85.4017L84.4752 138.633H62.8823L63.787 140.184H65.095V145.271C65.095 145.634 65.2113 145.961 65.7854 146.361C66.1487 146.597 70.3416 149.079 70.8175 149.406C70.9552 149.479 71.0714 149.587 71.1549 149.719C71.2383 149.851 71.2861 150.002 71.2935 150.158C71.2472 150.423 71.151 150.677 71.0101 150.906L72.5252 152C72.8888 151.6 73.1286 151.102 73.2155 150.568C73.2012 150.316 73.12 150.071 72.9802 149.86C72.8404 149.648 72.647 149.478 72.4198 149.366L68.3214 146.822C66.9408 145.954 66.7882 145.504 66.7882 145.046V140.177H69.3315V143.694C69.3315 144.388 69.1389 144.61 68.7102 144.61C68.4522 144.61 68.1761 144.541 67.9835 144.526L68.6739 145.751C69.1394 145.93 69.6293 146.039 70.1272 146.074C70.7122 146.074 70.9883 145.838 70.9883 144.9L71.0174 144.911ZM205.814 140.188H207.111V142.753C207.111 142.946 207.049 143.069 206.919 143.069C206.606 143.069 206.17 142.619 205.694 142.619C205.433 142.619 205.12 143.022 205.171 143.215C205.171 143.527 205.487 144.01 206.159 144.821L209.226 148.65L209.876 148.007C209.014 147.148 208.22 146.223 207.5 145.242C207.824 145.051 208.1 144.788 208.307 144.473C208.513 144.158 208.643 143.799 208.688 143.425V140.155H211.838L210.908 138.608H202.842C202.168 137.276 201.323 136.039 200.328 134.927C199.924 134.517 199.374 134.283 198.798 134.277C198.351 134.277 197.81 134.277 197.81 134.665C197.81 134.88 197.886 135.05 198.591 136.304C198.934 136.202 199.287 136.141 199.645 136.122C199.822 136.126 199.996 136.166 200.157 136.24C200.319 136.314 200.463 136.42 200.582 136.551C201.191 137.177 201.723 137.874 202.166 138.626H196.316L197.196 140.177H198.391V142.47C198.391 142.949 197.417 143.516 196.629 143.516C196.083 143.467 195.574 143.22 195.197 142.822C195.436 142.697 195.636 142.509 195.777 142.28C195.919 142.05 195.996 141.787 196 141.518C196 140.203 194.126 138.411 192.545 138.411C191.71 138.523 190.892 138.739 190.111 139.054L190.968 140.682C191.84 140.276 192.775 140.02 193.733 139.926C194.195 139.926 194.514 140.086 194.514 140.584C194.514 141.427 193.671 142.146 191.935 142.401C191.571 142.452 191.473 142.561 191.473 142.637C191.748 143.139 192.085 143.604 192.476 144.021C193.191 143.858 193.878 143.59 194.514 143.225C194.752 143.625 194.877 144.08 194.878 144.544C194.878 145.402 194.027 146.074 192.927 146.074C191.826 146.074 190.856 145.173 190.053 143.487L189.362 143.887C190.372 146.02 192.051 147.52 193.57 147.52C195.194 147.52 196.335 146.477 196.335 145.246C196.342 144.891 196.277 144.538 196.142 144.21V144.159C196.63 144.443 197.16 144.646 197.712 144.762C197.947 144.777 198.182 144.741 198.402 144.657V147.32L200.081 148.497V140.141H201.97V147.331L203.601 148.487V140.13H205.799L205.814 140.188ZM185.9 140.188L184.988 138.637H183.186C182.88 135.755 181.5 134.426 179.832 134.426C179.275 134.385 178.724 134.563 178.296 134.922C177.868 135.28 177.597 135.792 177.539 136.348C177.569 136.889 177.786 137.402 178.153 137.801L179.134 137.685C179.109 137.49 179.098 137.293 179.102 137.096C179.104 136.93 179.139 136.766 179.205 136.614C179.271 136.461 179.366 136.323 179.485 136.207C179.604 136.092 179.745 136 179.899 135.939C180.053 135.878 180.218 135.847 180.384 135.85H180.428C181.449 135.85 182.368 136.976 182.419 138.647H167.867L168.779 140.199H174.891V143.106H174.858C174.632 142.525 174.245 142.021 173.743 141.652C173.316 141.43 172.843 141.315 172.362 141.314C172.024 141.298 171.687 141.348 171.369 141.462C171.051 141.576 170.759 141.751 170.509 141.978C170.258 142.206 170.056 142.48 169.912 142.785C169.768 143.091 169.685 143.422 169.67 143.76C169.668 143.789 169.668 143.818 169.67 143.847C169.67 145.227 171.486 146.826 173.009 146.826C173.728 146.747 174.406 146.448 174.949 145.969V147.593L176.617 148.774V145.009C177.283 144.351 178.098 143.862 178.993 143.585C179.138 143.6 179.274 143.667 179.374 143.774C179.474 143.881 179.532 144.02 179.538 144.167C179.295 145.211 178.88 146.208 178.31 147.117L179.857 148.265C180.407 147.369 180.736 146.355 180.817 145.307C180.817 143.571 179.614 142.19 178.393 142.19C177.742 142.272 177.126 142.535 176.617 142.949V140.184H182.096V147.375L183.727 148.53V140.192L185.9 140.188ZM174.909 144.039C174.451 144.432 172.464 145.642 171.937 145.642C171.573 145.642 171.246 145.249 171.246 144.617C171.263 144.166 171.444 143.736 171.756 143.41C172.069 143.084 172.49 142.884 172.94 142.848C173.337 142.891 173.72 143.021 174.062 143.226C174.404 143.432 174.698 143.709 174.923 144.039H174.909ZM163.351 148.534V140.177H165.571L164.645 138.626H120.798L121.717 140.177H124.366V142.942C124.366 143.073 124.366 143.171 124.275 143.171C124.068 143.171 123.653 142.637 123.265 142.637C123.092 142.644 122.927 142.713 122.801 142.831C122.674 142.949 122.594 143.108 122.574 143.28C122.691 143.907 122.959 144.496 123.356 144.995L126.397 149.039L127.087 148.349C126.208 147.476 125.401 146.533 124.674 145.529C125.161 145.163 125.587 144.721 125.935 144.221C126.37 144.715 126.964 145.04 127.614 145.14C127.999 145.131 128.382 145.077 128.755 144.98C129.061 145.474 129.48 145.889 129.977 146.191C130.474 146.492 131.035 146.673 131.614 146.717C132.552 146.64 133.44 146.257 134.139 145.627V147.342L135.796 148.497V140.192H149.352V141.067C148.863 141.106 148.408 141.329 148.078 141.692C147.748 142.054 147.568 142.528 147.575 143.018C147.575 143.967 148.342 144.893 149.875 145.693C148.988 146.643 147.762 147.205 146.464 147.259C145.584 147.259 145.341 146.986 145.341 146.565C145.341 146.027 145.897 145.475 147.521 145.475L146.856 143.825C146.305 143.764 145.749 143.864 145.254 144.112C145.148 144.053 145.052 143.976 144.97 143.887L144.912 143.193C144.835 143.292 144.75 143.384 144.658 143.469C144.636 143.417 144.625 143.362 144.625 143.305C144.636 143.177 144.673 143.052 144.733 142.938C144.792 142.824 144.874 142.722 144.973 142.64C145.072 142.557 145.186 142.495 145.309 142.456C145.432 142.418 145.561 142.404 145.69 142.415H145.722C146.083 142.413 146.442 142.451 146.794 142.528L146.035 141.027C145.779 140.966 145.517 140.933 145.254 140.929C144.834 140.886 144.411 140.985 144.054 141.209C143.697 141.434 143.424 141.771 143.281 142.168L142.979 141.656H137.228L138.14 143.204H139.251C139.04 143.541 138.933 143.932 138.943 144.33C138.943 145.507 140.498 147.04 141.929 147.04C142.719 146.951 143.462 146.624 144.062 146.103C144.353 147.255 146.053 148.534 147.521 148.534C149.643 148.534 152.484 146.525 152.484 143.778C152.414 143.276 152.245 142.793 151.987 142.356C151.73 141.92 151.389 141.539 150.983 141.234V140.17H158.156V141.623H155.75C154.017 141.623 153.229 142.619 153.229 143.552C153.229 144.719 153.85 145.783 155.663 148.392L156.353 147.873C155.427 146.783 154.806 145.645 154.806 144.81C154.806 143.974 155.169 143.186 156.368 143.186H158.221V147.335L159.856 148.49V140.134H161.76V147.324L163.384 148.479L163.351 148.534ZM143.401 143.204C143.571 143.515 143.775 143.807 144.007 144.076C142.819 145.191 141.777 145.751 140.934 145.751C140.505 145.751 140.24 145.584 140.24 145.191C140.277 144.828 140.401 144.479 140.601 144.173C140.801 143.867 141.07 143.613 141.388 143.433C141.841 143.255 142.326 143.177 142.812 143.204H143.401ZM150.304 145.148C150.008 144.972 149.761 144.727 149.583 144.432C149.406 144.138 149.304 143.805 149.287 143.462C149.263 143.133 149.365 142.807 149.572 142.55C149.779 142.293 150.076 142.124 150.402 142.077C150.718 142.077 150.994 142.368 150.994 143.109C150.946 143.833 150.708 144.531 150.304 145.133V145.148ZM128.762 140.192H134.15V142.735C133.738 142.245 133.276 141.801 132.769 141.409C132.319 141.183 131.819 141.076 131.316 141.096C129.616 141.096 128.38 142.186 128.333 143.476C128.038 143.568 127.733 143.621 127.425 143.636C126.958 143.646 126.492 143.582 126.044 143.447V140.192H128.762ZM130.833 145.445C130.714 145.446 130.596 145.423 130.486 145.378C130.376 145.333 130.276 145.267 130.192 145.183C130.108 145.099 130.041 145 129.995 144.89C129.949 144.781 129.925 144.663 129.925 144.544C129.923 144.513 129.923 144.481 129.925 144.45C129.914 144.221 129.95 143.992 130.028 143.776C130.107 143.561 130.227 143.363 130.382 143.194C130.538 143.025 130.725 142.889 130.933 142.792C131.141 142.696 131.367 142.642 131.596 142.633H131.625C132.578 142.658 133.491 143.019 134.205 143.651V143.879C133.3 144.526 131.6 145.46 130.833 145.46V145.445ZM112.027 145.217H114.933V147.397L116.605 148.552V140.195H118.421L117.509 138.644H87.7162L88.6354 140.195H94.7539V143.102H94.7067C94.483 142.518 94.0926 142.013 93.584 141.649C93.1576 141.427 92.684 141.311 92.2033 141.311C91.8677 141.288 91.531 141.332 91.2126 141.441C90.8942 141.549 90.6004 141.719 90.3483 141.942C90.0962 142.165 89.8908 142.435 89.744 142.738C89.5972 143.041 89.5118 143.369 89.4929 143.705C89.4929 143.749 89.4929 143.796 89.4929 143.843C89.4929 145.224 91.3095 146.822 92.8174 146.822C93.5374 146.749 94.2156 146.449 94.7539 145.965V147.589L96.4071 148.77V145.009C97.0733 144.351 97.8884 143.862 98.7833 143.585C98.9299 143.601 99.0664 143.668 99.1686 143.774C99.2709 143.881 99.3326 144.019 99.3428 144.167C99.0892 145.208 98.6749 146.203 98.1148 147.117L99.648 148.265C100.196 147.368 100.527 146.355 100.614 145.307C100.614 143.571 99.4046 142.19 98.1765 142.19C97.5271 142.272 96.914 142.535 96.4071 142.949V140.184H106.152V141.696H103.754C102.3 141.696 101.486 142.314 101.486 143.683C101.47 144.796 101.896 145.869 102.671 146.668C103.445 147.466 104.505 147.924 105.618 147.942C106.022 147.969 106.426 147.888 106.788 147.705L108.074 150.307L108.924 149.885L107.449 147.407C107.641 147.32 107.806 147.183 107.928 147.011C108.05 146.838 108.124 146.637 108.143 146.426C108.143 145.736 106.573 144.672 106.068 144.672C105.93 144.668 105.794 144.714 105.686 144.802C105.579 144.889 105.505 145.011 105.48 145.148C105.48 145.689 105.745 145.798 105.745 146.059C105.745 146.321 105.189 146.648 104.542 146.648C104.079 146.628 103.642 146.426 103.327 146.086C103.012 145.746 102.844 145.295 102.86 144.831C102.81 144.452 102.912 144.067 103.144 143.763C103.377 143.458 103.72 143.257 104.099 143.204C104.168 143.198 104.237 143.198 104.306 143.204H107.449C107.638 143.204 107.769 143.037 107.769 142.768V140.192H110.366V143.585H109.8C109.743 143.582 109.687 143.59 109.634 143.609C109.581 143.628 109.533 143.658 109.491 143.695C109.45 143.733 109.416 143.779 109.392 143.83C109.368 143.881 109.355 143.936 109.353 143.992V144.007C109.353 144.697 111.046 146.419 111.533 146.419C111.827 146.419 112.009 146.274 112.009 146.012L112.027 145.217ZM114.933 140.217V143.676H112.027V140.217H114.933ZM94.7612 144.043C94.3107 144.435 92.3196 145.645 91.7819 145.645C91.4185 145.645 91.0915 145.253 91.0915 144.621C91.1102 144.17 91.2924 143.742 91.6041 143.416C91.9158 143.091 92.3355 142.89 92.7847 142.851C93.1843 142.895 93.57 143.023 93.9154 143.229C94.2608 143.435 94.558 143.712 94.7866 144.043H94.7612ZM78.2332 144.043C77.779 144.435 75.7879 145.645 75.2611 145.645C74.8978 145.645 74.5708 145.253 74.5708 144.621C74.5877 144.171 74.7684 143.743 75.0789 143.417C75.3894 143.091 75.8082 142.89 76.2566 142.851C76.6528 142.898 77.0346 143.028 77.3766 143.234C77.7186 143.439 78.0131 143.715 78.2404 144.043H78.2332Z" fill="white"/>
<path fill-rule="evenodd" clip-rule="evenodd" d="M95.397 60.7161C102.277 60.7125 109.003 62.7491 114.725 66.5683C120.447 70.3876 124.908 75.8178 127.543 82.1725C130.179 88.5271 130.871 95.5206 129.532 102.268C128.193 109.016 124.883 115.216 120.02 120.082C115.157 124.949 108.961 128.264 102.214 129.609C95.4674 130.954 88.4733 130.268 82.1165 127.637C75.7597 125.007 70.3257 120.55 66.5017 114.832C62.6777 109.113 60.6355 102.388 60.6333 95.5089V95.4835C60.6333 86.2632 64.2958 77.4206 70.8151 70.9005C77.3345 64.3805 86.1768 60.7171 95.397 60.7161ZM95.397 63.8299C101.661 63.8277 107.785 65.6833 112.994 69.1619C118.204 72.6405 122.264 77.5858 124.663 83.3724C127.061 89.1591 127.69 95.527 126.469 101.671C125.248 107.815 122.232 113.458 117.803 117.888C113.374 122.318 107.731 125.335 101.588 126.557C95.4443 127.78 89.0762 127.153 83.2891 124.756C77.5019 122.358 72.5556 118.299 69.0758 113.09C65.596 107.882 63.7391 101.758 63.7398 95.4944C63.7388 91.3382 64.5566 87.2226 66.1463 83.3825C67.736 79.5424 70.0666 76.053 73.0049 73.1136C75.9433 70.1743 79.4318 67.8425 83.2714 66.2515C87.111 64.6604 91.2263 63.8413 95.3825 63.8408L95.397 63.8299Z" fill="white"/>
<path fill-rule="evenodd" clip-rule="evenodd" d="M177.572 60.7161C184.452 60.7118 191.179 62.748 196.901 66.5671C202.624 70.3862 207.086 75.8166 209.722 82.1716C212.358 88.5266 213.05 95.5206 211.71 102.269C210.371 109.017 207.061 115.217 202.197 120.084C197.334 124.95 191.137 128.265 184.39 129.61C177.642 130.954 170.648 130.267 164.291 127.635C157.934 125.004 152.5 120.547 148.677 114.827C144.854 109.107 142.813 102.382 142.812 95.5017V95.4835C142.816 86.2651 146.479 77.4252 152.997 70.9061C159.515 64.387 168.354 60.7219 177.572 60.7161ZM177.572 63.8299C183.836 63.8277 189.96 65.6833 195.169 69.1619C200.379 72.6405 204.439 77.5858 206.838 83.3724C209.236 89.1591 209.865 95.527 208.644 101.671C207.423 107.815 204.407 113.458 199.978 117.888C195.55 122.318 189.906 125.335 183.763 126.557C177.619 127.78 171.251 127.153 165.464 124.756C159.677 122.358 154.731 118.299 151.251 113.09C147.771 107.882 145.914 101.758 145.915 95.4944C145.915 91.3373 146.734 87.2209 148.325 83.3802C149.916 79.5396 152.248 76.05 155.187 73.1106C158.127 70.1713 161.617 67.8398 165.458 66.2492C169.298 64.6587 173.415 63.8403 177.572 63.8408V63.8299Z" fill="white"/>
<path fill-rule="evenodd" clip-rule="evenodd" d="M59.275 93.6777C57.2694 94.5897 55.9033 91.7084 58.185 90.6766L70.2695 85.2266L146.381 49.7979L153.444 46.735C161.924 43.5413 170.252 41.2378 177.689 44.7912C189.232 50.6772 187.455 67.8229 177.787 75.9071C176.01 77.3931 174.063 75.1804 175.549 73.6253C190.34 58.042 181.173 39.0542 156.656 48.9187C155.122 49.5436 153.803 50.0414 152.296 50.7353C124.373 63.3466 96.5494 76.4266 68.689 89.3976L59.275 93.6777Z" fill="white"/>
<path fill-rule="evenodd" clip-rule="evenodd" d="M207.783 93.8231C205.799 94.7823 204.422 91.8938 206.693 90.8147L266.752 63.0415L273.801 59.964C282.281 56.7631 290.391 54.078 297.781 57.6133C309.338 63.4956 307.562 80.6631 297.879 88.7255C297.594 89.0416 297.195 89.2316 296.771 89.2537C296.346 89.2759 295.93 89.1283 295.614 88.8436C295.297 88.5588 295.107 88.1602 295.085 87.7353C295.063 87.3105 295.211 86.8943 295.495 86.5782L295.63 86.4438C310.319 70.5407 301.265 51.5638 277.009 62.1622C275.498 62.8525 274.15 63.2813 272.649 63.9789C250.94 73.7889 229.242 83.4826 207.769 93.8194L207.783 93.8231Z" fill="white"/>
</g>
<defs>
<clipPath id="clip0_5_791">
<rect width="248.832" height="109" fill="white" transform="translate(57 43)"/>
</clipPath>
</defs>
</svg>
