<svg width="346" height="196" viewBox="0 0 346 196" fill="none" xmlns="http://www.w3.org/2000/svg">
<g clip-path="url(#clip0_5_771)">
<path fill-rule="evenodd" clip-rule="evenodd" d="M164.308 131.302V121.135H167.525C168.368 121.091 169.197 121.372 169.839 121.92C170.128 122.187 170.356 122.514 170.505 122.877C170.655 123.241 170.723 123.634 170.705 124.027C170.714 124.582 170.56 125.128 170.262 125.596C169.975 126.044 169.556 126.391 169.062 126.589C168.35 126.822 167.602 126.925 166.854 126.894H165.78V131.286L164.308 131.302ZM167.293 122.445H165.789V125.613H167.379C167.868 125.646 168.354 125.502 168.745 125.206C168.912 125.052 169.041 124.862 169.124 124.651C169.208 124.44 169.242 124.212 169.225 123.986C169.225 122.949 168.578 122.428 167.293 122.428V122.445ZM174.613 124.604C175.081 124.59 175.546 124.669 175.982 124.838C176.418 125.007 176.816 125.262 177.151 125.588C177.482 125.907 177.743 126.292 177.917 126.718C178.091 127.144 178.173 127.601 178.159 128.061C178.171 128.511 178.086 128.957 177.91 129.371C177.734 129.785 177.471 130.157 177.139 130.46C176.44 131.107 175.512 131.451 174.56 131.416C174.098 131.43 173.638 131.351 173.206 131.185C172.775 131.019 172.381 130.768 172.047 130.448C171.727 130.131 171.473 129.754 171.298 129.338C171.124 128.923 171.033 128.477 171.031 128.026C171.029 127.576 171.116 127.129 171.287 126.712C171.458 126.295 171.709 125.916 172.027 125.596L172.047 125.576C172.388 125.254 172.789 125.002 173.227 124.835C173.665 124.668 174.132 124.59 174.601 124.604H174.613ZM174.548 125.824C174.26 125.811 173.972 125.857 173.703 125.96C173.434 126.063 173.188 126.22 172.983 126.422C172.782 126.635 172.625 126.885 172.522 127.159C172.418 127.432 172.37 127.724 172.381 128.016C172.367 128.304 172.413 128.592 172.517 128.86C172.62 129.129 172.779 129.374 172.983 129.578C173.423 129.973 173.993 130.191 174.585 130.191C175.176 130.191 175.747 129.973 176.187 129.578C176.589 129.15 176.81 128.584 176.804 127.997C176.798 127.411 176.565 126.849 176.155 126.43C175.937 126.227 175.681 126.069 175.402 125.965C175.123 125.862 174.825 125.815 174.528 125.828L174.548 125.824ZM187.826 124.604H189.253L186.309 131.404H185.87L183.902 126.784L181.933 131.44H181.49L178.538 124.641H179.953L181.697 128.707L183.397 124.641H184.385L186.073 128.707L187.814 124.641L187.826 124.604ZM195.581 128.045H190.88C190.885 128.622 191.116 129.175 191.522 129.586C191.727 129.777 191.968 129.925 192.23 130.023C192.493 130.121 192.772 130.166 193.052 130.155C193.919 130.154 194.762 129.868 195.451 129.342V130.635C195.085 130.896 194.68 131.097 194.251 131.233C193.791 131.356 193.316 131.415 192.84 131.408C192.208 131.434 191.582 131.271 191.043 130.94C190.583 130.632 190.209 130.212 189.957 129.72C189.675 129.162 189.535 128.543 189.55 127.918C189.514 127.012 189.822 126.126 190.412 125.438C190.695 125.123 191.043 124.873 191.432 124.708C191.821 124.542 192.242 124.463 192.665 124.478C193.065 124.462 193.463 124.537 193.83 124.698C194.196 124.858 194.521 125.1 194.78 125.405C195.336 126.112 195.618 126.996 195.573 127.894V128.065L195.581 128.045ZM190.908 127.28H194.267C194.264 126.83 194.096 126.396 193.796 126.06C193.647 125.914 193.47 125.801 193.275 125.727C193.081 125.653 192.873 125.619 192.665 125.629C192.234 125.612 191.815 125.767 191.498 126.06C191.17 126.39 190.958 126.818 190.896 127.28H190.908ZM198.42 124.624V126.145L198.493 126.023C199.127 124.99 199.77 124.478 200.412 124.478C201.008 124.527 201.564 124.799 201.97 125.239L201.274 126.398C200.948 126.025 200.491 125.791 199.997 125.743C199.778 125.747 199.563 125.804 199.37 125.908C199.177 126.012 199.012 126.16 198.887 126.341C198.573 126.759 198.409 127.27 198.42 127.792V131.298H197.094V124.616L198.42 124.624ZM204.487 121.16H212.962V122.453H209.424V131.31H207.96V122.445H204.483V121.152L204.487 121.16ZM215.121 124.616C215.588 124.601 216.053 124.68 216.488 124.848C216.923 125.017 217.32 125.271 217.655 125.596C217.985 125.916 218.245 126.301 218.418 126.727C218.591 127.153 218.673 127.61 218.659 128.069C218.672 128.518 218.587 128.965 218.412 129.379C218.237 129.793 217.974 130.165 217.643 130.468C216.942 131.116 216.014 131.459 215.06 131.424C214.598 131.437 214.138 131.359 213.706 131.193C213.275 131.026 212.881 130.776 212.547 130.456C212.228 130.138 211.975 129.76 211.803 129.343C211.63 128.927 211.541 128.481 211.541 128.03C211.541 127.58 211.63 127.134 211.803 126.717C211.975 126.301 212.228 125.923 212.547 125.605C212.889 125.281 213.291 125.028 213.731 124.861C214.17 124.695 214.639 124.617 215.109 124.633L215.121 124.616ZM215.048 125.816C214.76 125.803 214.473 125.849 214.203 125.952C213.934 126.055 213.689 126.212 213.482 126.414C213.282 126.627 213.126 126.877 213.024 127.151C212.921 127.425 212.874 127.716 212.885 128.008C212.871 128.295 212.917 128.583 213.02 128.851C213.123 129.12 213.281 129.365 213.482 129.57C213.699 129.774 213.955 129.933 214.234 130.037C214.514 130.14 214.811 130.186 215.109 130.171C215.401 130.184 215.693 130.137 215.966 130.034C216.239 129.93 216.489 129.772 216.699 129.57C217.106 129.147 217.334 128.583 217.334 127.996C217.334 127.409 217.106 126.845 216.699 126.422C216.482 126.219 216.226 126.061 215.946 125.958C215.667 125.854 215.37 125.807 215.073 125.82L215.048 125.816ZM224.446 121.172H230.205V122.465H225.902V125.564H230.054V126.857H225.902V130.025H230.327V131.322H224.446V121.172ZM237.179 126.459V131.314H235.853V127.565C235.898 127.031 235.796 126.495 235.556 126.015C235.435 125.859 235.276 125.736 235.094 125.658C234.911 125.58 234.712 125.551 234.515 125.572C234.25 125.572 233.988 125.637 233.755 125.763C233.458 125.956 233.194 126.193 232.97 126.467V131.322H231.644V124.616H232.97V125.495C233.213 125.2 233.513 124.958 233.852 124.782C234.191 124.606 234.562 124.5 234.942 124.47C235.35 124.463 235.752 124.572 236.1 124.785C236.449 124.997 236.73 125.304 236.911 125.67C237.169 125.32 237.501 125.032 237.884 124.824C238.266 124.617 238.689 124.496 239.123 124.47C239.426 124.462 239.727 124.521 240.005 124.644C240.282 124.767 240.528 124.951 240.725 125.182C241.193 125.804 241.417 126.577 241.355 127.353V131.302H240.038V127.325C240.06 126.875 239.934 126.431 239.68 126.06C239.563 125.913 239.414 125.797 239.244 125.719C239.073 125.641 238.887 125.605 238.7 125.613C238.397 125.631 238.103 125.716 237.838 125.862C237.572 126.008 237.343 126.212 237.167 126.459H237.179ZM243.084 134.734V124.616H245.398C246.399 124.555 247.386 124.873 248.163 125.507C248.5 125.822 248.763 126.207 248.935 126.635C249.106 127.063 249.182 127.523 249.155 127.984C249.171 128.436 249.097 128.886 248.937 129.309C248.777 129.732 248.535 130.119 248.224 130.448C247.916 130.77 247.542 131.023 247.129 131.19C246.715 131.357 246.27 131.434 245.825 131.416C245.341 131.407 244.863 131.31 244.414 131.131V134.734H243.084ZM245.373 125.853H244.438V129.964C244.832 130.164 245.268 130.268 245.711 130.269C245.995 130.279 246.277 130.226 246.538 130.115C246.8 130.004 247.034 129.837 247.224 129.626C247.547 129.24 247.749 128.768 247.806 128.267C247.862 127.767 247.77 127.261 247.541 126.812C247.371 126.496 247.106 126.24 246.784 126.08C246.334 125.909 245.854 125.832 245.373 125.853ZM253.808 124.604C254.275 124.59 254.74 124.669 255.176 124.838C255.612 125.007 256.01 125.262 256.345 125.588C256.677 125.907 256.938 126.292 257.111 126.718C257.285 127.144 257.367 127.601 257.354 128.061C257.365 128.511 257.28 128.958 257.103 129.372C256.926 129.786 256.662 130.157 256.329 130.46C255.628 131.108 254.7 131.451 253.747 131.416C253.284 131.429 252.824 131.351 252.393 131.184C251.961 131.018 251.567 130.768 251.233 130.448C250.915 130.13 250.662 129.751 250.489 129.335C250.316 128.919 250.228 128.473 250.228 128.022C250.228 127.572 250.316 127.125 250.489 126.709C250.662 126.293 250.915 125.915 251.233 125.596V125.576C251.927 124.929 252.847 124.58 253.795 124.604H253.808ZM253.734 125.824C253.448 125.811 253.161 125.858 252.893 125.961C252.625 126.063 252.381 126.22 252.177 126.422C251.975 126.634 251.818 126.884 251.715 127.158C251.611 127.432 251.564 127.724 251.575 128.016C251.562 128.304 251.609 128.591 251.713 128.86C251.816 129.128 251.974 129.373 252.177 129.578C252.621 129.964 253.19 130.177 253.779 130.177C254.368 130.177 254.937 129.964 255.381 129.578C255.702 129.27 255.922 128.871 256.009 128.434C256.097 127.998 256.049 127.545 255.872 127.137C255.695 126.729 255.397 126.385 255.019 126.151C254.64 125.917 254.199 125.804 253.755 125.828L253.734 125.824ZM267.016 124.604H268.435L265.495 131.404H265.056L263.088 126.784L261.132 131.44H260.696L257.736 124.641H259.159L260.9 128.707L262.604 124.641H263.588L265.271 128.707L267.016 124.641V124.604ZM274.775 128.045H270.066C270.075 128.622 270.305 129.173 270.709 129.586C270.913 129.777 271.154 129.925 271.416 130.023C271.679 130.121 271.958 130.166 272.238 130.155C273.105 130.154 273.948 129.868 274.637 129.342V130.635C274.264 130.897 273.852 131.099 273.417 131.233C272.96 131.356 272.488 131.415 272.014 131.408C271.382 131.438 270.755 131.276 270.217 130.944C269.755 130.636 269.378 130.217 269.123 129.724C268.839 129.167 268.699 128.548 268.716 127.923C268.675 127.016 268.983 126.128 269.578 125.442C269.859 125.127 270.206 124.878 270.594 124.712C270.982 124.546 271.401 124.468 271.823 124.482C272.224 124.466 272.623 124.541 272.991 124.702C273.359 124.862 273.685 125.104 273.946 125.409C274.509 126.113 274.798 126.997 274.759 127.898V128.069L274.775 128.045ZM270.099 127.28H273.462C273.458 126.83 273.29 126.396 272.99 126.06C272.84 125.914 272.663 125.801 272.467 125.727C272.272 125.653 272.064 125.619 271.855 125.629C271.426 125.613 271.008 125.768 270.692 126.06C270.364 126.39 270.152 126.818 270.09 127.28H270.099ZM277.61 124.624V126.145L277.679 126.023C278.321 124.99 278.964 124.478 279.606 124.478C280.203 124.527 280.758 124.799 281.164 125.239L280.465 126.398C280.139 126.023 279.682 125.789 279.188 125.743C278.968 125.746 278.753 125.802 278.56 125.906C278.366 126.01 278.201 126.159 278.077 126.341C277.762 126.758 277.597 127.27 277.61 127.792V131.298H276.28V124.616L277.61 124.624Z" fill="white"/>
<path fill-rule="evenodd" clip-rule="evenodd" d="M129.246 127.744L126.448 132.595C121.259 141.176 112.731 150.594 103.516 154.933C102.56 155.389 101.849 155.722 100.893 156.133C99.9619 156.464 99.0496 156.845 98.1602 157.276C117.03 153.421 130.994 144.99 142.662 130.883C152.34 119.187 162.279 100.208 160.889 78.7484C159.547 58.1711 147.875 42.6527 130.604 38.3013C112.052 33.6491 98.0748 41.9613 87.9935 55.3C87.2737 56.2557 85.033 59.5009 84.7036 60.5379C98.3269 53.7221 114.614 50.7047 128.339 60.6761C140.295 69.3544 143.89 86.8329 140.783 102.071C138.981 110.92 135.423 117.666 130.966 125.047C130.339 125.908 129.758 126.801 129.225 127.723L129.246 127.744Z" fill="#878787"/>
<path fill-rule="evenodd" clip-rule="evenodd" d="M81.4866 156.43C80.2178 157.337 75.2443 155.779 73.9592 155.58C76.4236 157.325 81.5435 158.736 85.2361 158.939C90.8887 159.256 93.3694 158.28 98.164 157.276C99.0524 156.852 99.9634 156.477 100.893 156.153C101.848 155.767 102.56 155.434 103.516 154.954C112.731 150.59 121.259 141.196 126.448 132.615L129.246 127.764C129.563 126.8 130.283 125.483 130.734 124.454C134.435 115.914 137.151 106.239 136.317 96.7434C135.821 91.0501 134.41 85.9789 131.95 81.8309C123.91 68.2483 106.948 63.23 92.3568 69.6513C84.3943 73.1649 79.3435 78.9029 75.167 86.0643C74.5733 87.0403 74.1666 88.1912 73.6257 89.0533C74.2642 88.9395 76.1471 87.7601 77.0173 87.3494C80.7961 85.4749 84.8279 84.1611 88.9855 83.4495C100.413 81.5788 112.446 85.2469 118.298 95.1045C121.043 99.7243 121.82 106.353 121.145 112.677C119.945 123.917 114.292 135.657 108.778 142.306C107.212 144.244 105.511 146.068 103.687 147.764C101.832 149.404 99.8481 150.89 97.7533 152.209C93.8167 154.608 85.8949 157.605 81.4581 156.442L81.4866 156.43Z" fill="#BDBCBC"/>
<path fill-rule="evenodd" clip-rule="evenodd" d="M73.939 155.58C75.2241 155.8 80.1976 157.377 81.4664 156.454C80.5196 156.213 79.6459 155.745 78.9215 155.089C78.1972 154.434 77.644 153.611 77.3103 152.693C75.0004 147.296 76.9565 137.479 78.266 132.16C79.3152 127.898 80.462 123.941 81.7918 119.838L85.8096 108.089L69.9496 108.126C68.9777 109.643 66.8508 117.959 66.2896 120.354C63.5934 131.367 60.7183 150.35 73.939 155.58Z" fill="white"/>
<path fill-rule="evenodd" clip-rule="evenodd" d="M69.4656 97.5933L70.6327 98.8784C71.4902 98.0033 72.4762 97.2642 73.5566 96.6865C74.8784 96.0214 76.334 95.6655 77.8135 95.6458C79.293 95.6261 80.7576 95.943 82.0966 96.5726C82.6705 96.8501 83.2154 97.1838 83.7233 97.5689C84.3699 98.0366 84.5732 98.4229 85.1995 98.7889L86.4195 97.5689C85.8176 96.658 84.252 95.5356 82.9872 94.9175C81.4252 94.1567 79.7105 93.7614 77.973 93.7614C76.2356 93.7614 74.5209 94.1567 72.9588 94.9175C71.8283 95.4339 70.0105 96.719 69.4818 97.5893L69.4656 97.5933Z" fill="white"/>
<path fill-rule="evenodd" clip-rule="evenodd" d="M71.5234 99.83L72.7231 101.18C73.9228 100.534 76.4766 97.5811 80.7792 99.5901C81.609 99.94 82.3446 100.481 82.9264 101.168L84.3334 99.5941C82.6173 98.3945 81.1655 96.8898 77.8593 96.9223C76.6563 96.9234 75.4677 97.1837 74.3744 97.6854C73.2811 98.1872 72.3087 98.9187 71.5234 99.83Z" fill="white"/>
<path fill-rule="evenodd" clip-rule="evenodd" d="M73.8089 102.128L75.1021 103.152C75.216 103.078 75.3259 102.998 75.4315 102.913C76.1262 102.388 76.9618 102.084 77.8308 102.038C79.6324 102.002 80.0106 102.786 81.1574 103.356L82.0276 102.156C80.1732 99.8463 75.5698 99.6511 73.7764 102.156L73.8089 102.128Z" fill="white"/>
<path fill-rule="evenodd" clip-rule="evenodd" d="M75.822 104.214L78.1319 106.54L80.0392 104.328C78.5426 102.917 77.4324 103.039 75.8424 104.23L75.822 104.214Z" fill="white"/>
<path fill-rule="evenodd" clip-rule="evenodd" d="M171.234 100.44C179.595 99.6267 176.866 108.671 173.182 110.676C171.474 111.611 169.709 111.347 167.562 111.359L171.234 100.44ZM163.507 114.088C166.122 114.165 171.75 114.442 173.796 113.579C179.758 111.058 181.482 102.425 178.493 99.1793C176.537 97.0687 171.791 97.6462 168.924 97.6015L163.524 114.071L163.507 114.088Z" fill="white"/>
<path fill-rule="evenodd" clip-rule="evenodd" d="M187.724 115.312C189.819 114.677 192.344 116.91 189.408 117.483C186.667 118.024 184.52 116.3 187.724 115.312ZM191.055 105.475C193.524 104.661 192.6 108.557 191.262 109.135C189.925 109.712 189.262 109.008 189.522 107.61C189.746 106.471 190.124 105.775 191.055 105.475ZM187.863 110.501C186.818 110.765 186.11 111.103 185.756 111.941C185.522 112.376 185.462 112.885 185.589 113.363C185.716 113.841 186.02 114.253 186.439 114.515C183.686 115.548 182.84 117.451 184.077 118.716C186.069 120.725 194.931 119.842 193.43 114.649C192.735 112.209 189.079 113.189 188.444 111.953C189.042 110.55 190.441 112.254 193.365 110.326C194.678 109.448 195.288 107.841 195.288 105.58H196.854L197.521 103.226C193.808 102.746 188.404 102.689 187.07 106.695C186.814 107.407 186.756 108.176 186.903 108.919C186.948 109.213 187.062 109.492 187.236 109.732L187.838 110.546L187.863 110.501Z" fill="white"/>
<path fill-rule="evenodd" clip-rule="evenodd" d="M258.004 111.542C253.49 112.522 254.304 105.609 259.948 105.849C259.676 106.914 258.488 110.863 258.004 111.542ZM260.932 103.002C256.797 103.266 253.499 103.86 252.279 108.695C250.839 114.389 255.833 114.734 260.225 113.982L265.621 97.6543H262.718L260.92 103.051L260.932 103.002Z" fill="white"/>
<path fill-rule="evenodd" clip-rule="evenodd" d="M218.176 105.727C217.814 107.146 217.257 108.573 216.809 110.013C216.472 111.082 216.435 111.143 215.504 111.55C212.153 113.018 212.934 109.151 214.251 107.459C215.142 106.312 216.016 105.556 218.176 105.727ZM215.54 113.283C215.585 113.372 215.609 113.471 215.61 113.571C215.61 113.681 215.565 113.909 215.565 114.173H218.294L221.954 103.372C219.408 102.994 217.48 102.774 215.138 103.669C208.298 106.272 208.436 117.971 215.544 113.352L215.54 113.283Z" fill="white"/>
<path fill-rule="evenodd" clip-rule="evenodd" d="M277.415 105.702C277.134 107.061 276.479 108.642 276.056 110.005C275.406 112.115 273.21 112.075 272.726 111.546C271.733 110.456 272.966 105.409 277.415 105.702ZM274.788 113.266L274.824 114.124H277.528L281.16 103.352C276.398 102.002 272.165 103.95 270.489 106.89C268.094 111.091 269.655 116.747 274.788 113.266Z" fill="white"/>
<path fill-rule="evenodd" clip-rule="evenodd" d="M239.172 114.088H242.039L243.905 108.573C243.983 108.342 244.044 108.142 244.092 107.976C244.369 107.056 244.283 107.008 245.239 106.32C247.797 104.458 248.183 105.605 247.606 107.54L245.593 114.137H248.301L250.701 107.126C250.771 106.916 250.825 106.701 250.863 106.483C251.193 104.946 251.034 103.335 249.546 103.039C247.854 102.705 246.479 103.64 245.381 104.259L245.662 103.197L242.815 103.148L239.172 114.088Z" fill="white"/>
<path fill-rule="evenodd" clip-rule="evenodd" d="M205.541 103.116H203.56L202.686 105.515H204.601C204.276 107.268 199.026 116.674 207.826 113.604L208.375 110.786C207.84 111.039 207.274 111.219 206.691 111.322C204.76 111.168 207.151 106.609 207.505 105.564L209.729 105.523L210.518 103.124H208.452L209.237 100.863L206.309 100.806L205.524 103.1L205.541 103.116Z" fill="white"/>
<path fill-rule="evenodd" clip-rule="evenodd" d="M232.974 114.059L236.028 114.112L241.543 97.6421L238.428 97.634L232.974 114.059Z" fill="white"/>
<path fill-rule="evenodd" clip-rule="evenodd" d="M221.095 114.067L223.954 114.112L229.436 97.634H226.533L221.095 114.067Z" fill="white"/>
<path fill-rule="evenodd" clip-rule="evenodd" d="M179.493 114.185H182.409L185.898 103.087H182.991L179.493 114.185ZM185.878 98.5897C186.691 98.5897 187.159 99.3501 186.952 100.285C186.863 100.727 186.637 101.129 186.306 101.434C185.975 101.74 185.557 101.932 185.109 101.985C184.296 101.985 183.824 101.221 184.04 100.285C184.125 99.8435 184.349 99.4404 184.68 99.1353C185.011 98.8301 185.431 98.6389 185.878 98.5897Z" fill="white"/>
<path fill-rule="evenodd" clip-rule="evenodd" d="M195.553 114.185H198.469L201.962 103.087H199.05L195.553 114.185ZM201.937 98.5897C202.751 98.5897 203.218 99.3501 203.003 100.285C202.918 100.727 202.694 101.13 202.364 101.436C202.034 101.741 201.616 101.934 201.169 101.985C200.355 101.985 199.884 101.221 200.099 100.285C200.184 99.8435 200.409 99.4404 200.739 99.1353C201.07 98.8301 201.49 98.6389 201.937 98.5897Z" fill="white"/>
<path fill-rule="evenodd" clip-rule="evenodd" d="M262.669 114.185H265.568L269.066 103.087H266.166L262.669 114.185ZM269.054 98.5897C269.867 98.5897 270.331 99.3501 270.123 100.285C270.036 100.728 269.811 101.131 269.48 101.436C269.149 101.742 268.729 101.934 268.281 101.985C267.468 101.985 267 101.221 267.211 100.285C267.298 99.8435 267.523 99.4406 267.855 99.1356C268.186 98.8306 268.606 98.6393 269.054 98.5897Z" fill="white"/>
<path fill-rule="evenodd" clip-rule="evenodd" d="M279.936 115.824H195.451V116.926H279.936V115.824Z" fill="white"/>
<path fill-rule="evenodd" clip-rule="evenodd" d="M180.201 115.824H162.958V116.926H180.201V115.824Z" fill="white"/>
</g>
<defs>
<clipPath id="clip0_5_771">
<rect width="217.164" height="122" fill="white" transform="translate(64 37)"/>
</clipPath>
</defs>
</svg>
