<svg width="346" height="196" viewBox="0 0 346 196" fill="none" xmlns="http://www.w3.org/2000/svg">
<g clip-path="url(#clip0_1_420)">
<path d="M89.4169 67.5358C95.3843 67.5358 98.771 71.8286 98.771 76.6168C98.771 84.1294 93.0457 89.0001 82.7237 89.0001C81.2723 89.0001 79.6595 88.9175 77.966 88.8351C77.8855 87.1014 77.8048 85.4503 77.8048 83.9643C77.8048 73.3972 82.5625 67.5358 89.4169 67.5358Z" fill="#87D447"/>
<path d="M89.4167 115.418C82.5623 115.418 77.8046 109.556 77.8046 98.9891C77.8046 97.5032 77.8852 95.8521 77.9659 94.1183C79.6594 94.0357 81.272 93.9533 82.7236 93.9533C93.0455 93.9533 98.771 98.8239 98.771 106.336C98.771 111.125 95.384 115.418 89.4167 115.418Z" fill="#50AFCD"/>
<path d="M61.3542 115.418C55.3869 115.418 52 111.125 52 106.336C52 98.8239 57.7254 93.9533 68.0473 93.9533C69.4988 93.9533 71.1116 94.0357 72.8051 94.1183C72.8857 95.8521 72.9664 97.5032 72.9664 98.9891C72.9664 109.556 68.2086 115.418 61.3542 115.418Z" fill="#EFAA02"/>
<path d="M61.3542 67.5358C68.2086 67.5358 72.9664 73.3972 72.9664 83.9643C72.9664 85.4503 72.8857 87.1014 72.8051 88.8351C71.1116 88.9175 69.4988 89.0001 68.0473 89.0001C57.7254 89.0001 52 84.1294 52 76.6168C52 71.8286 55.3869 67.5358 61.3542 67.5358Z" fill="#D95423"/>
<path fill-rule="evenodd" clip-rule="evenodd" d="M127.406 111.013V111.818C127.406 113.495 126.557 115.441 122.639 115.441C120.485 115.441 118.983 114.636 118.33 112.824C117.547 114.434 115.588 115.374 113.303 115.374C107.754 115.374 104.816 110.811 104.816 98.9361C104.816 87.0608 107.754 82.4984 113.303 82.4984C115.915 82.4984 117.416 83.5719 117.939 84.8467V68.2748C117.939 67.5367 118.461 67 119.179 67H124.729C125.447 67 125.969 67.5367 125.969 68.2748V108.866C125.969 110.409 126.426 111.013 127.406 111.013ZM116.045 109.269C116.829 109.269 117.416 109.067 117.939 108.799V89.0738C117.416 88.8053 116.829 88.6041 116.045 88.6041C114.217 88.6041 112.846 89.4093 112.846 98.9364C112.846 108.396 114.217 109.269 116.045 109.269ZM150.714 111.818V111.013C149.734 111.013 149.277 110.409 149.277 108.866V91.9589C149.277 85.3838 145.948 82.4317 139.68 82.4317C134.326 82.4317 130.148 85.2495 130.148 91.6234C130.148 92.8311 130.997 93.2335 131.78 93.2335H135.828C136.742 93.2335 137.068 92.6968 137.003 91.4221C136.938 90.0132 137.264 88.3358 139.354 88.3358C141.247 88.3358 141.704 89.7448 141.704 91.3551V96.3871C140.659 96.1856 139.484 95.9844 137.787 95.9844C131.388 95.9844 129.038 100.681 129.038 105.646C129.038 110.812 130.997 115.441 136.285 115.441C139.092 115.441 141.182 114.569 142.03 112.758C142.553 114.636 143.728 115.441 145.882 115.441C149.865 115.441 150.714 113.496 150.714 111.818ZM139.092 110.14C140.137 110.207 140.986 109.804 141.704 109.268V100.747C140.986 100.68 140.398 100.68 139.81 100.68C137.395 100.747 136.611 102.625 136.611 105.712C136.611 108.664 137.395 110.006 139.092 110.14ZM161.552 113.764V84.1089C161.552 83.3709 161.029 82.8342 160.311 82.8342H154.762C154.043 82.8342 153.521 83.3709 153.521 84.1089V113.764C153.521 114.502 154.043 115.039 154.762 115.039H160.311C161.029 115.039 161.552 114.502 161.552 113.764ZM157.504 69.3482C159.854 69.3482 161.682 71.2267 161.682 73.6421C161.682 75.9903 159.854 77.936 157.504 77.936C155.219 77.936 153.325 75.9903 153.325 73.6421C153.325 71.2267 155.219 69.3482 157.504 69.3482ZM173.761 113.764V68.2748C173.761 67.5367 173.238 67 172.52 67H166.971C166.252 67 165.73 67.5367 165.73 68.2748V113.764C165.73 114.502 166.252 115.038 166.971 115.038H172.52C173.238 115.038 173.761 114.502 173.761 113.764ZM199.027 84.1089V115.24C199.027 125.035 195.371 130 186.818 130C184.533 130 180.355 129.195 180.355 127.719V123.023C180.355 122.352 180.681 122.016 181.269 122.016C181.66 122.016 182.248 122.218 182.836 122.486C183.684 122.821 184.86 123.09 185.904 123.09C189.822 123.09 190.997 120.741 190.997 115.575V113.026C189.756 114.234 187.602 115.441 184.925 115.441C180.093 115.441 177.874 112.489 177.874 107.055V84.1089C177.874 83.3709 178.396 82.8342 179.114 82.8342H184.664C185.382 82.8342 185.904 83.3709 185.904 84.1089V106.853C185.904 108.531 186.622 109.202 187.994 109.202C188.842 109.202 190.017 108.933 190.997 108.396V84.1089C190.997 83.3709 191.519 82.8342 192.237 82.8342H197.787C198.505 82.8342 199.027 83.3709 199.027 84.1089ZM224.359 113.764V90.8179C224.359 85.3834 222.139 82.4313 217.373 82.4313C214.566 82.4313 212.346 83.9073 211.236 85.1821V68.2748C211.236 67.5367 210.714 67 209.996 67H204.446C203.728 67 203.206 67.5367 203.206 68.2748V113.764C203.206 114.502 203.728 115.038 204.446 115.038H209.996C210.714 115.038 211.236 114.502 211.236 113.764V89.4761C212.281 88.9392 213.456 88.6709 214.305 88.6709C215.676 88.6709 216.329 89.3419 216.329 91.0191V113.764C216.329 114.502 216.851 115.038 217.569 115.038H223.119C223.837 115.038 224.359 114.502 224.359 113.764ZM250.998 111.013V111.818C250.998 113.496 250.149 115.441 246.231 115.441C244.012 115.441 242.51 114.569 241.857 112.69C240.617 114.032 238.396 115.441 235.458 115.441C230.628 115.441 228.407 112.489 228.407 107.055V84.1089C228.407 83.3709 228.93 82.8342 229.648 82.8342H235.197C235.916 82.8342 236.438 83.3709 236.438 84.1089V106.853C236.438 108.531 237.155 109.202 238.527 109.202C239.376 109.202 240.55 108.933 241.53 108.396V84.1089C241.53 83.3709 242.052 82.8342 242.771 82.8342H248.32C249.038 82.8342 249.561 83.3709 249.561 84.1089V108.866C249.561 110.409 250.018 111.013 250.998 111.013ZM274.959 113.764V90.8182C274.959 85.3838 272.738 82.4317 267.973 82.4317C264.968 82.4317 262.88 83.8407 261.639 85.1155C261.183 83.5723 259.811 82.8343 258.244 82.8343H255.045C254.326 82.8343 253.805 83.371 253.805 84.109V113.764C253.805 114.502 254.326 115.039 255.045 115.039H260.595C261.312 115.039 261.835 114.502 261.835 113.764V89.4765C262.88 88.9398 264.054 88.6713 264.903 88.6713C266.275 88.6713 266.928 89.3423 266.928 91.0196V113.764C266.928 114.502 267.449 115.039 268.169 115.039H273.718C274.435 115.039 274.959 114.502 274.959 113.764ZM291.867 88.3358H288.539V107.323C288.539 108.866 288.929 109.537 290.105 109.537C290.609 109.537 290.92 109.439 291.41 109.284C291.493 109.258 291.578 109.23 291.671 109.202C291.764 109.17 291.848 109.139 291.928 109.109C292.189 109.012 292.401 108.933 292.651 108.933C293.173 108.933 293.5 109.202 293.5 110.007V111.348C293.5 112.758 293.108 113.496 292.39 113.965C290.626 115.106 288.995 115.508 286.514 115.508C282.597 115.508 280.508 113.428 280.508 109.269V88.3358H278.287C277.57 88.3358 277.046 87.7991 277.046 87.0611V84.109C277.046 83.3709 277.57 82.8342 278.287 82.8342H280.508V76.3262C280.508 75.5882 281.029 75.0515 281.749 75.0515H287.298C288.015 75.0515 288.539 75.5882 288.539 76.3262V82.8342H291.867C292.586 82.8342 293.108 83.3709 293.108 84.109V87.0611C293.108 87.7991 292.586 88.3358 291.867 88.3358Z" fill="white"/>
</g>
<defs>
<clipPath id="clip0_1_420">
<rect width="241.5" height="63" fill="white" transform="translate(52 67)"/>
</clipPath>
</defs>
</svg>
