<svg width="346" height="196" viewBox="0 0 346 196" fill="none" xmlns="http://www.w3.org/2000/svg">
<g clip-path="url(#clip0_1_349)">
<path fill-rule="evenodd" clip-rule="evenodd" d="M197.148 115.703C185.334 124.365 168.214 129 153.452 129C132.773 129 114.168 121.39 100.077 108.721C98.9787 107.729 99.9547 106.373 101.297 107.142C116.486 115.946 135.294 121.228 154.692 121.228C167.787 121.228 182.183 118.537 195.42 112.93C197.433 112.101 199.1 114.246 197.148 115.703Z" fill="#FF9900"/>
<path fill-rule="evenodd" clip-rule="evenodd" d="M202.048 110.097C200.544 108.174 192.065 109.186 188.262 109.631C187.103 109.773 186.92 108.761 187.978 108.053C194.728 103.317 205.81 104.693 207.111 106.272C208.413 107.871 206.766 118.921 200.422 124.203C199.446 125.013 198.51 124.588 198.958 123.515C200.381 119.973 203.573 112.04 202.048 110.097Z" fill="#FF9900"/>
<path fill-rule="evenodd" clip-rule="evenodd" d="M188.527 74.6586V70.0644C188.527 69.3762 189.055 68.9108 189.686 68.9108H210.365C211.036 68.9108 211.564 69.3965 211.564 70.0644V74.011C211.564 74.6788 210.995 75.5289 209.999 76.9051L199.303 92.1248C203.289 92.0236 207.498 92.6105 211.097 94.6344C211.91 95.0999 212.134 95.7678 212.195 96.4154V101.313C212.195 101.981 211.442 102.77 210.67 102.366C204.305 99.0465 195.847 98.6822 188.811 102.406C188.1 102.791 187.347 102.022 187.347 101.354V96.6987C187.347 95.9499 187.347 94.6749 188.1 93.5415L200.523 75.8122H189.726C189.055 75.8122 188.527 75.3467 188.527 74.6586Z" fill="white"/>
<path fill-rule="evenodd" clip-rule="evenodd" d="M113.07 103.357H106.787C106.177 103.317 105.709 102.872 105.668 102.285V70.1453C105.668 69.4977 106.217 68.9917 106.888 68.9917H112.765C113.375 69.0119 113.863 69.4774 113.903 70.0644V74.2741H114.025C115.55 70.206 118.438 68.3238 122.301 68.3238C126.246 68.3238 128.706 70.2263 130.475 74.2741C132 70.206 135.457 68.3238 139.157 68.3238C141.801 68.3238 144.688 69.4167 146.437 71.8454C148.429 74.5574 148.023 78.4837 148.023 81.9244V102.204C148.023 102.851 147.474 103.357 146.803 103.357H140.52C139.889 103.317 139.381 102.811 139.381 102.204V85.1626C139.381 83.8066 139.503 80.4267 139.198 79.1314C138.73 76.9658 137.327 76.3587 135.497 76.3587C133.972 76.3587 132.386 77.3706 131.736 78.9897C131.085 80.6088 131.146 83.3208 131.146 85.1423V102.183C131.146 102.831 130.597 103.337 129.926 103.337H123.663C123.033 103.297 122.525 102.791 122.525 102.183V85.1423C122.525 81.5601 123.114 76.2777 118.641 76.2777C114.127 76.2777 114.29 81.4184 114.29 85.1423V102.183C114.29 102.831 113.741 103.357 113.07 103.357Z" fill="white"/>
<path fill-rule="evenodd" clip-rule="evenodd" d="M229.397 68.3036C238.73 68.3036 243.793 76.2777 243.793 86.4376C243.793 96.2332 238.201 104.025 229.397 104.025C220.226 104.025 215.245 96.0511 215.245 86.0936C215.224 76.0956 220.287 68.3036 229.397 68.3036ZM229.437 74.8812C224.801 74.8812 224.517 81.1553 224.517 85.0816C224.517 89.008 224.456 97.4071 229.397 97.4071C234.277 97.4071 234.5 90.6473 234.5 86.5186C234.5 83.8066 234.378 80.5683 233.565 77.998C232.853 75.7515 231.45 74.8812 229.437 74.8812Z" fill="white"/>
<path fill-rule="evenodd" clip-rule="evenodd" d="M255.891 103.357H249.628C248.998 103.317 248.49 102.811 248.49 102.204V70.0441C248.551 69.4572 249.059 68.9917 249.71 68.9917H255.545C256.094 69.0119 256.542 69.3965 256.664 69.8822V74.8003H256.786C258.555 70.4084 261.015 68.3036 265.366 68.3036C268.193 68.3036 270.938 69.3155 272.707 72.0883C274.354 74.6586 274.354 78.9897 274.354 82.0863V102.325C274.293 102.892 273.764 103.337 273.134 103.337H266.83C266.261 103.297 265.773 102.872 265.712 102.325V84.8792C265.712 81.3577 266.119 76.217 261.767 76.217C260.242 76.217 258.819 77.2289 258.128 78.7873C257.233 80.7505 257.131 82.7137 257.131 84.8792V102.183C257.111 102.831 256.562 103.357 255.891 103.357Z" fill="white"/>
<path fill-rule="evenodd" clip-rule="evenodd" d="M172.036 87.996C172.036 90.4449 172.097 92.4688 170.857 94.6344C169.861 96.3952 168.254 97.4881 166.506 97.4881C164.086 97.4881 162.683 95.6463 162.683 92.9545C162.683 87.6115 167.482 86.64 172.057 86.64L172.036 87.996ZM178.38 103.256C177.974 103.62 177.364 103.661 176.896 103.398C174.802 101.678 174.436 100.868 173.277 99.2286C169.82 102.73 167.38 103.782 162.907 103.782C157.6 103.782 153.492 100.524 153.492 94.0272C153.492 88.9472 156.258 85.4864 160.202 83.7863C163.618 82.2887 168.397 82.0255 172.036 81.6005V80.791C172.036 79.2933 172.158 77.5325 171.264 76.2575C170.511 75.1038 169.027 74.6181 167.726 74.6181C165.326 74.6181 163.191 75.8527 162.663 78.3825C162.561 78.9492 162.134 79.4957 161.565 79.5362L155.465 78.8885C154.956 78.7671 154.367 78.3623 154.529 77.573C155.953 70.2263 162.642 68 168.62 68C171.691 68 175.676 68.8096 178.096 71.1168C181.166 73.9705 180.861 77.7551 180.861 81.8839V91.639C180.861 94.5737 182.081 95.8689 183.24 97.4476C183.647 98.0143 183.728 98.6822 183.22 99.1072C181.939 100.2 179.661 102.183 178.38 103.256Z" fill="white"/>
<path fill-rule="evenodd" clip-rule="evenodd" d="M89.544 87.996C89.544 90.4449 89.605 92.4688 88.3647 94.6344C87.3683 96.3952 85.7823 97.4881 84.0133 97.4881C81.5937 97.4881 80.1907 95.6463 80.1907 92.9545C80.1907 87.6115 84.9893 86.64 89.544 86.64V87.996ZM95.888 103.256C95.4813 103.62 94.8713 103.661 94.4037 103.398C92.3093 101.678 91.9433 100.868 90.7843 99.2286C87.3277 102.73 84.8877 103.782 80.4143 103.782C75.1277 103.782 71 100.524 71 94.0272C71 88.9472 73.7653 85.4864 77.71 83.7863C81.126 82.2887 85.9043 82.0255 89.544 81.6005V80.791C89.544 79.2933 89.666 77.5325 88.7917 76.2575C88.019 75.1038 86.555 74.6181 85.2537 74.6181C82.8543 74.6181 80.7193 75.8527 80.1907 78.3825C80.089 78.9492 79.662 79.4957 79.0927 79.5362L72.9927 78.8885C72.4843 78.7671 71.915 78.3623 72.0573 77.573C73.4603 70.2263 80.15 68 86.128 68C89.1983 68 93.1837 68.8096 95.6033 71.1168C98.6737 73.9705 98.3687 77.7551 98.3687 81.8839V91.639C98.3687 94.5737 99.5887 95.8689 100.748 97.4476C101.154 98.0143 101.236 98.6822 100.727 99.1072C99.4463 100.2 97.169 102.183 95.888 103.256Z" fill="white"/>
</g>
<defs>
<clipPath id="clip0_1_349">
<rect width="203.333" height="61" fill="white" transform="translate(71 68)"/>
</clipPath>
</defs>
</svg>
