<svg width="346" height="196" viewBox="0 0 346 196" fill="none" xmlns="http://www.w3.org/2000/svg">
<path fill-rule="evenodd" clip-rule="evenodd" d="M108.603 74.5029L108.976 74.6311C110.592 75.2716 113.079 75.9122 116.187 75.9122C119.42 75.9122 122.528 75.1435 125.636 73.8624L129.49 71.9407L126.879 71.0439C126.133 70.7877 125.387 70.5315 124.517 70.4034H124.144L123.771 70.5314C123.585 70.5955 123.398 70.6916 123.212 70.7877C123.025 70.8838 122.839 70.9799 122.652 71.0439C118.922 72.4532 115.193 72.7094 111.587 71.6845L110.468 71.3001L110.095 71.172L109.722 71.3001C108.976 71.5564 108.23 71.8126 107.484 72.1969L104.625 73.4781L107.609 74.3748C107.857 74.2467 108.23 74.3748 108.603 74.5029L108.603 74.5029ZM100.317 82.4615L100.317 82.4615C99.6856 82.6715 99.0056 82.8976 98.4059 83.2066C98.3284 83.2332 98.2456 83.2654 98.1573 83.2996L98.1573 83.2996C97.8209 83.4301 97.4065 83.5909 96.914 83.5909L93.0599 85.6407L95.4221 81.9255C95.6707 81.5411 95.9505 81.1888 96.2302 80.8365L96.2302 80.8365C96.51 80.4842 96.7897 80.1319 97.0384 79.7476C97.0859 79.6986 97.1333 79.6684 97.1739 79.6425C97.2395 79.6007 97.287 79.5705 97.287 79.4913L97.66 79.107L97.9086 78.9789C98.4059 78.8508 98.7789 78.7227 99.1519 78.5946C103.628 77.1853 108.103 77.5697 112.579 79.2351C118.796 81.6692 125.385 80.26 131.974 75.1355C132.099 75.0715 132.192 74.9754 132.285 74.8793C132.378 74.7832 132.472 74.6871 132.596 74.6231L133.218 74.1106L133.963 74.6231C134.461 74.8793 134.958 75.2636 135.331 75.6479L136.45 76.5447L135.828 77.0572L133.963 78.5946C129.115 82.3098 123.893 84.2315 118.671 84.2315C116.06 84.2315 113.698 83.8471 111.336 82.9504C107.73 81.5411 104.125 81.413 100.768 82.3098C100.622 82.36 100.471 82.4103 100.317 82.4615L100.317 82.4615ZM93.9314 96.6665C96.7909 93.5918 100.023 91.6701 103.505 90.6452C106.861 89.7484 110.467 89.8765 114.072 91.2857C125.262 95.5135 134.959 88.5954 139.186 84.8801L140.803 83.2147L141.424 82.7022L140.927 81.9336C140.694 81.694 140.51 81.4045 140.314 81.0964C140.196 80.9102 140.073 80.7173 139.932 80.5243L139.186 79.4994L138.316 80.3962L137.819 80.9086C132.597 86.0331 124.516 91.2858 115.316 87.6986C110.964 86.0332 106.488 85.7769 102.386 86.9299C99.7747 87.6986 97.2882 88.9797 94.8017 90.6452L92.1908 92.8231L91.5691 93.4637L91.3205 93.7199V94.1042C91.2606 94.5366 91.2295 94.969 91.1995 95.3871C91.1673 95.836 91.1362 96.2684 91.0718 96.6665L90.9475 99.8693L93.0611 97.5632C93.1398 97.4821 93.2185 97.3882 93.3012 97.2895C93.4797 97.0765 93.6765 96.8416 93.9314 96.6665ZM116.558 99.6283C112.953 98.219 109.347 98.0909 105.99 98.9877C101.032 100.358 97.4855 103.669 94.8927 106.089L94.6766 106.29C94.6145 106.418 94.5212 106.514 94.428 106.61C94.3347 106.706 94.2415 106.803 94.1793 106.931L92.9361 108.596L92.1901 106.546C92.1279 106.226 92.0347 105.906 91.9414 105.585L91.9414 105.585C91.8482 105.265 91.755 104.945 91.6928 104.625L91.5685 104.112L91.9415 103.728C91.989 103.679 92.0364 103.649 92.077 103.623C92.1426 103.581 92.1901 103.551 92.1901 103.472L94.055 101.422V101.55C97.2875 98.4752 100.769 96.2973 104.747 95.1443C108.85 93.9913 113.326 94.2475 117.677 95.913C127.375 99.5001 135.829 93.607 141.299 87.8419C141.387 87.7511 141.475 87.6765 141.558 87.6065C141.709 87.4788 141.841 87.3668 141.921 87.2014L143.164 85.9202L143.786 87.7138L143.786 87.7139C144.035 88.3544 144.283 88.995 144.407 89.5074L144.656 90.148L144.159 90.6604L144.034 90.7885L142.17 92.7102C130.732 103.344 120.537 101.166 116.558 99.6283ZM110.096 112.027C114.199 110.874 118.674 111.13 123.026 112.796C128.372 114.845 133.718 114.205 139.561 110.874L143.54 108.568L141.053 112.539C140.556 113.436 139.934 114.205 139.313 114.973C139.265 115.022 139.218 115.053 139.177 115.078C139.112 115.12 139.064 115.15 139.064 115.23L138.691 115.614L138.442 115.742C131.107 118.945 125.015 117.536 122.031 116.383C118.426 114.973 114.82 114.845 111.463 115.742C108.853 116.383 106.366 117.664 104.128 119.585C103.879 119.714 103.631 119.97 103.506 120.098L102.761 120.738L102.015 120.226C101.915 120.157 101.824 120.098 101.739 120.043L101.739 120.043C101.508 119.892 101.326 119.773 101.144 119.585C101.097 119.537 101.067 119.488 101.042 119.446C101.002 119.378 100.972 119.329 100.896 119.329L99.7767 118.304L100.274 117.792L102.015 116.255C104.501 114.333 107.236 112.796 110.096 112.027ZM126.139 121.339C126.294 121.403 126.449 121.467 126.636 121.531C126.822 121.595 127.04 121.659 127.258 121.723C127.475 121.787 127.693 121.851 127.879 121.915L131.485 122.812L128.004 124.093C127.371 124.419 126.56 124.653 125.797 124.872L125.797 124.872C125.66 124.912 125.525 124.951 125.393 124.99L125.02 125.118L124.398 124.862C124.212 124.798 124.056 124.734 123.901 124.669C123.745 124.605 123.59 124.541 123.403 124.477C119.922 123.324 116.69 123.324 113.706 124.093C113.457 124.221 113.209 124.349 112.96 124.349C112.711 124.349 112.463 124.463 112.214 124.577C112.09 124.634 111.965 124.691 111.841 124.734L111.468 124.862L111.095 124.734L108.857 123.965L106.371 123.068L107.117 122.684L110.1 121.274C110.971 120.89 111.841 120.634 112.711 120.378L112.711 120.378C116.814 119.225 121.29 119.481 125.641 121.146C125.828 121.21 125.983 121.274 126.139 121.339ZM145.655 95.0209L143.79 96.9426L143.044 97.7112C137.946 102.708 129.741 108.088 120.541 104.501C116.189 102.836 111.713 102.58 107.611 103.733C103.757 104.886 100.275 106.935 97.1672 110.01L95.5509 111.804L95.0536 112.444L95.5509 113.213C95.9239 113.725 96.1726 114.11 96.4212 114.622L97.1672 115.775L98.0375 114.622L98.5348 114.11C101.519 110.779 104.751 108.729 108.481 107.704C111.838 106.807 115.443 106.935 119.049 108.345C122.157 109.498 125.389 109.882 128.622 109.498C134.341 108.857 140.06 105.526 144.287 101.811C144.411 101.683 144.536 101.587 144.66 101.491C144.784 101.394 144.909 101.298 145.033 101.17L145.406 100.786V100.402C145.406 100.017 145.437 99.601 145.468 99.1847L145.468 99.1845C145.499 98.7682 145.53 98.3518 145.53 97.9675L145.655 95.0209ZM201.333 110.947C203.17 107.335 204.088 103.019 204.088 97.9989C204.088 92.9787 203.17 88.6703 201.333 85.0735C199.497 81.4614 196.979 78.6911 193.78 76.7626C190.597 74.8189 186.977 73.847 182.921 73.847C178.85 73.847 175.215 74.8189 172.016 76.7626C168.832 78.6911 166.322 81.4614 164.486 85.0735C162.649 88.6703 161.731 92.9787 161.731 97.9989C161.731 103.004 162.649 107.312 164.486 110.924C166.322 114.536 168.832 117.314 172.016 119.258C175.215 121.187 178.85 122.151 182.921 122.151C186.977 122.151 190.597 121.187 193.78 119.258C196.979 117.314 199.497 114.544 201.333 110.947ZM195.204 88.3335C196.443 90.9508 197.063 94.1726 197.063 97.9989C197.063 101.825 196.443 105.055 195.204 107.687C193.979 110.304 192.295 112.294 190.153 113.656C188.025 115.003 185.615 115.677 182.921 115.677C180.212 115.677 177.794 115.003 175.666 113.656C173.539 112.294 171.855 110.304 170.615 107.687C169.391 105.055 168.779 101.825 168.779 97.9989C168.779 94.1726 169.391 90.9508 170.615 88.3335C171.855 85.701 173.539 83.7113 175.666 82.3644C177.794 81.0022 180.212 80.3212 182.921 80.3212C185.615 80.3212 188.025 81.0022 190.153 82.3644C192.295 83.7113 193.979 85.701 195.204 88.3335ZM210.473 116.779V121.508H244.084V115.401H219.151L243.877 79.2192V74.4898H210.266V80.5967H235.199L210.473 116.779ZM251.737 121.508H258.831V74.4898H251.737V121.508Z" fill="white"/>
</svg>
