<svg width="346" height="196" viewBox="0 0 346 196" fill="none" xmlns="http://www.w3.org/2000/svg">
<g clip-path="url(#clip0_5_601)">
<path d="M180.948 147.747C181.062 146.61 181.197 145.472 181.343 144.335C181.522 142.948 181.711 141.563 181.895 140.177C181.943 139.814 182.014 139.451 182.021 139.087C182.023 138.938 181.911 138.763 181.804 138.641C181.429 138.216 181.035 137.807 180.644 137.395C179.704 136.404 178.758 135.416 177.82 134.422C177.248 133.817 176.686 133.204 176.121 132.593C176.068 132.536 176.022 132.471 175.93 132.356C176.304 132.273 176.629 132.194 176.958 132.131C178.115 131.908 179.273 131.69 180.43 131.471C181.734 131.224 183.037 130.977 184.341 130.733C184.59 130.686 184.766 130.58 184.898 130.337C185.857 128.57 186.833 126.813 187.804 125.052C188.181 124.368 188.558 123.684 188.937 123.001C188.963 122.953 189.004 122.914 189.064 122.837C189.399 123.43 189.726 123.995 190.041 124.567C191.115 126.52 192.18 128.478 193.267 130.424C193.346 130.566 193.556 130.687 193.724 130.721C195.518 131.081 197.315 131.425 199.112 131.767C200.023 131.941 200.935 132.101 201.847 132.271C201.934 132.287 202.017 132.328 202.125 132.366C202.089 132.429 202.07 132.484 202.034 132.522C201.183 133.423 200.328 134.321 199.478 135.223C198.415 136.353 197.368 137.5 196.288 138.613C195.952 138.96 196.108 139.325 196.142 139.675C196.225 140.553 196.356 141.427 196.472 142.302C196.583 143.142 196.704 143.981 196.809 144.822C196.913 145.654 197.002 146.487 197.1 147.319C197.115 147.443 197.145 147.565 197.168 147.718C197.116 147.747 197.064 147.747 196.975 147.725C196.716 147.614 196.488 147.538 196.273 147.436C195.373 147.005 194.48 146.561 193.579 146.133C192.127 145.444 190.672 144.762 189.214 144.085C189.125 144.044 188.988 144.029 188.903 144.068C187.931 144.511 186.966 144.967 185.999 145.419C184.949 145.911 183.897 146.399 182.85 146.897C182.273 147.171 181.704 147.463 181.131 147.747C181.079 147.747 181.026 147.747 180.948 147.747Z" fill="white"/>
<path d="M209.118 147.747C209.232 146.61 209.367 145.472 209.513 144.335C209.692 142.948 209.881 141.563 210.065 140.177C210.113 139.814 210.184 139.451 210.191 139.087C210.193 138.938 210.081 138.762 209.974 138.641C209.599 138.216 209.205 137.807 208.814 137.395C207.874 136.404 206.928 135.416 205.99 134.422C205.418 133.817 204.856 133.204 204.291 132.593C204.238 132.536 204.192 132.471 204.1 132.356C204.473 132.273 204.799 132.194 205.128 132.131C206.285 131.908 207.443 131.69 208.6 131.471C209.904 131.224 211.207 130.977 212.511 130.733C212.76 130.686 212.936 130.58 213.068 130.337C214.027 128.57 215.003 126.813 215.974 125.052C216.351 124.368 216.728 123.684 217.107 123.001C217.133 122.953 217.174 122.914 217.234 122.837C217.569 123.43 217.896 123.995 218.21 124.567C219.285 126.52 220.35 128.478 221.437 130.424C221.516 130.566 221.726 130.687 221.894 130.721C223.688 131.081 225.485 131.425 227.282 131.767C228.192 131.941 229.105 132.101 230.016 132.271C230.104 132.287 230.187 132.328 230.295 132.366C230.259 132.429 230.24 132.484 230.204 132.522C229.353 133.423 228.498 134.321 227.648 135.223C226.585 136.353 225.538 137.5 224.458 138.613C224.122 138.96 224.278 139.325 224.312 139.675C224.395 140.553 224.527 141.427 224.641 142.302C224.75 143.131 224.864 143.96 224.97 144.79C225.051 145.427 225.12 146.066 225.2 146.703C225.241 147.032 225.291 147.36 225.338 147.718C225.286 147.747 225.234 147.747 225.144 147.725C224.886 147.614 224.658 147.538 224.443 147.436C223.543 147.005 222.65 146.561 221.749 146.133C220.297 145.444 218.842 144.762 217.384 144.085C217.295 144.044 217.158 144.029 217.073 144.068C216.101 144.511 215.136 144.967 214.169 145.419C213.119 145.911 212.067 146.399 211.02 146.897C210.443 147.171 209.874 147.463 209.301 147.747C209.249 147.747 209.196 147.747 209.118 147.747Z" fill="white"/>
<path d="M98.112 147.747C98.2259 146.61 98.3608 145.472 98.5073 144.335C98.6861 142.948 98.8752 141.563 99.0588 140.177C99.1069 139.814 99.1778 139.451 99.1846 139.087C99.1874 138.938 99.0755 138.763 98.9683 138.641C98.593 138.216 98.1991 137.807 97.8085 137.395C96.8678 136.404 95.9223 135.416 94.9838 134.423C94.4125 133.818 93.8503 133.204 93.2851 132.593C93.232 132.536 93.1867 132.472 93.0938 132.356C93.4675 132.274 93.7935 132.194 94.1224 132.131C95.2791 131.908 96.4367 131.69 97.594 131.471C98.8975 131.224 100.201 130.977 101.505 130.733C101.754 130.686 101.93 130.58 102.062 130.337C103.021 128.57 103.998 126.812 104.969 125.052C105.346 124.368 105.722 123.684 106.101 123.001C106.127 122.953 106.168 122.914 106.228 122.837C106.564 123.43 106.89 123.995 107.205 124.567C108.279 126.52 109.345 128.478 110.431 130.424C110.511 130.567 110.72 130.687 110.889 130.721C112.682 131.081 114.479 131.425 116.276 131.767C117.187 131.941 118.1 132.101 119.011 132.271C119.098 132.287 119.181 132.328 119.289 132.367C119.253 132.43 119.234 132.484 119.198 132.522C118.347 133.424 117.492 134.321 116.642 135.223C115.579 136.354 114.532 137.5 113.452 138.613C113.116 138.96 113.272 139.325 113.306 139.675C113.389 140.553 113.52 141.427 113.636 142.302C113.747 143.142 113.868 143.981 113.973 144.823C114.077 145.654 114.166 146.487 114.264 147.319C114.279 147.443 114.309 147.565 114.332 147.718C114.28 147.747 114.228 147.747 114.139 147.725C112.971 147.171 111.839 146.64 110.707 146.109C109.263 145.432 107.821 144.753 106.374 144.082C106.285 144.041 106.148 144.032 106.062 144.071C105.092 144.514 104.127 144.969 103.16 145.421C102.111 145.913 101.059 146.4 100.013 146.898C99.436 147.172 98.8674 147.463 98.295 147.747C98.2427 147.747 98.1904 147.747 98.112 147.747Z" fill="white"/>
<path d="M126.003 147.747C126.117 146.61 126.252 145.472 126.398 144.335C126.577 142.948 126.766 141.563 126.95 140.177C126.998 139.814 127.069 139.451 127.076 139.087C127.078 138.938 126.966 138.763 126.859 138.641C126.484 138.216 126.09 137.807 125.699 137.395C124.759 136.404 123.813 135.416 122.875 134.422C122.303 133.817 121.741 133.204 121.176 132.593C121.123 132.536 121.078 132.472 120.985 132.356C121.358 132.273 121.684 132.194 122.013 132.131C123.17 131.908 124.328 131.69 125.485 131.471C126.789 131.224 128.092 130.977 129.396 130.733C129.645 130.686 129.821 130.58 129.953 130.337C130.912 128.57 131.888 126.813 132.859 125.052C133.236 124.368 133.613 123.684 133.992 123.001C134.018 122.953 134.059 122.914 134.119 122.837C134.454 123.43 134.781 123.995 135.095 124.567C136.17 126.52 137.235 128.478 138.322 130.424C138.401 130.566 138.611 130.687 138.779 130.721C140.573 131.081 142.37 131.425 144.167 131.767C145.077 131.941 145.99 132.101 146.901 132.271C146.989 132.287 147.072 132.328 147.18 132.366C147.144 132.429 147.125 132.484 147.089 132.522C146.238 133.423 145.383 134.321 144.533 135.223C143.47 136.353 142.423 137.5 141.343 138.613C141.007 138.96 141.163 139.325 141.197 139.675C141.28 140.553 141.411 141.427 141.527 142.302C141.638 143.142 141.759 143.981 141.864 144.822C141.968 145.654 142.057 146.487 142.155 147.319C142.169 147.443 142.199 147.565 142.223 147.718C142.171 147.747 142.119 147.747 142.03 147.725C140.861 147.171 139.73 146.64 138.598 146.109C137.154 145.432 135.712 144.753 134.265 144.082C134.176 144.041 134.039 144.032 133.953 144.071C132.983 144.514 132.018 144.969 131.051 145.421C130.002 145.913 128.95 146.4 127.904 146.898C127.327 147.172 126.758 147.463 126.186 147.747C126.134 147.747 126.081 147.747 126.003 147.747Z" fill="white"/>
<path d="M153.615 147.747C153.729 146.61 153.864 145.472 154.01 144.335C154.189 142.948 154.378 141.563 154.562 140.177C154.61 139.814 154.681 139.451 154.688 139.087C154.69 138.938 154.578 138.763 154.471 138.641C154.096 138.216 153.702 137.807 153.311 137.395C152.371 136.404 151.425 135.416 150.487 134.422C149.915 133.817 149.353 133.204 148.788 132.593C148.735 132.536 148.689 132.471 148.597 132.356C148.971 132.273 149.296 132.194 149.625 132.131C150.782 131.908 151.94 131.69 153.097 131.471C154.401 131.224 155.704 130.977 157.008 130.733C157.257 130.686 157.433 130.58 157.565 130.337C158.524 128.57 159.5 126.813 160.471 125.052C160.848 124.368 161.225 123.684 161.604 123.001C161.63 122.953 161.671 122.914 161.731 122.837C162.066 123.43 162.393 123.995 162.708 124.567C163.782 126.52 164.847 128.478 165.934 130.424C166.013 130.566 166.223 130.687 166.391 130.721C168.185 131.081 169.982 131.425 171.779 131.767C172.69 131.941 173.602 132.101 174.514 132.271C174.601 132.287 174.684 132.328 174.792 132.366C174.756 132.429 174.737 132.484 174.701 132.522C173.85 133.423 172.995 134.321 172.145 135.223C171.082 136.353 170.035 137.5 168.955 138.613C168.619 138.96 168.775 139.325 168.809 139.675C168.892 140.553 169.023 141.427 169.139 142.302C169.25 143.142 169.371 143.981 169.476 144.822C169.58 145.654 169.669 146.487 169.767 147.319C169.782 147.443 169.811 147.565 169.835 147.718C169.783 147.747 169.731 147.747 169.642 147.725C168.474 147.171 167.342 146.64 166.21 146.109C164.766 145.432 163.324 144.753 161.877 144.082C161.788 144.041 161.651 144.032 161.565 144.071C160.595 144.514 159.63 144.969 158.663 145.421C157.614 145.913 156.562 146.4 155.516 146.898C154.939 147.172 154.37 147.463 153.798 147.747C153.746 147.747 153.693 147.747 153.615 147.747Z" fill="white"/>
<path d="M106.751 85.0778C106.922 84.1829 107.08 83.3203 107.255 82.3635C100.84 82.3635 94.5116 82.3635 88.1482 82.3635C88.1482 79.6574 88.1482 77.0328 88.1482 74.3347C88.3068 74.3347 88.4643 74.3347 88.6218 74.3347C97.3352 74.3347 106.049 74.3364 114.762 74.3288C115.126 74.3285 115.248 74.4039 115.31 74.8132C115.611 76.8002 115.601 78.8 115.512 80.7894C115.439 82.4115 115.225 84.0391 114.926 85.6367C114.446 88.2 113.564 90.6407 112.324 92.9428C111.568 94.3481 110.671 95.6584 109.657 96.893C107.112 99.9916 103.909 102.207 100.308 103.888C97.9383 104.993 95.4616 105.73 92.8693 106.137C90.6523 106.485 88.4262 106.542 86.2099 106.417C83.0365 106.238 79.958 105.505 77.0073 104.301C75.0081 103.485 73.1104 102.476 71.3302 101.245C70.2648 100.508 69.2566 99.7087 68.2861 98.8501C66.0339 96.8574 64.1547 94.5638 62.6106 91.9899C62.2274 91.3511 61.797 90.7304 61.4996 90.0526C60.9277 88.749 60.3989 87.4236 59.9191 86.0833C59.2956 84.3419 58.9819 82.5269 58.7074 80.6988C58.4395 78.915 58.4017 77.1242 58.507 75.3427C58.5971 73.8183 58.8551 72.2943 59.1588 70.7944C59.646 68.3878 60.4919 66.0913 61.6073 63.9035C62.6224 61.9127 63.8513 60.0607 65.2851 58.3397C67.3867 55.8169 69.8374 53.6975 72.6349 51.9973C75.5008 50.2555 78.5802 49.0318 81.8673 48.2981C84.6675 47.6731 87.4953 47.5554 90.3326 47.6795C92.5327 47.7758 94.695 48.2168 96.8148 48.835C98.8741 49.4356 100.836 50.2728 102.717 51.295C104.26 52.1338 105.726 53.0975 107.078 54.2245C107.517 54.5899 107.954 54.957 108.436 55.3608C106.485 57.3716 104.573 59.3414 102.724 61.2467C101.508 60.3924 100.376 59.4743 99.129 58.7547C97.9082 58.0503 96.5948 57.4858 95.2778 56.9742C93.8628 56.4245 92.3732 56.0964 90.8539 55.9792C89.6846 55.8891 88.51 55.8194 87.3383 55.8264C86.6281 55.8306 85.9215 56.0338 85.2088 56.0853C83.7332 56.1918 82.3429 56.6292 80.9674 57.123C78.7187 57.9303 76.6955 59.131 74.8426 60.6388C73.1456 62.0197 71.7173 63.6333 70.5256 65.4594C68.9768 67.8327 67.9698 70.4167 67.4372 73.2059C67.0901 75.0236 67.0441 76.852 67.1489 78.674C67.2734 80.8378 67.7891 82.9375 68.6039 84.9586C69.3828 86.8907 70.419 88.671 71.7101 90.2996C73.3541 92.3733 75.3383 94.0591 77.6211 95.3987C79.2025 96.3267 80.8715 97.0469 82.6398 97.5231C83.9782 97.8835 85.3335 98.1712 86.7285 98.2133C87.3973 98.2335 88.0657 98.2893 88.7343 98.2893C90.5403 98.2893 92.3215 98.0313 94.0375 97.4952C95.419 97.0637 96.7783 96.5291 98.0913 95.9192C99.5741 95.2305 100.893 94.2715 102.114 93.167C103.589 91.8326 104.785 90.2921 105.594 88.4902C106.079 87.4099 106.364 86.2399 106.751 85.0778Z" fill="white"/>
<path d="M236.65 75.7343C236.65 85.7651 236.659 95.7548 236.641 105.744C236.638 107.491 236.307 109.204 235.818 110.88C235.298 112.666 234.559 114.36 233.516 115.903C232.729 117.068 231.83 118.135 230.759 119.069C229.526 120.145 228.2 121.074 226.693 121.689C225.723 122.085 224.682 122.325 223.657 122.572C221.462 123.103 219.219 123.182 216.982 123.057C214.954 122.944 212.991 122.466 211.117 121.639C209.886 121.097 208.755 120.402 207.69 119.594C206.143 118.42 204.875 116.979 203.82 115.362C203.17 114.366 202.617 113.308 201.991 112.227C204.472 111.149 206.849 110.115 209.193 109.095C209.709 109.924 210.168 110.756 210.717 111.524C211.942 113.242 213.454 114.637 215.479 115.365C216.496 115.73 217.549 115.82 218.64 115.768C219.829 115.711 220.996 115.603 222.142 115.268C223.513 114.868 224.742 114.204 225.774 113.228C226.795 112.262 227.518 111.086 228.01 109.758C228.511 108.409 228.812 107.027 228.83 105.589C228.845 104.45 228.833 103.311 228.833 102.08C228.287 102.494 227.817 102.857 227.342 103.21C225.493 104.585 223.444 105.53 221.193 106.013C219.976 106.274 218.729 106.37 217.49 106.272C214.777 106.058 212.266 105.186 209.911 103.832C208.6 103.077 207.318 102.286 206.29 101.158C205.032 99.7768 203.853 98.3306 202.962 96.6795C202.426 95.688 201.854 94.7005 201.468 93.6489C201.045 92.4985 200.762 91.2874 200.524 90.0818C200.347 89.1797 200.26 88.2434 200.271 87.324C200.299 84.9771 200.789 82.7173 201.719 80.5524C202.544 78.6289 203.61 76.8482 204.934 75.2371C206.391 73.4642 208.147 72.0155 210.1 70.8096C211.672 69.8384 213.341 69.0673 215.158 68.7155C216.3 68.4942 217.482 68.3123 218.638 68.3518C221.666 68.4551 224.394 69.522 226.861 71.2625C227.447 71.6754 228.014 72.114 228.641 72.5793C228.678 71.765 228.718 71.0087 228.744 70.252C228.761 69.7427 228.768 69.7245 229.287 69.7243C231.578 69.7237 233.87 69.724 236.161 69.724C236.298 69.724 236.434 69.724 236.65 69.724C236.65 71.7296 236.65 73.7114 236.65 75.7343ZM227.469 80.5968C226.803 79.6138 226.014 78.7449 225.068 78.0263C222.869 76.3572 220.421 75.6637 217.672 76.1396C214.952 76.6104 212.849 78.0453 211.254 80.2571C209.987 82.0149 209.261 83.9765 209.052 86.1439C208.919 87.5293 208.983 88.8902 209.283 90.2434C209.815 92.6386 210.954 94.6885 212.767 96.3553C213.69 97.2027 214.721 97.8695 215.9 98.2998C217.203 98.7754 218.531 98.9977 219.934 98.8874C221.222 98.7861 222.427 98.4504 223.555 97.865C225.284 96.9677 226.631 95.6447 227.662 93.99C229.25 91.4429 229.745 88.6634 229.387 85.7236C229.164 83.8928 228.511 82.1978 227.469 80.5968Z" fill="white"/>
<path d="M159.443 84.0834C159.953 81.3348 160.975 78.8341 162.552 76.5695C164.159 74.2635 166.174 72.3939 168.602 70.9664C170.645 69.7651 172.833 68.9532 175.168 68.5964C176.361 68.4142 177.584 68.304 178.787 68.3469C181.379 68.4395 183.881 68.9914 186.241 70.1231C188.079 71.0041 189.748 72.1074 191.246 73.4984C193.075 75.1965 194.502 77.1749 195.552 79.4221C196.375 81.1831 196.957 83.0299 197.123 84.9774C197.226 86.1854 197.341 87.4067 197.272 88.6118C197.147 90.8116 196.631 92.9361 195.748 94.9707C195.046 96.5867 194.146 98.0796 193.039 99.4362C191.941 100.781 190.681 101.971 189.257 102.978C187.118 104.491 184.766 105.533 182.205 106.066C181.227 106.27 180.22 106.35 179.222 106.435C178.605 106.488 177.98 106.453 177.359 106.443C175.304 106.41 173.334 105.948 171.421 105.229C169.685 104.577 168.07 103.685 166.615 102.539C164.729 101.055 163.135 99.3044 161.887 97.2377C160.66 95.2068 159.871 93.0203 159.432 90.7023C159.149 89.2079 159.123 87.6907 159.185 86.1765C159.213 85.4878 159.345 84.8033 159.443 84.0834ZM167.822 85.0147C167.739 85.6185 167.618 86.2201 167.581 86.8267C167.507 88.0425 167.635 89.2514 167.935 90.4279C168.591 93.0073 169.943 95.1608 172.055 96.7976C173.918 98.2421 176.066 98.9338 178.41 98.9334C179.227 98.9333 180.067 98.8025 180.856 98.5851C183.794 97.776 185.989 95.973 187.459 93.3275C188.776 90.9564 189.236 88.4083 188.821 85.7061C188.624 84.4223 188.266 83.196 187.676 82.0468C186.897 80.5321 185.864 79.2186 184.484 78.1931C181.892 76.2675 179.02 75.6003 175.878 76.3677C172.665 77.1524 170.363 79.1382 168.884 82.0564C168.424 82.9638 168.177 83.979 167.822 85.0147Z" fill="white"/>
<path d="M156.128 86.3667C156.099 87.4864 156.141 88.5738 156.026 89.6444C155.836 91.4166 155.378 93.1326 154.673 94.7775C153.741 96.9499 152.473 98.8872 150.831 100.601C148.103 103.448 144.804 105.247 140.98 106.087C139.965 106.31 138.908 106.356 137.867 106.437C137.073 106.498 136.272 106.531 135.478 106.491C134.871 106.46 134.272 106.295 133.669 106.191C132.072 105.913 130.525 105.427 129.062 104.762C127.973 104.267 126.933 103.615 125.979 102.89C124.875 102.052 123.828 101.117 122.868 100.116C121.854 99.0595 121.03 97.8395 120.329 96.5397C119.544 95.0849 118.925 93.5671 118.561 91.9595C118.34 90.9842 118.205 89.985 118.101 88.9892C118.016 88.1763 117.977 87.3496 118.018 86.5341C118.136 84.1975 118.656 81.9488 119.59 79.7952C120.2 78.3903 120.968 77.0776 121.901 75.875C123.417 73.9201 125.218 72.2666 127.369 71.0142C129.023 70.051 130.757 69.2723 132.636 68.8895C133.762 68.6601 134.911 68.513 136.057 68.422C137.003 68.3469 137.966 68.3412 138.91 68.4254C140.314 68.5504 141.686 68.8763 143.032 69.3128C145.212 70.0194 147.196 71.0936 148.978 72.5161C150.877 74.0321 152.432 75.8549 153.64 77.9784C154.573 79.6209 155.263 81.3557 155.675 83.1889C155.906 84.2169 155.982 85.2797 156.128 86.3667ZM128.291 81.038C127.07 82.9532 126.467 85.0623 126.416 87.3175C126.38 88.8767 126.665 90.3965 127.231 91.8587C128.044 93.9598 129.348 95.6972 131.179 96.9984C133.498 98.6464 136.094 99.2852 138.904 98.7681C141.201 98.3456 143.154 97.2514 144.732 95.5004C145.559 94.5828 146.241 93.5828 146.742 92.454C147.709 90.273 148.03 88.0112 147.654 85.6478C147.202 82.8003 145.953 80.3969 143.733 78.5317C141.301 76.489 138.511 75.7217 135.374 76.229C133.237 76.5746 131.424 77.5717 129.891 79.0635C129.301 79.6376 128.834 80.3383 128.291 81.038Z" fill="white"/>
<path d="M277.529 105.58C275.815 105.991 274.109 106.235 272.374 106.194C271.062 106.163 269.76 105.991 268.487 105.68C266.262 105.137 264.188 104.232 262.306 102.912C259.932 101.247 257.994 99.186 256.568 96.6465C255.445 94.6487 254.703 92.5306 254.34 90.2682C254.134 88.982 254.039 87.6899 254.114 86.396C254.248 84.1057 254.729 81.8907 255.659 79.7771C256.561 77.7272 257.758 75.8883 259.307 74.2648C260.672 72.835 262.176 71.5888 263.945 70.7126C265.133 70.1242 266.366 69.6065 267.62 69.1771C268.391 68.913 269.235 68.8363 270.054 68.7469C270.799 68.6656 271.554 68.6685 272.305 68.656C274.716 68.6158 276.986 69.1757 279.139 70.2544C281.288 71.3312 283.035 72.881 284.534 74.7395C286.334 76.9726 287.576 79.5048 288.578 82.1722C288.724 82.5625 288.63 82.6867 288.249 82.844C286.138 83.7151 284.048 84.6354 281.945 85.5257C279.97 86.3614 277.988 87.1782 276.012 88.0078C274.072 88.8218 272.136 89.6439 270.197 90.4579C268.055 91.3567 265.911 92.2504 263.674 93.1857C263.967 93.6993 264.219 94.2189 264.54 94.6919C265.496 96.1015 266.699 97.2523 268.251 97.9893C269.174 98.4275 270.145 98.7039 271.176 98.7955C273.627 99.0136 275.929 98.558 278.105 97.4084C279.588 96.6249 281.083 95.1949 282.003 93.5817C282.304 93.7789 282.604 93.9729 282.901 94.171C284.615 95.3142 286.326 96.463 288.047 97.5967C288.274 97.7463 288.304 97.8282 288.143 98.0678C287.29 99.3339 286.28 100.472 285.125 101.449C284.094 102.32 282.96 103.081 281.817 103.805C280.586 104.585 279.219 105.091 277.81 105.471C277.724 105.495 277.643 105.542 277.529 105.58ZM269.778 83.7127C272.891 82.4068 276.003 81.1009 279.137 79.7858C278.639 78.943 278.029 78.2323 277.282 77.6188C276.13 76.6725 274.806 76.1375 273.349 75.9965C271.717 75.8387 270.126 76.1161 268.567 76.644C265.854 77.5632 264.027 79.3758 263.088 82.057C262.754 83.0102 262.548 84.0141 262.356 85.0089C262.243 85.5962 262.271 86.2108 262.232 86.877C264.792 85.8008 267.254 84.7653 269.778 83.7127Z" fill="white"/>
<path d="M242.239 49.7248C242.384 49.6678 242.529 49.5619 242.675 49.5613C245.144 49.551 247.614 49.5573 250.083 49.5495C250.439 49.5484 250.589 49.6923 250.564 50.0411C250.555 50.1776 250.564 50.3154 250.564 50.4526C250.564 68.3833 250.564 86.3141 250.564 104.245C250.564 105.127 250.564 105.127 249.695 105.127C247.418 105.127 245.14 105.13 242.863 105.122C242.668 105.121 242.473 105.047 242.261 104.942C242.245 104.769 242.248 104.659 242.248 104.549C242.248 86.4117 242.248 68.2739 242.248 50.1361C242.248 49.999 242.242 49.8619 242.239 49.7248Z" fill="white"/>
<path d="M242.223 49.7543C242.242 49.8619 242.248 49.999 242.248 50.1361C242.248 68.2739 242.248 86.4117 242.248 104.549C242.248 104.659 242.245 104.769 242.241 104.917C242.215 104.767 242.169 104.579 242.169 104.391C242.166 86.3517 242.166 68.3126 242.168 50.2736C242.168 50.1103 242.193 49.947 242.223 49.7543Z" fill="#73887B"/>
</g>
<defs>
<clipPath id="clip0_5_601">
<rect width="247" height="102.917" fill="white" transform="translate(50 47)"/>
</clipPath>
</defs>
</svg>
