<svg width="346" height="196" viewBox="0 0 346 196" fill="none" xmlns="http://www.w3.org/2000/svg">
<g clip-path="url(#clip0_1_484)">
<path d="M173.577 71.8169C173.577 71.8169 156.42 77.3331 152.75 94.9173H157.208C160.766 80.913 173.577 76.9279 173.577 76.9279C173.577 76.9279 186.41 80.9355 189.945 94.9173H194.403C190.733 77.3331 173.577 71.8169 173.577 71.8169Z" fill="white"/>
<path d="M173.576 84.7851C173.576 84.7851 166.394 87.667 161.418 94.9168H165.335C169.118 90.2788 173.576 88.7252 173.576 88.7252C173.576 88.7252 178.034 90.2788 181.816 94.9168H185.734C180.759 87.667 173.576 84.7851 173.576 84.7851Z" fill="white"/>
<path d="M173.531 33.0007C173.531 33.0007 139.488 42.3669 139.488 77.3551V94.8942H151.33V93.4983C151.33 67.9889 173.576 61.1669 173.576 61.1669C173.576 61.1669 195.82 67.9889 195.82 93.5208V94.9167H207.596V77.3777C207.596 42.3669 173.553 33.0232 173.553 33.0232L173.531 33.0007ZM173.576 54.3673C173.576 54.3673 150.745 61.7747 146.535 85.1678V80.0344C146.535 49.6393 173.576 41.5114 173.576 41.5114C173.576 41.5114 200.616 49.6393 200.616 80.0344V85.1678C196.428 61.7972 173.576 54.3673 173.576 54.3673Z" fill="white"/>
<path d="M92.5419 113.177L94.6131 114.528L98.1256 112.681L95.0635 110.632L92.4067 111.984L90.3803 110.632L86.823 112.456L89.885 114.528L92.5419 113.177Z" fill="white"/>
<path d="M129.332 126.461C129.332 128.465 129.332 129.703 127.869 129.703H122.24C122.24 122.949 118.255 116.239 111.793 116.239C107.133 116.239 105.354 118.378 104.071 120.63L106.525 124.412C107.853 120.562 109.857 116.892 111.703 116.892C114.135 116.892 116.589 121.372 116.657 129.726H99.7931C98.1044 129.726 98.0143 127.88 98.0143 126.979V116.216H90.6744C86.0588 116.216 83.0193 119.639 83.0193 123.218C83.0193 127.361 84.8882 130.514 89.9766 130.514C92.2956 130.514 93.6913 129.973 94.5244 129.275C95.5825 130.311 97.2939 130.491 99.2752 130.491H122.24H128.545C131.945 130.491 134.263 129.073 134.263 126.461V110.047L129.31 110.926V126.461H129.332ZM93.1961 126.146C93.1961 126.506 92.8809 129.703 90.4268 129.703C89.4586 129.703 88.0626 128.24 88.0626 123.444C88.0626 120.022 89.1885 117.05 92.7233 117.05H93.2186V126.168L93.1961 126.146Z" fill="white"/>
<path d="M178.302 126.46C178.302 128.464 178.302 129.702 176.838 129.702H171.187C171.007 122.925 168.642 117.432 161.979 117.432C160.47 117.432 157.363 118.895 155.066 121.507L155.359 118.895L150.473 120.651V126.505C150.473 128.509 150.045 129.747 149.01 129.747H144.056C142.998 129.747 142.571 128.509 142.571 126.505V110.091L137.662 110.97V126.505C137.662 129.049 139.824 130.468 143.088 130.535H143.381H144.192H170.894H177.491C180.891 130.535 183.21 129.117 183.21 126.505V110.091L178.257 110.97V126.505L178.302 126.46ZM154.706 129.702C155.517 126.37 159.321 118.265 162.113 118.265C164.702 118.265 166.031 122.565 166.099 129.702H154.729H154.706Z" fill="white"/>
<path d="M186.68 130.491H191.589V110.047L186.68 110.903V130.491Z" fill="white"/>
<path d="M204.759 126.709C204.624 133.328 202.462 135.242 197.982 136.278H198.207C199.4 136.368 200.368 136.413 200.818 136.413C208.924 136.413 209.667 130.041 209.667 124.323V116.217L204.759 117.118V126.709Z" fill="white"/>
<path d="M258.413 113.177L260.484 114.528L264.042 112.681L260.98 110.632L258.323 111.984L256.252 110.632L252.739 112.456L255.801 114.528L258.413 113.177Z" fill="white"/>
<path d="M259.131 126.461C259.131 128.465 258.703 129.635 257.779 129.703H252.309H251.498C250.44 129.703 249.629 128.217 249.427 126.596C249.494 126.1 249.516 125.718 249.516 125.47C249.516 122.566 247.017 118.738 242.514 118.738C236.863 118.738 235.962 121.733 235.287 124.592C234.792 126.439 233.666 128.757 233.058 129.321C232.63 129.748 230.514 129.681 230.447 129.703H226.056C226.191 129.095 226.258 128.307 226.258 127.834V116.622H222.792C216.689 116.622 212.322 120.179 212.322 125.673C212.322 128.33 214.19 130.514 218.311 130.514H221.035C219.976 134.882 217.05 135.782 214.641 136.3H214.843C216.037 136.39 216.983 136.435 217.433 136.435C220.495 136.435 224.727 135.016 225.921 130.514H225.988H233.193C234.679 130.514 235.647 130.356 236.3 129.996C237.313 130.964 238.822 131.909 241.771 131.909C244.721 131.909 246.882 130.851 248.098 129.523C248.954 130.086 250.124 130.446 251.79 130.514H258.387C261.787 130.514 264.106 129.095 264.106 126.483V116.239L259.197 117.14V126.483L259.131 126.461ZM221.283 127.924C221.283 128.69 221.215 129.388 221.193 129.703H219.031C217.838 129.703 217.23 127.452 217.23 125.47C217.23 121.102 219.211 118.04 221.305 117.455V127.924H221.283ZM241.816 131.054C240.713 131.054 238.709 129.118 238.259 128.06C239.024 126.641 239.362 125.448 239.61 124.412C240.263 121.958 240.938 119.503 242.041 119.503C243.663 119.571 244.54 122.476 244.54 125.65C244.54 128.825 243.28 131.076 241.816 131.076V131.054Z" fill="white"/>
<path d="M61.4267 152.938C58.6799 151.384 57.7568 150.708 57.7568 149.538C57.7568 148.524 58.6575 147.826 60.166 147.826C61.0666 147.826 62.3722 148.21 63.0027 148.524C64.1509 148.615 64.6465 147.264 64.669 146.453C63.926 145.71 61.9445 145.012 60.2784 145.012C55.3477 145.012 53.8843 148.21 53.8843 150.259C53.8843 152.059 54.5147 153.928 57.892 155.706C60.8414 157.328 61.3365 157.981 61.3365 159.016C61.3365 160.345 60.1884 160.953 58.6123 160.953C57.1939 160.953 55.4603 160.254 54.4021 159.602C54.1319 159.737 53.5916 161.043 53.5916 161.673C53.5916 162.078 53.7941 162.394 54.3795 162.776C55.1675 163.317 56.6536 163.902 58.7025 163.902C62.1473 163.902 65.4119 161.943 65.4119 158.206C65.4119 155.369 63.8133 154.288 61.4267 152.915V152.938Z" fill="white"/>
<path d="M83.6729 145.891C83.4928 145.486 83.2449 145.351 82.9973 145.351C82.6821 145.351 80.7234 145.464 79.44 145.733L79.6426 146.252C78.4943 149.043 74.1265 159.648 72.6855 163.183V163.295C73.406 163.498 74.8696 163.678 75.6351 163.678C76.1305 163.678 76.3556 163.543 76.4907 163.25C76.8284 162.395 77.6164 160.256 78.1343 158.86H84.3259C84.8212 160.211 85.1815 161.291 85.7218 162.732C86.0145 163.543 86.2396 163.678 86.7349 163.678C87.4779 163.678 89.7969 163.543 90.4499 163.34V163.228C89.8645 161.899 89.1891 160.098 87.9733 157.014C87.0502 154.559 85.0238 149.133 83.6729 145.913V145.891ZM79.0572 156.135C79.9128 153.749 80.7008 151.475 81.3087 149.786C81.6014 150.686 82.3669 152.713 83.5827 156.135H79.0572Z" fill="white"/>
<path d="M105.195 160.931C104.205 160.931 103.394 160.842 102.854 160.729V147.063C102.854 145.622 102.763 145.329 102.223 145.329C100.962 145.329 99.3412 145.463 98.6433 145.554C98.7108 146.162 98.7334 147.355 98.7334 149.269V162.755L99.2062 163.341C99.9041 163.476 101.84 163.633 104.295 163.633C106.614 163.633 107.649 163.566 108.054 163.498C108.797 163.003 109.451 162.147 109.676 160.842L109.608 160.774C108.077 160.909 106.343 160.909 105.217 160.909L105.195 160.931Z" fill="white"/>
<path d="M121.904 146.927C121.904 145.622 121.814 145.329 121.273 145.329C120.598 145.329 118.279 145.463 117.693 145.554C117.761 146.094 117.783 147.288 117.783 149.224V163.048C117.783 163.544 117.986 163.633 118.481 163.633C119.224 163.633 121.521 163.544 122.016 163.408C121.994 162.823 121.926 161.877 121.926 159.851V146.905L121.904 146.927Z" fill="white"/>
<path d="M141.196 145.891C141.016 145.486 140.768 145.351 140.52 145.351C140.205 145.351 138.246 145.464 136.963 145.733L137.165 146.252C136.017 149.043 131.649 159.648 130.208 163.183V163.295C130.929 163.498 132.415 163.678 133.158 163.678C133.653 163.678 133.878 163.543 134.014 163.25C134.351 162.395 135.139 160.256 135.657 158.86H141.849C142.344 160.211 142.704 161.291 143.244 162.732C143.537 163.543 143.762 163.678 144.258 163.678C145.001 163.678 147.32 163.543 147.973 163.34V163.228C147.388 161.899 146.711 160.098 145.496 157.014C144.573 154.559 142.546 149.133 141.196 145.913V145.891ZM136.58 156.135C137.435 153.749 138.223 151.475 138.831 149.786C139.124 150.686 139.89 152.713 141.105 156.135H136.58Z" fill="white"/>
<path d="M171.504 145.351C170.469 145.374 168.825 145.419 168.059 145.464C167.541 145.486 167.271 145.599 167.271 146.274V152.713H160.359V146.927C160.359 145.622 160.269 145.329 159.729 145.329C159.053 145.329 157.05 145.419 156.149 145.554C156.217 146.094 156.239 147.288 156.239 149.224V158.342C156.239 160.774 156.217 162.463 156.149 163.633C156.757 163.656 158.58 163.611 159.391 163.521C160.134 163.453 160.382 163.341 160.382 162.71V155.37H164.389C165.785 155.37 166.708 155.348 167.271 155.281V163.025C167.271 163.544 167.496 163.633 167.969 163.633C168.712 163.633 170.851 163.544 171.504 163.408C171.482 162.823 171.414 161.877 171.414 159.851V150.53C171.414 148.143 171.436 146.432 171.504 145.329V145.351Z" fill="white"/>
<path d="M199.509 145.281C196.942 145.281 193.993 145.686 193.25 145.866C193.272 146.586 193.295 147.127 193.295 149.108V163.27C195.232 163.608 197.1 163.788 199.239 163.788C205.161 163.788 209.641 160.41 209.641 154.219C209.641 150.504 208.087 145.303 199.509 145.303V145.281ZM199.397 161.221C198.721 161.221 198.136 161.154 197.438 161.018V147.937C197.775 147.87 198.225 147.824 199.059 147.824C202.841 147.824 205.273 149.941 205.273 154.241C205.273 160.253 201.513 161.221 199.419 161.221H199.397Z" fill="white"/>
<path d="M227.271 145.891C227.091 145.486 226.843 145.351 226.595 145.351C226.281 145.351 224.321 145.464 223.039 145.733L223.241 146.252C222.093 149.043 217.725 159.648 216.284 163.183V163.295C217.005 163.498 218.491 163.678 219.233 163.678C219.729 163.678 219.954 163.543 220.089 163.25C220.426 162.395 221.214 160.256 221.732 158.86H227.924C228.419 160.211 228.78 161.291 229.32 162.732C229.613 163.543 229.838 163.678 230.333 163.678C231.077 163.678 233.395 163.543 234.048 163.34V163.228C233.463 161.899 232.787 160.098 231.572 157.014C230.649 154.559 228.622 149.133 227.271 145.913V145.891ZM222.655 156.135C223.511 153.749 224.299 151.475 224.907 149.786C225.2 150.686 225.965 152.713 227.181 156.135H222.655Z" fill="white"/>
<path d="M239.882 145.281C239.567 145.618 239.183 146.136 238.869 147.149C238.643 147.892 238.869 148.14 239.386 148.14H244.407V163.135C244.407 163.562 244.632 163.653 245.105 163.653C246.501 163.653 247.739 163.562 248.64 163.428C248.618 162.842 248.55 161.896 248.55 159.915V148.163H252.85C253.526 148.027 254.381 147.307 254.516 145.438H243.979C241.21 145.438 240.4 145.416 239.882 145.303V145.281Z" fill="white"/>
<path d="M269.058 160.93C268.113 160.93 267.437 160.862 266.739 160.75V155.504H270.859C271.895 155.504 272.57 155.031 272.818 152.78H266.716V148.119H269.283C270.544 148.119 271.714 148.119 272.165 147.939C272.503 147.534 272.908 146.993 273.111 145.394H266.244C264.892 145.394 263.407 145.597 262.484 145.8C262.574 147.061 262.574 148.051 262.574 149.448V162.754L263.046 163.339C263.745 163.475 265.568 163.632 268.18 163.632C270.499 163.632 271.872 163.564 272.3 163.497C273.043 163.002 273.629 162.303 273.944 160.862L273.876 160.795C272.345 160.907 270.116 160.907 268.99 160.907L269.058 160.93Z" fill="white"/>
<path d="M289.456 152.938C286.71 151.384 285.787 150.708 285.787 149.538C285.787 148.524 286.687 147.826 288.196 147.826C289.096 147.826 290.38 148.21 291.033 148.524C292.181 148.615 292.676 147.264 292.699 146.453C291.955 145.71 289.975 145.012 288.308 145.012C283.378 145.012 281.914 148.21 281.914 150.259C281.914 152.059 282.544 153.928 285.922 155.706C288.871 157.328 289.367 157.981 289.367 159.016C289.367 160.345 288.218 160.953 286.642 160.953C285.224 160.953 283.49 160.254 282.432 159.602C282.162 159.737 281.621 161.043 281.621 161.673C281.621 162.078 281.824 162.394 282.409 162.776C283.198 163.317 284.683 163.902 286.732 163.902C290.177 163.902 293.442 161.943 293.442 158.206C293.442 155.369 291.843 154.288 289.456 152.915V152.938Z" fill="white"/>
</g>
<defs>
<clipPath id="clip0_1_484">
<rect width="240.641" height="131" fill="white" transform="translate(53 33)"/>
</clipPath>
</defs>
</svg>
