<svg width="346" height="196" viewBox="0 0 346 196" fill="none" xmlns="http://www.w3.org/2000/svg">
<g clip-path="url(#clip0_5_675)">
<path d="M116.481 94.936C119.696 94.936 122.295 92.1455 122.295 88.7097C122.295 85.2738 119.696 82.4772 116.481 82.4772C113.266 82.4772 110.673 85.2677 110.673 88.7097C110.673 92.1517 113.273 94.936 116.481 94.936ZM127.336 98.7837H122.83V95.4769C121.195 98.5501 117.649 99.8408 114.225 99.3245C108.528 98.4763 105.467 93.3072 105.62 88.261C105.734 85.5351 106.825 82.9411 108.693 80.9529C109.662 80.0248 110.808 79.3019 112.063 78.8277C113.318 78.3534 114.655 78.1376 115.995 78.1932C117.336 78.1713 118.661 78.4807 119.854 79.094C121.046 79.7073 122.068 80.6056 122.83 81.7089V78.7955H127.348L127.336 98.7837Z" fill="white"/>
<path d="M288.882 94.936C292.096 94.936 294.702 92.1455 294.702 88.7097C294.702 85.2738 292.096 82.4772 288.882 82.4772C285.667 82.4772 283.073 85.2677 283.073 88.7097C283.073 92.1517 285.679 94.936 288.882 94.936ZM299.736 98.7837H295.219V95.4769C293.59 98.5501 290.043 99.8408 286.614 99.3245C280.922 98.4763 277.861 93.3072 278.009 88.261C278.131 85.5279 279.235 82.9307 281.119 80.9468C282.088 80.0189 283.234 79.2962 284.488 78.822C285.743 78.3478 287.081 78.1318 288.421 78.187C289.759 78.166 291.081 78.476 292.27 79.0893C293.459 79.7027 294.479 80.6005 295.237 81.7028V78.7955H299.755L299.736 98.7837Z" fill="white"/>
<path d="M70.4136 95.9317L72.7062 92.6495C75.3614 94.1185 76.7321 95.0282 78.9079 95.2003C84.4397 95.6613 84.1754 91.5125 82.1102 90.9531C79.6025 90.2463 76.5784 90.5721 74.1199 89.2813C73.0979 88.7974 72.257 87.9999 71.7198 87.0049C71.1825 86.01 70.9768 84.8695 71.1327 83.7495C71.3724 81.291 72.8844 79.2012 76.4248 78.4083C79.9651 77.6154 84.6056 78.4083 87.4883 80.5657L84.8454 83.9647C83.6084 83.2641 82.2973 82.7034 80.9362 82.2928C77.8999 81.629 76.3879 82.6493 76.0929 83.7987C76.0381 84.0399 76.0325 84.2897 76.0763 84.5331C76.1201 84.7765 76.2124 85.0087 76.3477 85.2157C76.483 85.4227 76.6586 85.6004 76.8641 85.7381C77.0695 85.8759 77.3005 85.9709 77.5434 86.0176C79.0616 86.3986 81.7906 86.4785 83.6345 86.9334C86.5725 87.6525 88.0108 89.5886 88.2382 91.9857C88.7975 97.9846 83.192 100.185 78.0597 99.5889C75.1567 99.2966 72.4495 97.9909 70.4136 95.901" fill="white"/>
<path d="M58.0101 90.486L59.393 84.2966H55.4655L54.0764 90.486H58.0101ZM53.4802 75.12H57.6782L56.4489 80.2399H60.2597L61.4582 75.12H65.73L64.5007 80.2399H67.5125V84.3027H63.6156L62.2265 90.486H65.2997V94.5426H61.3169L60.315 99.0111H56.0924L57.1004 94.5426H53.2835L52.2816 99.0111H48.0652L49.0732 94.5426H46V90.486H49.9767L51.3658 84.2966H48.2926V80.2338H52.2448L53.4802 75.12Z" fill="white"/>
<path d="M105.295 98.3473C103.173 98.7334 101.011 98.8532 98.8593 98.7038C94.9256 98.2735 94.1881 95.9317 94.1881 92.2439V82.9075H90.156V78.7464H93.9422V73.1531H98.8593V78.7464H104.305V82.9075H98.8593V92.2439C98.8593 93.9833 99.9042 94.4566 101.933 94.4566H103.918L105.295 98.3473Z" fill="white"/>
<path d="M131.202 98.8451V78.7648H135.775V81.2848C137.477 79.1213 139.272 78.2116 141.515 78.2116C143.525 78.1649 145.494 78.79 147.109 79.9879L144.65 84.358C143.581 83.3685 141.208 82.0716 139.088 83.0734C137.76 83.6881 136.125 84.7944 136.125 88.7035V98.8451H131.202Z" fill="white"/>
<path d="M164.153 98.3473C160.102 99.2262 156.74 99.4598 154.81 97.2409C153.617 95.8549 152.988 94.0717 153.046 92.2439V82.9075H149.014V78.7464H152.806V73.1531H157.724V78.7464H163.169V82.9075H157.724L157.785 92.2439C157.785 93.9833 158.836 94.4566 160.858 94.4566H163.016L164.153 98.3473Z" fill="white"/>
<path d="M201.037 82.846C202.207 82.846 203.35 83.1929 204.323 83.8429C205.295 84.4929 206.053 85.4167 206.501 86.4975C206.948 87.5783 207.065 88.7675 206.836 89.9147C206.607 91.0618 206.044 92.1154 205.216 92.9421C204.389 93.7687 203.334 94.3314 202.187 94.5588C201.04 94.7863 199.851 94.6683 198.77 94.2199C197.69 93.7714 196.767 93.0126 196.118 92.0394C195.469 91.0662 195.123 89.9224 195.124 88.7527C195.126 87.1856 195.75 85.6832 196.858 84.5757C197.967 83.4681 199.47 82.846 201.037 82.846ZM189.826 107.278H194.577V95.7658C196.212 98.839 199.642 99.7671 203.09 99.2508C208.788 98.4026 211.849 93.3502 211.695 88.3163C211.576 85.5826 210.471 82.9845 208.585 81.0021C207.618 80.0716 206.472 79.3472 205.217 78.8728C203.962 78.3984 202.624 78.1839 201.283 78.2423C196.747 78.3591 195.247 81.0144 194.584 81.7581V78.8447H189.826V107.278Z" fill="white"/>
<path d="M182.494 98.7529V95.8149C181.709 96.9388 180.646 97.8406 179.41 98.4329C178.174 99.0252 176.805 99.2879 175.438 99.1955C173.228 99.1059 171.141 98.1556 169.622 96.5477C168.104 94.9397 167.275 92.8017 167.312 90.5905V78.7218H172.162V89.1154C172.162 93.0429 174.817 94.8623 177.386 94.7209C179.802 94.5857 182.149 92.754 182.149 88.4638V78.7218H186.993V98.7529H182.494Z" fill="white"/>
<path d="M226.877 78.6787V81.6413C227.663 80.5166 228.726 79.6142 229.963 79.0218C231.201 78.4295 232.57 78.1673 233.939 78.2608C236.149 78.3488 238.237 79.2986 239.756 80.9069C241.275 82.5152 242.103 84.6541 242.065 86.8658V98.7038H237.215V88.3102C237.215 84.3888 234.56 82.5694 231.991 82.7046C229.575 82.8399 227.227 84.6715 227.227 88.9678V98.7038H222.402V78.6787H226.877Z" fill="white"/>
<path d="M216.87 70C217.458 69.9988 218.032 70.1719 218.521 70.4973C219.01 70.8228 219.392 71.286 219.617 71.8284C219.843 72.3707 219.903 72.9678 219.789 73.5441C219.675 74.1204 219.393 74.6499 218.978 75.0657C218.563 75.4815 218.034 75.7649 217.458 75.8799C216.882 75.995 216.285 75.9366 215.742 75.712C215.199 75.4875 214.735 75.107 214.408 74.6187C214.082 74.1304 213.908 73.5561 213.908 72.9687C213.909 72.1829 214.222 71.4297 214.777 70.8735C215.332 70.3173 216.085 70.0032 216.87 70Z" fill="white"/>
<path d="M219.452 78.6234H214.301V98.7038H219.452V78.6234Z" fill="white"/>
<path d="M255.316 82.8276C256.495 82.8276 257.648 83.1772 258.629 83.8324C259.609 84.4875 260.373 85.4186 260.824 86.508C261.276 87.5974 261.394 88.7962 261.164 89.9527C260.934 91.1093 260.366 92.1716 259.532 93.0054C258.698 93.8392 257.636 94.407 256.479 94.6371C255.323 94.8671 254.124 94.749 253.035 94.2978C251.945 93.8465 251.014 93.0824 250.359 92.1019C249.704 91.1215 249.354 89.9688 249.354 88.7896C249.354 87.2084 249.982 85.6919 251.1 84.5738C252.219 83.4557 253.735 82.8276 255.316 82.8276ZM266.472 70.1537H261.739V81.6782C260.104 78.605 256.546 77.8121 253.233 78.187C247.473 78.857 244.4 84.1245 244.658 89.2813C244.759 91.9668 245.854 94.519 247.732 96.4419C248.699 97.372 249.845 98.0966 251.1 98.5719C252.354 99.0473 253.693 99.2636 255.034 99.2078C259.57 99.091 261.069 96.4357 261.733 95.6859V98.5808H266.49L266.472 70.1537Z" fill="white"/>
<path fill-rule="evenodd" clip-rule="evenodd" d="M273.104 70C273.691 69.9988 274.266 70.1719 274.755 70.4973C275.244 70.8228 275.625 71.286 275.851 71.8284C276.077 72.3707 276.136 72.9678 276.022 73.5441C275.909 74.1204 275.626 74.6499 275.211 75.0657C274.797 75.4815 274.268 75.7649 273.692 75.8799C273.115 75.995 272.518 75.9366 271.975 75.712C271.433 75.4875 270.969 75.107 270.642 74.6187C270.316 74.1304 270.141 73.5561 270.141 72.9687C270.141 72.1824 270.453 71.4283 271.009 70.8717C271.564 70.3151 272.318 70.0016 273.104 70Z" fill="white"/>
<path d="M275.68 78.6234H270.529V98.7038H275.68V78.6234Z" fill="white"/>
<path fill-rule="evenodd" clip-rule="evenodd" d="M232.949 120.941H251.942V101.894H275.704V106.958H257.007V126H232.949V120.941Z" fill="white"/>
</g>
<defs>
<clipPath id="clip0_5_675">
<rect width="253.736" height="56" fill="white" transform="translate(46 70)"/>
</clipPath>
</defs>
</svg>
