<svg width="346" height="196" viewBox="0 0 346 196" fill="none" xmlns="http://www.w3.org/2000/svg">
<g clip-path="url(#clip0_1_376)">
<path d="M189.302 157.052V162.497H155.732V157.042H130.329C127.847 157.042 125.825 154.447 125.825 151.249L115.194 43.7449C115.194 40.5435 117.677 37.9473 120.74 37.9473H223.393C226.437 37.9473 228.919 40.5435 228.919 43.7444L218.409 151.249C218.409 154.447 216.387 157.042 213.905 157.042L189.302 157.052Z" fill="white"/>
<path d="M133.892 53.6873H202.615C195.848 56.224 175.25 70.1707 170.105 79.5475H133.952L133.892 53.6873Z" fill="#F5821F"/>
<path d="M188.662 127.785C187.682 137.15 187.641 148.554 187.641 160.533H157.854C157.854 148.554 158.355 137.15 159.335 127.785H188.662Z" fill="#ED1B2D"/>
<path d="M142.58 114.253V117.882H137.816V121.513H142.58V125.673H131.69V106.314H142.58V110.626H137.816V114.253H142.58ZM167.903 114.253V117.882H163.159V121.513H167.903V125.673H157.033V106.314H167.903V110.626H163.159V114.253H167.903ZM195.808 114.253V117.882H191.044V121.513H195.808V125.673H184.918V106.314H195.808V110.626H191.044V114.253H195.808ZM150.748 106.314V121.513H155.511V125.673H144.622V106.314H150.748ZM176.692 119.398L174.369 106.314H169.024L172.067 125.673H179.934L183.617 106.314H179.074L176.692 119.398ZM198.391 106.314H204.277V125.671H198.391V106.314Z" fill="#008061"/>
<path d="M204.276 112.061C204.597 109.941 207.6 110.51 207.6 111.721V125.673H213.505V109.265C213.505 105.786 208.6 104.387 204.317 107.449L204.276 112.061V112.061Z" fill="#008061"/>
<path d="M191.425 103.591C192.025 96.1822 202.175 84.0834 212.004 80.9067V52.3241C184.959 64.4233 167.383 82.7222 163.58 103.519L191.425 103.591Z" fill="#ED1B2D"/>
</g>
<defs>
<clipPath id="clip0_1_376">
<rect width="139.975" height="136" fill="white" transform="translate(103 30)"/>
</clipPath>
</defs>
</svg>
