<svg width="346" height="196" viewBox="0 0 346 196" fill="none" xmlns="http://www.w3.org/2000/svg">
<g clip-path="url(#clip0_5_935)">
<path fill-rule="evenodd" clip-rule="evenodd" d="M92 130.415L94.9435 126.247C95.9757 127.335 97.2173 128.203 98.5936 128.799C99.9699 129.395 101.453 129.706 102.952 129.713C105.94 129.713 107.298 128.4 107.298 126.904C107.298 122.513 92.8129 125.591 92.8129 116.086C92.8129 111.918 96.4354 108.434 102.367 108.434C106.347 108.434 109.697 109.613 112.14 111.918L109.156 115.938C107.15 114.156 104.551 113.186 101.867 113.218C99.6023 113.218 98.3382 114.169 98.3382 115.71C98.3382 119.65 112.774 116.979 112.774 126.35C112.774 130.964 109.469 134.452 102.729 134.452C97.8379 134.452 94.3986 132.822 92.0089 130.432L92 130.415Z" fill="white"/>
<path fill-rule="evenodd" clip-rule="evenodd" d="M128.073 133.988L123.231 126.975L121.06 129.325V133.988H116.258V108.818H121.06V123.893L127.939 115.791H133.821L126.625 124.032L134.049 133.988H128.073Z" fill="white"/>
<path fill-rule="evenodd" clip-rule="evenodd" d="M174.919 108.818H180.262V133.988H174.919V108.818Z" fill="white"/>
<path fill-rule="evenodd" clip-rule="evenodd" d="M197.413 133.988V123.013C197.413 120.521 196.1 119.57 194.063 119.57C193.254 119.59 192.46 119.793 191.739 120.161C191.019 120.53 190.39 121.056 189.9 121.7V134.01H185.103V115.791H189.905V118.1C190.71 117.21 191.695 116.5 192.794 116.016C193.893 115.533 195.082 115.287 196.283 115.295C200.303 115.295 202.215 117.555 202.215 121.102V133.957H197.413V133.988Z" fill="white"/>
<path fill-rule="evenodd" clip-rule="evenodd" d="M219.505 133.988V131.634C218.854 132.508 218.007 133.218 217.032 133.706C216.057 134.193 214.981 134.446 213.891 134.444C209.321 134.444 205.788 131.004 205.788 124.889C205.788 118.962 209.232 115.34 213.891 115.34C214.984 115.317 216.066 115.561 217.044 116.05C218.022 116.538 218.867 117.257 219.505 118.145V108.863H224.302V133.988H219.505ZM219.505 128.105V121.633C219.028 120.989 218.408 120.465 217.693 120.103C216.978 119.741 216.188 119.55 215.387 119.547C212.627 119.547 210.768 121.781 210.768 124.845C210.768 127.909 212.627 130.205 215.387 130.205C216.19 130.2 216.98 130.008 217.695 129.643C218.41 129.279 219.03 128.752 219.505 128.105Z" fill="white"/>
<path fill-rule="evenodd" clip-rule="evenodd" d="M228.604 110.953C228.604 110.39 228.771 109.839 229.084 109.37C229.397 108.901 229.843 108.536 230.363 108.321C230.884 108.105 231.457 108.048 232.01 108.158C232.563 108.268 233.07 108.54 233.469 108.938C233.867 109.337 234.139 109.845 234.249 110.397C234.359 110.95 234.302 111.523 234.087 112.044C233.871 112.565 233.506 113.01 233.037 113.323C232.568 113.636 232.017 113.803 231.454 113.803C231.079 113.805 230.708 113.732 230.361 113.59C230.015 113.447 229.7 113.237 229.435 112.972C229.17 112.707 228.96 112.393 228.817 112.046C228.675 111.699 228.602 111.328 228.604 110.953ZM229.051 115.795H233.848V133.992H229.055V115.791L229.051 115.795Z" fill="white"/>
<path fill-rule="evenodd" clip-rule="evenodd" d="M249.557 133.988V132.09C248.293 133.626 246.163 134.444 243.809 134.444C240.914 134.444 237.52 132.496 237.52 128.422C237.52 124.121 240.914 122.535 243.809 122.535C246.256 122.535 248.382 123.308 249.557 124.8V122.491C249.557 120.637 247.976 119.413 245.577 119.413C243.618 119.418 241.736 120.179 240.325 121.539L238.426 118.189C240.617 116.283 243.442 115.266 246.346 115.34C250.509 115.34 254.359 117.015 254.359 122.263V134.037L249.557 133.988ZM249.557 129.597V127.337C248.789 126.292 247.252 125.751 245.711 125.751C243.809 125.751 242.272 126.747 242.272 128.512C242.272 130.276 243.809 131.228 245.711 131.228C247.252 131.228 248.744 130.687 249.557 129.597Z" fill="white"/>
<path d="M138.846 111.4L135.317 116.197H136.447V133.988H141.245V116.197H142.424L138.846 111.4Z" fill="#B3B3B3"/>
<path fill-rule="evenodd" clip-rule="evenodd" d="M148.396 104.745L144.867 109.591H145.997V133.988H150.794V109.591H151.929L148.396 104.745Z" fill="#CCCCCC"/>
<path fill-rule="evenodd" clip-rule="evenodd" d="M157.946 104.745L154.417 109.591H155.547V133.988H160.344V109.591H161.479L157.946 104.745Z" fill="white"/>
<path fill-rule="evenodd" clip-rule="evenodd" d="M101.826 152.096C101.454 152.098 101.098 152.247 100.836 152.511C100.573 152.774 100.425 153.131 100.424 153.503V158.211H98.1101V155.946H98.0208C97.5074 156.36 96.8668 156.584 96.2073 156.58C95.8106 156.595 95.415 156.529 95.0439 156.388C94.6729 156.247 94.3338 156.033 94.0469 155.758C93.76 155.484 93.5311 155.155 93.3735 154.791C93.216 154.426 93.1331 154.034 93.1298 153.637V153.409C93.1298 151.104 94.9879 150.014 96.9354 150.197L97.3419 152.19C96.2565 151.917 95.4391 152.462 95.4391 153.458C95.4385 153.619 95.4698 153.778 95.5311 153.927C95.5925 154.075 95.6827 154.21 95.7965 154.323C95.9103 154.437 96.0455 154.526 96.1942 154.587C96.343 154.648 96.5023 154.679 96.6629 154.678H96.7523C96.9324 154.673 97.1099 154.634 97.2747 154.561C97.4395 154.489 97.5884 154.384 97.7129 154.254C97.8373 154.124 97.9349 153.97 98 153.802C98.0651 153.634 98.0964 153.455 98.0923 153.275V149.018H92.2275V147.232H106.293V149.018H100.419V150.921H100.486C100.726 150.7 101.008 150.53 101.315 150.421C101.622 150.312 101.948 150.267 102.273 150.287C102.669 150.276 103.063 150.344 103.432 150.486C103.802 150.629 104.139 150.843 104.426 151.117C104.712 151.391 104.941 151.718 105.1 152.081C105.258 152.444 105.344 152.834 105.351 153.23V153.458C105.351 155.763 103.497 156.853 101.549 156.714L101.188 154.727C102.273 154.954 103.046 154.365 103.046 153.413C103.062 153.108 102.956 152.808 102.752 152.579C102.548 152.351 102.262 152.213 101.956 152.194C101.911 152.1 101.867 152.1 101.822 152.1L101.826 152.096Z" fill="white"/>
<path fill-rule="evenodd" clip-rule="evenodd" d="M109.201 148.974V158.211H106.847V148.974H105.127V147.209H105.896V147.133C104.075 146.29 102.414 145.14 100.982 143.734L102.975 142.47L107.504 147.178H107.593L104.788 142.877L107.276 142.376L109.085 147.223H110.872V148.987L109.201 148.974Z" fill="white"/>
<path fill-rule="evenodd" clip-rule="evenodd" d="M113.181 151.962C112.673 151.848 112.222 151.558 111.907 151.143C111.593 150.729 111.435 150.217 111.461 149.697C111.461 148.25 112.774 147.017 114.538 147.017C116.986 147.017 118.112 148.648 118.112 150.367C118.112 153.047 115.986 154.307 114.092 154.351V154.396C114.864 154.816 115.578 155.334 116.218 155.937L117.759 157.277L115.856 158.617L111.836 154.905L110.434 153.865L111.747 152.145C112.261 152.419 112.841 152.544 113.422 152.507C114.869 152.507 115.82 151.689 115.82 150.331C115.82 149.335 115.325 148.84 114.735 148.84C114.528 148.818 114.32 148.877 114.154 149.003C113.989 149.129 113.877 149.313 113.842 149.519V149.608C113.846 149.835 113.923 150.055 114.063 150.234C114.202 150.414 114.395 150.543 114.614 150.604L113.207 151.917L113.181 151.962ZM119.434 147.209H123.508V148.974H121.783V158.211H119.429L119.434 147.209Z" fill="white"/>
<path fill-rule="evenodd" clip-rule="evenodd" d="M131.378 150.707V148.987H122.324V147.223H135.451V148.987H133.732V158.211H131.378V152.551C131.128 152.406 130.852 152.313 130.565 152.279C129.93 152.279 129.613 152.726 129.613 153.592V155.133H127.487V153.458C127.487 152.73 127.125 152.279 126.594 152.279C126.147 152.279 125.598 152.551 125.598 153.726C125.598 154.722 126.143 156.035 127.952 156.987L126.505 158.483C125.559 158.051 124.756 157.361 124.186 156.491C123.617 155.622 123.306 154.609 123.289 153.57C123.289 151.336 124.83 150.309 126.321 150.309C127.362 150.309 128.108 150.716 128.448 151.533H128.497C128.582 151.17 128.787 150.846 129.08 150.615C129.373 150.383 129.736 150.258 130.109 150.26C130.565 150.29 131.004 150.445 131.378 150.707Z" fill="white"/>
<path fill-rule="evenodd" clip-rule="evenodd" d="M144.729 147.209H150.116V148.974H148.396V158.211H146.136V153.681H143.367V155.495H141.24C140.831 155.15 140.502 154.72 140.275 154.234C140.048 153.749 139.93 153.221 139.927 152.685L141.196 151.734V149.88C141.196 149.246 140.879 149.018 140.334 149.018H139.204V147.232H140.789C141.919 147.232 143.469 147.638 143.469 149.72V151.667H146.149V148.951H144.809L144.76 147.187L144.729 147.209Z" fill="white"/>
<path fill-rule="evenodd" clip-rule="evenodd" d="M153.015 148.974V158.211H150.705V148.974H148.941V147.209H154.69V148.974H153.015Z" fill="white"/>
<path fill-rule="evenodd" clip-rule="evenodd" d="M157.901 154.043C158.383 154.493 158.831 154.979 159.241 155.495L160.737 157.282L158.835 158.461L154.086 152.596L155.851 151.256C156.351 151.98 156.713 152.252 157.164 152.252C157.526 152.252 157.843 152.024 157.843 151.435V148.92H153.542V147.156H161.783V148.92H160.152V151.457C160.152 153.083 159.201 153.717 158.071 153.856C158.026 153.856 157.981 153.9 157.932 153.9L157.888 154.034L157.901 154.043Z" fill="white"/>
<path fill-rule="evenodd" clip-rule="evenodd" d="M164.467 158.434C163.684 157.929 163.035 157.24 162.577 156.427C162.12 155.615 161.867 154.703 161.841 153.771C161.841 151.372 163.627 150.47 165.235 150.47H167.317V148.974H160.662V147.209H171.382V148.974H169.595V158.211H167.286V152.404H165.7C165.353 152.374 165.007 152.48 164.737 152.7C164.467 152.92 164.293 153.237 164.253 153.583V153.833C164.253 155.097 164.976 156.187 166.156 157L164.481 158.447L164.467 158.434Z" fill="white"/>
<path fill-rule="evenodd" clip-rule="evenodd" d="M189.994 152.096C189.812 152.092 189.632 152.125 189.462 152.191C189.293 152.258 189.139 152.358 189.009 152.484C188.878 152.611 188.774 152.762 188.703 152.93C188.631 153.097 188.593 153.276 188.592 153.458V158.211H186.282V155.946H186.247C185.733 156.36 185.093 156.584 184.433 156.58C184.034 156.593 183.637 156.527 183.264 156.385C182.891 156.244 182.55 156.031 182.259 155.757C181.969 155.484 181.735 155.156 181.572 154.792C181.408 154.428 181.318 154.036 181.306 153.637V153.409C181.306 151.104 183.165 150.014 185.108 150.197L185.474 152.19C184.384 151.917 183.571 152.462 183.571 153.458C183.57 153.619 183.602 153.778 183.663 153.927C183.724 154.075 183.815 154.21 183.928 154.323C184.042 154.437 184.177 154.526 184.326 154.587C184.475 154.648 184.634 154.679 184.795 154.678H184.884C185.064 154.682 185.243 154.65 185.411 154.585C185.579 154.52 185.733 154.423 185.863 154.298C185.993 154.174 186.098 154.025 186.17 153.86C186.243 153.695 186.283 153.518 186.287 153.338V149.036H181.079V147.249H194.519V149.036H188.636V150.939H188.681C189.182 150.506 189.828 150.279 190.49 150.305C190.886 150.294 191.28 150.362 191.649 150.504C192.019 150.647 192.356 150.861 192.642 151.135C192.929 151.408 193.158 151.736 193.316 152.099C193.475 152.462 193.56 152.852 193.567 153.248V153.476C193.567 155.781 191.714 156.871 189.766 156.732L189.404 154.74C190.49 154.968 191.263 154.378 191.263 153.427C191.269 153.272 191.245 153.118 191.191 152.972C191.138 152.827 191.056 152.694 190.95 152.58C190.845 152.467 190.718 152.375 190.577 152.311C190.435 152.247 190.283 152.212 190.128 152.207C190.083 152.114 190.039 152.114 189.994 152.114V152.096Z" fill="white"/>
<path fill-rule="evenodd" clip-rule="evenodd" d="M196.739 151.962C196.231 151.848 195.78 151.558 195.465 151.143C195.151 150.729 194.993 150.217 195.019 149.697C195.019 148.25 196.332 147.017 198.096 147.017C200.54 147.017 201.625 148.648 201.625 150.367C201.625 153.047 199.544 154.307 197.605 154.351V154.396C198.386 154.827 199.115 155.343 199.78 155.937L201.317 157.277L199.419 158.617L195.399 154.905L193.996 153.865L195.305 152.145C195.836 152.42 196.432 152.545 197.029 152.507C198.431 152.507 199.378 151.689 199.378 150.331C199.378 149.335 198.883 148.84 198.293 148.84C198.19 148.824 198.084 148.829 197.983 148.855C197.881 148.881 197.786 148.927 197.703 148.99C197.619 149.053 197.55 149.133 197.498 149.224C197.446 149.314 197.412 149.415 197.4 149.519V149.608C197.404 149.834 197.482 150.053 197.62 150.232C197.758 150.412 197.95 150.542 198.168 150.604L196.765 151.917L196.739 151.962ZM202.992 147.209H207.012V148.974H205.292V158.211H202.983L202.992 147.209Z" fill="white"/>
<path fill-rule="evenodd" clip-rule="evenodd" d="M214.932 150.707V148.987H205.9V147.223H219.023V148.987H217.303V158.211H214.994V152.551C214.758 152.412 214.497 152.319 214.226 152.279C213.547 152.279 213.274 152.726 213.274 153.592V155.133H211.148V153.458C211.148 152.73 210.786 152.279 210.255 152.279C209.808 152.279 209.263 152.551 209.263 153.726C209.263 154.722 209.804 156.035 211.613 156.987L210.121 158.483C209.189 158.039 208.399 157.344 207.84 156.476C207.28 155.608 206.974 154.602 206.954 153.57C206.954 151.336 208.491 150.309 210.032 150.309C211.028 150.309 211.796 150.716 212.113 151.533H212.158C212.226 151.163 212.422 150.828 212.712 150.588C213.002 150.348 213.367 150.218 213.743 150.22C213.964 150.196 214.187 150.221 214.397 150.291C214.608 150.361 214.8 150.475 214.963 150.626L214.932 150.707Z" fill="white"/>
<path fill-rule="evenodd" clip-rule="evenodd" d="M228.287 147.209H233.674V148.974H231.954V158.211H229.645V153.681H226.893V155.495H224.763C224.354 155.15 224.024 154.72 223.798 154.234C223.571 153.749 223.452 153.221 223.45 152.685L224.718 151.734V149.88C224.718 149.246 224.401 149.018 223.861 149.018H222.364V147.232H224.312C225.442 147.232 227.027 147.638 227.027 149.72V151.667H229.707V148.951H228.367L228.323 147.187L228.287 147.209Z" fill="white"/>
<path fill-rule="evenodd" clip-rule="evenodd" d="M236.568 148.974V158.211H234.214V148.974H232.539V147.209H238.288V148.974H236.568Z" fill="white"/>
<path fill-rule="evenodd" clip-rule="evenodd" d="M241.504 154.043C241.821 154.36 242.183 154.722 242.844 155.495L244.336 157.282L242.482 158.461L237.748 152.596L239.512 151.256C240.008 151.98 240.37 152.252 240.825 152.252C241.281 152.252 241.504 152.024 241.504 151.435V148.92H237.203V147.156H245.439V148.92H243.867V151.457C243.867 153.083 242.916 153.717 241.736 153.856C241.674 153.854 241.612 153.869 241.558 153.9V154.034L241.504 154.043Z" fill="white"/>
<path fill-rule="evenodd" clip-rule="evenodd" d="M248.02 158.434C247.25 157.918 246.615 157.225 246.166 156.415C245.717 155.604 245.468 154.697 245.439 153.771C245.439 151.372 247.252 150.47 248.833 150.47H250.87V148.974H244.219V147.209H254.939V148.974H253.175V158.211H250.866V152.404H249.226C248.879 152.374 248.534 152.48 248.264 152.7C247.993 152.92 247.82 153.237 247.779 153.583V153.833C247.779 155.097 248.503 156.187 249.682 157L248.007 158.447L248.02 158.434Z" fill="white"/>
<path fill-rule="evenodd" clip-rule="evenodd" d="M188.364 165C187.282 164.969 186.221 164.696 185.258 164.202C184.295 163.708 183.455 163.006 182.798 162.146L184.424 160.654C185.469 162.195 186.689 163.191 188.319 163.191C189.043 163.191 189.766 162.874 189.766 162.056C189.769 161.836 189.685 161.623 189.534 161.463C189.382 161.303 189.174 161.208 188.953 161.199H188.864C188.631 161.198 188.402 161.26 188.202 161.38C188.002 161.5 187.839 161.672 187.73 161.878L186.247 160.565C186.58 160.149 187.01 159.821 187.499 159.607C187.987 159.394 188.52 159.303 189.052 159.341C190.727 159.341 192.04 160.337 192.04 162.021C192.04 163.517 190.999 165.009 188.373 165.009L188.364 165Z" fill="white"/>
<path fill-rule="evenodd" clip-rule="evenodd" d="M178.135 154.137H173.561V151.828H178.135V154.137Z" fill="white"/>
<path fill-rule="evenodd" clip-rule="evenodd" d="M197.825 32.3132H149.138C148.668 32.3191 148.219 32.5099 147.889 32.8443C147.559 33.1788 147.373 33.6299 147.374 34.0999V75.3629C147.373 75.8329 147.559 76.284 147.889 76.6185C148.219 76.9529 148.668 77.1437 149.138 77.1496H197.86C198.33 77.1437 198.779 76.9529 199.109 76.6185C199.439 76.284 199.625 75.8329 199.625 75.3629V34.0775C199.619 33.6052 199.426 33.1545 199.089 32.8239C198.751 32.4932 198.297 32.3096 197.825 32.3132ZM164.284 60.9669C162.431 60.9669 162.431 58.0725 164.284 58.0725C166.138 58.0725 166.147 60.9669 164.284 60.9669Z" fill="black"/>
<path fill-rule="evenodd" clip-rule="evenodd" d="M173.293 38.4236C169.89 38.413 166.56 39.412 163.725 41.2941C160.889 43.1763 158.675 45.857 157.364 48.9974C156.052 52.1378 155.701 55.5966 156.355 58.9365C157.009 62.2763 158.639 65.3471 161.039 67.7605C163.439 70.1739 166.5 71.8214 169.836 72.4947C173.172 73.1679 176.633 72.8367 179.781 71.5429C182.928 70.2491 185.622 68.0508 187.52 65.2261C189.419 62.4014 190.436 59.0772 190.445 55.6739V55.6292C190.451 51.0734 188.648 46.7018 185.431 43.4754C182.215 40.249 177.849 38.4319 173.293 38.4236ZM164.284 60.9669C162.43 60.9669 162.43 58.0725 164.284 58.0725C166.138 58.0725 166.147 60.9669 164.284 60.9669Z" fill="white"/>
<path fill-rule="evenodd" clip-rule="evenodd" d="M178.676 48.3396L180.713 45.9857L181.302 45.2621C182.045 45.6088 182.883 45.6942 183.68 45.5044C184.477 45.3147 185.187 44.8609 185.693 44.2169C186.299 43.5172 186.713 42.6727 186.895 41.7655C187.078 40.8583 187.022 39.9193 186.734 39.04L184.291 41.8942L181.78 41.2331L181.052 38.5531L183.545 35.7436C182.708 35.4964 181.818 35.4973 180.983 35.7462C180.147 35.9952 179.401 36.4816 178.837 37.1461C178.266 37.7915 177.894 38.5881 177.765 39.44C177.637 40.292 177.758 41.1629 178.113 41.9478L178.203 41.854L174.763 45.7936L178.698 48.3307L178.676 48.3396Z" fill="#B3B3B3"/>
<path fill-rule="evenodd" clip-rule="evenodd" d="M178.859 48.5183L178.497 48.1565L181.257 44.9896L181.441 45.0789C182.141 45.3879 182.924 45.4578 183.668 45.2778C184.413 45.0977 185.077 44.6779 185.559 44.0829C186.079 43.4758 186.451 42.7567 186.647 41.9819C186.843 41.2071 186.857 40.3975 186.689 39.6162L184.424 42.2426L181.619 41.5592L180.806 38.5755L183.066 35.9491C182.32 35.8116 181.551 35.873 180.836 36.127C180.121 36.381 179.485 36.8188 178.993 37.3963C178.459 38.0077 178.112 38.7591 177.992 39.5617C177.871 40.3642 177.983 41.1844 178.314 41.9255L178.225 41.9701L178.363 42.1041L177.997 42.5508L174.87 46.0839L174.508 45.7221L177.769 42.0103C177.533 41.4189 177.416 40.7867 177.424 40.1499C177.433 39.5131 177.567 38.8843 177.82 38.2996C178.072 37.7148 178.437 37.1857 178.895 36.7425C179.352 36.2992 179.892 35.9507 180.485 35.7168C181.48 35.3104 182.585 35.263 183.611 35.5828L184.018 35.6721L181.338 38.7497L181.972 41.1036L184.205 41.6932L186.885 38.6603L187.019 39.0668C187.315 39.9927 187.367 40.9795 187.169 41.9312C186.971 42.8829 186.53 43.7672 185.889 44.4983C185.357 45.1574 184.626 45.6272 183.805 45.838C182.984 46.0488 182.118 45.9894 181.333 45.6685L180.838 46.209L178.845 48.5183H178.859Z" fill="#666666"/>
<path fill-rule="evenodd" clip-rule="evenodd" d="M161.117 60.7882L156.002 66.2197L155.958 66.2643C155.764 66.4646 155.612 66.7016 155.511 66.9615C155.411 67.2214 155.363 67.4987 155.372 67.7773C155.38 68.0558 155.444 68.3299 155.56 68.5833C155.676 68.8366 155.842 69.0642 156.047 69.2525C156.451 69.6386 156.991 69.8503 157.55 69.842C158.109 69.8336 158.643 69.6059 159.035 69.2079C159.047 69.2079 159.058 69.2032 159.067 69.1948C159.075 69.1864 159.08 69.175 159.08 69.1632L164.194 63.6871L161.117 60.7882ZM157.659 68.52C157.492 68.5853 157.307 68.5842 157.141 68.5169C156.975 68.4496 156.841 68.3213 156.766 68.1582V68.1135C156.707 67.9461 156.711 67.7629 156.778 67.5984C156.845 67.4339 156.969 67.2994 157.128 67.2202C157.285 67.1533 157.462 67.1488 157.622 67.2078C157.782 67.2667 157.914 67.3846 157.99 67.5373C157.99 67.5492 157.995 67.5605 158.003 67.5689C158.011 67.5773 158.023 67.582 158.035 67.582C158.108 67.7563 158.11 67.9524 158.039 68.128C157.969 68.3035 157.833 68.4444 157.659 68.52Z" fill="#B3B3B3"/>
<path fill-rule="evenodd" clip-rule="evenodd" d="M157.494 70.1146C156.895 70.1074 156.318 69.8819 155.873 69.4803C155.646 69.2667 155.464 69.0104 155.337 68.7261C155.21 68.4419 155.14 68.1352 155.132 67.8239C155.123 67.5126 155.177 67.2027 155.289 66.912C155.401 66.6214 155.569 66.3557 155.784 66.1303L161.144 60.4711L164.538 63.7317L159.259 69.3419L159.214 69.391C158.757 69.8473 158.14 70.107 157.494 70.1146ZM156.003 66.5815L156.137 66.4028L161.117 61.0428L163.833 63.6692L158.919 68.9175L158.875 68.9622C158.709 69.1462 158.506 69.2936 158.28 69.3951C158.054 69.4966 157.809 69.55 157.561 69.5518C157.078 69.553 156.61 69.3766 156.248 69.056C155.901 68.747 155.684 68.3171 155.643 67.854C155.601 67.391 155.738 66.9295 156.025 66.5636L156.003 66.5815ZM157.405 68.8461C157.283 68.8463 157.162 68.8214 157.049 68.773C156.937 68.7245 156.836 68.6534 156.752 68.5642C156.668 68.475 156.604 68.3696 156.562 68.2544C156.521 68.1392 156.504 68.0168 156.512 67.8947C156.521 67.7841 156.551 67.6764 156.601 67.5775C156.647 67.4653 156.714 67.3635 156.8 67.2783C156.886 67.193 156.989 67.1262 157.101 67.0817C157.214 67.0244 157.337 66.9924 157.463 66.9879C157.65 66.9843 157.833 67.0392 157.987 67.145C158.14 67.2507 158.257 67.402 158.321 67.5775C158.407 67.8065 158.404 68.0596 158.312 68.2864C158.22 68.5131 158.046 68.697 157.825 68.8014C157.688 68.8371 157.546 68.8522 157.405 68.8461ZM157.405 67.4435C157.341 67.4369 157.276 67.4527 157.222 67.4882C157.158 67.5082 157.1 67.5435 157.052 67.5909C157.005 67.6384 156.969 67.6966 156.949 67.7607C156.905 67.8771 156.905 68.006 156.949 68.1225C156.995 68.2338 157.082 68.3237 157.191 68.3743C157.3 68.4248 157.425 68.4322 157.539 68.3949C157.6 68.385 157.657 68.3626 157.709 68.3293C157.761 68.296 157.805 68.2524 157.839 68.2013C157.873 68.1501 157.896 68.0926 157.906 68.0321C157.917 67.9717 157.915 67.9097 157.901 67.85C157.896 67.7904 157.879 67.7325 157.851 67.6795C157.823 67.6266 157.785 67.5798 157.739 67.5419C157.693 67.504 157.639 67.4758 157.582 67.4589C157.525 67.442 157.464 67.4368 157.405 67.4435Z" fill="#666666"/>
<path fill-rule="evenodd" clip-rule="evenodd" d="M189.722 45.8025L151.206 60.6542L152.47 64.0489L163.02 59.9708C162.986 59.7894 162.989 59.6033 163.029 59.423C163.068 59.2428 163.142 59.0721 163.248 58.9209C163.353 58.7697 163.488 58.6409 163.643 58.542C163.799 58.4432 163.973 58.3762 164.154 58.3449C164.244 58.3449 164.378 58.2958 164.472 58.3449C164.699 58.3412 164.924 58.3979 165.122 58.5094C165.321 58.6208 165.486 58.7829 165.602 58.9792L190.995 49.1525L193.438 46.2581L189.726 45.8115L189.722 45.8025Z" fill="#CCCCCC"/>
<path fill-rule="evenodd" clip-rule="evenodd" d="M191.941 46.0303L192.482 47.2051L193.299 46.1643L191.941 46.0303Z" fill="white"/>
<path fill-rule="evenodd" clip-rule="evenodd" d="M189.632 45.5301L150.888 60.7167L152.514 64.4285L162.747 60.5336C162.653 60.3549 162.247 60.2165 162.247 60.0378L152.831 63.7049L151.656 60.9847L189.721 46.0929L192.888 46.41L190.901 48.7639L165.414 58.6933C165.552 58.8273 165.731 58.872 165.825 59.0551L191.307 49.1391L194.067 45.8338L189.677 45.3871L189.632 45.5301Z" fill="#666666"/>
<path fill-rule="evenodd" clip-rule="evenodd" d="M192.164 46.3475L189.721 46.1197L190.851 48.8354L192.437 46.9818L192.164 46.3475Z" fill="black"/>
<path fill-rule="evenodd" clip-rule="evenodd" d="M190.583 48.9247L189.404 46.209L189.994 45.9857L191.169 48.7014L190.583 48.9247Z" fill="#666666"/>
<path fill-rule="evenodd" clip-rule="evenodd" d="M198.682 88.5396C198.609 88.4265 198.508 88.3339 198.389 88.2706C198.271 88.2072 198.138 88.1753 198.003 88.1778H149.709C149.586 88.1773 149.465 88.2057 149.354 88.2608C149.244 88.3159 149.149 88.3961 149.075 88.4949L144.233 94.1989C144.144 94.3208 144.085 94.4622 144.062 94.6114C144.039 94.7606 144.052 94.9132 144.099 95.0565C144.166 95.1911 144.269 95.3043 144.397 95.3833C144.525 95.4623 144.672 95.5038 144.823 95.5031H202.032C202.178 95.5091 202.321 95.4692 202.443 95.389C202.565 95.3089 202.659 95.1926 202.711 95.0565C202.783 94.9314 202.818 94.7878 202.81 94.6433C202.802 94.4989 202.752 94.3599 202.666 94.2435L198.682 88.5396ZM197.145 89.2185L197.592 90.0315H195.694L195.283 89.2185H197.145ZM176.688 89.2185H178.653L178.698 90.0315H176.688V89.2185ZM176.639 91.3H178.769L178.814 92.1129H176.639V91.3ZM173.021 89.2185H174.968L174.919 90.0315H172.882L173.021 89.2185ZM172.704 91.3H174.83L174.785 92.1129H172.552L172.69 91.3H172.704ZM169.309 89.2185H171.207L171.073 90.0315H169.081L169.309 89.2185ZM168.764 91.3H170.846L170.756 92.1129H168.585L168.764 91.3ZM165.597 89.2185H167.487L167.259 90.0315H165.311L165.584 89.2185H165.597ZM164.874 91.3H166.955L166.683 92.1129H164.557L164.874 91.3ZM161.93 89.2185H163.788L163.471 90.0315H161.524L161.93 89.2185ZM160.934 91.3H162.971L162.654 92.1129H160.572L160.934 91.3ZM158.218 89.2185H160.076L159.666 90.0315H157.767L158.214 89.2185H158.218ZM154.551 89.2185H156.365L155.82 90.0315H153.966L154.551 89.2185ZM150.839 89.2185H152.564L152.019 90.0315H150.21L150.839 89.2185ZM149.12 94.1319H146.994L147.628 93.3145H149.709L149.12 94.1319ZM150.527 92.0906H148.535L149.173 91.3H151.072L150.513 92.1129L150.527 92.0906ZM153.376 94.1319H151.143L151.688 93.3145H153.814L153.368 94.1319H153.376ZM154.6 92.0906H152.564L153.104 91.3H155.096L154.6 92.1129V92.0906ZM157.629 94.1319H155.369L155.815 93.3145H157.991L157.58 94.1319H157.629ZM158.625 92.0906H156.543L156.99 91.2777H159L158.638 92.0906H158.625ZM159.621 94.1319L159.983 93.3145H178.859L178.903 94.1319H159.621ZM180.444 89.2185L180.489 90.0315H182.481L182.343 89.2185H180.444ZM180.623 91.3H184.563L184.201 89.2185H186.099L186.872 92.1129H180.619V91.3H180.623ZM180.806 94.1542L180.762 93.3368H183.022L183.16 94.1542H180.806ZM185.059 94.1542L184.925 93.3368H187.189L187.412 94.1542H185.059ZM187.913 89.2409H189.766L190.039 90.0538H188.033L187.899 89.2409H187.913ZM188.48 91.3H190.566L190.834 92.1129H188.708L188.48 91.3ZM189.253 94.1542L189.025 93.3368H191.258L191.526 94.1542H189.253ZM191.562 89.2409H193.416L193.777 90.0538H191.83L191.562 89.2409ZM192.375 91.3223H194.412L194.818 92.1353H192.692L192.375 91.3223ZM193.505 94.1765L193.188 93.3591H195.421L195.783 94.1765H193.505ZM196.359 91.3223H198.351L198.798 92.1353H196.717L196.355 91.3223H196.359ZM197.762 94.1765L197.355 93.3591H199.526L199.973 94.1765H197.762Z" fill="white"/>
<path fill-rule="evenodd" clip-rule="evenodd" d="M162.837 85.6854C162.068 86.4581 163.283 86.9093 163.283 86.9093H183.428C183.428 86.9093 184.647 86.4626 183.875 85.6854C183.102 84.9082 180.976 84.3722 180.797 81.0222V78.3422H165.959V81.0222C165.731 84.3722 163.605 84.9171 162.837 85.6854Z" fill="white"/>
<path fill-rule="evenodd" clip-rule="evenodd" d="M197.507 78.4449H149.436C148.542 78.4355 147.688 78.0728 147.061 77.436C146.433 76.7991 146.083 75.9399 146.086 75.0458V34.3053C146.094 33.4231 146.45 32.5798 147.078 31.9601C147.706 31.3405 148.554 30.9952 149.436 31H197.507C197.947 30.9988 198.383 31.0847 198.79 31.2526C199.197 31.4205 199.567 31.6672 199.878 31.9786C200.189 32.2899 200.436 32.6596 200.604 33.0666C200.772 33.4736 200.858 33.9097 200.857 34.35V75.0949C200.861 75.536 200.777 75.9735 200.61 76.3818C200.443 76.7902 200.197 77.1611 199.885 77.473C199.573 77.7849 199.202 78.0315 198.794 78.1984C198.385 78.3653 197.948 78.4491 197.507 78.4449ZM149.436 32.6303C148.98 32.6303 148.543 32.8115 148.22 33.134C147.898 33.4565 147.717 33.8939 147.717 34.35V75.0949C147.718 75.5506 147.9 75.9874 148.222 76.3096C148.544 76.6319 148.981 76.8134 149.436 76.8146H197.507C197.963 76.8146 198.4 76.6334 198.723 76.3109C199.045 75.9884 199.226 75.551 199.226 75.0949V34.35C199.226 33.8939 199.045 33.4565 198.723 33.134C198.4 32.8115 197.963 32.6303 197.507 32.6303H149.436Z" fill="white"/>
<path fill-rule="evenodd" clip-rule="evenodd" d="M197.507 78.4449H149.436C148.542 78.4355 147.688 78.0728 147.061 77.436C146.433 76.7991 146.083 75.9399 146.086 75.0458V34.3053C146.094 33.4231 146.45 32.5798 147.078 31.9601C147.706 31.3405 148.554 30.9952 149.436 31H197.507C197.947 30.9988 198.383 31.0847 198.79 31.2526C199.197 31.4205 199.567 31.6672 199.878 31.9786C200.189 32.2899 200.436 32.6596 200.604 33.0666C200.772 33.4736 200.858 33.9097 200.857 34.35V75.0949C200.861 75.536 200.777 75.9735 200.61 76.3818C200.443 76.7902 200.197 77.1611 199.885 77.473C199.573 77.7849 199.202 78.0315 198.794 78.1984C198.385 78.3653 197.948 78.4491 197.507 78.4449ZM149.436 32.6303C148.98 32.6303 148.543 32.8115 148.22 33.134C147.898 33.4565 147.717 33.8939 147.717 34.35V75.0949C147.718 75.5506 147.9 75.9874 148.222 76.3096C148.544 76.6319 148.981 76.8134 149.436 76.8146H197.507C197.963 76.8146 198.4 76.6334 198.723 76.3109C199.045 75.9884 199.226 75.551 199.226 75.0949V34.35C199.226 33.8939 199.045 33.4565 198.723 33.134C198.4 32.8115 197.963 32.6303 197.507 32.6303H149.436Z" fill="white"/>
<path fill-rule="evenodd" clip-rule="evenodd" d="M178.542 48.7014L172.521 45.0789L167.362 47.4329L163.467 49.2419L158.763 57.2104L161.93 60.4711L165.825 64.4911L180.033 53.2619C180.127 49.6439 178.542 48.6925 178.542 48.6925V48.7014ZM164.284 60.9669C162.43 60.9669 162.43 58.0725 164.284 58.0725C166.138 58.0725 166.147 60.9669 164.284 60.9669Z" fill="white"/>
<path fill-rule="evenodd" clip-rule="evenodd" d="M188.636 76.7208C188.815 76.5421 188.275 76.5421 188.498 76.3143C188.364 76.1357 181.575 76.7208 181.441 76.6315C179.042 74.1882 182.932 78.1725 180.547 75.7381L172.659 67.716C172.404 67.5302 172.109 67.4063 171.797 67.3542C170.965 67.1734 170.149 66.93 169.354 66.6261C168.696 66.2089 168.095 65.7074 167.567 65.1343C166.843 64.5 166.227 63.8211 165.53 63.1868C166.424 62.2935 167.567 61.6949 167.79 60.3371C167.79 60.2433 167.974 60.1986 168.018 60.1093C168.425 59.7921 168.836 59.5197 169.197 59.2159C169.783 58.6755 170.283 58.0859 170.144 57.1791C170.187 57.0404 170.265 56.9155 170.372 56.8173C171.051 56.1384 171.685 55.4773 172.32 54.8252L173.66 54.5974C173.605 54.8753 173.528 55.1485 173.432 55.4148C173.257 55.7374 173.173 56.1013 173.189 56.4679C173.204 56.8344 173.319 57.1899 173.521 57.4963C174.2 58.7648 174.925 59.9872 175.696 61.1634C175.83 61.3912 176.143 61.4359 176.375 61.5699C176.331 61.2974 176.42 61.0294 176.331 60.8016C175.741 59.7609 175.107 58.7201 174.517 57.6749C174.155 57.0853 173.749 56.4957 174.021 55.7721C174.294 55.0485 174.7 54.1865 175.062 53.3735C175.741 51.9219 175.741 51.9219 174.562 50.8811L174.428 50.7471C174.242 50.5303 173.985 50.3878 173.702 50.3459C173.42 50.3041 173.132 50.3657 172.891 50.5193C172.391 50.7918 171.801 51.0196 171.306 51.2921C171.034 51.4589 170.711 51.5231 170.396 51.4732C170.08 51.4232 169.793 51.2624 169.586 51.0196C169.314 50.7918 169.086 50.5729 168.818 50.3407C168.371 49.9297 168.451 49.5679 168.862 49.2061C170.037 48.2547 171.167 47.2631 172.346 46.3117C172.544 46.1178 172.807 46.0055 173.084 45.9972C173.36 45.989 173.63 46.0853 173.838 46.2671C175.335 47.2631 176.826 48.2547 178.305 49.2061C178.588 49.3682 178.827 49.5978 179 49.8744C179.173 50.1511 179.275 50.4662 179.297 50.7918C179.524 52.7839 179.663 54.7761 180.025 56.7235C180.187 57.59 180.166 58.4809 179.963 59.3387C179.76 60.1965 179.379 61.0022 178.845 61.7039C178.662 62.0206 178.45 62.3196 178.211 62.5972C177.849 63.0081 177.939 63.2761 178.305 63.5933C179.707 64.8618 181.11 66.1303 182.468 67.3989L188.636 72.9867C188.806 73.1483 188.986 73.2976 189.177 73.4333C189.039 73.0909 188.823 72.7851 188.547 72.54C185.737 69.7796 182.888 67.0192 180.06 64.2543C179.649 63.8925 179.02 63.4861 178.97 63.0349C178.921 62.5838 179.471 62.0835 179.699 61.5833C179.926 61.083 180.194 60.6363 180.422 60.1361C180.511 60.0021 180.601 59.8636 180.739 59.6894C186.126 64.5313 193.049 70.5523 198.436 75.3987L188.636 76.7208Z" fill="black"/>
<path fill-rule="evenodd" clip-rule="evenodd" d="M164.918 57.2104C165.597 57.8893 166.258 58.5236 167 59.2025C167.5 59.6492 167.768 59.6492 168.223 59.1579C168.54 58.8407 168.858 58.4789 169.17 58.1618C169.325 58.0527 169.431 57.8874 169.465 57.7011C169.499 57.5149 169.459 57.3227 169.353 57.1657C169.309 57.1211 169.264 57.0317 169.17 56.9871C167.768 55.5801 166.365 54.2669 164.918 52.909C164.854 52.8362 164.775 52.7771 164.687 52.7353C164.6 52.6935 164.504 52.6698 164.407 52.6656C164.31 52.6614 164.213 52.6769 164.122 52.711C164.031 52.7452 163.948 52.7973 163.877 52.8643L163.788 52.9581C163.426 53.3199 163.154 53.6371 162.792 53.9989C162.713 54.0573 162.647 54.1308 162.598 54.2152C162.548 54.2995 162.516 54.393 162.503 54.49C162.49 54.587 162.497 54.6856 162.523 54.78C162.548 54.8744 162.593 54.9627 162.653 55.0396C162.703 55.1099 162.765 55.1704 162.837 55.2183C163.515 55.8525 164.177 56.5583 164.918 57.2104Z" fill="black"/>
<path fill-rule="evenodd" clip-rule="evenodd" d="M166.999 53.9542C167.678 54.6331 168.402 55.2629 169.081 55.991C169.2 56.1464 169.373 56.2511 169.566 56.2842C169.759 56.3173 169.958 56.2764 170.122 56.1697C170.215 56.125 170.26 56.0357 170.305 55.991L171.256 55.0396C171.415 54.9115 171.518 54.7266 171.543 54.524C171.568 54.3215 171.513 54.1171 171.39 53.9542C171.346 53.9051 171.301 53.8604 171.301 53.8157C169.949 52.4579 168.545 51.106 167.089 49.76C166.946 49.6057 166.751 49.5108 166.541 49.4943C166.332 49.4777 166.124 49.5407 165.959 49.6707L165.825 49.8047C165.508 50.1665 165.19 50.4836 164.829 50.8454C164.756 50.8979 164.695 50.9645 164.648 51.0412C164.602 51.1179 164.571 51.2031 164.558 51.2918C164.545 51.3805 164.55 51.4709 164.573 51.5577C164.596 51.6444 164.636 51.7257 164.69 51.7968C164.743 51.8519 164.805 51.8973 164.873 51.9308C165.597 52.6097 166.276 53.244 166.999 53.9721V53.9542Z" fill="black"/>
<path fill-rule="evenodd" clip-rule="evenodd" d="M164.963 58.2467C164.915 58.1638 164.855 58.0886 164.785 58.0233L163.154 56.393C162.475 55.7587 162.158 55.7587 161.524 56.4377C161.303 56.7181 161.057 56.9768 160.787 57.2104C160.702 57.2622 160.628 57.3307 160.571 57.4118C160.513 57.4929 160.472 57.5848 160.451 57.6821C160.429 57.7794 160.428 57.8799 160.447 57.9777C160.465 58.0755 160.504 58.1685 160.559 58.2511C160.576 58.2923 160.601 58.3297 160.632 58.3611C160.664 58.3926 160.701 58.4174 160.742 58.4343C161.962 59.6581 163.23 60.8329 164.543 62.0567C164.661 62.1891 164.825 62.272 165.002 62.2885C165.178 62.3051 165.354 62.2542 165.495 62.1461C165.539 62.1014 165.584 62.1014 165.584 62.0567C165.946 61.6949 166.263 61.3331 166.625 61.016C167.072 60.5693 166.942 60.1986 166.536 59.7921C166.129 59.3857 165.812 59.0685 165.401 58.7067L164.954 58.2601L164.963 58.2467Z" fill="black"/>
<path fill-rule="evenodd" clip-rule="evenodd" d="M170.756 52.3685C171.301 52.909 171.842 53.4093 172.342 53.8604C172.441 53.9883 172.584 54.0738 172.743 54.0995C172.903 54.1252 173.066 54.0892 173.2 53.9989L173.338 53.8604C173.71 53.4588 174.058 53.0352 174.379 52.5919C174.462 52.466 174.51 52.32 174.518 52.1692C174.526 52.0183 174.493 51.8681 174.423 51.7343C174.196 51.3725 173.923 50.8722 173.293 51.1893C172.476 51.5511 171.663 51.9129 170.756 52.3685Z" fill="black"/>
<path fill-rule="evenodd" clip-rule="evenodd" d="M167.679 49.425C168.492 48.7461 169.22 48.085 169.988 47.4329C169.988 47.3882 169.943 47.2989 169.943 47.2542C169.671 47.2989 169.264 47.2542 169.081 47.4329C168.541 48.0225 167.679 48.3843 167.679 49.425Z" fill="black"/>
</g>
<defs>
<clipPath id="clip0_5_935">
<rect width="162.944" height="134" fill="white" transform="translate(92 31)"/>
</clipPath>
</defs>
</svg>
