<svg width="346" height="196" viewBox="0 0 346 196" fill="none" xmlns="http://www.w3.org/2000/svg">
<g clip-path="url(#clip0_2001_2)">
<path d="M152.203 56.224H158.008V54.8029H145.023V56.224H150.804V71.6633H152.203V56.224ZM163.183 59.6202C162.54 59.6118 161.908 59.7846 161.353 60.1198C160.799 60.4551 160.343 60.9402 160.036 61.523L159.826 59.6202H158.738V71.6633H160.067V64.8228C160.067 62.4142 161.116 60.9449 163.167 60.9449H164.613V59.6202H163.183ZM175.212 59.6202V66.2198C175.212 68.7489 173.953 70.5795 171.598 70.5795C169.664 70.5795 168.265 69.3029 168.265 66.5811V59.6202H166.913V66.8461C166.913 69.9291 168.622 71.9042 171.389 71.9042C172.173 71.9526 172.954 71.7643 173.637 71.3624C174.32 70.9604 174.875 70.3621 175.235 69.6401L175.445 71.6633H176.533V59.6202H175.212ZM179.408 68.219C179.478 70.459 181.18 71.9042 184.233 71.9042C186.868 71.9042 188.872 70.5795 188.872 68.2913C188.872 66.3884 187.823 65.425 185.749 65.1119L183.278 64.7265C181.692 64.5097 181.016 63.9075 181.016 62.7514C181.016 61.3544 182.275 60.5595 184.07 60.5595C185.912 60.5595 187.241 61.4266 187.287 63.0645H188.639C188.593 60.6559 186.681 59.3793 184.047 59.3793C181.553 59.3793 179.711 60.704 179.711 62.7514C179.711 64.6542 180.83 65.6418 183.021 65.979L185.516 66.3643C186.914 66.557 187.52 67.1833 187.52 68.4117C187.52 69.881 186.215 70.724 184.187 70.724C182.159 70.724 180.876 69.8087 180.807 68.219H179.408ZM194.98 71.6633H196.449V70.3787H195.167C194.964 70.4046 194.758 70.3814 194.565 70.3111C194.372 70.2408 194.198 70.1253 194.055 69.9735C193.913 69.8218 193.807 69.6381 193.745 69.4367C193.683 69.2354 193.667 69.0219 193.698 68.8131V60.8727H196.472V59.6202H193.698V56.5371H192.369V58.6085C192.369 59.307 192.113 59.6202 191.367 59.6202H190.155V60.8727H192.369V68.9014C192.326 69.2692 192.364 69.6422 192.479 69.993C192.594 70.3437 192.784 70.6634 193.035 70.9283C193.285 71.1933 193.59 71.3969 193.927 71.5241C194.263 71.6513 194.623 71.6989 194.98 71.6633ZM209.69 65.2805C209.745 64.5073 209.641 63.7309 209.386 63.002C209.13 62.2732 208.728 61.6084 208.207 61.0512C207.685 60.494 207.055 60.057 206.359 59.7689C205.662 59.4808 204.915 59.348 204.165 59.3793C203.384 59.3583 202.608 59.5085 201.888 59.8202C201.168 60.1319 200.519 60.598 199.986 61.1875C199.453 61.7771 199.047 62.4768 198.795 63.2405C198.543 64.0041 198.45 64.8143 198.524 65.6177C198.451 66.4248 198.546 67.2386 198.801 68.005C199.057 68.7715 199.467 69.473 200.005 70.063C200.543 70.653 201.196 71.118 201.922 71.4271C202.647 71.7363 203.427 71.8825 204.212 71.856C205.392 71.9136 206.558 71.5604 207.521 70.8531C208.485 70.1457 209.191 69.125 209.527 67.954H208.151C207.854 68.7753 207.312 69.4784 206.605 69.9629C205.897 70.4474 205.06 70.6885 204.212 70.6517C203.628 70.6752 203.047 70.5709 202.505 70.3457C201.963 70.1206 201.474 69.7795 201.069 69.3451C200.664 68.9106 200.352 68.3925 200.154 67.8249C199.957 67.2572 199.878 66.6527 199.922 66.0512H209.69V65.2805ZM204.165 60.5595C204.716 60.5384 205.266 60.6358 205.779 60.8457C206.292 61.0555 206.757 61.3732 207.145 61.7785C207.533 62.1839 207.835 62.668 208.032 63.2004C208.23 63.7327 208.318 64.3016 208.291 64.871H199.946C199.938 64.2986 200.043 63.7307 200.253 63.201C200.463 62.6713 200.774 62.1909 201.168 61.7884C201.562 61.3859 202.03 61.0696 202.545 60.8585C203.06 60.6473 203.611 60.5457 204.165 60.5595ZM222.162 54.0803V61.7638C221.676 61.0033 221.009 60.3846 220.225 59.967C219.442 59.5494 218.567 59.347 217.686 59.3793C216.906 59.3829 216.135 59.5536 215.422 59.8806C214.709 60.2076 214.07 60.6838 213.544 61.2791C213.018 61.8743 212.618 62.5758 212.368 63.3392C212.117 64.1025 212.023 64.9112 212.091 65.714C212.025 66.5095 212.121 67.3105 212.373 68.0651C212.626 68.8198 213.029 69.5113 213.556 70.0948C214.083 70.6783 214.723 71.1409 215.435 71.4526C216.146 71.7643 216.913 71.9182 217.686 71.9042C218.571 71.9267 219.447 71.7149 220.23 71.2892C221.013 70.8634 221.678 70.2377 222.162 69.4715L222.395 71.6633H223.514V54.0803H222.162ZM217.802 70.6999C215.285 70.6999 213.49 68.8693 213.49 65.722C213.49 62.6149 215.238 60.6398 217.802 60.6157C220.203 60.5916 222.115 62.5908 222.115 65.722C222.18 66.3483 222.118 66.9817 221.931 67.5813C221.744 68.1809 221.437 68.7333 221.031 69.2026C220.624 69.6719 220.127 70.0477 219.571 70.3056C219.014 70.5636 218.412 70.6979 217.802 70.6999ZM231.277 65.6658C231.22 66.4817 231.33 67.3008 231.6 68.0697C231.87 68.8387 232.293 69.5403 232.843 70.1288C233.393 70.7173 234.057 71.1796 234.791 71.4855C235.525 71.7914 236.313 71.9341 237.105 71.9042C237.896 71.9341 238.684 71.7914 239.418 71.4855C240.152 71.1796 240.816 70.7173 241.366 70.1288C241.916 69.5403 242.339 68.8387 242.609 68.0697C242.879 67.3008 242.989 66.4817 242.933 65.6658C242.994 64.8466 242.887 64.0232 242.62 63.2495C242.352 62.4758 241.93 61.7691 241.379 61.1757C240.829 60.5823 240.164 60.1156 239.428 59.8061C238.691 59.4965 237.899 59.3511 237.105 59.3793C236.31 59.3511 235.518 59.4965 234.782 59.8061C234.045 60.1156 233.38 60.5823 232.83 61.1757C232.28 61.7691 231.857 62.4758 231.589 63.2495C231.322 64.0232 231.215 64.8466 231.277 65.6658ZM232.675 65.6418C232.604 65.0005 232.666 64.351 232.858 63.7366C233.049 63.1221 233.364 62.5567 233.783 62.0781C234.202 61.5995 234.715 61.2187 235.288 60.961C235.861 60.7033 236.48 60.5746 237.105 60.5836C237.729 60.5746 238.348 60.7033 238.921 60.961C239.494 61.2187 240.007 61.5995 240.426 62.0781C240.845 62.5567 241.161 63.1221 241.352 63.7366C241.543 64.351 241.605 65.0005 241.534 65.6418C241.602 66.2814 241.539 66.9287 241.346 67.5409C241.154 68.153 240.838 68.7158 240.419 69.192C240 69.6682 239.488 70.0468 238.916 70.3026C238.345 70.5584 237.727 70.6857 237.105 70.6758C236.482 70.6857 235.864 70.5584 235.293 70.3026C234.721 70.0468 234.209 69.6682 233.79 69.192C233.371 68.7158 233.055 68.153 232.863 67.5409C232.671 66.9287 232.607 66.2814 232.675 65.6418ZM251.301 59.3793C250.499 59.318 249.697 59.4995 248.994 59.9016C248.29 60.3037 247.715 60.909 247.338 61.6434L247.129 59.6202H246.033V71.6633H247.362V65.0637C247.362 62.5346 248.644 60.704 251.092 60.704C253.112 60.704 254.542 61.9887 254.542 64.7024V71.6633H255.894V64.4374C255.965 63.782 255.898 63.1184 255.697 62.4925C255.496 61.8666 255.165 61.2933 254.729 60.8123C254.292 60.3312 253.759 59.954 253.167 59.7066C252.576 59.4591 251.939 59.3475 251.301 59.3793Z" fill="white"/>
<path d="M251.622 84.9606C249.08 85.0865 246.54 84.6851 244.15 83.7803C241.761 82.8754 239.572 81.4854 237.711 79.6921C235.85 81.4855 233.66 82.8757 231.271 83.7805C228.882 84.6854 226.341 85.0867 223.8 84.9606C223.8 94.3993 221.843 107.923 237.711 113.413C253.578 107.921 251.622 94.3993 251.622 84.9606Z" fill="#3672FF"/>
<path d="M231.494 97.0311L236.284 102.17L245.481 92.3278L244.16 90.9324L236.284 99.3627L232.796 95.6261L231.494 97.0311Z" fill="white"/>
<path d="M162.647 87.7852V94.2885H160.857L159.962 89.9529H155.709V106.226L158.675 106.919V108.596H149.108V106.919L152.079 106.226V89.9529H147.793L146.926 94.2885H145.135V87.7852H162.647ZM166.871 101.196C166.837 102.313 167.027 103.426 167.431 104.463C167.671 105.094 168.098 105.631 168.65 105.998C169.202 106.366 169.852 106.544 170.508 106.508C171.358 106.506 172.198 106.313 172.97 105.945C173.792 105.552 174.504 104.95 175.04 104.196L176.55 105.41C175.852 106.417 174.95 107.255 173.908 107.867C172.655 108.578 171.239 108.928 169.81 108.878C168.579 108.915 167.36 108.622 166.271 108.026C165.288 107.453 164.502 106.58 164.019 105.526C163.728 104.897 163.519 104.231 163.398 103.546C163.262 102.759 163.196 101.96 163.202 101.161C163.063 98.9205 163.697 96.7015 164.992 94.8987C165.627 94.1522 166.419 93.5658 167.307 93.1845C168.195 92.8032 169.156 92.637 170.116 92.6988C171.051 92.6874 171.979 92.8506 172.858 93.1805C173.639 93.4728 174.35 93.9362 174.942 94.539C175.527 95.1543 175.976 95.8941 176.257 96.7067C176.578 97.6386 176.736 98.6223 176.723 99.6116C176.723 99.8257 176.718 100.033 176.709 100.233C176.699 100.433 176.676 100.754 176.639 101.196H166.871ZM170.06 94.6931C168.139 94.6931 167.086 96.2454 166.899 99.3498H173.06V98.5983C173.126 97.5716 172.852 96.5522 172.283 95.708C172.016 95.3691 171.676 95.1005 171.29 94.924C170.903 94.7476 170.482 94.6685 170.06 94.6931ZM186.089 92.6988C186.893 92.6924 187.693 92.8004 188.467 93.0199C189.143 93.207 189.782 93.5152 190.355 93.9304C190.868 94.3051 191.293 94.7941 191.599 95.3611C191.899 95.9278 192.053 96.5649 192.046 97.211C192.071 97.5708 192.024 97.932 191.908 98.2725C191.793 98.6129 191.611 98.9254 191.375 99.1909C191.158 99.413 190.9 99.5877 190.617 99.7044C190.333 99.8212 190.03 99.8775 189.725 99.8701C189.407 99.8819 189.091 99.8176 188.801 99.6822C188.569 99.5652 188.364 99.3976 188.2 99.1909C188.043 98.9915 187.928 98.76 187.864 98.5116C187.8 98.2667 187.767 98.014 187.766 97.7601C187.755 97.3183 187.877 96.8839 188.116 96.5173C188.374 96.1521 188.744 95.8874 189.165 95.7658C188.854 95.3821 188.448 95.0925 187.99 94.9276C187.427 94.707 186.83 94.598 186.228 94.6064C185.685 94.5963 185.146 94.7058 184.647 94.9276C184.176 95.1521 183.774 95.5073 183.486 95.9536C183.129 96.5259 182.883 97.1637 182.759 97.8324C182.576 98.779 182.491 99.7431 182.507 100.708C182.488 101.532 182.554 102.356 182.703 103.165C182.814 103.707 182.993 104.231 183.235 104.726C183.507 105.255 183.901 105.706 184.381 106.041C184.919 106.381 185.542 106.548 186.172 106.523C186.572 106.52 186.971 106.471 187.361 106.378C187.783 106.281 188.196 106.14 188.592 105.959C189 105.771 189.385 105.534 189.738 105.251C190.108 104.955 190.433 104.605 190.704 104.21L192.214 105.424C191.45 106.575 190.403 107.495 189.181 108.09C188.023 108.622 186.769 108.893 185.502 108.885C184.278 108.927 183.064 108.643 181.977 108.061C181.018 107.504 180.239 106.666 179.739 105.652C179.403 104.981 179.154 104.267 178.998 103.528C178.815 102.677 178.726 101.808 178.732 100.936C178.717 99.7833 178.887 98.6356 179.236 97.5401C179.542 96.5818 180.032 95.697 180.676 94.9388C181.312 94.2086 182.101 93.6399 182.984 93.2768C183.973 92.8772 185.028 92.6808 186.089 92.6988ZM205.336 100.85C205.336 100.233 205.326 99.6977 205.308 99.2438C205.289 98.79 205.263 98.3955 205.23 98.0604C205.21 97.7722 205.163 97.4866 205.09 97.2077C205.033 97.0008 204.963 96.7981 204.88 96.6008C204.654 96.1411 204.3 95.7612 203.864 95.5092C203.429 95.2571 202.93 95.1441 202.433 95.1845C201.904 95.1861 201.385 95.3253 200.922 95.5891C200.441 95.8545 200.044 96.2554 199.775 96.7453C199.6 97.0829 199.469 97.4423 199.383 97.8147C199.261 98.3545 199.205 98.908 199.216 99.4622V106.428L201.09 106.977V108.596H193.503V106.977L195.657 106.428V88.2187L193.503 87.6695V86.0509H199.209V95.7048C199.659 94.8162 200.318 94.0587 201.126 93.5017C201.9 92.9705 202.811 92.6909 203.741 92.6988C204.429 92.6809 205.115 92.7835 205.769 93.0023C206.316 93.2015 206.81 93.5316 207.21 93.9657C207.831 94.664 208.269 95.5147 208.483 96.437C208.784 97.7575 208.921 99.1126 208.888 100.469V106.428L211.042 106.977V108.596H203.461V106.977L205.336 106.428V100.85ZM161.92 124.901C161.924 125.98 161.546 127.023 160.857 127.834C160.519 128.231 160.117 128.564 159.668 128.817C159.203 129.08 158.696 129.251 158.171 129.323V129.439C159.487 129.688 160.691 130.363 161.612 131.365C162.455 132.332 162.906 133.597 162.871 134.898C162.881 135.961 162.594 137.005 162.046 137.904C161.544 138.763 160.823 139.463 159.962 139.927C159.687 140.068 159.402 140.184 159.108 140.274C158.755 140.381 158.395 140.463 158.031 140.52C157.568 140.593 157.101 140.641 156.633 140.664C156.11 140.695 155.504 140.711 154.814 140.711H145.611V139.035L147.961 138.428V122.184L145.611 121.577V119.9H155.849C157.485 119.79 159.101 120.316 160.381 121.374C160.861 121.829 161.246 122.38 161.514 122.993C161.781 123.591 161.919 124.242 161.92 124.901ZM151.597 130.916V138.543H153.835C154.528 138.556 155.22 138.507 155.905 138.399C156.366 138.324 156.811 138.168 157.22 137.936C157.745 137.644 158.174 137.197 158.451 136.652C158.778 136.025 158.942 135.321 158.927 134.609C158.945 134.018 158.82 133.432 158.563 132.904C158.334 132.458 158.02 132.065 157.64 131.748C157.255 131.454 156.818 131.243 156.353 131.126C155.691 130.965 155.012 130.892 154.333 130.909L151.597 130.916ZM151.597 128.806H154.255C154.777 128.852 155.302 128.786 155.798 128.612C156.294 128.438 156.75 128.159 157.136 127.794C157.434 127.498 157.681 127.151 157.863 126.768C158.067 126.32 158.172 125.832 158.172 125.337C158.172 124.843 158.067 124.354 157.863 123.907C157.681 123.524 157.434 123.176 157.136 122.881C156.359 122.227 155.364 121.915 154.367 122.014H151.597V128.806ZM168.693 133.315C168.658 134.432 168.848 135.544 169.252 136.581C169.491 137.214 169.918 137.752 170.47 138.121C171.022 138.489 171.673 138.668 172.329 138.633C173.18 138.631 174.019 138.438 174.791 138.069C175.613 137.677 176.325 137.075 176.861 136.321L178.372 137.535C177.673 138.541 176.772 139.38 175.73 139.992C174.476 140.703 173.061 141.052 171.631 141.003C170.4 141.04 169.181 140.746 168.093 140.151C167.11 139.578 166.323 138.704 165.841 137.65C165.549 137.022 165.34 136.356 165.219 135.67C165.083 134.884 165.018 134.085 165.023 133.286C164.884 131.045 165.519 128.826 166.814 127.023C167.447 126.276 168.238 125.688 169.126 125.305C170.014 124.922 170.974 124.754 171.934 124.814C172.869 124.803 173.798 124.966 174.676 125.296C175.463 125.583 176.177 126.05 176.765 126.661C177.354 127.273 177.801 128.014 178.075 128.828C178.396 129.76 178.554 130.744 178.541 131.733C178.541 131.947 178.536 132.154 178.527 132.355C178.518 132.555 178.494 132.876 178.457 133.318L168.693 133.315ZM171.882 126.812C169.961 126.812 168.907 128.364 168.721 131.468H174.875V130.717C174.941 129.69 174.667 128.671 174.098 127.826C173.832 127.487 173.493 127.218 173.107 127.041C172.721 126.864 172.3 126.785 171.879 126.808L171.882 126.812ZM191.883 132.968C191.883 132.351 191.874 131.816 191.855 131.362C191.837 130.908 191.813 130.513 191.785 130.177C191.766 129.889 191.719 129.603 191.645 129.325C191.589 129.118 191.518 128.915 191.436 128.718C191.208 128.255 190.852 127.874 190.414 127.622C189.975 127.369 189.474 127.258 188.974 127.301C188.445 127.303 187.926 127.442 187.463 127.706C186.983 127.971 186.585 128.372 186.316 128.862C186.142 129.2 186.01 129.559 185.925 129.931C185.802 130.471 185.746 131.025 185.757 131.579V138.543L187.631 139.092V140.711H180.053V139.092L182.207 138.543V120.334L180.053 119.785V118.166H185.76V127.82C186.208 126.932 186.864 126.175 187.668 125.617C188.443 125.086 189.354 124.806 190.284 124.814C190.972 124.796 191.658 124.899 192.312 125.117C192.859 125.317 193.353 125.647 193.753 126.081C194.374 126.779 194.812 127.63 195.026 128.552C195.327 129.873 195.464 131.228 195.431 132.584V138.543L197.585 139.092V140.711H190V139.092L191.874 138.543L191.883 132.968ZM202.653 133.315C202.619 134.432 202.809 135.544 203.213 136.581C203.453 137.211 203.88 137.747 204.431 138.114C204.983 138.48 205.632 138.659 206.287 138.623C207.137 138.621 207.977 138.429 208.748 138.06C209.572 137.67 210.287 137.071 210.825 136.318L212.335 137.532C211.637 138.538 210.736 139.376 209.693 139.988C208.44 140.7 207.024 141.049 205.595 141C204.364 141.037 203.145 140.743 202.056 140.147C201.068 139.577 200.276 138.703 199.791 137.647C199.499 137.019 199.29 136.353 199.169 135.667C199.033 134.88 198.967 134.082 198.973 133.283C198.834 131.042 199.468 128.823 200.763 127.02C201.399 126.272 202.191 125.683 203.081 125.301C203.971 124.918 204.933 124.752 205.895 124.814C206.83 124.803 207.758 124.966 208.637 125.296C209.423 125.583 210.138 126.05 210.726 126.661C211.314 127.273 211.762 128.014 212.035 128.828C212.357 129.76 212.515 130.744 212.502 131.733C212.502 131.947 212.497 132.154 212.488 132.355C212.478 132.555 212.455 132.876 212.418 133.318L202.653 133.315ZM205.842 126.812C203.921 126.812 202.868 128.364 202.681 131.468H208.836V130.717C208.902 129.69 208.628 128.671 208.058 127.826C207.793 127.487 207.453 127.218 207.067 127.041C206.682 126.864 206.261 126.785 205.839 126.808L205.842 126.812ZM216.5 127.274L214.346 126.725V125.103H219.217L219.839 127.993H219.951C220.469 127.036 221.218 126.235 222.126 125.667C222.995 125.109 223.998 124.813 225.022 124.814C225.731 124.797 226.435 124.951 227.078 125.262C227.601 125.505 228.05 125.889 228.379 126.375C228.72 126.966 228.965 127.61 229.106 128.282C229.654 127.237 230.454 126.356 231.428 125.724C232.34 125.129 233.398 124.813 234.477 124.814C235.175 124.802 235.866 124.955 236.497 125.262C237.058 125.528 237.534 125.954 237.868 126.49C238.051 126.796 238.193 127.127 238.288 127.473C238.416 127.942 238.51 128.42 238.567 128.904C238.642 129.472 238.694 130.142 238.723 130.913C238.752 131.683 238.766 132.589 238.765 133.63V138.543L240.919 139.092V140.711H233.31V139.092L235.184 138.543V132.965C235.184 132.348 235.175 131.813 235.156 131.359C235.137 130.905 235.109 130.51 235.072 130.174C235.043 129.887 234.997 129.602 234.932 129.321C234.884 129.114 234.818 128.91 234.736 128.714C234.599 128.317 234.338 127.979 233.995 127.751C233.703 127.572 233.37 127.477 233.03 127.476C232.593 127.468 232.158 127.537 231.743 127.679C231.34 127.833 230.97 128.069 230.655 128.372C230.256 128.742 229.945 129.202 229.746 129.716C229.527 130.352 229.409 131.021 229.397 131.696V138.543L231.271 139.092V140.711H223.966V139.092L225.841 138.543V132.965C225.841 132.348 225.831 131.813 225.813 131.359C225.794 130.905 225.766 130.51 225.729 130.174C225.7 129.887 225.653 129.602 225.589 129.321C225.541 129.114 225.475 128.91 225.393 128.714C225.256 128.317 224.995 127.979 224.652 127.751C224.359 127.572 224.026 127.477 223.687 127.476C223.25 127.468 222.815 127.537 222.4 127.679C221.997 127.833 221.627 128.069 221.312 128.372C220.912 128.742 220.601 129.202 220.403 129.716C220.184 130.352 220.066 131.021 220.053 131.696V138.543L221.927 139.092V140.711H214.343V139.092L216.497 138.543L216.5 127.274ZM256.895 132.91C256.903 134.092 256.728 135.268 256.378 136.393C256.075 137.404 255.565 138.335 254.881 139.123C254.275 139.791 253.515 140.288 252.671 140.568C250.677 141.146 248.567 141.146 246.573 140.568C245.729 140.288 244.968 139.791 244.363 139.123C243.679 138.335 243.169 137.404 242.866 136.393C242.176 134.126 242.176 131.694 242.866 129.427C243.169 128.416 243.679 127.485 244.363 126.697C244.968 126.029 245.729 125.532 246.573 125.252C248.567 124.674 250.677 124.674 252.671 125.252C253.515 125.532 254.275 126.029 254.881 126.697C255.565 127.485 256.075 128.416 256.378 129.427C256.727 130.552 256.9 131.726 256.892 132.907L256.895 132.91ZM247.076 137.911C247.4 138.275 247.793 138.566 248.231 138.765C248.67 138.964 249.143 139.067 249.622 139.067C250.101 139.067 250.574 138.964 251.012 138.765C251.45 138.566 251.844 138.275 252.167 137.911C252.89 136.355 253.199 134.629 253.063 132.91C253.199 131.191 252.89 129.465 252.167 127.91C251.844 127.545 251.45 127.254 251.012 127.055C250.574 126.856 250.101 126.754 249.622 126.754C249.143 126.754 248.67 126.856 248.231 127.055C247.793 127.254 247.4 127.545 247.076 127.91C246.354 129.465 246.045 131.191 246.181 132.91C246.044 134.628 246.352 136.353 247.073 137.907L247.076 137.911ZM258.07 125.508L260.811 125.103L261.147 121.519L264.333 121.056V125.103H267.908V126.982H264.333V136.433C264.333 137.088 264.342 137.536 264.361 137.777C264.372 137.979 264.41 138.178 264.473 138.37C264.54 138.495 264.651 138.588 264.784 138.63C265.02 138.699 265.266 138.729 265.511 138.717H267.469V139.988C266.528 140.298 265.571 140.554 264.602 140.754C263.953 140.897 263.293 140.979 262.63 141C262.282 141.04 261.931 140.955 261.636 140.761C261.341 140.566 261.119 140.273 261.007 139.931C260.903 139.648 260.842 139.351 260.825 139.049C260.798 138.693 260.784 138.148 260.784 137.416V126.979H258.07V125.508ZM280.505 132.965C280.505 132.348 280.496 131.813 280.477 131.359C280.459 130.905 280.435 130.51 280.407 130.174C280.388 129.886 280.341 129.6 280.268 129.321C280.211 129.114 280.141 128.912 280.058 128.714C279.83 128.252 279.474 127.871 279.036 127.619C278.597 127.366 278.096 127.255 277.596 127.298C277.068 127.3 276.548 127.439 276.085 127.703C275.605 127.968 275.207 128.369 274.938 128.859C274.764 129.196 274.632 129.556 274.547 129.928C274.425 130.468 274.368 131.022 274.379 131.576V138.543L276.253 139.092V140.711H268.669V139.092L270.823 138.543V120.334L268.669 119.785V118.166H274.376V127.82C274.826 126.931 275.485 126.174 276.292 125.617C277.067 125.086 277.978 124.806 278.908 124.814C279.595 124.796 280.281 124.899 280.936 125.117C281.483 125.317 281.977 125.647 282.376 126.081C282.998 126.779 283.436 127.63 283.649 128.552C283.951 129.873 284.087 131.228 284.055 132.584V138.543L286.209 139.092V140.711H278.628V139.092L280.502 138.543L280.505 132.965ZM293.349 139.237C293.791 139.24 294.232 139.191 294.663 139.092C295.039 139.009 295.401 138.873 295.74 138.688C296.028 138.532 296.277 138.309 296.468 138.037C296.644 137.78 296.737 137.471 296.733 137.156C296.739 136.786 296.615 136.427 296.384 136.144C296.126 135.835 295.812 135.579 295.461 135.393C295.048 135.167 294.617 134.979 294.174 134.829C293.698 134.665 293.227 134.505 292.761 134.347C292.182 134.174 291.617 133.956 291.069 133.697C290.531 133.445 290.032 133.114 289.586 132.714C289.15 132.323 288.794 131.847 288.537 131.312C288.264 130.717 288.13 130.064 288.145 129.405C288.124 128.77 288.243 128.139 288.496 127.56C288.748 126.981 289.126 126.47 289.6 126.066C290.802 125.153 292.279 124.707 293.768 124.809C294.551 124.8 295.332 124.897 296.09 125.098C296.72 125.263 297.317 125.542 297.852 125.922C298.316 126.255 298.703 126.689 298.985 127.194C299.255 127.683 299.395 128.237 299.391 128.799C299.411 129.078 299.375 129.357 299.286 129.621C299.197 129.884 299.056 130.126 298.873 130.331C298.683 130.511 298.46 130.649 298.218 130.738C297.975 130.828 297.718 130.866 297.461 130.852C296.957 130.883 296.46 130.724 296.062 130.404C295.907 130.278 295.781 130.118 295.694 129.936C295.606 129.753 295.56 129.552 295.559 129.349C295.561 129.014 295.658 128.687 295.838 128.409C296.016 128.119 296.268 127.884 296.566 127.73C296.294 127.356 295.933 127.061 295.517 126.877C294.998 126.659 294.44 126.556 293.88 126.574C293.184 126.518 292.49 126.718 291.922 127.137C291.706 127.332 291.536 127.576 291.424 127.848C291.313 128.121 291.263 128.417 291.278 128.713C291.255 129.039 291.309 129.366 291.436 129.666C291.563 129.965 291.758 130.229 292.006 130.432C292.6 130.862 293.263 131.18 293.964 131.372C294.71 131.603 295.447 131.844 296.174 132.094C296.855 132.323 297.507 132.633 298.118 133.019C298.662 133.361 299.13 133.82 299.489 134.363C299.847 134.937 300.027 135.609 300.006 136.29C300.018 136.997 299.839 137.692 299.489 138.299C299.132 138.899 298.643 139.404 298.062 139.773C297.4 140.192 296.678 140.5 295.922 140.684C295.052 140.903 294.16 141.011 293.265 141.005C291.805 141.09 290.353 140.739 289.082 139.993C288.62 139.713 288.238 139.311 287.975 138.829C287.712 138.347 287.578 137.801 287.586 137.247C287.567 136.91 287.614 136.572 287.724 136.254C287.835 135.936 288.007 135.645 288.229 135.397C288.428 135.184 288.667 135.015 288.932 134.901C289.197 134.786 289.481 134.729 289.768 134.733C290.211 134.732 290.644 134.868 291.011 135.123C291.193 135.24 291.342 135.404 291.443 135.599C291.544 135.795 291.593 136.014 291.585 136.236C291.579 136.597 291.471 136.949 291.274 137.247C291.1 137.543 290.86 137.791 290.574 137.97C290.813 138.329 291.129 138.625 291.498 138.837C292.069 139.14 292.708 139.278 293.349 139.237Z" fill="white"/>
<path fill-rule="evenodd" clip-rule="evenodd" d="M104.663 92.087H94.0232V78.3449H120.623C120.623 81.0602 113.861 92.087 104.663 92.087ZM45 58.7113V54L60.5023 54.0321V54.0161L102.142 54C113.774 54 120.623 63.5382 120.623 67.7421H56.0203C56.0203 63.3134 53.0006 58.7113 45 58.7113ZM56.0203 78.3449H82.2414V92.087H56.0203V78.3449ZM82.2414 116.43H56.0203V102.688H82.2414V116.43ZM94.0216 102.688H105.802C117.742 102.688 123.663 112.567 123.663 116.43H94.0232L94.0216 102.688ZM56.0203 127.033H82.2414V132.923H94.0216V127.033L123.663 127.043C123.663 131.891 115.133 140.777 106.183 140.777H45V136.064C52.9369 136.064 56.0203 131.728 56.0203 127.033Z" fill="#3672FF"/>
</g>
<defs>
<clipPath id="clip0_2001_2">
<rect width="255" height="87" fill="white" transform="translate(45 54)"/>
</clipPath>
</defs>
</svg>
