<svg width="352" height="345" viewBox="0 0 352 345" fill="none" xmlns="http://www.w3.org/2000/svg">
<rect x="0.34375" y="0.573486" width="351.024" height="344.015" rx="32" fill="#EEFFE0"/>
<path fill-rule="evenodd" clip-rule="evenodd" d="M134.503 206.072L68.7627 244.028L158.092 295.602L180.257 295.624L223.833 257.647L134.503 206.072Z" fill="#262725"/>
<path fill-rule="evenodd" clip-rule="evenodd" d="M175.315 163.043L109.574 200.998L198.904 252.572L264.644 214.617L175.315 163.043Z" fill="#66DD09"/>
<path fill-rule="evenodd" clip-rule="evenodd" d="M175.315 163.043L109.574 200.998L198.904 252.572L264.644 214.617L175.315 163.043Z" stroke="#262725" stroke-width="0.887209" stroke-linecap="round" stroke-linejoin="round"/>
<path fill-rule="evenodd" clip-rule="evenodd" d="M109.591 211.756L100.252 217.148L189.581 268.722L198.921 263.33L109.591 211.756Z" fill="#66DD09"/>
<path fill-rule="evenodd" clip-rule="evenodd" d="M109.591 211.756L100.252 217.148L189.581 268.722L198.921 263.33L109.591 211.756Z" stroke="#262725" stroke-width="0.887209" stroke-linecap="round" stroke-linejoin="round"/>
<path fill-rule="evenodd" clip-rule="evenodd" d="M100.267 227.908L90.9277 233.3L180.257 284.874L189.597 279.482L100.267 227.908Z" fill="#66DD09"/>
<path fill-rule="evenodd" clip-rule="evenodd" d="M100.267 227.908L90.9277 233.3L180.257 284.874L189.597 279.482L100.267 227.908Z" stroke="#262725" stroke-width="0.887209" stroke-linecap="round" stroke-linejoin="round"/>
<path fill-rule="evenodd" clip-rule="evenodd" d="M109.574 200.997V211.747L198.904 263.321V252.571L109.574 200.997Z" fill="#CFF9AD"/>
<path fill-rule="evenodd" clip-rule="evenodd" d="M109.574 200.997V211.747L198.904 263.321V252.571L109.574 200.997Z" stroke="#262725" stroke-width="0.887209" stroke-linecap="round" stroke-linejoin="round"/>
<path fill-rule="evenodd" clip-rule="evenodd" d="M100.252 217.149V227.898L189.581 279.473V268.723L100.252 217.149Z" fill="#CFF9AD"/>
<path fill-rule="evenodd" clip-rule="evenodd" d="M100.252 217.149V227.898L189.581 279.473V268.723L100.252 217.149Z" stroke="#262725" stroke-width="0.887209" stroke-linecap="round" stroke-linejoin="round"/>
<path fill-rule="evenodd" clip-rule="evenodd" d="M90.9277 233.3V244.05L180.257 295.624V284.874L90.9277 233.3Z" fill="#CFF9AD"/>
<path fill-rule="evenodd" clip-rule="evenodd" d="M90.9277 233.3V244.05L180.257 295.624V284.874L90.9277 233.3Z" stroke="#262725" stroke-width="0.887209" stroke-linecap="round" stroke-linejoin="round"/>
<path fill-rule="evenodd" clip-rule="evenodd" d="M147.979 68.0751C155.005 64.4925 164.469 65.2759 174.88 71.2863L174.88 71.2868C196.556 83.8013 214.127 114.236 214.127 139.265V237.225L234.362 225.543V127.582C234.362 102.554 216.791 72.1185 195.115 59.604H195.115C184.742 53.6153 175.31 52.8155 168.293 56.3524C160.646 60.2064 147.979 68.0751 147.979 68.0751Z" fill="#CFF9AD"/>
<path fill-rule="evenodd" clip-rule="evenodd" d="M147.979 68.0751C155.005 64.4925 164.469 65.2759 174.88 71.2863C196.556 83.8013 214.127 114.236 214.127 139.265V237.225L234.362 225.543V127.582C234.362 102.554 216.791 72.1185 195.115 59.604C184.742 53.6153 175.31 52.8155 168.293 56.3524C160.646 60.2064 147.979 68.0751 147.979 68.0751Z" stroke="#262725" stroke-width="0.887209" stroke-linecap="round" stroke-linejoin="round"/>
<path fill-rule="evenodd" clip-rule="evenodd" d="M207.459 199.308L162.536 173.372V87.5964C162.536 83.3187 163.154 79.5645 164.294 76.3883C151.499 74.0731 142.301 82.7806 142.301 99.2792C142.301 134.125 142.301 185.054 142.301 185.054L207.459 222.674V199.308Z" fill="white"/>
<path fill-rule="evenodd" clip-rule="evenodd" d="M207.459 199.308L162.536 173.372V87.5964C162.536 83.3187 163.154 79.5645 164.294 76.3883C151.499 74.0731 142.301 82.7806 142.301 99.2792C142.301 134.125 142.301 185.054 142.301 185.054L207.459 222.674V199.308Z" stroke="#262725" stroke-width="0.887209" stroke-linecap="round" stroke-linejoin="round"/>
<path fill-rule="evenodd" clip-rule="evenodd" d="M162.536 173.37L142.301 185.053L207.459 222.672V199.306L162.536 173.37Z" fill="white"/>
<path fill-rule="evenodd" clip-rule="evenodd" d="M162.536 173.37L142.301 185.053L207.459 222.672V199.306L162.536 173.37Z" stroke="#262725" stroke-width="0.887209" stroke-linecap="round" stroke-linejoin="round"/>
<path fill-rule="evenodd" clip-rule="evenodd" d="M207.459 162.097C201.644 170.843 191.701 176.611 180.422 176.611C162.516 176.611 147.979 162.073 147.979 144.167C147.979 126.261 162.516 111.723 180.422 111.723C190.672 111.723 199.817 116.486 205.766 123.919C206.864 128.321 207.459 132.702 207.459 136.898V162.097Z" fill="#7309DD"/>
<path fill-rule="evenodd" clip-rule="evenodd" d="M207.459 162.097C201.644 170.843 191.701 176.611 180.422 176.611C162.516 176.611 147.979 162.073 147.979 144.167C147.979 126.261 162.516 111.723 180.422 111.723C190.672 111.723 199.817 116.486 205.766 123.919C206.864 128.321 207.459 132.702 207.459 136.898V162.097Z" stroke="#262725" stroke-width="0.887209" stroke-linecap="round" stroke-linejoin="round"/>
<path fill-rule="evenodd" clip-rule="evenodd" d="M198.904 252.572L198.92 263.331L189.581 268.723V279.473L180.241 284.865L180.258 295.624L264.648 246.902V214.619L198.904 252.572Z" fill="white"/>
<path fill-rule="evenodd" clip-rule="evenodd" d="M198.904 252.572L198.92 263.331L189.581 268.723V279.473L180.241 284.865L180.258 295.624L264.648 246.902V214.619L198.904 252.572Z" stroke="#262725" stroke-width="0.887209" stroke-linecap="round" stroke-linejoin="round"/>
<path fill-rule="evenodd" clip-rule="evenodd" d="M214.127 139.265C214.127 114.236 196.556 83.8012 174.88 71.2866L174.879 71.2862C153.203 58.7721 135.632 68.9169 135.632 93.946C135.632 135.924 135.632 191.906 135.632 191.906L214.127 237.225V139.265ZM207.458 136.898C207.458 116.121 192.873 90.8576 174.88 80.4693L174.879 80.4688C156.886 70.0809 142.3 78.5019 142.3 99.2785C142.3 134.124 142.3 185.053 142.3 185.053L207.458 222.673C207.458 222.673 207.458 171.744 207.458 136.898Z" fill="#262725"/>
<path fill-rule="evenodd" clip-rule="evenodd" d="M214.127 139.265C214.127 114.236 196.556 83.801 174.88 71.2865C153.203 58.772 135.632 68.9168 135.632 93.9458C135.632 135.924 135.632 191.906 135.632 191.906L214.127 237.225V139.265ZM207.458 136.897C207.458 116.121 192.873 90.8574 174.88 80.4691C156.886 70.0808 142.3 78.5017 142.3 99.2784C142.3 134.124 142.3 185.053 142.3 185.053L207.458 222.673C207.458 222.673 207.458 171.743 207.458 136.897Z" stroke="#262725" stroke-width="0.887209" stroke-linecap="round" stroke-linejoin="round"/>
</svg>
