<svg width="348" height="345" viewBox="0 0 348 345" fill="none" xmlns="http://www.w3.org/2000/svg">
<rect x="0.0429688" y="0.573486" width="347.551" height="344.015" rx="32" fill="#7309DD"/>
<mask id="mask0_557_92" style="mask-type:luminance" maskUnits="userSpaceOnUse" x="3" y="34" width="345" height="275">
<path d="M343.288 34.1831H7.40482C5.02658 34.1831 3.09863 36.2264 3.09863 38.747V303.451C3.09863 305.971 5.02658 308.014 7.40482 308.014H343.288C345.666 308.014 347.594 305.971 347.594 303.451V38.747C347.594 36.2264 345.666 34.1831 343.288 34.1831Z" fill="white"/>
</mask>
<g mask="url(#mask0_557_92)">
<path fill-rule="evenodd" clip-rule="evenodd" d="M102.607 227.89C122.989 215.418 156.085 215.418 176.468 227.89C196.851 240.363 196.851 260.614 176.468 273.086C156.085 285.558 122.989 285.558 102.607 273.086C82.2236 260.614 82.2236 240.363 102.607 227.89Z" fill="#262725"/>
<path fill-rule="evenodd" clip-rule="evenodd" d="M50.1117 259.635C60.7256 253.14 77.9598 253.14 88.5733 259.635C99.1872 266.129 99.1872 276.675 88.5733 283.169C77.9598 289.664 60.7256 289.664 50.1117 283.169C39.4979 276.675 39.4979 266.129 50.1117 259.635Z" fill="#262725"/>
<path fill-rule="evenodd" clip-rule="evenodd" d="M177.842 276.614C186.495 271.319 200.546 271.319 209.199 276.614C217.852 281.909 217.852 290.506 209.199 295.801C200.546 301.096 186.495 301.096 177.842 295.801C169.189 290.506 169.189 281.909 177.842 276.614Z" fill="#262725"/>
<path fill-rule="evenodd" clip-rule="evenodd" d="M189.635 157.425C189.635 157.425 205.061 147.977 206.127 147.325C207.193 146.673 208.506 146.673 209.572 147.325C220.674 154.118 246.551 169.952 255.897 175.671C258.029 176.975 259.342 179.386 259.342 181.994V238.687C259.342 239.991 258.685 241.196 257.62 241.849C256.554 242.501 241.126 251.933 241.126 251.933L189.635 157.425Z" fill="white"/>
<path fill-rule="evenodd" clip-rule="evenodd" d="M189.635 157.425C189.635 157.425 205.061 147.977 206.127 147.325C207.193 146.673 208.506 146.673 209.572 147.325C220.674 154.118 246.551 169.952 255.897 175.671C258.029 176.975 259.342 179.386 259.342 181.994V238.687C259.342 239.991 258.685 241.196 257.62 241.849C256.554 242.501 241.126 251.933 241.126 251.933L189.635 157.425Z" stroke="#262725" stroke-width="0.912771" stroke-linecap="round" stroke-linejoin="round"/>
<path fill-rule="evenodd" clip-rule="evenodd" d="M188.102 160.463C188.102 159.159 188.758 157.953 189.824 157.301C190.89 156.649 192.203 156.649 193.269 157.301C204.371 164.094 230.248 179.928 239.594 185.647C241.726 186.951 243.039 189.362 243.039 191.971V248.663C243.039 249.967 242.382 251.173 241.316 251.825C240.25 252.477 238.937 252.477 237.871 251.825C226.77 245.032 200.893 229.198 191.547 223.479C189.415 222.174 188.102 219.764 188.102 217.155V160.463Z" fill="#66DD09"/>
<path fill-rule="evenodd" clip-rule="evenodd" d="M188.102 160.463C188.102 159.159 188.758 157.953 189.824 157.301C190.89 156.649 192.203 156.649 193.269 157.301C204.371 164.094 230.248 179.928 239.594 185.647C241.726 186.951 243.039 189.362 243.039 191.971V248.663C243.039 249.967 242.382 251.173 241.316 251.825C240.25 252.477 238.937 252.477 237.871 251.825C226.77 245.032 200.893 229.198 191.547 223.479C189.415 222.174 188.102 219.764 188.102 217.155V160.463Z" stroke="#262725" stroke-width="0.912771" stroke-linecap="round" stroke-linejoin="round"/>
<path fill-rule="evenodd" clip-rule="evenodd" d="M224.464 188.646L235.386 195.329V215.086L224.464 208.403V188.646Z" fill="white"/>
<path fill-rule="evenodd" clip-rule="evenodd" d="M224.464 188.646L235.386 195.329V215.086L224.464 208.403V188.646Z" stroke="white" stroke-width="0.912771" stroke-linecap="round" stroke-linejoin="round"/>
<path fill-rule="evenodd" clip-rule="evenodd" d="M197.122 171.915L208.044 178.598V198.355L197.122 191.672V171.915Z" fill="white"/>
<path fill-rule="evenodd" clip-rule="evenodd" d="M197.122 171.915L208.044 178.598V198.355L197.122 191.672V171.915Z" stroke="white" stroke-width="0.912771" stroke-linecap="round" stroke-linejoin="round"/>
<path fill-rule="evenodd" clip-rule="evenodd" d="M209.086 205.176L220.008 211.859V231.616L209.086 224.933V205.176Z" fill="white"/>
<path fill-rule="evenodd" clip-rule="evenodd" d="M209.086 205.176L220.008 211.859V231.616L209.086 224.933V205.176Z" stroke="white" stroke-width="0.912771" stroke-linecap="round" stroke-linejoin="round"/>
<path fill-rule="evenodd" clip-rule="evenodd" d="M118.109 209.635C138.492 197.162 171.588 197.162 191.971 209.635C212.353 222.107 212.353 242.358 191.971 254.83C171.588 267.302 138.492 267.302 118.109 254.83C97.7265 242.358 97.7265 222.107 118.109 209.635Z" fill="white"/>
<path fill-rule="evenodd" clip-rule="evenodd" d="M118.109 209.635C138.492 197.162 171.588 197.162 191.971 209.635C212.353 222.107 212.353 242.358 191.971 254.83C171.588 267.302 138.492 267.302 118.109 254.83C97.7265 242.358 97.7265 222.107 118.109 209.635Z" stroke="#262725" stroke-width="0.912771" stroke-linecap="round" stroke-linejoin="round"/>
<path fill-rule="evenodd" clip-rule="evenodd" d="M207.258 248.599H207.238C207.616 257.071 202.527 265.617 191.971 272.076C171.588 284.548 138.492 284.548 118.11 272.076C107.553 265.617 102.464 257.071 102.842 248.599H102.822V232.233C102.822 240.414 107.918 248.594 118.11 254.83C138.492 267.302 171.588 267.302 191.971 254.83C202.162 248.594 207.258 240.414 207.258 232.233V248.599Z" fill="#66DD09"/>
<path fill-rule="evenodd" clip-rule="evenodd" d="M207.258 248.599H207.238C207.616 257.071 202.527 265.617 191.971 272.076C171.588 284.548 138.492 284.548 118.11 272.076C107.553 265.617 102.464 257.071 102.842 248.599H102.822V232.233C102.822 240.414 107.918 248.594 118.11 254.83C138.492 267.302 171.588 267.302 191.971 254.83C202.162 248.594 207.258 240.414 207.258 232.233V248.599Z" stroke="#262725" stroke-width="0.912771" stroke-linecap="round" stroke-linejoin="round"/>
<path fill-rule="evenodd" clip-rule="evenodd" d="M112.036 232.232V209.192C112.036 184.021 131.289 163.616 155.039 163.616H155.039C178.789 163.616 198.042 184.021 198.042 209.192V232.232C198.042 238.969 193.845 245.706 185.452 250.842C168.667 261.113 141.411 261.113 124.625 250.842C116.233 245.706 112.036 238.969 112.036 232.232Z" fill="#CFF9AD"/>
<path fill-rule="evenodd" clip-rule="evenodd" d="M112.036 232.232V209.192C112.036 184.021 131.289 163.616 155.039 163.616C178.789 163.616 198.042 184.021 198.042 209.192V232.232C198.042 238.969 193.845 245.706 185.452 250.842C168.667 261.113 141.411 261.113 124.625 250.842C116.233 245.706 112.036 238.969 112.036 232.232Z" stroke="#262725" stroke-width="0.912771" stroke-linecap="round" stroke-linejoin="round"/>
<path fill-rule="evenodd" clip-rule="evenodd" d="M124.625 213.622C141.411 203.351 168.667 203.351 185.452 213.622C202.238 223.893 202.238 240.571 185.452 250.842C168.667 261.113 141.411 261.113 124.625 250.842C107.84 240.571 107.84 223.893 124.625 213.622Z" fill="white"/>
<path fill-rule="evenodd" clip-rule="evenodd" d="M124.625 213.622C141.411 203.351 168.667 203.351 185.452 213.622C202.238 223.893 202.238 240.571 185.452 250.842C168.667 261.113 141.411 261.113 124.625 250.842C107.84 240.571 107.84 223.893 124.625 213.622Z" stroke="#262725" stroke-width="0.912771" stroke-linecap="round" stroke-linejoin="round"/>
<path fill-rule="evenodd" clip-rule="evenodd" d="M112.036 102.901C112.036 96.1639 116.233 89.4267 124.625 84.2915C141.411 74.0205 168.667 74.0205 185.452 84.2915C193.845 89.4267 198.042 96.1639 198.042 102.901C198.042 102.901 198.042 113.267 198.042 125.941C198.042 151.112 178.789 171.517 155.039 171.517H155.039C131.289 171.517 112.036 151.112 112.036 125.941V102.901Z" fill="#CFF9AD"/>
<path fill-rule="evenodd" clip-rule="evenodd" d="M112.036 102.901C112.036 96.1639 116.233 89.4267 124.625 84.2915C141.411 74.0205 168.667 74.0205 185.452 84.2915C193.845 89.4267 198.042 96.1639 198.042 102.901C198.042 102.901 198.042 113.267 198.042 125.941C198.042 151.112 178.789 171.517 155.039 171.517C131.289 171.517 112.036 151.112 112.036 125.941V102.901Z" stroke="#262725" stroke-width="0.912771" stroke-linecap="round" stroke-linejoin="round"/>
<path fill-rule="evenodd" clip-rule="evenodd" d="M185.452 121.511C168.667 131.782 141.411 131.782 124.625 121.511C107.84 111.24 107.84 94.5624 124.625 84.2915C141.411 74.0205 168.667 74.0205 185.452 84.2915C202.238 94.5624 202.238 111.24 185.452 121.511Z" fill="white"/>
<path fill-rule="evenodd" clip-rule="evenodd" d="M185.452 121.511C168.667 131.782 141.411 131.782 124.625 121.511C107.84 111.24 107.84 94.5624 124.625 84.2915C141.411 74.0205 168.667 74.0205 185.452 84.2915C202.238 94.5624 202.238 111.24 185.452 121.511Z" stroke="#262725" stroke-width="0.912771" stroke-linecap="round" stroke-linejoin="round"/>
<path fill-rule="evenodd" clip-rule="evenodd" d="M118.109 61.9958C138.492 49.5237 171.588 49.5237 191.971 61.9958C212.353 74.4679 212.353 94.7191 191.971 107.191C171.588 119.663 138.492 119.663 118.109 107.191C97.7265 94.7191 97.7265 74.4679 118.109 61.9958Z" fill="white"/>
<path fill-rule="evenodd" clip-rule="evenodd" d="M118.109 61.9958C138.492 49.5237 171.588 49.5237 191.971 61.9958C212.353 74.4679 212.353 94.7191 191.971 107.191C171.588 119.663 138.492 119.663 118.109 107.191C97.7265 94.7191 97.7265 74.4679 118.109 61.9958Z" stroke="#262725" stroke-width="0.912771" stroke-linecap="round" stroke-linejoin="round"/>
<path fill-rule="evenodd" clip-rule="evenodd" d="M207.258 100.961H207.238C207.616 109.433 202.527 117.978 191.971 124.438C171.588 136.91 138.492 136.91 118.11 124.438C107.553 117.978 102.464 109.433 102.842 100.961H102.822V84.5942C102.822 92.7749 107.918 100.956 118.11 107.192C138.492 119.664 171.588 119.664 191.971 107.192C202.162 100.956 207.258 92.7749 207.258 84.5942V100.961Z" fill="#66DD09"/>
<path fill-rule="evenodd" clip-rule="evenodd" d="M207.258 100.961H207.238C207.616 109.433 202.527 117.978 191.971 124.438C171.588 136.91 138.492 136.91 118.11 124.438C107.553 117.978 102.464 109.433 102.842 100.961H102.822V84.5942C102.822 92.7749 107.918 100.956 118.11 107.192C138.492 119.664 171.588 119.664 191.971 107.192C202.162 100.956 207.258 92.7749 207.258 84.5942V100.961Z" stroke="#262725" stroke-width="0.912771" stroke-linecap="round" stroke-linejoin="round"/>
<path fill-rule="evenodd" clip-rule="evenodd" d="M155.038 211.428C161.467 211.428 166.687 216.961 166.687 223.774C166.687 230.589 161.467 236.121 155.038 236.121C148.609 236.121 143.389 230.589 143.389 223.774C143.389 216.961 148.609 211.428 155.038 211.428Z" fill="#262725"/>
<path fill-rule="evenodd" clip-rule="evenodd" d="M155.039 186.222C157.129 186.222 158.827 188.021 158.827 190.236C158.827 192.452 157.129 194.251 155.039 194.251C152.948 194.251 151.251 192.452 151.251 190.236C151.251 188.021 152.948 186.222 155.039 186.222Z" fill="#262725"/>
<path fill-rule="evenodd" clip-rule="evenodd" d="M155.04 154.239C155.926 154.239 156.646 155.002 156.646 155.941C156.646 156.881 155.926 157.644 155.04 157.644C154.154 157.644 153.434 156.881 153.434 155.941C153.434 155.002 154.154 154.239 155.04 154.239Z" fill="#262725"/>
<path fill-rule="evenodd" clip-rule="evenodd" d="M187.567 264.485L243.14 230.607C245.478 229.202 248.72 229.429 252.302 231.621C259.423 235.978 265.204 246.463 265.204 255.02C265.204 259.211 263.817 262.168 261.564 263.582L205.753 297.604C208.087 296.226 209.531 293.235 209.531 288.958C209.531 280.4 203.75 269.915 196.629 265.558C193.099 263.398 189.898 263.147 187.567 264.485Z" fill="white"/>
<path fill-rule="evenodd" clip-rule="evenodd" d="M187.567 264.485L243.14 230.607C245.478 229.202 248.72 229.429 252.302 231.621C259.423 235.978 265.204 246.463 265.204 255.02C265.204 259.211 263.817 262.168 261.564 263.582L205.753 297.604C208.087 296.226 209.531 293.235 209.531 288.958C209.531 280.4 203.75 269.915 196.629 265.558C193.099 263.398 189.898 263.147 187.567 264.485Z" stroke="#262725" stroke-width="0.912771" stroke-linecap="round" stroke-linejoin="round"/>
<path fill-rule="evenodd" clip-rule="evenodd" d="M196.629 265.557C203.75 269.914 209.531 280.399 209.531 288.956C209.531 297.514 203.75 300.924 196.629 296.566C189.508 292.209 183.727 281.724 183.727 273.167C183.727 264.609 189.508 261.2 196.629 265.557Z" fill="#66DD09"/>
<path fill-rule="evenodd" clip-rule="evenodd" d="M196.629 265.557C203.75 269.914 209.531 280.399 209.531 288.956C209.531 297.514 203.75 300.924 196.629 296.566C189.508 292.209 183.727 281.724 183.727 273.167C183.727 264.609 189.508 261.2 196.629 265.557Z" stroke="#262725" stroke-width="0.912771" stroke-linecap="round" stroke-linejoin="round"/>
<path fill-rule="evenodd" clip-rule="evenodd" d="M65.6147 250.507C76.2286 244.012 93.4628 244.012 104.076 250.507C114.69 257.001 114.69 267.547 104.076 274.041C93.4628 280.536 76.2286 280.536 65.6147 274.041C55.0008 267.547 55.0008 257.001 65.6147 250.507Z" fill="white"/>
<path fill-rule="evenodd" clip-rule="evenodd" d="M65.6147 250.507C76.2286 244.012 93.4628 244.012 104.076 250.507C114.69 257.001 114.69 267.547 104.076 274.041C93.4628 280.536 76.2286 280.536 65.6147 274.041C55.0008 267.547 55.0008 257.001 65.6147 250.507Z" stroke="#262725" stroke-width="0.912771" stroke-linecap="round" stroke-linejoin="round"/>
<path fill-rule="evenodd" clip-rule="evenodd" d="M112.037 270.796H112.026C112.223 275.208 109.573 279.658 104.076 283.021C93.4628 289.516 76.2286 289.516 65.6147 283.021C60.1179 279.658 57.4678 275.208 57.6646 270.796H57.6543V262.274C57.6543 266.534 60.3078 270.794 65.6147 274.041C76.2286 280.536 93.4628 280.536 104.076 274.041C109.383 270.794 112.037 266.534 112.037 262.274V270.796Z" fill="#66DD09"/>
<path fill-rule="evenodd" clip-rule="evenodd" d="M112.037 270.796H112.026C112.223 275.208 109.573 279.658 104.076 283.021C93.4628 289.516 76.2286 289.516 65.6147 283.021C60.1179 279.658 57.4678 275.208 57.6646 270.796H57.6543V262.274C57.6543 266.534 60.3078 270.794 65.6147 274.041C76.2286 280.536 93.4628 280.536 104.076 274.041C109.383 270.794 112.037 266.534 112.037 262.274V270.796Z" stroke="#262725" stroke-width="0.912771" stroke-linecap="round" stroke-linejoin="round"/>
</g>
</svg>
