<svg width="172" height="168" viewBox="0 0 172 168" fill="none" xmlns="http://www.w3.org/2000/svg">
<rect x="7.41211" y="7.3291" width="157.325" height="153.821" rx="41.5" fill="#7309DD" stroke="#07090D" stroke-width="13"/>
<path fill-rule="evenodd" clip-rule="evenodd" d="M90.1775 64.2046C92.933 59.1312 99.3254 57.237 104.456 59.9675C109.586 62.698 111.51 69.0178 108.755 74.0913C108.607 74.3622 108.45 74.624 108.283 74.8766L110.348 74.6167C112.096 74.3966 115.3 75.5109 115.3 75.5109C119.759 77.8993 121.125 83.8275 117.736 87.8854L95.3624 114.655L95.3617 114.65L92.5163 118.058C87.5312 124.027 77.723 120.371 77.9516 112.629L78.2827 101.525C78.292 101.205 78.0663 100.932 77.7558 100.874L57.9862 97.222C53.7696 96.4402 51.1622 92.9276 51.288 88.973C51.4136 85.0261 54.2278 81.681 58.4737 81.1466L61.477 80.7688C57.9861 77.6214 56.9565 72.4246 59.2915 68.1252C62.0469 63.0517 68.4427 61.1514 73.5733 63.8819C78.7036 66.6123 80.63 72.9417 77.8747 78.0152C77.735 78.2724 77.5859 78.5214 77.4282 78.7621L78.1516 78.6711L78.1505 78.67L92.3862 76.8778C88.8749 73.7315 87.8367 68.5148 90.1775 64.2046ZM102.717 63.2913C102.7 63.282 102.683 63.2729 102.666 63.2638C99.3768 61.5134 95.2772 62.7262 93.5109 65.9786C91.7505 69.22 92.9721 73.2641 96.2362 75.024C92.9858 73.2589 91.772 69.2238 93.5291 65.9885C95.2954 62.7361 99.3951 61.5233 102.684 63.2736C102.695 63.2795 102.706 63.2854 102.717 63.2913ZM82.0635 101.635C82.1133 99.9521 81.1955 98.4345 79.7726 97.6568C81.2056 98.4316 82.1312 99.9547 82.0811 101.644L81.7564 112.751C81.7025 114.576 82.6818 115.981 84.0262 116.716C82.6728 115.984 81.6846 114.575 81.7388 112.742L81.9011 107.188L82.0635 101.635ZM71.7831 67.1782C71.8029 67.1887 71.8227 67.1994 71.8424 67.2101C71.8287 67.2027 71.8149 67.1953 71.8011 67.188C68.5122 65.4376 64.4155 66.66 62.6492 69.9124C60.8935 73.1452 62.1012 77.1668 65.3458 78.934C62.0876 77.1719 60.8722 73.1414 62.6311 69.9026C64.3975 66.6502 68.4942 65.4278 71.7831 67.1782Z" fill="#212121"/>
<path d="M85.815 75.4075L61.2248 78.4986C57.0045 79.0293 54.2118 82.3891 54.0928 86.358C53.9735 90.3349 56.5708 93.8714 60.7639 94.6643L80.4232 98.368C80.732 98.4264 80.9569 98.702 80.948 99.0238L80.6353 110.19C80.4194 117.975 90.1757 121.667 95.1228 115.673L101.21 108.294L101.206 106.939C101.196 105 100.931 103.071 100.31 100.436C100.284 100.326 99.9704 99.0234 99.9634 98.9935C97.727 89.4689 93.4355 81.9182 87.0814 76.4959L85.815 75.4075ZM84.6485 79.3557C90.3719 84.2398 94.2415 91.0927 96.2961 99.8425C96.3218 99.9522 96.5938 101.058 96.6488 101.289C97.2364 103.783 97.4329 105.403 97.4406 106.942L92.2161 113.27C89.5466 116.505 84.284 114.511 84.4004 110.309L84.7069 99.1397C84.7673 96.9661 83.2408 95.0641 81.1041 94.6601L61.451 90.9599C56.5055 90.0246 56.7243 82.8644 61.7121 82.2371L84.6485 79.3557Z" fill="white"/>
<path d="M117.999 73.6101C117.999 73.6101 114.787 72.4926 113.036 72.7095L80.7894 76.7066L86.195 82.0984C90.7816 86.6689 93.9932 92.7973 95.824 100.483C95.8544 100.614 96.1134 101.71 96.1635 101.918C96.3256 102.598 96.4213 103.097 96.5775 104.013C96.5818 104.038 98.0846 112.665 98.0846 112.665L120.457 85.9701C123.846 81.9235 122.469 76.002 117.999 73.6101ZM116.2 76.9017C118.488 78.1257 119.449 81.2909 117.528 83.5845L100.42 103.996C100.26 103.073 100.135 102.237 99.8558 101.066C99.8 100.832 99.5441 99.7458 99.5195 99.6398C97.5579 91.4058 94.0468 84.6194 88.8819 79.4725L113.527 76.4215C114.526 76.2978 115.438 76.4936 116.2 76.9017Z" fill="white"/>
<path d="M77.0019 61.2996C71.8691 58.5603 65.4782 60.4512 62.7313 65.5218C59.9844 70.5924 61.923 76.9203 67.0559 79.6595C72.1887 82.3988 78.576 80.5142 81.3229 75.4436C84.0697 70.373 82.1346 64.0388 77.0019 61.2996ZM75.2172 64.594C78.5076 66.35 79.749 70.4135 77.988 73.6639C76.2271 76.9144 72.1309 78.1211 68.8405 76.3651C65.5502 74.6091 64.3116 70.5554 66.0725 67.3049C67.8334 64.0544 71.9268 62.838 75.2172 64.594Z" fill="white"/>
<path d="M107.698 58.3257C102.565 55.5864 96.178 57.4711 93.431 62.5416C90.6841 67.6122 92.6192 73.9464 97.7521 76.6857C102.885 79.4249 109.269 77.5306 112.016 72.4601C114.763 67.3895 112.831 61.0649 107.698 58.3257ZM105.914 61.6201C109.204 63.3761 110.442 67.4299 108.682 70.6804C106.921 73.9309 102.827 75.1472 99.5368 73.3913C96.2464 71.6353 95.0049 67.5718 96.7658 64.3213C98.5267 61.0708 102.623 59.8641 105.914 61.6201Z" fill="white"/>
<path d="M84.6597 79.3418C90.376 84.2313 94.2405 91.0927 96.2915 99.8534C96.3172 99.9633 96.5887 101.07 96.6435 101.301C97.2302 103.799 97.4262 105.421 97.4337 106.961L92.2143 113.299C89.5473 116.538 84.2908 114.542 84.4077 110.335L84.7153 99.1513C84.7761 96.9749 83.2516 95.0706 81.1173 94.6663L61.4868 90.9641C56.547 90.0282 56.7666 82.8588 61.7487 82.2301L84.6597 79.3418Z" fill="#66DD09"/>
<path d="M116.226 77.012C118.515 78.2353 119.476 81.3987 117.553 83.6914L100.433 104.095C100.273 103.173 100.148 102.337 99.8686 101.166C99.8126 100.933 99.5569 99.8473 99.5321 99.7413C97.5706 91.5115 94.0585 84.7289 88.8913 79.5852L113.551 76.5324C114.551 76.4086 115.463 76.6042 116.226 77.012Z" fill="#7309DD"/>
<path d="M75.2353 64.6034C78.5252 66.359 79.766 70.4224 78.0047 73.6733C76.2435 76.9241 72.1471 78.1314 68.8572 76.3758C65.5672 74.6202 64.3292 70.5665 66.0905 67.3156C67.8517 64.0648 71.9453 62.8478 75.2353 64.6034Z" fill="#66DD09"/>
<path d="M105.933 61.6298C109.223 63.3853 110.461 67.4391 108.7 70.69C106.938 73.9409 102.845 75.1579 99.5549 73.4023C96.2648 71.6466 95.024 67.5832 96.7853 64.3324C98.5465 61.0815 102.643 59.8741 105.933 61.6298Z" fill="#7309DD"/>
</svg>
