<svg width="811" height="763" viewBox="0 0 811 763" fill="none" xmlns="http://www.w3.org/2000/svg">
<mask id="mask0_13_1163" style="mask-type:alpha" maskUnits="userSpaceOnUse" x="0" y="0" width="811" height="763">
<g clip-path="url(#clip0_13_1163)">
<path d="M0 31.3562C0 23.04 3.51141 15.0644 9.76177 9.18401C16.0121 3.30359 24.4894 0 33.3288 0L777.671 0C786.511 0 794.988 3.30359 801.238 9.18401C807.489 15.0644 811 23.04 811 31.3562V609.363C811 617.679 807.489 625.655 801.238 631.535C794.988 637.415 786.511 640.719 777.671 640.719H560.491C551.652 640.719 543.175 644.023 536.924 649.903C530.674 655.784 527.162 663.759 527.162 672.075V731.644C527.162 739.96 523.651 747.936 517.401 753.816C511.15 759.696 502.673 763 493.834 763H33.3288C24.4894 763 16.0121 759.696 9.76177 753.816C3.51141 747.936 0 739.96 0 731.644L0 31.3562Z" fill="black"/>
</g>
</mask>
<g mask="url(#mask0_13_1163)">
<rect width="811" height="1347" fill="#6917D4"/>
</g>
<defs>
<clipPath id="clip0_13_1163">
<rect width="811" height="763" fill="white"/>
</clipPath>
</defs>
</svg>
