<svg width="727" height="743" viewBox="0 0 727 743" fill="none" xmlns="http://www.w3.org/2000/svg">
<g style="mix-blend-mode:hue">
<path d="M0.0078125 32.5156C0.0078125 14.8425 14.3347 0.515625 32.0078 0.515625H694.473C712.146 0.515625 726.473 14.8425 726.473 32.5156V541.129C726.473 558.802 712.146 573.129 694.473 573.129H32.0078C14.3347 573.129 0.0078125 558.802 0.0078125 541.129V32.5156Z" fill="#7309DD"/>
<path d="M0.0078125 272.745C0.0078125 255.072 14.3347 240.745 32.0078 240.745H535.09C552.763 240.745 567.09 255.072 567.09 272.745V710.528C567.09 728.201 552.763 742.528 535.09 742.528H32.0078C14.3347 742.528 0.0078125 728.201 0.0078125 710.528V272.745Z" fill="#7309DD"/>
<path d="M566.879 573.002H614.617C586.942 578.539 573.745 588.807 566.884 617.503L566.879 573.002Z" fill="#7309DD"/>
</g>
</svg>
