<svg width="63" height="64" viewBox="0 0 63 64" fill="none" xmlns="http://www.w3.org/2000/svg">
<path fill-rule="evenodd" clip-rule="evenodd" d="M34.9272 17.3917C36.9985 13.8317 41.5496 12.5952 45.0931 14.6255C48.6367 16.6558 49.829 21.183 47.7578 24.7431C47.6472 24.9332 47.5296 25.1167 47.4054 25.2934L48.8665 25.1442C50.1036 25.018 52.3319 25.8657 52.3319 25.8657C55.4112 27.6411 56.221 31.8802 53.7294 34.7072L37.2823 53.3559L37.2819 53.3529L35.1902 55.7269C31.5255 59.8849 24.7109 57.1157 25.071 51.6145L25.5896 43.7246C25.6044 43.4972 25.4525 43.2987 25.2352 43.2523L11.4043 40.3137C8.45445 39.6849 6.70825 37.142 6.89851 34.3321C7.08846 31.5277 9.15659 29.1977 12.161 28.891L14.286 28.6743C11.9082 26.3759 11.3165 22.6627 13.0717 19.6458C15.1429 16.0857 19.6967 14.845 23.2402 16.8752C26.7836 18.9055 27.9778 23.4396 25.9066 26.9997C25.8016 27.1802 25.6902 27.3547 25.5729 27.5231L26.0848 27.4709L26.0841 27.47L36.1571 26.4417C33.7648 24.1437 33.1676 20.4162 34.9272 17.3917ZM43.7828 16.959C43.7711 16.9521 43.7593 16.9453 43.7475 16.9385C41.4759 15.637 38.5572 16.4286 37.2294 18.7108C35.9062 20.9853 36.6627 23.8821 38.9165 25.19C36.6724 23.8787 35.9212 20.9884 37.242 18.7181C38.5698 16.4359 41.4885 15.6444 43.7601 16.9459C43.7677 16.9502 43.7752 16.9546 43.7828 16.959ZM28.2498 43.8677C28.3282 42.672 27.7207 41.5771 26.7385 40.9995C27.7279 41.5752 28.3407 42.6742 28.262 43.8748L27.7477 51.7672C27.6629 53.0642 28.3166 54.08 29.2446 54.6257C28.3101 54.0817 27.6503 53.0627 27.7356 51.7601L27.9927 47.8139L28.2498 43.8677ZM21.8945 19.1883C21.9083 19.1961 21.9219 19.204 21.9355 19.212C21.926 19.2065 21.9165 19.201 21.907 19.1956C19.6355 17.894 16.7185 18.6925 15.3908 20.9747C14.071 23.2432 14.8183 26.1238 17.0582 27.4365C14.8086 26.1272 14.0561 23.2401 15.3783 20.9674C16.706 18.6852 19.623 17.8868 21.8945 19.1883Z" fill="#212121"/>
<path d="M31.5994 25.6181L14.0753 27.1413C11.0678 27.4029 9.02821 29.6906 8.87852 32.4772C8.7286 35.2693 10.5162 37.8237 13.4827 38.4917L27.3916 41.6142C27.6101 41.6635 27.7653 41.8631 27.7537 42.0891L27.3484 49.9291C27.0674 55.3956 33.9395 58.2483 37.5531 54.1655L41.9995 49.1404L42.0189 48.1879C42.0439 46.8243 41.8866 45.4613 41.4889 43.5932C41.4719 43.5147 41.2708 42.5912 41.2663 42.57C39.8333 35.8163 36.9076 30.3956 32.4814 26.4166L31.5994 25.6181ZM30.7057 28.3624C34.6926 31.9465 37.3299 36.8656 38.6464 43.0698C38.6629 43.1477 38.838 43.9318 38.8733 44.0956C39.2499 45.8645 39.363 47.0083 39.3433 48.0899L35.5271 52.4C33.5771 54.6032 29.8703 53.0625 30.0219 50.1124L30.4228 42.2698C30.5014 40.7436 29.4479 39.3664 27.9362 39.026L14.0317 35.9061C10.5329 35.1181 10.8057 30.0911 14.3602 29.7819L30.7057 28.3624Z" fill="white"/>
<path d="M54.362 24.5576C54.362 24.5576 52.1109 23.6803 50.8698 23.7883L28.0147 25.7772L31.7456 29.7447C34.9113 33.1081 37.0796 37.5406 38.2463 43.0415C38.2656 43.1354 38.4305 43.9198 38.4624 44.0688C38.5657 44.5554 38.6251 44.9119 38.7203 45.5658C38.7229 45.5838 39.6422 51.7445 39.6422 51.7445L55.8948 33.3918C58.3568 30.6097 57.4815 26.3721 54.362 24.5576ZM53.0367 26.8459C54.6334 27.7744 55.2598 30.0453 53.8644 31.6222L41.4362 45.655C41.3383 44.9963 41.2641 44.3994 41.0859 43.561C41.0503 43.3939 40.8874 42.6165 40.8718 42.5406C39.6218 36.6469 37.2528 31.7397 33.6879 27.9522L51.1553 26.4349C51.8634 26.3733 52.5045 26.5362 53.0367 26.8459Z" fill="white"/>
<path d="M25.1663 15.3187C21.5787 13.2447 17.0242 14.415 14.9964 17.9321C12.9685 21.4491 14.2361 25.9794 17.8237 28.0535C21.4113 30.1276 25.963 28.9616 27.9909 25.4445C30.0188 21.9274 28.7537 17.3928 25.1663 15.3187ZM23.8487 17.6038C26.1485 18.9334 26.9601 21.8424 25.66 24.097C24.3601 26.3516 21.441 27.098 19.1412 25.7684C16.8414 24.4389 16.0317 21.5368 17.3317 19.2822C18.6316 17.0276 21.5489 16.2742 23.8487 17.6038Z" fill="white"/>
<path d="M47.0422 13.1898C43.4547 11.1158 38.9028 12.2819 36.8748 15.7989C34.847 19.3159 36.112 23.8506 39.6996 25.9247C43.2872 27.9988 47.8371 26.8258 49.8651 23.3088C51.8929 19.7917 50.6298 15.2639 47.0422 13.1898ZM45.7247 15.4749C48.0245 16.8045 48.8341 19.7067 47.5342 21.9613C46.2342 24.2159 43.3169 24.9692 41.0171 23.6396C38.7173 22.3101 37.9058 19.401 39.2057 17.1464C40.5057 14.8918 43.4249 14.1453 45.7247 15.4749Z" fill="white"/>
<path d="M30.7132 28.3766C34.6997 31.9598 37.3374 36.8771 38.6549 43.0785C38.6714 43.1563 38.8466 43.9401 38.8819 44.1038C39.2589 45.872 39.3722 47.0152 39.3526 48.0962L35.5386 52.4033C33.5898 54.6049 29.8836 53.0642 30.0345 50.1155L30.4335 42.277C30.5118 40.7516 29.4583 39.3748 27.9469 39.0342L14.0459 35.9127C10.5479 35.1242 10.8195 30.0998 14.3728 29.7917L30.7132 28.3766Z" fill="#66DD09"/>
<path d="M53.0492 26.8325C54.6465 27.7617 55.2737 30.0329 53.8783 31.6097L41.4502 45.6413C41.352 44.9824 41.2777 44.3855 41.0993 43.5469C41.0636 43.3797 40.9006 42.6023 40.8848 42.5263C39.6332 36.6316 37.2625 31.7233 33.6959 27.9346L51.1673 26.4211C51.8755 26.3597 52.5169 26.5228 53.0492 26.8325Z" fill="#7309DD"/>
<path d="M23.8601 17.612C26.1602 18.942 26.9725 21.8511 25.673 24.1052C24.3734 26.3594 21.4543 27.105 19.1541 25.7751C16.8539 24.445 16.0435 21.543 17.343 19.2888C18.6425 17.0346 21.5598 16.282 23.8601 17.612Z" fill="#66DD09"/>
<path d="M45.7366 15.4832C48.0367 16.8132 48.847 19.7154 47.5475 21.9695C46.248 24.2237 43.3308 24.9764 41.0305 23.6464C38.7303 22.3163 37.9181 19.4073 39.2176 17.1531C40.5171 14.899 43.4363 14.1532 45.7366 15.4832Z" fill="#7309DD"/>
</svg>
