<svg width="1509" height="831" viewBox="0 0 1509 831" fill="none" xmlns="http://www.w3.org/2000/svg">
<path d="M1476.3 0.159668H32.5078C14.8347 0.159668 0.507812 14.4866 0.507812 32.1597V798.599C0.507812 816.272 14.8347 830.599 32.5078 830.599H1303.97H1476.3C1493.98 830.599 1508.3 816.272 1508.3 798.599V32.1597C1508.3 14.4866 1493.98 0.159668 1476.3 0.159668Z" fill="#7309DD"/>
<g clip-path="url(#clip0_507_1375)">
<rect x="766.308" y="210.367" width="101.236" height="101.236" rx="27.097" fill="white"/>
<rect x="766.308" y="107.438" width="101.236" height="101.236" rx="27.097" fill="white"/>
<rect x="766.308" y="622.085" width="101.236" height="101.236" rx="27.097" fill="white"/>
<rect x="766.308" y="416.226" width="101.236" height="101.236" rx="27.097" fill="white"/>
<rect x="766.308" y="313.297" width="101.236" height="101.236" rx="27.097" fill="white"/>
<rect x="766.308" y="519.156" width="101.236" height="101.236" rx="27.097" fill="white"/>
<rect x="560.447" y="210.367" width="101.236" height="101.236" rx="27.097" fill="white"/>
<rect x="560.447" y="107.438" width="101.236" height="101.236" rx="27.097" fill="white"/>
<rect x="560.447" y="622.085" width="101.236" height="101.236" rx="27.097" fill="white"/>
<rect x="560.447" y="416.226" width="101.236" height="101.236" rx="27.097" fill="white"/>
<rect x="560.447" y="313.297" width="101.236" height="101.236" rx="27.097" fill="white"/>
<rect x="560.447" y="519.156" width="101.236" height="101.236" rx="27.097" fill="white"/>
<rect x="972.167" y="210.367" width="101.236" height="101.236" rx="27.097" fill="white"/>
<rect x="972.167" y="107.438" width="101.236" height="101.236" rx="27.097" fill="white"/>
<rect x="972.167" y="622.085" width="101.236" height="101.236" rx="27.097" fill="white"/>
<rect x="972.167" y="416.226" width="101.236" height="101.236" rx="27.097" fill="white"/>
<rect x="972.167" y="313.297" width="101.236" height="101.236" rx="27.097" fill="white"/>
<rect x="972.167" y="519.156" width="101.236" height="101.236" rx="27.097" fill="white"/>
<rect x="457.514" y="210.367" width="101.236" height="101.236" rx="27.097" fill="white"/>
<rect x="457.514" y="107.438" width="101.236" height="101.236" rx="27.097" fill="white"/>
<rect x="457.514" y="622.085" width="101.236" height="101.236" rx="27.097" fill="white"/>
<rect x="354.586" y="210.367" width="101.236" height="101.236" rx="27.097" fill="white"/>
<rect x="354.586" y="107.438" width="101.236" height="101.236" rx="27.097" fill="white"/>
<rect x="354.586" y="622.085" width="101.236" height="101.236" rx="27.097" fill="white"/>
<rect x="1075.09" y="210.367" width="101.236" height="101.236" rx="27.097" fill="white"/>
<rect x="1075.09" y="107.438" width="101.236" height="101.236" rx="27.097" fill="white"/>
<rect x="1075.09" y="622.085" width="101.236" height="101.236" rx="27.097" fill="white"/>
<rect x="457.514" y="416.226" width="101.236" height="101.236" rx="27.097" fill="white"/>
<rect x="354.586" y="416.226" width="101.236" height="101.236" rx="27.097" fill="white"/>
<rect x="1075.09" y="416.226" width="101.236" height="101.236" rx="27.097" fill="white"/>
<rect x="457.514" y="313.297" width="101.236" height="101.236" rx="27.097" fill="white"/>
<rect x="354.586" y="313.297" width="101.236" height="101.236" rx="27.097" fill="white"/>
<rect x="1075.09" y="313.297" width="101.236" height="101.236" rx="27.097" fill="white"/>
<rect x="457.514" y="519.156" width="101.236" height="101.236" rx="27.097" fill="white"/>
<rect x="354.586" y="519.156" width="101.236" height="101.236" rx="27.097" fill="white"/>
<rect x="1075.09" y="519.156" width="101.236" height="101.236" rx="27.097" fill="white"/>
<rect x="869.238" y="210.367" width="101.236" height="101.236" rx="27.097" fill="white"/>
<rect x="869.238" y="107.438" width="101.236" height="101.236" rx="27.097" fill="white"/>
<rect x="869.238" y="622.085" width="101.236" height="101.236" rx="27.097" fill="white"/>
<rect x="869.238" y="416.226" width="101.236" height="101.236" rx="27.097" fill="white"/>
<rect x="869.238" y="313.297" width="101.236" height="101.236" rx="27.097" fill="white"/>
<rect x="869.238" y="519.156" width="101.236" height="101.236" rx="27.097" fill="white"/>
<rect x="663.378" y="210.367" width="101.236" height="101.236" rx="27.097" fill="white"/>
<rect x="663.378" y="107.438" width="101.236" height="101.236" rx="27.097" fill="white"/>
<rect x="663.378" y="622.085" width="101.236" height="101.236" rx="27.097" fill="white"/>
<rect x="663.378" y="416.226" width="101.236" height="101.236" rx="27.097" fill="white"/>
<rect x="663.378" y="313.297" width="101.236" height="101.236" rx="27.097" fill="white"/>
<rect x="663.378" y="519.156" width="101.236" height="101.236" rx="27.097" fill="white"/>
<g style="mix-blend-mode:hard-light">
<path d="M744.011 392.748C783.97 413.254 815.818 447.785 839.683 495.866C839.983 496.469 843.069 502.526 843.703 503.795C850.519 517.501 853.866 526.656 856.004 535.6L834.207 579.661C823.071 602.182 789.726 597.858 784.687 573.243L771.271 507.812C768.666 495.078 757.193 486.121 744.206 486.725L624.781 492.385C594.723 493.785 586.253 451.808 614.43 441.256L744.011 392.748Z" fill="#212121"/>
<path d="M921.816 331.305C936.71 335.338 946.597 352.572 938.644 368.654L867.794 511.796C865.604 506.609 863.738 501.876 860.518 495.394C859.875 494.101 856.909 488.086 856.621 487.498C834.005 441.926 804.424 406.968 767.535 383.891L905.715 332.161C911.316 330.064 916.852 329.96 921.816 331.305Z" fill="#212121"/>
<path d="M664.318 320.254C685.765 326.001 698.51 348.07 692.764 369.513C687.018 390.957 664.958 403.655 643.51 397.908C622.062 392.161 609.347 370.145 615.093 348.701C620.839 327.258 642.869 314.507 664.318 320.254Z" fill="#212121"/>
<path d="M837.694 255.149C859.142 260.895 871.856 282.912 866.11 304.356C860.365 325.799 838.335 338.55 816.887 332.803C795.438 327.056 782.694 304.987 788.439 283.544C794.185 262.1 816.246 249.402 837.694 255.149Z" fill="#212121"/>
<path d="M749.297 382.449C789.256 402.955 821.105 437.486 844.969 485.568C845.269 486.171 848.356 492.228 848.989 493.496C855.805 507.202 859.152 516.358 861.29 525.302L839.494 569.363C828.357 591.884 795.012 587.56 789.973 562.945L776.558 497.514C773.952 484.78 762.48 475.822 749.492 476.427L630.067 482.087C600.009 483.486 591.539 441.51 619.717 430.958L749.297 382.449Z" fill="#66DD09"/>
<path d="M927.102 321.006C941.996 325.04 951.883 342.273 943.931 358.356L873.081 501.498C870.89 496.31 869.024 491.577 865.805 485.095C865.161 483.803 862.195 477.788 861.907 477.2C839.291 431.628 809.71 396.669 772.821 373.592L911.001 321.863C916.602 319.765 922.138 319.661 927.102 321.006Z" fill="#66DD09"/>
<path d="M669.604 309.956C691.051 315.703 703.796 337.772 698.05 359.215C692.304 380.658 670.244 393.356 648.797 387.609C627.348 381.862 614.633 359.847 620.379 338.403C626.125 316.96 648.155 304.209 669.604 309.956Z" fill="#66DD09"/>
<path d="M842.98 244.85C864.428 250.597 877.142 272.614 871.397 294.057C865.651 315.501 843.621 328.252 822.173 322.505C800.725 316.758 787.98 294.689 793.725 273.245C799.471 251.802 821.532 239.103 842.98 244.85Z" fill="#66DD09"/>
</g>
<path d="M483.096 253.81L481.45 253.911C481.422 253.77 481.361 253.644 481.268 253.531C481.176 253.416 481.053 253.324 480.901 253.257C480.752 253.186 480.574 253.151 480.365 253.151C480.087 253.151 479.852 253.21 479.661 253.329C479.469 253.444 479.374 253.599 479.374 253.793C479.374 253.947 479.436 254.078 479.559 254.185C479.683 254.292 479.896 254.378 480.197 254.443L481.37 254.679C482 254.808 482.47 255.016 482.779 255.303C483.088 255.59 483.243 255.967 483.243 256.434C483.243 256.859 483.118 257.232 482.868 257.553C482.62 257.873 482.28 258.124 481.846 258.304C481.416 258.481 480.92 258.569 480.357 258.569C479.499 258.569 478.815 258.391 478.306 258.034C477.8 257.673 477.503 257.184 477.416 256.565L479.184 256.472C479.237 256.734 479.367 256.934 479.572 257.071C479.777 257.206 480.04 257.274 480.361 257.274C480.676 257.274 480.929 257.214 481.121 257.093C481.315 256.969 481.413 256.81 481.416 256.616C481.413 256.453 481.344 256.319 481.209 256.215C481.074 256.108 480.866 256.026 480.585 255.97L479.462 255.746C478.829 255.62 478.358 255.4 478.049 255.088C477.742 254.776 477.589 254.378 477.589 253.894C477.589 253.478 477.701 253.119 477.926 252.818C478.154 252.517 478.474 252.285 478.884 252.122C479.298 251.959 479.782 251.877 480.336 251.877C481.154 251.877 481.799 252.05 482.268 252.396C482.741 252.742 483.017 253.213 483.096 253.81ZM487.304 258.569C486.64 258.569 486.069 258.429 485.59 258.147C485.115 257.863 484.749 257.47 484.493 256.966C484.24 256.462 484.114 255.883 484.114 255.227C484.114 254.564 484.242 253.981 484.498 253.48C484.756 252.977 485.123 252.584 485.599 252.303C486.074 252.019 486.64 251.877 487.295 251.877C487.861 251.877 488.356 251.98 488.781 252.185C489.205 252.39 489.541 252.679 489.789 253.05C490.037 253.421 490.173 253.857 490.198 254.358H488.502C488.454 254.035 488.328 253.774 488.122 253.578C487.92 253.378 487.654 253.278 487.325 253.278C487.046 253.278 486.803 253.354 486.595 253.506C486.389 253.655 486.229 253.873 486.114 254.16C485.998 254.447 485.941 254.794 485.941 255.202C485.941 255.616 485.997 255.967 486.109 256.257C486.225 256.547 486.387 256.768 486.595 256.92C486.803 257.071 487.046 257.147 487.325 257.147C487.53 257.147 487.714 257.105 487.878 257.021C488.043 256.936 488.18 256.814 488.287 256.654C488.397 256.491 488.468 256.295 488.502 256.067H490.198C490.17 256.562 490.035 256.998 489.793 257.375C489.554 257.749 489.224 258.042 488.802 258.253C488.38 258.464 487.88 258.569 487.304 258.569ZM493.198 258.565C492.784 258.565 492.415 258.494 492.092 258.35C491.768 258.204 491.512 257.989 491.324 257.704C491.138 257.417 491.045 257.06 491.045 256.633C491.045 256.273 491.112 255.97 491.244 255.725C491.376 255.481 491.556 255.284 491.784 255.135C492.012 254.986 492.271 254.873 492.56 254.797C492.853 254.721 493.16 254.668 493.48 254.637C493.857 254.597 494.161 254.561 494.392 254.527C494.622 254.49 494.79 254.437 494.894 254.367C494.998 254.296 495.05 254.192 495.05 254.054V254.029C495.05 253.762 494.966 253.555 494.797 253.409C494.631 253.262 494.395 253.189 494.088 253.189C493.764 253.189 493.507 253.261 493.316 253.405C493.124 253.545 492.998 253.722 492.936 253.936L491.273 253.801C491.358 253.407 491.524 253.067 491.771 252.78C492.019 252.49 492.338 252.268 492.729 252.113C493.123 251.956 493.579 251.877 494.096 251.877C494.456 251.877 494.801 251.919 495.13 252.004C495.462 252.088 495.756 252.219 496.012 252.396C496.271 252.573 496.475 252.801 496.624 253.08C496.773 253.355 496.848 253.686 496.848 254.071V258.443H495.143V257.544H495.092C494.988 257.747 494.849 257.925 494.674 258.08C494.5 258.232 494.29 258.351 494.046 258.439C493.801 258.523 493.518 258.565 493.198 258.565ZM493.712 257.325C493.977 257.325 494.21 257.273 494.413 257.169C494.615 257.062 494.774 256.918 494.89 256.738C495.005 256.558 495.063 256.354 495.063 256.126V255.438C495.006 255.475 494.929 255.509 494.831 255.54C494.735 255.568 494.627 255.595 494.506 255.62C494.385 255.642 494.264 255.663 494.143 255.683C494.022 255.7 493.912 255.716 493.814 255.73C493.603 255.761 493.418 255.81 493.261 255.877C493.103 255.945 492.981 256.036 492.894 256.152C492.807 256.264 492.763 256.405 492.763 256.574C492.763 256.818 492.852 257.005 493.029 257.135C493.209 257.261 493.437 257.325 493.712 257.325ZM500.04 249.801V258.443H498.242V249.801H500.04ZM504.434 258.569C503.767 258.569 503.193 258.434 502.712 258.164C502.234 257.891 501.865 257.506 501.606 257.008C501.348 256.507 501.218 255.915 501.218 255.232C501.218 254.565 501.348 253.98 501.606 253.476C501.865 252.973 502.23 252.58 502.699 252.299C503.172 252.018 503.726 251.877 504.362 251.877C504.789 251.877 505.188 251.946 505.556 252.084C505.927 252.219 506.251 252.423 506.527 252.696C506.805 252.968 507.022 253.312 507.176 253.725C507.331 254.136 507.409 254.617 507.409 255.168V255.662H501.936V254.548H505.716C505.716 254.289 505.66 254.06 505.548 253.86C505.435 253.661 505.279 253.504 505.079 253.392C504.882 253.277 504.653 253.219 504.391 253.219C504.119 253.219 503.877 253.282 503.666 253.409C503.457 253.533 503.294 253.7 503.176 253.911C503.058 254.119 502.998 254.351 502.995 254.607V255.666C502.995 255.987 503.054 256.264 503.172 256.498C503.293 256.731 503.463 256.911 503.683 257.038C503.902 257.164 504.162 257.228 504.463 257.228C504.663 257.228 504.846 257.199 505.012 257.143C505.178 257.087 505.32 257.003 505.438 256.89C505.556 256.777 505.646 256.64 505.708 256.476L507.371 256.586C507.286 256.986 507.113 257.334 506.852 257.633C506.593 257.928 506.258 258.159 505.847 258.325C505.439 258.488 504.968 258.569 504.434 258.569ZM515.488 255.683V251.961H517.286V258.443H515.56V257.266H515.492C515.346 257.645 515.103 257.951 514.762 258.181C514.425 258.412 514.013 258.527 513.526 258.527C513.093 258.527 512.712 258.429 512.383 258.232C512.053 258.035 511.796 257.755 511.61 257.392C511.427 257.029 511.335 256.595 511.332 256.088V251.961H513.129V255.768C513.132 256.15 513.235 256.453 513.437 256.675C513.64 256.897 513.911 257.008 514.252 257.008C514.468 257.008 514.671 256.959 514.86 256.86C515.048 256.759 515.2 256.61 515.315 256.413C515.433 256.216 515.491 255.973 515.488 255.683ZM524.117 253.81L522.471 253.911C522.443 253.77 522.382 253.644 522.289 253.531C522.197 253.416 522.074 253.324 521.922 253.257C521.773 253.186 521.595 253.151 521.386 253.151C521.108 253.151 520.873 253.21 520.682 253.329C520.49 253.444 520.395 253.599 520.395 253.793C520.395 253.947 520.457 254.078 520.58 254.185C520.704 254.292 520.917 254.378 521.218 254.443L522.391 254.679C523.021 254.808 523.491 255.016 523.8 255.303C524.109 255.59 524.264 255.967 524.264 256.434C524.264 256.859 524.139 257.232 523.889 257.553C523.641 257.873 523.301 258.124 522.867 258.304C522.437 258.481 521.941 258.569 521.378 258.569C520.52 258.569 519.836 258.391 519.327 258.034C518.821 257.673 518.524 257.184 518.437 256.565L520.205 256.472C520.258 256.734 520.388 256.934 520.593 257.071C520.798 257.206 521.061 257.274 521.382 257.274C521.697 257.274 521.95 257.214 522.142 257.093C522.336 256.969 522.434 256.81 522.437 256.616C522.434 256.453 522.365 256.319 522.23 256.215C522.095 256.108 521.887 256.026 521.606 255.97L520.483 255.746C519.85 255.62 519.379 255.4 519.07 255.088C518.763 254.776 518.61 254.378 518.61 253.894C518.61 253.478 518.722 253.119 518.947 252.818C519.175 252.517 519.495 252.285 519.905 252.122C520.319 251.959 520.803 251.877 521.357 251.877C522.175 251.877 522.82 252.05 523.289 252.396C523.762 252.742 524.038 253.213 524.117 253.81ZM528.932 258.443V251.961H529.928V258.443H528.932ZM529.439 250.881C529.245 250.881 529.077 250.815 528.937 250.683C528.799 250.551 528.73 250.392 528.73 250.206C528.73 250.02 528.799 249.861 528.937 249.729C529.077 249.597 529.245 249.531 529.439 249.531C529.633 249.531 529.799 249.597 529.937 249.729C530.077 249.861 530.148 250.02 530.148 250.206C530.148 250.392 530.077 250.551 529.937 250.683C529.799 250.815 529.633 250.881 529.439 250.881ZM532.748 254.544V258.443H531.752V251.961H532.714V252.974H532.799C532.951 252.645 533.181 252.381 533.491 252.181C533.8 251.978 534.2 251.877 534.689 251.877C535.128 251.877 535.512 251.967 535.841 252.147C536.17 252.324 536.426 252.594 536.609 252.957C536.792 253.317 536.883 253.773 536.883 254.324V258.443H535.887V254.392C535.887 253.883 535.755 253.486 535.491 253.202C535.226 252.915 534.863 252.772 534.402 252.772C534.084 252.772 533.8 252.84 533.55 252.978C533.302 253.116 533.107 253.317 532.963 253.582C532.82 253.846 532.748 254.167 532.748 254.544ZM480.344 270.578C479.804 270.578 479.327 270.441 478.914 270.169C478.5 269.893 478.177 269.505 477.943 269.004C477.71 268.5 477.593 267.905 477.593 267.219C477.593 266.538 477.71 265.947 477.943 265.447C478.177 264.946 478.502 264.559 478.918 264.286C479.334 264.013 479.815 263.877 480.361 263.877C480.783 263.877 481.116 263.947 481.361 264.088C481.609 264.226 481.797 264.383 481.927 264.561C482.059 264.735 482.162 264.878 482.235 264.991H482.319V261.801H483.315V270.443H482.353V269.447H482.235C482.162 269.565 482.057 269.714 481.922 269.894C481.787 270.072 481.595 270.23 481.344 270.371C481.094 270.509 480.761 270.578 480.344 270.578ZM480.479 269.683C480.879 269.683 481.216 269.579 481.492 269.371C481.768 269.16 481.977 268.869 482.121 268.498C482.264 268.123 482.336 267.692 482.336 267.202C482.336 266.718 482.266 266.295 482.125 265.932C481.984 265.566 481.776 265.282 481.5 265.08C481.225 264.874 480.884 264.772 480.479 264.772C480.057 264.772 479.706 264.88 479.424 265.096C479.146 265.31 478.936 265.601 478.796 265.97C478.658 266.336 478.589 266.746 478.589 267.202C478.589 267.663 478.659 268.083 478.8 268.46C478.943 268.834 479.154 269.132 479.433 269.354C479.714 269.574 480.063 269.683 480.479 269.683ZM487.995 270.578C487.37 270.578 486.831 270.44 486.378 270.164C485.928 269.886 485.581 269.498 485.336 269C485.094 268.499 484.973 267.917 484.973 267.253C484.973 266.589 485.094 266.004 485.336 265.497C485.581 264.988 485.921 264.592 486.357 264.307C486.796 264.02 487.308 263.877 487.893 263.877C488.231 263.877 488.564 263.933 488.893 264.046C489.223 264.158 489.522 264.341 489.792 264.594C490.062 264.845 490.277 265.177 490.438 265.59C490.598 266.004 490.678 266.513 490.678 267.118V267.54H485.682V266.679H489.666C489.666 266.313 489.592 265.987 489.446 265.7C489.303 265.413 489.097 265.186 488.83 265.021C488.566 264.855 488.253 264.772 487.893 264.772C487.497 264.772 487.153 264.87 486.864 265.067C486.577 265.261 486.356 265.514 486.201 265.826C486.047 266.139 485.969 266.474 485.969 266.831V267.405C485.969 267.894 486.054 268.309 486.222 268.649C486.394 268.987 486.632 269.244 486.935 269.422C487.239 269.596 487.592 269.683 487.995 269.683C488.256 269.683 488.493 269.647 488.704 269.574C488.917 269.498 489.102 269.385 489.256 269.236C489.411 269.084 489.531 268.896 489.615 268.671L490.577 268.941C490.476 269.267 490.306 269.554 490.067 269.801C489.827 270.046 489.532 270.238 489.18 270.375C488.829 270.51 488.433 270.578 487.995 270.578ZM496.784 265.413L495.89 265.666C495.833 265.517 495.75 265.372 495.641 265.232C495.534 265.088 495.388 264.97 495.202 264.877C495.016 264.784 494.779 264.738 494.489 264.738C494.092 264.738 493.762 264.829 493.497 265.012C493.236 265.192 493.105 265.421 493.105 265.7C493.105 265.947 493.195 266.143 493.375 266.286C493.555 266.43 493.836 266.549 494.219 266.645L495.181 266.881C495.76 267.022 496.192 267.237 496.476 267.527C496.76 267.814 496.902 268.184 496.902 268.637C496.902 269.008 496.796 269.34 496.582 269.633C496.371 269.925 496.075 270.156 495.696 270.325C495.316 270.494 494.874 270.578 494.371 270.578C493.71 270.578 493.162 270.434 492.729 270.147C492.296 269.861 492.022 269.441 491.906 268.89L492.852 268.654C492.942 269.003 493.112 269.264 493.362 269.439C493.615 269.613 493.946 269.7 494.354 269.7C494.818 269.7 495.186 269.602 495.459 269.405C495.735 269.205 495.873 268.966 495.873 268.687C495.873 268.462 495.794 268.274 495.637 268.122C495.479 267.967 495.237 267.852 494.911 267.776L493.83 267.523C493.237 267.382 492.801 267.164 492.522 266.869C492.247 266.571 492.109 266.198 492.109 265.751C492.109 265.385 492.212 265.061 492.417 264.78C492.625 264.499 492.908 264.278 493.265 264.118C493.625 263.957 494.033 263.877 494.489 263.877C495.13 263.877 495.634 264.018 495.999 264.299C496.368 264.58 496.63 264.952 496.784 265.413ZM498.402 270.443V263.961H499.397V270.443H498.402ZM498.908 262.881C498.714 262.881 498.546 262.815 498.406 262.683C498.268 262.551 498.199 262.392 498.199 262.206C498.199 262.02 498.268 261.861 498.406 261.729C498.546 261.597 498.714 261.531 498.908 261.531C499.102 261.531 499.268 261.597 499.406 261.729C499.546 261.861 499.617 262.02 499.617 262.206C499.617 262.392 499.546 262.551 499.406 262.683C499.268 262.815 499.102 262.881 498.908 262.881ZM503.838 273.008C503.357 273.008 502.943 272.947 502.597 272.823C502.251 272.702 501.963 272.541 501.732 272.342C501.504 272.145 501.323 271.934 501.188 271.709L501.981 271.152C502.071 271.27 502.185 271.405 502.323 271.557C502.461 271.712 502.649 271.845 502.888 271.958C503.13 272.073 503.447 272.131 503.838 272.131C504.361 272.131 504.793 272.004 505.133 271.751C505.473 271.498 505.644 271.101 505.644 270.561V269.244H505.559C505.486 269.363 505.382 269.509 505.247 269.683C505.115 269.855 504.923 270.008 504.673 270.143C504.426 270.275 504.091 270.342 503.669 270.342C503.146 270.342 502.676 270.218 502.259 269.97C501.846 269.723 501.518 269.363 501.276 268.89C501.037 268.417 500.918 267.844 500.918 267.168C500.918 266.504 501.034 265.926 501.268 265.434C501.501 264.939 501.826 264.556 502.243 264.286C502.659 264.013 503.14 263.877 503.686 263.877C504.108 263.877 504.442 263.947 504.69 264.088C504.94 264.226 505.132 264.383 505.264 264.561C505.399 264.735 505.503 264.878 505.576 264.991H505.677V263.961H506.639V270.629C506.639 271.186 506.513 271.638 506.26 271.987C506.009 272.339 505.672 272.596 505.247 272.76C504.825 272.925 504.355 273.008 503.838 273.008ZM503.804 269.447C504.203 269.447 504.541 269.356 504.817 269.173C505.092 268.99 505.302 268.727 505.445 268.384C505.589 268.04 505.661 267.63 505.661 267.151C505.661 266.685 505.59 266.272 505.45 265.915C505.309 265.558 505.101 265.278 504.825 265.075C504.549 264.873 504.209 264.772 503.804 264.772C503.382 264.772 503.03 264.878 502.749 265.092C502.47 265.306 502.261 265.593 502.12 265.953C501.982 266.313 501.913 266.713 501.913 267.151C501.913 267.602 501.984 268 502.124 268.346C502.268 268.689 502.479 268.959 502.757 269.156C503.039 269.35 503.387 269.447 503.804 269.447ZM509.458 266.544V270.443H508.462V263.961H509.424V264.974H509.509C509.661 264.645 509.891 264.381 510.201 264.181C510.51 263.978 510.91 263.877 511.399 263.877C511.838 263.877 512.222 263.967 512.551 264.147C512.88 264.324 513.136 264.594 513.319 264.957C513.502 265.317 513.594 265.773 513.594 266.324V270.443H512.598V266.392C512.598 265.883 512.466 265.486 512.201 265.202C511.937 264.915 511.574 264.772 511.112 264.772C510.795 264.772 510.51 264.84 510.26 264.978C510.012 265.116 509.817 265.317 509.673 265.582C509.53 265.846 509.458 266.167 509.458 266.544Z" fill="#212121"/>
<path d="M997.744 459.668L996.098 459.769C996.07 459.629 996.01 459.502 995.917 459.39C995.824 459.274 995.702 459.183 995.55 459.115C995.401 459.045 995.222 459.01 995.014 459.01C994.735 459.01 994.5 459.069 994.309 459.187C994.118 459.302 994.022 459.457 994.022 459.651C994.022 459.806 994.084 459.937 994.208 460.044C994.332 460.15 994.544 460.236 994.845 460.301L996.018 460.537C996.648 460.667 997.118 460.875 997.427 461.162C997.737 461.449 997.892 461.826 997.892 462.293C997.892 462.717 997.766 463.09 997.516 463.411C997.269 463.732 996.928 463.982 996.495 464.162C996.065 464.339 995.568 464.428 995.005 464.428C994.147 464.428 993.464 464.249 992.955 463.892C992.448 463.532 992.151 463.042 992.064 462.423L993.832 462.331C993.886 462.592 994.015 462.792 994.22 462.93C994.426 463.065 994.689 463.132 995.01 463.132C995.325 463.132 995.578 463.072 995.769 462.951C995.963 462.827 996.062 462.668 996.065 462.474C996.062 462.311 995.993 462.177 995.858 462.073C995.723 461.966 995.515 461.885 995.233 461.829L994.111 461.605C993.478 461.478 993.007 461.259 992.697 460.947C992.391 460.634 992.237 460.236 992.237 459.752C992.237 459.336 992.35 458.977 992.575 458.676C992.803 458.375 993.122 458.143 993.533 457.98C993.946 457.817 994.43 457.735 994.984 457.735C995.803 457.735 996.447 457.908 996.917 458.254C997.389 458.6 997.665 459.072 997.744 459.668ZM1001.95 464.428C1001.29 464.428 1000.72 464.287 1000.24 464.006C999.763 463.722 999.398 463.328 999.142 462.824C998.889 462.321 998.762 461.741 998.762 461.086C998.762 460.422 998.89 459.84 999.146 459.339C999.405 458.835 999.772 458.443 1000.25 458.162C1000.72 457.877 1001.29 457.735 1001.94 457.735C1002.51 457.735 1003 457.838 1003.43 458.043C1003.85 458.249 1004.19 458.537 1004.44 458.908C1004.69 459.28 1004.82 459.716 1004.85 460.217H1003.15C1003.1 459.893 1002.98 459.633 1002.77 459.436C1002.57 459.236 1002.3 459.136 1001.97 459.136C1001.69 459.136 1001.45 459.212 1001.24 459.364C1001.04 459.513 1000.88 459.731 1000.76 460.018C1000.65 460.305 1000.59 460.653 1000.59 461.061C1000.59 461.474 1000.65 461.826 1000.76 462.115C1000.87 462.405 1001.03 462.626 1001.24 462.778C1001.45 462.93 1001.69 463.006 1001.97 463.006C1002.18 463.006 1002.36 462.964 1002.53 462.879C1002.69 462.795 1002.83 462.672 1002.94 462.512C1003.04 462.349 1003.12 462.153 1003.15 461.926H1004.85C1004.82 462.421 1004.68 462.857 1004.44 463.234C1004.2 463.608 1003.87 463.9 1003.45 464.111C1003.03 464.322 1002.53 464.428 1001.95 464.428ZM1007.85 464.424C1007.43 464.424 1007.06 464.352 1006.74 464.208C1006.42 464.062 1006.16 463.847 1005.97 463.563C1005.79 463.276 1005.69 462.919 1005.69 462.491C1005.69 462.131 1005.76 461.829 1005.89 461.584C1006.02 461.339 1006.2 461.142 1006.43 460.993C1006.66 460.844 1006.92 460.731 1007.21 460.655C1007.5 460.579 1007.81 460.526 1008.13 460.495C1008.51 460.456 1008.81 460.419 1009.04 460.385C1009.27 460.349 1009.44 460.295 1009.54 460.225C1009.65 460.155 1009.7 460.051 1009.7 459.913V459.887C1009.7 459.62 1009.61 459.413 1009.45 459.267C1009.28 459.121 1009.04 459.048 1008.74 459.048C1008.41 459.048 1008.16 459.119 1007.96 459.263C1007.77 459.404 1007.65 459.581 1007.58 459.795L1005.92 459.66C1006.01 459.266 1006.17 458.925 1006.42 458.638C1006.67 458.349 1006.99 458.126 1007.38 457.972C1007.77 457.814 1008.23 457.735 1008.74 457.735C1009.1 457.735 1009.45 457.778 1009.78 457.862C1010.11 457.946 1010.4 458.077 1010.66 458.254C1010.92 458.432 1011.12 458.659 1011.27 458.938C1011.42 459.214 1011.5 459.544 1011.5 459.93V464.301H1009.79V463.402H1009.74C1009.64 463.605 1009.5 463.784 1009.32 463.938C1009.15 464.09 1008.94 464.21 1008.69 464.297C1008.45 464.381 1008.17 464.424 1007.85 464.424ZM1008.36 463.183C1008.63 463.183 1008.86 463.131 1009.06 463.027C1009.26 462.92 1009.42 462.777 1009.54 462.597C1009.65 462.416 1009.71 462.213 1009.71 461.985V461.297C1009.65 461.333 1009.58 461.367 1009.48 461.398C1009.38 461.426 1009.28 461.453 1009.15 461.478C1009.03 461.501 1008.91 461.522 1008.79 461.542C1008.67 461.558 1008.56 461.574 1008.46 461.588C1008.25 461.619 1008.07 461.668 1007.91 461.736C1007.75 461.803 1007.63 461.895 1007.54 462.01C1007.45 462.122 1007.41 462.263 1007.41 462.432C1007.41 462.677 1007.5 462.864 1007.68 462.993C1007.86 463.12 1008.09 463.183 1008.36 463.183ZM1014.69 455.659V464.301H1012.89V455.659H1014.69ZM1019.08 464.428C1018.42 464.428 1017.84 464.293 1017.36 464.023C1016.88 463.75 1016.51 463.364 1016.25 462.867C1016 462.366 1015.87 461.774 1015.87 461.09C1015.87 460.423 1016 459.838 1016.25 459.335C1016.51 458.831 1016.88 458.439 1017.35 458.157C1017.82 457.876 1018.37 457.735 1019.01 457.735C1019.44 457.735 1019.84 457.804 1020.2 457.942C1020.58 458.077 1020.9 458.281 1021.18 458.554C1021.45 458.827 1021.67 459.17 1021.82 459.584C1021.98 459.994 1022.06 460.475 1022.06 461.027V461.52H1016.58V460.406H1020.36C1020.36 460.148 1020.31 459.918 1020.2 459.719C1020.08 459.519 1019.93 459.363 1019.73 459.25C1019.53 459.135 1019.3 459.077 1019.04 459.077C1018.77 459.077 1018.53 459.141 1018.31 459.267C1018.11 459.391 1017.94 459.558 1017.82 459.769C1017.71 459.977 1017.65 460.21 1017.64 460.466V461.525C1017.64 461.845 1017.7 462.122 1017.82 462.356C1017.94 462.589 1018.11 462.77 1018.33 462.896C1018.55 463.023 1018.81 463.086 1019.11 463.086C1019.31 463.086 1019.49 463.058 1019.66 463.002C1019.83 462.945 1019.97 462.861 1020.09 462.748C1020.2 462.636 1020.29 462.498 1020.36 462.335L1022.02 462.445C1021.93 462.844 1021.76 463.193 1021.5 463.491C1021.24 463.786 1020.91 464.017 1020.5 464.183C1020.09 464.346 1019.62 464.428 1019.08 464.428ZM1030.14 461.542V457.82H1031.93V464.301H1030.21V463.124H1030.14C1029.99 463.504 1029.75 463.809 1029.41 464.04C1029.07 464.27 1028.66 464.386 1028.17 464.386C1027.74 464.386 1027.36 464.287 1027.03 464.09C1026.7 463.893 1026.44 463.613 1026.26 463.251C1026.08 462.888 1025.98 462.453 1025.98 461.947V457.82H1027.78V461.626C1027.78 462.009 1027.88 462.311 1028.09 462.533C1028.29 462.755 1028.56 462.867 1028.9 462.867C1029.12 462.867 1029.32 462.817 1029.51 462.719C1029.7 462.618 1029.85 462.469 1029.96 462.272C1030.08 462.075 1030.14 461.831 1030.14 461.542ZM1038.76 459.668L1037.12 459.769C1037.09 459.629 1037.03 459.502 1036.94 459.39C1036.84 459.274 1036.72 459.183 1036.57 459.115C1036.42 459.045 1036.24 459.01 1036.03 459.01C1035.76 459.01 1035.52 459.069 1035.33 459.187C1035.14 459.302 1035.04 459.457 1035.04 459.651C1035.04 459.806 1035.11 459.937 1035.23 460.044C1035.35 460.15 1035.57 460.236 1035.87 460.301L1037.04 460.537C1037.67 460.667 1038.14 460.875 1038.45 461.162C1038.76 461.449 1038.91 461.826 1038.91 462.293C1038.91 462.717 1038.79 463.09 1038.54 463.411C1038.29 463.732 1037.95 463.982 1037.52 464.162C1037.09 464.339 1036.59 464.428 1036.03 464.428C1035.17 464.428 1034.48 464.249 1033.98 463.892C1033.47 463.532 1033.17 463.042 1033.09 462.423L1034.85 462.331C1034.91 462.592 1035.04 462.792 1035.24 462.93C1035.45 463.065 1035.71 463.132 1036.03 463.132C1036.35 463.132 1036.6 463.072 1036.79 462.951C1036.98 462.827 1037.08 462.668 1037.09 462.474C1037.08 462.311 1037.01 462.177 1036.88 462.073C1036.74 461.966 1036.54 461.885 1036.25 461.829L1035.13 461.605C1034.5 461.478 1034.03 461.259 1033.72 460.947C1033.41 460.634 1033.26 460.236 1033.26 459.752C1033.26 459.336 1033.37 458.977 1033.6 458.676C1033.82 458.375 1034.14 458.143 1034.55 457.98C1034.97 457.817 1035.45 457.735 1036.01 457.735C1036.82 457.735 1037.47 457.908 1037.94 458.254C1038.41 458.6 1038.69 459.072 1038.76 459.668ZM1043.58 464.301V457.82H1044.58V464.301H1043.58ZM1044.09 456.74C1043.89 456.74 1043.73 456.673 1043.58 456.541C1043.45 456.409 1043.38 456.25 1043.38 456.064C1043.38 455.879 1043.45 455.72 1043.58 455.588C1043.73 455.455 1043.89 455.389 1044.09 455.389C1044.28 455.389 1044.45 455.455 1044.59 455.588C1044.73 455.72 1044.8 455.879 1044.8 456.064C1044.8 456.25 1044.73 456.409 1044.59 456.541C1044.45 456.673 1044.28 456.74 1044.09 456.74ZM1047.4 460.402V464.301H1046.4V457.82H1047.36V458.833H1047.45C1047.6 458.503 1047.83 458.239 1048.14 458.039C1048.45 457.837 1048.85 457.735 1049.34 457.735C1049.78 457.735 1050.16 457.825 1050.49 458.005C1050.82 458.183 1051.07 458.453 1051.26 458.816C1051.44 459.176 1051.53 459.631 1051.53 460.183V464.301H1050.54V460.25C1050.54 459.741 1050.4 459.344 1050.14 459.06C1049.87 458.773 1049.51 458.63 1049.05 458.63C1048.73 458.63 1048.45 458.699 1048.2 458.837C1047.95 458.975 1047.76 459.176 1047.61 459.44C1047.47 459.705 1047.4 460.025 1047.4 460.402ZM993.727 467.659V476.301H992.68V467.659H993.727ZM996.686 472.402V476.301H995.69V469.82H996.652V470.833H996.736C996.888 470.503 997.119 470.239 997.429 470.039C997.738 469.837 998.137 469.735 998.627 469.735C999.066 469.735 999.45 469.825 999.779 470.005C1000.11 470.183 1000.36 470.453 1000.55 470.816C1000.73 471.176 1000.82 471.631 1000.82 472.183V476.301H999.825V472.25C999.825 471.741 999.693 471.344 999.429 471.06C999.164 470.773 998.801 470.63 998.34 470.63C998.022 470.63 997.738 470.699 997.488 470.837C997.24 470.975 997.045 471.176 996.901 471.44C996.758 471.705 996.686 472.025 996.686 472.402ZM1005.09 476.436C1004.55 476.436 1004.07 476.3 1003.66 476.027C1003.24 475.751 1002.92 475.363 1002.69 474.862C1002.45 474.359 1002.34 473.764 1002.34 473.077C1002.34 472.397 1002.45 471.806 1002.69 471.305C1002.92 470.804 1003.25 470.418 1003.66 470.145C1004.08 469.872 1004.56 469.735 1005.11 469.735C1005.53 469.735 1005.86 469.806 1006.11 469.946C1006.35 470.084 1006.54 470.242 1006.67 470.419C1006.8 470.593 1006.91 470.737 1006.98 470.849H1007.06V467.659H1008.06V476.301H1007.1V475.305H1006.98C1006.91 475.424 1006.8 475.573 1006.67 475.753C1006.53 475.93 1006.34 476.089 1006.09 476.23C1005.84 476.367 1005.5 476.436 1005.09 476.436ZM1005.22 475.542C1005.62 475.542 1005.96 475.438 1006.24 475.229C1006.51 475.018 1006.72 474.727 1006.86 474.356C1007.01 473.982 1007.08 473.55 1007.08 473.061C1007.08 472.577 1007.01 472.153 1006.87 471.79C1006.73 471.425 1006.52 471.141 1006.24 470.938C1005.97 470.733 1005.63 470.63 1005.22 470.63C1004.8 470.63 1004.45 470.738 1004.17 470.955C1003.89 471.169 1003.68 471.46 1003.54 471.828C1003.4 472.194 1003.33 472.605 1003.33 473.061C1003.33 473.522 1003.4 473.941 1003.54 474.318C1003.69 474.692 1003.9 474.99 1004.18 475.213C1004.46 475.432 1004.81 475.542 1005.22 475.542ZM1010.02 476.301V469.82H1011.02V476.301H1010.02ZM1010.53 468.74C1010.33 468.74 1010.17 468.673 1010.03 468.541C1009.89 468.409 1009.82 468.25 1009.82 468.064C1009.82 467.879 1009.89 467.72 1010.03 467.588C1010.17 467.455 1010.33 467.389 1010.53 467.389C1010.72 467.389 1010.89 467.455 1011.03 467.588C1011.17 467.72 1011.24 467.879 1011.24 468.064C1011.24 468.25 1011.17 468.409 1011.03 468.541C1010.89 468.673 1010.72 468.74 1010.53 468.74ZM1014.75 476.453C1014.34 476.453 1013.96 476.376 1013.63 476.221C1013.3 476.064 1013.03 475.837 1012.83 475.542C1012.64 475.244 1012.54 474.883 1012.54 474.461C1012.54 474.09 1012.61 473.789 1012.76 473.558C1012.9 473.325 1013.1 473.142 1013.34 473.01C1013.59 472.878 1013.86 472.779 1014.15 472.715C1014.45 472.647 1014.75 472.594 1015.05 472.554C1015.45 472.504 1015.77 472.466 1016.01 472.44C1016.26 472.412 1016.44 472.366 1016.55 472.301C1016.67 472.236 1016.72 472.124 1016.72 471.963V471.93C1016.72 471.513 1016.61 471.19 1016.38 470.959C1016.16 470.728 1015.81 470.613 1015.36 470.613C1014.88 470.613 1014.51 470.717 1014.24 470.925C1013.97 471.134 1013.78 471.356 1013.67 471.592L1012.72 471.254C1012.89 470.861 1013.12 470.554 1013.4 470.335C1013.68 470.112 1013.99 469.958 1014.33 469.87C1014.66 469.78 1015 469.735 1015.32 469.735C1015.53 469.735 1015.77 469.761 1016.04 469.811C1016.31 469.859 1016.58 469.959 1016.83 470.111C1017.08 470.263 1017.3 470.492 1017.47 470.799C1017.63 471.105 1017.72 471.516 1017.72 472.031V476.301H1016.72V475.424H1016.67C1016.61 475.564 1016.49 475.715 1016.34 475.875C1016.18 476.035 1015.97 476.172 1015.71 476.284C1015.44 476.397 1015.13 476.453 1014.75 476.453ZM1014.9 475.559C1015.29 475.559 1015.63 475.481 1015.9 475.327C1016.17 475.172 1016.37 474.972 1016.51 474.727C1016.65 474.483 1016.72 474.225 1016.72 473.955V473.044C1016.68 473.094 1016.59 473.141 1016.44 473.183C1016.3 473.222 1016.14 473.257 1015.96 473.288C1015.77 473.317 1015.59 473.342 1015.42 473.364C1015.25 473.384 1015.11 473.401 1015 473.415C1014.74 473.449 1014.5 473.504 1014.28 473.58C1014.05 473.653 1013.87 473.764 1013.74 473.913C1013.6 474.059 1013.53 474.259 1013.53 474.512C1013.53 474.858 1013.66 475.12 1013.92 475.297C1014.18 475.471 1014.5 475.559 1014.9 475.559Z" fill="#212121"/>
<path d="M586.024 562.329L584.379 562.431C584.35 562.29 584.29 562.163 584.197 562.051C584.104 561.936 583.982 561.844 583.83 561.777C583.681 561.706 583.502 561.671 583.294 561.671C583.016 561.671 582.781 561.73 582.589 561.848C582.398 561.964 582.302 562.118 582.302 562.313C582.302 562.467 582.364 562.598 582.488 562.705C582.612 562.812 582.824 562.898 583.125 562.962L584.298 563.199C584.929 563.328 585.398 563.536 585.708 563.823C586.017 564.11 586.172 564.487 586.172 564.954C586.172 565.379 586.047 565.752 585.796 566.072C585.549 566.393 585.208 566.643 584.775 566.823C584.345 567.001 583.848 567.089 583.286 567.089C582.428 567.089 581.744 566.911 581.235 566.553C580.728 566.193 580.432 565.704 580.344 565.085L582.113 564.992C582.166 565.254 582.295 565.453 582.501 565.591C582.706 565.726 582.969 565.794 583.29 565.794C583.605 565.794 583.858 565.733 584.049 565.612C584.244 565.489 584.342 565.33 584.345 565.136C584.342 564.972 584.273 564.839 584.138 564.735C584.003 564.628 583.795 564.546 583.513 564.49L582.391 564.266C581.758 564.14 581.287 563.92 580.977 563.608C580.671 563.296 580.517 562.898 580.517 562.414C580.517 561.997 580.63 561.639 580.855 561.338C581.083 561.037 581.402 560.805 581.813 560.641C582.226 560.478 582.71 560.397 583.265 560.397C584.083 560.397 584.727 560.57 585.197 560.916C585.67 561.262 585.945 561.733 586.024 562.329ZM590.232 567.089C589.568 567.089 588.997 566.949 588.519 566.667C588.044 566.383 587.678 565.989 587.422 565.486C587.169 564.982 587.042 564.403 587.042 563.747C587.042 563.083 587.17 562.501 587.426 562C587.685 561.497 588.052 561.104 588.528 560.823C589.003 560.539 589.568 560.397 590.224 560.397C590.789 560.397 591.284 560.499 591.709 560.705C592.134 560.91 592.47 561.198 592.718 561.57C592.965 561.941 593.102 562.377 593.127 562.878H591.431C591.383 562.554 591.256 562.294 591.051 562.097C590.848 561.898 590.583 561.798 590.253 561.798C589.975 561.798 589.732 561.874 589.523 562.026C589.318 562.175 589.158 562.393 589.042 562.68C588.927 562.967 588.869 563.314 588.869 563.722C588.869 564.135 588.926 564.487 589.038 564.777C589.154 565.067 589.315 565.287 589.523 565.439C589.732 565.591 589.975 565.667 590.253 565.667C590.459 565.667 590.643 565.625 590.806 565.541C590.972 565.456 591.109 565.334 591.216 565.173C591.325 565.01 591.397 564.815 591.431 564.587H593.127C593.099 565.082 592.964 565.518 592.722 565.895C592.483 566.269 592.152 566.562 591.73 566.773C591.308 566.984 590.809 567.089 590.232 567.089ZM596.126 567.085C595.713 567.085 595.344 567.013 595.021 566.87C594.697 566.724 594.441 566.508 594.253 566.224C594.067 565.937 593.974 565.58 593.974 565.152C593.974 564.792 594.04 564.49 594.173 564.245C594.305 564 594.485 563.803 594.713 563.654C594.941 563.505 595.199 563.393 595.489 563.317C595.782 563.241 596.088 563.187 596.409 563.156C596.786 563.117 597.09 563.08 597.32 563.047C597.551 563.01 597.718 562.957 597.823 562.886C597.927 562.816 597.979 562.712 597.979 562.574V562.549C597.979 562.282 597.894 562.075 597.726 561.929C597.56 561.782 597.323 561.709 597.017 561.709C596.693 561.709 596.436 561.781 596.244 561.924C596.053 562.065 595.927 562.242 595.865 562.456L594.202 562.321C594.286 561.927 594.452 561.587 594.7 561.3C594.948 561.01 595.267 560.788 595.658 560.633C596.052 560.476 596.507 560.397 597.025 560.397C597.385 560.397 597.73 560.439 598.059 560.523C598.391 560.608 598.685 560.739 598.941 560.916C599.2 561.093 599.404 561.321 599.553 561.599C599.702 561.875 599.776 562.206 599.776 562.591V566.963H598.072V566.064H598.021C597.917 566.266 597.778 566.445 597.603 566.6C597.429 566.752 597.219 566.871 596.974 566.958C596.73 567.043 596.447 567.085 596.126 567.085ZM596.641 565.844C596.905 565.844 597.139 565.792 597.342 565.688C597.544 565.581 597.703 565.438 597.818 565.258C597.934 565.078 597.991 564.874 597.991 564.646V563.958C597.935 563.995 597.858 564.029 597.759 564.059C597.664 564.088 597.555 564.114 597.434 564.14C597.313 564.162 597.192 564.183 597.071 564.203C596.951 564.22 596.841 564.235 596.742 564.249C596.531 564.28 596.347 564.33 596.19 564.397C596.032 564.465 595.91 564.556 595.822 564.671C595.735 564.784 595.692 564.925 595.692 565.093C595.692 565.338 595.78 565.525 595.957 565.655C596.138 565.781 596.365 565.844 596.641 565.844ZM602.969 558.321V566.963H601.171V558.321H602.969ZM607.362 567.089C606.696 567.089 606.122 566.954 605.641 566.684C605.162 566.411 604.794 566.026 604.535 565.528C604.276 565.027 604.147 564.435 604.147 563.751C604.147 563.085 604.276 562.5 604.535 561.996C604.794 561.492 605.158 561.1 605.628 560.819C606.101 560.537 606.655 560.397 607.291 560.397C607.718 560.397 608.116 560.466 608.485 560.604C608.856 560.739 609.18 560.943 609.455 561.215C609.734 561.488 609.95 561.831 610.105 562.245C610.26 562.656 610.337 563.137 610.337 563.688V564.182H604.864V563.068H608.645C608.645 562.809 608.589 562.58 608.476 562.38C608.364 562.18 608.208 562.024 608.008 561.912C607.811 561.796 607.582 561.739 607.32 561.739C607.047 561.739 606.805 561.802 606.594 561.929C606.386 562.052 606.223 562.22 606.105 562.431C605.987 562.639 605.926 562.871 605.923 563.127V564.186C605.923 564.507 605.982 564.784 606.101 565.017C606.222 565.251 606.392 565.431 606.611 565.557C606.831 565.684 607.091 565.747 607.392 565.747C607.592 565.747 607.774 565.719 607.94 565.663C608.106 565.607 608.248 565.522 608.367 565.41C608.485 565.297 608.575 565.159 608.637 564.996L610.299 565.106C610.215 565.505 610.042 565.854 609.78 566.152C609.521 566.448 609.187 566.679 608.776 566.844C608.368 567.008 607.897 567.089 607.362 567.089ZM618.417 564.203V560.481H620.215V566.963H618.489V565.785H618.421C618.275 566.165 618.032 566.47 617.691 566.701C617.354 566.932 616.941 567.047 616.455 567.047C616.022 567.047 615.64 566.949 615.311 566.752C614.982 566.555 614.725 566.275 614.539 565.912C614.356 565.549 614.263 565.114 614.261 564.608V560.481H616.058V564.287C616.061 564.67 616.164 564.972 616.366 565.195C616.569 565.417 616.84 565.528 617.181 565.528C617.397 565.528 617.6 565.479 617.788 565.38C617.977 565.279 618.129 565.13 618.244 564.933C618.362 564.736 618.42 564.493 618.417 564.203ZM627.045 562.329L625.4 562.431C625.371 562.29 625.311 562.163 625.218 562.051C625.125 561.936 625.003 561.844 624.851 561.777C624.702 561.706 624.523 561.671 624.315 561.671C624.037 561.671 623.802 561.73 623.61 561.848C623.419 561.964 623.323 562.118 623.323 562.313C623.323 562.467 623.385 562.598 623.509 562.705C623.633 562.812 623.845 562.898 624.146 562.962L625.319 563.199C625.95 563.328 626.419 563.536 626.729 563.823C627.038 564.11 627.193 564.487 627.193 564.954C627.193 565.379 627.068 565.752 626.817 566.072C626.57 566.393 626.229 566.643 625.796 566.823C625.366 567.001 624.869 567.089 624.307 567.089C623.449 567.089 622.765 566.911 622.256 566.553C621.749 566.193 621.453 565.704 621.365 565.085L623.134 564.992C623.187 565.254 623.316 565.453 623.522 565.591C623.727 565.726 623.99 565.794 624.311 565.794C624.626 565.794 624.879 565.733 625.07 565.612C625.265 565.489 625.363 565.33 625.366 565.136C625.363 564.972 625.294 564.839 625.159 564.735C625.024 564.628 624.816 564.546 624.535 564.49L623.412 564.266C622.779 564.14 622.308 563.92 621.998 563.608C621.692 563.296 621.538 562.898 621.538 562.414C621.538 561.997 621.651 561.639 621.876 561.338C622.104 561.037 622.423 560.805 622.834 560.641C623.247 560.478 623.731 560.397 624.286 560.397C625.104 560.397 625.748 560.57 626.218 560.916C626.691 561.262 626.966 561.733 627.045 562.329ZM631.861 566.963V560.481H632.857V566.963H631.861ZM632.367 559.401C632.173 559.401 632.006 559.335 631.865 559.203C631.727 559.07 631.658 558.911 631.658 558.726C631.658 558.54 631.727 558.381 631.865 558.249C632.006 558.117 632.173 558.051 632.367 558.051C632.561 558.051 632.727 558.117 632.865 558.249C633.006 558.381 633.076 558.54 633.076 558.726C633.076 558.911 633.006 559.07 632.865 559.203C632.727 559.335 632.561 559.401 632.367 559.401ZM635.677 563.064V566.963H634.681V560.481H635.643V561.494H635.727C635.879 561.165 636.11 560.9 636.419 560.701C636.729 560.498 637.128 560.397 637.618 560.397C638.057 560.397 638.441 560.487 638.77 560.667C639.099 560.844 639.355 561.114 639.538 561.477C639.721 561.837 639.812 562.293 639.812 562.844V566.963H638.816V562.912C638.816 562.403 638.684 562.006 638.42 561.722C638.155 561.435 637.792 561.291 637.331 561.291C637.013 561.291 636.729 561.36 636.478 561.498C636.231 561.636 636.035 561.837 635.892 562.102C635.748 562.366 635.677 562.687 635.677 563.064ZM585.417 573.933L584.522 574.186C584.466 574.037 584.383 573.892 584.273 573.751C584.166 573.608 584.02 573.49 583.834 573.397C583.649 573.304 583.411 573.258 583.121 573.258C582.724 573.258 582.394 573.349 582.129 573.532C581.868 573.712 581.737 573.941 581.737 574.22C581.737 574.467 581.827 574.663 582.007 574.806C582.187 574.95 582.468 575.069 582.851 575.165L583.813 575.401C584.393 575.542 584.824 575.757 585.109 576.047C585.393 576.334 585.535 576.704 585.535 577.157C585.535 577.528 585.428 577.86 585.214 578.152C585.003 578.445 584.708 578.676 584.328 578.844C583.948 579.013 583.506 579.098 583.003 579.098C582.342 579.098 581.795 578.954 581.361 578.667C580.928 578.38 580.654 577.961 580.539 577.41L581.484 577.173C581.574 577.522 581.744 577.784 581.994 577.958C582.248 578.133 582.578 578.22 582.986 578.22C583.45 578.22 583.819 578.122 584.092 577.925C584.367 577.725 584.505 577.486 584.505 577.207C584.505 576.982 584.426 576.794 584.269 576.642C584.111 576.487 583.869 576.372 583.543 576.296L582.463 576.043C581.869 575.902 581.433 575.684 581.155 575.389C580.879 575.09 580.741 574.718 580.741 574.27C580.741 573.905 580.844 573.581 581.049 573.3C581.257 573.018 581.54 572.798 581.897 572.637C582.257 572.477 582.665 572.397 583.121 572.397C583.762 572.397 584.266 572.537 584.632 572.819C585 573.1 585.262 573.471 585.417 573.933ZM589.853 572.481V573.325H586.494V572.481H589.853ZM587.473 570.928H588.469V577.106C588.469 577.387 588.509 577.598 588.591 577.739C588.675 577.877 588.782 577.97 588.912 578.017C589.044 578.062 589.183 578.085 589.329 578.085C589.439 578.085 589.529 578.079 589.599 578.068C589.67 578.054 589.726 578.043 589.768 578.034L589.971 578.929C589.903 578.954 589.809 578.98 589.688 579.005C589.567 579.033 589.414 579.047 589.228 579.047C588.947 579.047 588.671 578.987 588.401 578.866C588.134 578.745 587.911 578.56 587.734 578.313C587.56 578.065 587.473 577.753 587.473 577.376V570.928ZM591.992 581.393C591.823 581.393 591.673 581.379 591.54 581.351C591.408 581.326 591.317 581.3 591.266 581.275L591.519 580.397C591.761 580.459 591.975 580.482 592.161 580.465C592.346 580.448 592.511 580.365 592.654 580.216C592.801 580.07 592.934 579.832 593.055 579.503L593.241 578.996L590.844 572.481H591.924L593.714 577.646H593.781L595.57 572.481H596.651L593.899 579.908C593.776 580.243 593.622 580.52 593.439 580.739C593.256 580.961 593.044 581.126 592.802 581.233C592.563 581.34 592.293 581.393 591.992 581.393ZM598.961 570.321V578.963H597.965V570.321H598.961ZM603.502 579.098C602.878 579.098 602.339 578.96 601.886 578.684C601.436 578.406 601.089 578.017 600.844 577.52C600.602 577.019 600.481 576.436 600.481 575.773C600.481 575.109 600.602 574.523 600.844 574.017C601.089 573.508 601.429 573.111 601.865 572.827C602.304 572.54 602.816 572.397 603.401 572.397C603.739 572.397 604.072 572.453 604.401 572.566C604.73 572.678 605.03 572.861 605.3 573.114C605.57 573.364 605.785 573.696 605.946 574.11C606.106 574.523 606.186 575.033 606.186 575.638V576.059H601.19V575.199H605.173C605.173 574.833 605.1 574.507 604.954 574.22C604.81 573.933 604.605 573.706 604.338 573.54C604.073 573.374 603.761 573.291 603.401 573.291C603.004 573.291 602.661 573.39 602.371 573.587C602.085 573.781 601.864 574.034 601.709 574.346C601.554 574.659 601.477 574.993 601.477 575.351V575.924C601.477 576.414 601.561 576.829 601.73 577.169C601.902 577.507 602.139 577.764 602.443 577.941C602.747 578.116 603.1 578.203 603.502 578.203C603.764 578.203 604 578.167 604.211 578.093C604.425 578.017 604.609 577.905 604.764 577.756C604.919 577.604 605.038 577.415 605.123 577.19L606.085 577.46C605.984 577.787 605.813 578.074 605.574 578.321C605.335 578.566 605.04 578.757 604.688 578.895C604.336 579.03 603.941 579.098 603.502 579.098Z" fill="#212121"/>
<path d="M403.203 671.046C407.271 673.134 410.514 676.65 412.944 681.546C412.975 681.607 413.289 682.224 413.354 682.353C414.048 683.749 414.389 684.681 414.606 685.592L412.387 690.078C411.253 692.371 407.858 691.931 407.344 689.425L405.978 682.762C405.713 681.466 404.545 680.554 403.223 680.615L391.062 681.191C388.002 681.334 387.139 677.06 390.008 675.985L403.203 671.046Z" fill="#7309DD"/>
<path d="M421.307 664.79C422.824 665.2 423.831 666.955 423.021 668.593L415.807 683.168C415.584 682.64 415.394 682.158 415.066 681.498C415 681.366 414.698 680.754 414.669 680.694C412.366 676.054 409.354 672.494 405.598 670.144L419.668 664.877C420.238 664.663 420.802 664.653 421.307 664.79Z" fill="#7309DD"/>
<path d="M395.088 663.665C397.272 664.25 398.57 666.497 397.985 668.68C397.399 670.864 395.153 672.157 392.969 671.571C390.785 670.986 389.491 668.745 390.076 666.561C390.661 664.378 392.904 663.079 395.088 663.665Z" fill="#7309DD"/>
<path d="M412.742 657.035C414.926 657.62 416.22 659.862 415.635 662.046C415.05 664.229 412.807 665.527 410.623 664.942C408.439 664.357 407.141 662.11 407.727 659.927C408.312 657.743 410.558 656.45 412.742 657.035Z" fill="#7309DD"/>
<path d="M1020.78 154.301C1024.85 156.389 1028.1 159.905 1030.53 164.801C1030.56 164.862 1030.87 165.479 1030.93 165.608C1031.63 167.004 1031.97 167.936 1032.19 168.847L1029.97 173.333C1028.83 175.627 1025.44 175.186 1024.93 172.68L1023.56 166.017C1023.29 164.721 1022.13 163.809 1020.8 163.87L1008.64 164.447C1005.58 164.589 1004.72 160.315 1007.59 159.241L1020.78 154.301Z" fill="#7309DD"/>
<path d="M1038.89 148.045C1040.4 148.456 1041.41 150.21 1040.6 151.848L1033.39 166.423C1033.16 165.895 1032.97 165.413 1032.65 164.753C1032.58 164.621 1032.28 164.009 1032.25 163.949C1029.95 159.309 1026.94 155.749 1023.18 153.399L1037.25 148.132C1037.82 147.918 1038.38 147.908 1038.89 148.045Z" fill="#7309DD"/>
<path d="M1012.67 146.92C1014.85 147.505 1016.15 149.752 1015.57 151.935C1014.98 154.119 1012.73 155.412 1010.55 154.827C1008.37 154.241 1007.07 152 1007.66 149.816C1008.24 147.633 1010.49 146.334 1012.67 146.92Z" fill="#7309DD"/>
<path d="M1030.32 140.29C1032.51 140.876 1033.8 143.117 1033.22 145.301C1032.63 147.484 1030.39 148.783 1028.2 148.197C1026.02 147.612 1024.72 145.365 1025.31 143.182C1025.89 140.998 1028.14 139.705 1030.32 140.29Z" fill="#7309DD"/>
</g>
<rect x="250.938" y="210.417" width="101.236" height="100.985" rx="27.097" fill="white"/>
<rect x="1178.32" y="210.417" width="101.236" height="100.985" rx="27.097" fill="white"/>
<rect x="250.938" y="107.438" width="101.236" height="100.985" rx="27.097" fill="white"/>
<rect x="1178.32" y="107.438" width="101.236" height="100.985" rx="27.097" fill="white"/>
<rect x="250.938" y="622.337" width="101.236" height="100.985" rx="27.097" fill="white"/>
<rect x="1178.32" y="622.337" width="101.236" height="100.985" rx="27.097" fill="white"/>
<rect x="250.938" y="416.377" width="101.236" height="100.985" rx="27.097" fill="white"/>
<rect x="1178.32" y="416.377" width="101.236" height="100.985" rx="27.097" fill="white"/>
<rect x="250.938" y="313.398" width="101.236" height="100.985" rx="27.097" fill="white"/>
<rect x="1178.32" y="313.398" width="101.236" height="100.985" rx="27.097" fill="white"/>
<rect x="250.938" y="519.357" width="101.236" height="100.985" rx="27.097" fill="white"/>
<rect x="1178.32" y="519.357" width="101.236" height="100.985" rx="27.097" fill="white"/>
<defs>
<clipPath id="clip0_507_1375">
<rect width="821.745" height="679.38" fill="white" transform="translate(354.584 75.6892)"/>
</clipPath>
</defs>
</svg>
