<svg width="190" height="189" viewBox="0 0 190 189" fill="none" xmlns="http://www.w3.org/2000/svg">
<g filter="url(#filter0_d_507_1386)">
<g clip-path="url(#clip0_507_1386)">
<path d="M98.4351 180.537C148.073 180.537 188.312 140.298 188.312 90.6602C188.312 41.0228 148.073 0.783691 98.4351 0.783691C48.7977 0.783691 8.55859 41.0228 8.55859 90.6602C8.55859 140.298 48.7977 180.537 98.4351 180.537Z" fill="white"/>
<g clip-path="url(#clip1_507_1386)">
<path d="M98.4351 180.537C148.073 180.537 188.312 140.298 188.312 90.6602C188.312 41.0228 148.073 0.783691 98.4351 0.783691C48.7977 0.783691 8.55859 41.0228 8.55859 90.6602C8.55859 140.298 48.7977 180.537 98.4351 180.537Z" fill="white"/>
<path d="M96.735 163.851L95.2637 162.662L96.8304 161.381L96.8211 161.28L94.8066 160.936L95.455 159.137L97.1874 160.254L97.2609 160.215L96.9616 158.197L98.8884 158.293L98.3884 160.272L98.4719 160.319L100.265 159.378L100.757 161.249L98.7479 161.377L98.7286 161.476L100.145 162.907L98.5625 163.929L97.7844 162.044L97.6844 162.039L96.735 163.851Z" fill="#212121"/>
<path d="M85.0507 150.742C88.3584 151.334 90.1919 153.287 90.6549 155.762L87.2276 157.007C86.8985 155.601 86.0879 154.55 84.3103 154.233C82.6001 153.927 82.0519 154.525 81.9432 155.133C81.7701 156.1 82.6018 156.644 84.8477 157.719C87.0712 158.79 89.1651 160.326 88.6258 163.341C88.0824 166.379 85.2033 167.675 82.4805 167.188C79.8928 166.725 78.089 165.125 77.356 162.602L80.7117 161.368C81.0505 162.59 81.6683 163.42 83.1084 163.678C84.2335 163.879 84.8967 163.417 85.0094 162.787C85.1382 162.067 84.8442 161.504 82.5243 160.322C80.2679 159.176 77.7391 157.864 78.3348 154.534C78.8782 151.496 81.6304 150.131 85.0507 150.742Z" fill="#212121"/>
<path d="M72.3391 146.845C75.5591 148.151 76.9652 151.558 75.6854 154.714C74.4056 157.871 71.0241 159.336 67.8042 158.031C65.7493 157.197 64.3655 155.378 64.116 153.378L67.5438 152.893C67.6033 153.781 68.1856 154.535 69.1177 154.913C70.4946 155.471 71.9152 154.887 72.5078 153.426C73.1004 151.964 72.4873 150.556 71.1103 149.998C70.1782 149.62 69.2141 149.747 68.5745 150.351L66.4436 147.637C68.0244 146.354 70.2631 146.004 72.3391 146.845Z" fill="#212121"/>
<path d="M54.6465 150.363L51.774 148.49L58.0153 138.915L60.8878 140.788L60.3011 141.688C61.4074 141.372 62.6328 141.543 63.9158 142.379C66.4245 144.015 67.0572 147.565 65.1973 150.418C63.3374 153.272 59.8337 154.126 57.325 152.491C56.042 151.654 55.3908 150.602 55.2332 149.463L54.6465 150.363ZM61.5688 144.724C60.2475 143.863 58.7033 144.139 57.7671 145.575C56.8309 147.011 57.2017 148.536 58.5231 149.397C59.8444 150.258 61.3886 149.982 62.3248 148.546C63.261 147.11 62.8902 145.586 61.5688 144.724Z" fill="#212121"/>
<path d="M57.3488 138.033L46.3003 150.539L43.7307 148.269L54.7792 135.763L57.3488 138.033Z" fill="#212121"/>
<path d="M47.5334 134.595C48.1608 133.496 47.7961 132.427 46.9845 131.467C46.3794 130.752 45.5836 130.377 44.9044 130.352L44.3381 127.239C46.2482 127.091 47.9513 127.866 49.3533 129.525C51.8768 132.51 51.4335 136.057 48.8324 138.256C46.2313 140.455 42.6299 140.267 40.2982 137.509C38.1437 134.96 38.5225 131.407 41.1585 129.179C41.5251 128.869 41.9038 128.609 42.2945 128.398L47.5334 134.595ZM45.6225 136.3L42.4496 132.547C41.6732 133.682 41.9707 134.778 42.6348 135.563C43.476 136.558 44.5256 136.809 45.6225 136.3Z" fill="#212121"/>
<path d="M42.4118 119.079C44.0549 122.192 43.4732 125.498 40.4407 127.098L30.8583 132.155L29.1512 128.921L38.4506 124.013C39.522 123.447 40.165 122.462 39.2581 120.743C38.3512 119.025 37.1747 119 36.1033 119.565L26.8039 124.473L25.0967 121.239L34.6792 116.181C37.7116 114.581 40.7687 115.966 42.4118 119.079Z" fill="#212121"/>
<path d="M29.7511 110.076C31.0061 109.725 28.6575 104.543 32.7307 103.405C35.2627 102.699 36.9561 104.599 37.6199 106.977C38.2345 109.179 37.865 111.086 36.3213 112.442L33.893 110.035C34.6498 109.515 34.94 108.769 34.6696 107.801C34.4483 107.008 34.0955 106.679 33.6552 106.802C32.4442 107.14 34.5947 112.378 30.7857 113.442C28.3858 114.112 26.6094 112.424 25.9702 110.134C25.4724 108.351 25.8225 106.544 27.1276 105.183L29.4335 107.577C28.9471 108.045 28.6737 108.596 28.8765 109.323C29.0363 109.895 29.3548 110.186 29.7511 110.076Z" fill="#212121"/>
<path d="M21.1203 88.1666L23.1314 88.1201L22.9733 90.1816L24.5211 88.8881L25.6109 90.532L23.6907 91.5369L25.6554 92.4517L24.6428 94.1443L23.0369 92.9239L23.2902 94.9759L21.2791 95.0225L21.4372 92.961L19.8894 94.2544L18.7996 92.6105L20.7198 91.6057L18.7551 90.6909L19.7677 88.9982L21.3736 90.2186L21.1203 88.1666Z" fill="#212121"/>
<path d="M37.4553 74.9017C36.6257 78.158 34.5447 79.8452 32.043 80.1278L31.0496 76.6195C32.4755 76.393 33.5821 75.6606 34.0279 73.9106C34.4568 72.2271 33.8994 71.6369 33.3014 71.4845C32.3488 71.2419 31.7465 72.032 30.5116 74.1943C29.2823 76.3343 27.5991 78.3116 24.6308 77.5554C21.6404 76.7936 20.5559 73.8282 21.2388 71.1478C21.8877 68.6004 23.614 66.9172 26.1834 66.3687L27.1715 69.805C25.9285 70.0544 25.0556 70.6105 24.6944 72.0282C24.4122 73.1358 24.8249 73.8306 25.4452 73.9886C26.154 74.1692 26.7373 73.9168 28.0834 71.6885C29.3904 69.5211 30.8816 67.0938 34.16 67.929C37.1504 68.6909 38.3131 71.5347 37.4553 74.9017Z" fill="#212121"/>
<path d="M42.1975 62.5831C40.6675 65.7027 37.1699 66.8642 34.1119 65.3644C31.0539 63.8646 29.8311 60.3879 31.3611 57.2683C32.3375 55.2776 34.2499 54.0259 36.263 53.9185L36.5042 57.372C35.6147 57.3686 34.8214 57.8961 34.3785 58.7991C33.7242 60.1332 34.2056 61.5914 35.6217 62.2859C37.0379 62.9805 38.4856 62.4684 39.1399 61.1344C39.5828 60.2314 39.5242 59.2606 38.967 58.5799L41.8248 56.6463C42.9928 58.3139 43.1839 60.5718 42.1975 62.5831Z" fill="#212121"/>
<path d="M39.9916 44.5892L42.0688 41.8612L51.1622 48.7853L49.0849 51.5133L48.2301 50.8625C48.4642 51.9889 48.204 53.1985 47.2761 54.417C45.462 56.7995 41.8749 57.1711 39.1651 55.1077C36.4553 53.0443 35.8594 49.4876 37.6736 47.1051C38.6014 45.8866 39.6983 45.314 40.8464 45.2401L39.9916 44.5892ZM45.1091 51.905C46.0646 50.6501 45.9023 49.0899 44.5383 48.0513C43.1742 47.0126 41.6271 47.2711 40.6715 48.526C39.716 49.7809 39.8783 51.3411 41.2423 52.3797C42.6063 53.4183 44.1535 53.1599 45.1091 51.905Z" fill="#212121"/>
<path d="M51.8487 48.3897L40.1353 36.5047L42.5774 34.0979L54.2908 45.9828L51.8487 48.3897Z" fill="#212121"/>
<path d="M55.9891 38.7592C57.0422 39.4612 58.1335 39.1714 59.1475 38.4281C59.9034 37.874 60.3324 37.106 60.4038 36.4301L63.5487 36.0805C63.5643 37.9964 62.673 39.6417 60.9215 40.9256C57.7689 43.2365 54.2605 42.5488 52.2469 39.8018C50.2333 37.0548 50.6703 33.4751 53.5832 31.3399C56.2749 29.3668 59.7932 29.9906 61.8338 32.7744C62.1176 33.1616 62.351 33.5574 62.534 33.9617L55.9891 38.7592ZM54.4203 36.7349L58.3841 33.8294C57.3053 32.9763 56.1918 33.1973 55.3622 33.8054C54.3113 34.5757 53.9891 35.6055 54.4203 36.7349Z" fill="#212121"/>
<path d="M72.1404 34.5383C68.9138 35.9459 65.6607 35.1204 64.2898 31.9776L59.9574 22.0463L63.3098 20.5839L67.5141 30.2219C67.9986 31.3324 68.9337 32.0467 70.7146 31.2698C72.4955 30.4929 72.608 29.3216 72.1236 28.2111L67.9193 18.5731L71.2716 17.1107L75.6039 27.0421C76.9749 30.1849 75.3671 33.1308 72.1404 34.5383Z" fill="#212121"/>
<path d="M81.7891 22.6157C82.0479 23.8927 87.3867 21.9245 88.2265 26.0692C88.7486 28.6456 86.7307 30.1974 84.3111 30.6877C82.0708 31.1417 80.1956 30.6354 78.9541 28.9977L81.5306 26.7497C81.9944 27.542 82.717 27.8854 83.7028 27.6856C84.5093 27.5222 84.8626 27.194 84.7718 26.7459C84.5222 25.5137 79.1425 27.2803 78.3571 23.4044C77.8623 20.9625 79.6737 19.3126 82.0037 18.8404C83.8184 18.4727 85.5949 18.9524 86.8582 20.3523L84.3037 22.4793C83.8721 21.9604 83.3423 21.6479 82.6029 21.7977C82.0205 21.9157 81.7074 22.2124 81.7891 22.6157Z" fill="#212121"/>
<path d="M107.029 30.5799C103.722 29.9883 101.888 28.0348 101.425 25.5601L104.852 24.3154C105.182 25.7212 105.992 26.7718 107.77 27.0898C109.48 27.3957 110.028 26.7971 110.137 26.1895C110.31 25.222 109.478 24.6784 107.232 23.6033C105.009 22.5321 102.915 20.9965 103.454 17.9812C103.998 14.9435 106.877 13.6472 109.6 14.1342C112.187 14.5971 113.991 16.1969 114.724 18.7199L111.368 19.9542C111.03 18.7325 110.412 17.9021 108.972 17.6445C107.847 17.4432 107.183 17.9052 107.071 18.5352C106.942 19.2553 107.236 19.8187 109.556 21C111.812 22.1467 114.341 23.4583 113.745 26.7885C113.202 29.8263 110.45 31.1917 107.029 30.5799Z" fill="#212121"/>
<path d="M119.741 34.4768C116.521 33.1713 115.115 29.7646 116.395 26.6081C117.674 23.4517 121.056 21.9861 124.276 23.2917C126.331 24.1248 127.715 25.9438 127.964 27.9443L124.536 28.4291C124.477 27.5417 123.894 26.7876 122.962 26.4097C121.585 25.8514 120.165 26.4348 119.572 27.8965C118.98 29.3582 119.593 30.7661 120.97 31.3244C121.902 31.7023 122.866 31.5752 123.506 30.9712L125.636 33.6852C124.056 34.9682 121.817 35.3185 119.741 34.4768Z" fill="#212121"/>
<path d="M137.434 30.9597L140.306 32.832L134.065 42.407L131.192 40.5346L131.779 39.6345C130.673 39.9503 129.447 39.7791 128.164 38.9428C125.656 37.3076 125.023 33.7572 126.883 30.9039C128.743 28.0506 132.246 27.1964 134.755 28.8317C136.038 29.668 136.689 30.7201 136.847 31.8597L137.434 30.9597ZM130.511 36.598C131.833 37.4593 133.377 37.1834 134.313 35.7471C135.249 34.3109 134.878 32.7867 133.557 31.9254C132.236 31.0641 130.691 31.34 129.755 32.7763C128.819 34.2125 129.19 35.7367 130.511 36.598Z" fill="#212121"/>
<path d="M134.731 43.2888L145.78 30.7833L148.349 33.0535L137.301 45.5591L134.731 43.2888Z" fill="#212121"/>
<path d="M144.547 46.7266C143.919 47.8256 144.284 48.8943 145.096 49.8544C145.701 50.5702 146.496 50.9451 147.176 50.9695L147.742 54.0826C145.832 54.2308 144.129 53.4554 142.727 51.797C140.203 48.8119 140.647 45.2643 143.248 43.0654C145.849 40.8666 149.45 41.0548 151.782 43.8131C153.936 46.3618 153.558 49.9148 150.922 52.1431C150.555 52.453 150.176 52.7133 149.786 52.9238L144.547 46.7266ZM146.458 45.0214L149.63 48.7746C150.407 47.6394 150.109 46.5439 149.445 45.7583C148.604 44.7633 147.555 44.5131 146.458 45.0214Z" fill="#212121"/>
<path d="M149.668 62.2432C148.025 59.13 148.607 55.8246 151.639 54.2242L161.222 49.1668L162.929 52.4014L153.629 57.3094C152.558 57.8749 151.915 58.8604 152.822 60.5788C153.729 62.2972 154.905 62.3224 155.977 61.757L165.276 56.849L166.983 60.0835L157.401 65.1409C154.368 66.7413 151.311 65.3565 149.668 62.2432Z" fill="#212121"/>
<path d="M162.329 71.2472C161.074 71.5976 163.423 76.7802 159.349 77.9173C156.817 78.6241 155.124 76.7235 154.46 74.3457C153.846 72.1439 154.215 70.2371 155.759 68.8806L158.187 71.288C157.43 71.8078 157.14 72.5533 157.41 73.5221C157.632 74.3147 157.985 74.6434 158.425 74.5205C159.636 74.1824 157.485 68.9445 161.294 67.8812C163.694 67.2112 165.471 68.8988 166.11 71.1886C166.608 72.972 166.258 74.7785 164.952 76.1396L162.647 73.7454C163.133 73.2774 163.406 72.7264 163.204 71.9999C163.044 71.4274 162.725 71.1366 162.329 71.2472Z" fill="#212121"/>
<path d="M170.96 93.1556L168.949 93.2022L169.107 91.1407L167.559 92.4341L166.469 90.7902L168.389 89.7854L166.425 88.8706L167.437 87.178L169.043 88.3984L168.79 86.3464L170.801 86.2998L170.643 88.3613L172.191 87.0679L173.281 88.7118L171.36 89.7166L173.325 90.6314L172.312 92.324L170.706 91.1036L170.96 93.1556Z" fill="#212121"/>
<path d="M154.625 106.421C155.454 103.164 157.535 101.477 160.037 101.194L161.03 104.703C159.605 104.929 158.498 105.662 158.052 107.412C157.623 109.095 158.181 109.685 158.779 109.838C159.731 110.08 160.334 109.29 161.568 107.128C162.798 104.988 164.481 103.011 167.449 103.767C170.44 104.529 171.524 107.494 170.841 110.174C170.192 112.722 168.466 114.405 165.897 114.954L164.909 111.517C166.152 111.268 167.025 110.712 167.386 109.294C167.668 108.187 167.255 107.492 166.635 107.334C165.926 107.153 165.343 107.405 163.997 109.634C162.69 111.801 161.199 114.228 157.92 113.393C154.93 112.631 153.767 109.788 154.625 106.421Z" fill="#212121"/>
<path d="M149.883 118.739C151.413 115.62 154.91 114.458 157.968 115.958C161.026 117.458 162.249 120.934 160.719 124.054C159.743 126.045 157.83 127.296 155.817 127.404L155.576 123.95C156.465 123.954 157.259 123.426 157.702 122.523C158.356 121.189 157.874 119.731 156.458 119.036C155.042 118.342 153.594 118.854 152.94 120.188C152.497 121.091 152.556 122.062 153.113 122.742L150.255 124.676C149.087 123.008 148.896 120.75 149.883 118.739Z" fill="#212121"/>
<path d="M152.088 136.733L150.011 139.461L140.918 132.537L142.995 129.809L143.85 130.46C143.616 129.333 143.876 128.124 144.804 126.905C146.618 124.523 150.205 124.151 152.915 126.215C155.625 128.278 156.221 131.835 154.407 134.217C153.479 135.436 152.382 136.008 151.234 136.082L152.088 136.733ZM146.971 129.417C146.015 130.672 146.178 132.232 147.542 133.271C148.906 134.31 150.453 134.051 151.409 132.796C152.364 131.541 152.202 129.981 150.838 128.943C149.474 127.904 147.927 128.162 146.971 129.417Z" fill="#212121"/>
<path d="M140.231 132.932L151.945 144.817L149.503 147.224L137.789 135.339L140.231 132.932Z" fill="#212121"/>
<path d="M136.091 142.563C135.038 141.861 133.947 142.151 132.933 142.894C132.177 143.448 131.748 144.216 131.676 144.892L128.531 145.242C128.516 143.326 129.407 141.681 131.159 140.397C134.311 138.086 137.82 138.773 139.833 141.52C141.847 144.267 141.41 147.847 138.497 149.982C135.805 151.955 132.287 151.332 130.246 148.548C129.962 148.161 129.729 147.765 129.546 147.361L136.091 142.563ZM137.66 144.587L133.696 147.493C134.775 148.346 135.888 148.125 136.718 147.517C137.769 146.747 138.091 145.717 137.66 144.587Z" fill="#212121"/>
<path d="M119.94 146.784C123.166 145.376 126.419 146.202 127.79 149.345L132.123 159.276L128.77 160.738L124.566 151.1C124.082 149.99 123.146 149.276 121.365 150.052C119.585 150.829 119.472 152.001 119.956 153.111L124.161 162.749L120.808 164.212L116.476 154.28C115.105 151.137 116.713 148.191 119.94 146.784Z" fill="#212121"/>
<path d="M110.291 158.707C110.032 157.43 104.693 159.398 103.854 155.253C103.331 152.677 105.349 151.125 107.769 150.635C110.009 150.181 111.884 150.687 113.126 152.325L110.549 154.573C110.086 153.78 109.363 153.437 108.377 153.637C107.571 153.8 107.217 154.128 107.308 154.576C107.558 155.809 112.938 154.042 113.723 157.918C114.218 160.36 112.406 162.01 110.076 162.482C108.262 162.85 106.485 162.37 105.222 160.97L107.776 158.843C108.208 159.362 108.738 159.674 109.477 159.525C110.06 159.407 110.373 159.11 110.291 158.707Z" fill="#212121"/>
<path d="M93.6392 25.9433L92.168 24.7533L93.7347 23.4727L93.7254 23.3721L91.7109 23.0277L92.3593 21.2288L94.0917 22.346L94.1652 22.3067L93.8659 20.2885L95.7927 20.3853L95.2927 22.3633L95.3762 22.4105L97.1691 21.4703L97.6618 23.3408L95.6522 23.4688L95.6329 23.568L97.0492 24.9984L95.4668 26.0207L94.6887 24.1359L94.5887 24.1309L93.6392 25.9433Z" fill="#212121"/>
</g>
<path d="M91.5488 84.0278L70.9609 98.7281C67.4277 101.251 66.5368 105.625 68.3392 109.249C70.1452 112.881 74.178 114.8 78.3236 113.479L97.7535 107.276C98.0588 107.179 98.3932 107.317 98.5401 107.611L103.631 117.797C107.182 124.898 117.716 123.486 119.274 115.7L121.189 106.118L120.534 104.902C119.592 103.164 118.425 101.559 116.601 99.4926C116.524 99.4059 115.616 98.3876 115.596 98.3641C109.006 90.889 101.522 86.184 93.2092 84.392L91.5488 84.0278ZM92.4009 88.1416C99.8883 89.7558 106.659 94.0382 112.712 100.905C112.788 100.991 113.564 101.853 113.724 102.034C115.452 103.991 116.407 105.351 117.154 106.73L115.508 114.95C114.668 119.151 108.985 119.911 107.068 116.079L101.97 105.893C100.979 103.91 98.6936 102.941 96.5811 103.614L77.1584 109.817C72.2689 111.374 69.0209 104.834 73.1967 101.852L92.4009 88.1416Z" fill="white"/>
<path d="M118.985 66.3281C118.985 66.3281 115.582 66.8619 114.128 67.9009L87.335 87.0352L94.7631 89.3142C101.064 91.244 106.894 95.2454 112.249 101.32C112.339 101.424 113.101 102.292 113.246 102.456C113.72 102.993 114.047 103.399 114.63 104.153C114.646 104.174 120.165 111.259 120.165 111.259L127.163 76.3322C128.222 71.0389 124.126 66.342 118.985 66.3281ZM118.978 70.1726C121.609 70.1795 123.998 72.5821 123.398 75.5823L118.046 102.289C117.456 101.531 116.94 100.834 116.123 99.908C115.96 99.7235 115.206 98.8635 115.133 98.7794C109.396 92.2706 102.98 87.8178 95.8847 85.6446L116.363 71.0243C117.193 70.4317 118.101 70.1701 118.978 70.1726Z" fill="white"/>
<path d="M76.0732 75.8809C70.166 75.8809 65.375 80.6708 65.375 86.5766C65.375 92.4824 70.166 97.2649 76.0732 97.2649C81.9803 97.2649 86.7712 92.4824 86.7712 86.5766C86.7712 80.6708 81.9802 75.8809 76.0732 75.8809ZM76.0732 79.7179C79.86 79.7179 82.9334 82.7907 82.9333 86.5766C82.9333 90.3625 79.86 93.4279 76.0732 93.4279C72.2864 93.4279 69.2202 90.3625 69.2202 86.5766C69.2202 82.7907 72.2864 79.7179 76.0732 79.7179Z" fill="white"/>
<path d="M101.759 57.5034C95.8516 57.5034 91.0607 62.2861 91.0605 68.1919C91.0605 74.0977 95.8516 78.8877 101.759 78.8877C107.666 78.8877 112.449 74.0977 112.45 68.1919C112.45 62.2861 107.666 57.5034 101.759 57.5034ZM101.759 61.3405C105.546 61.3405 108.612 64.406 108.612 68.1919C108.612 71.9778 105.546 75.0506 101.759 75.0506C97.972 75.0506 94.8985 71.9778 94.8985 68.1919C94.8985 64.406 97.972 61.3405 101.759 61.3405Z" fill="white"/>
<path d="M92.4207 88.1416C99.9081 89.7558 106.679 94.0382 112.732 100.905C112.808 100.991 113.584 101.853 113.744 102.034C115.472 103.991 116.427 105.351 117.174 106.73L115.528 114.95C114.688 119.151 109.004 119.911 107.088 116.079L101.99 105.893C100.999 103.91 98.7135 102.941 96.6009 103.614L77.1782 109.817C72.2887 111.374 69.0407 104.834 73.2165 101.852L92.4207 88.1416Z" fill="#66DD09"/>
<path d="M118.999 70.1724C121.631 70.1795 124.02 72.5819 123.42 75.582L118.067 102.289C117.477 101.531 116.961 100.833 116.145 99.9077C115.982 99.7233 115.227 98.8633 115.154 98.7791C109.417 92.2704 103.001 87.8176 95.9063 85.6444L116.385 71.0241C117.215 70.4314 118.122 70.1699 118.999 70.1724Z" fill="#7309DD"/>
<path d="M76.0942 79.7173C79.8808 79.7173 82.9543 82.7901 82.9543 86.576C82.9543 90.3619 79.8808 93.4273 76.0942 93.4273C72.3074 93.4273 69.2412 90.3619 69.2412 86.576C69.2412 82.7901 72.3074 79.7173 76.0942 79.7173Z" fill="#66DD09"/>
<path d="M101.78 61.3403C105.567 61.3403 108.633 64.4059 108.633 68.1918C108.633 71.9777 105.567 75.0505 101.78 75.0505C97.9934 75.0505 94.9199 71.9777 94.9199 68.1918C94.9199 64.4059 97.9934 61.3403 101.78 61.3403Z" fill="#7309DD"/>
</g>
</g>
<defs>
<filter id="filter0_d_507_1386" x="0.202651" y="0.0234375" width="189.805" height="188.87" filterUnits="userSpaceOnUse" color-interpolation-filters="sRGB">
<feFlood flood-opacity="0" result="BackgroundImageFix"/>
<feColorMatrix in="SourceAlpha" type="matrix" values="0 0 0 0 0 0 0 0 0 0 0 0 0 0 0 0 0 0 127 0" result="hardAlpha"/>
<feOffset dx="-8.35594" dy="8.35594"/>
<feComposite in2="hardAlpha" operator="out"/>
<feColorMatrix type="matrix" values="0 0 0 0 0 0 0 0 0 0 0 0 0 0 0 0 0 0 1 0"/>
<feBlend mode="normal" in2="BackgroundImageFix" result="effect1_dropShadow_507_1386"/>
<feBlend mode="normal" in="SourceGraphic" in2="effect1_dropShadow_507_1386" result="shape"/>
</filter>
<clipPath id="clip0_507_1386">
<rect x="8.55859" y="0.0234375" width="181.449" height="180.513" rx="90.2567" fill="white"/>
</clipPath>
<clipPath id="clip1_507_1386">
<rect width="181.449" height="180.513" fill="white" transform="translate(8.55859 0.0234375)"/>
</clipPath>
</defs>
</svg>
