<svg width="3436" height="724" viewBox="0 0 3436 724" fill="none" xmlns="http://www.w3.org/2000/svg">
<path fill-rule="evenodd" clip-rule="evenodd" d="M272.692 150.062C272.694 87.5653 323.391 36.9543 385.902 36.9543C448.412 36.9543 499.035 87.5653 499.035 150.062C499.035 153.399 498.89 156.702 498.608 159.965L516.791 146.98C532.187 135.985 568.194 130.336 568.194 130.336C622.601 130.483 665.944 180.186 654.739 236.201L580.677 605.801L580.649 605.765L571.247 652.8C554.766 735.189 443.29 750.135 405.71 674.99L351.841 567.2C350.287 564.094 346.748 562.627 343.517 563.655L137.907 629.3C94.0376 643.273 51.3614 622.967 32.2501 584.536C13.1771 546.181 22.6044 499.902 59.9941 473.201L86.4417 454.317C37.2898 441.994 0.880859 397.569 0.880859 344.608C0.880859 282.112 51.5802 231.424 114.091 231.424C176.6 231.424 227.299 282.112 227.299 344.608C227.299 347.776 227.169 350.914 226.913 354.016L233.284 349.467L233.267 349.462L358.624 259.937C309.284 247.728 272.692 203.156 272.692 150.062ZM386.526 77.5614C386.318 77.5596 386.11 77.5587 385.902 77.5587C345.83 77.5587 313.306 109.999 313.306 150.062C313.306 189.99 345.612 222.423 385.499 222.64C345.715 222.304 313.529 189.917 313.529 150.063C313.529 110 346.053 77.5603 386.125 77.5603C386.259 77.5603 386.393 77.5606 386.526 77.5614ZM388.139 549.016C379.972 532.683 363.506 522.849 346.066 522.654C363.587 522.77 380.155 532.617 388.354 549.018L442.3 656.809C451.16 674.525 467.628 682.968 484.107 683.152C467.557 683.04 450.984 674.6 442.085 656.807L415.112 602.912L388.139 549.016ZM114.091 272.028C114.333 272.028 114.574 272.029 114.816 272.032C114.648 272.031 114.48 272.03 114.312 272.03C74.2397 272.03 41.7925 304.547 41.7925 344.61C41.7925 384.433 73.8517 416.722 113.592 417.108C73.7495 416.84 41.5713 384.505 41.5713 344.608C41.5713 304.545 74.0185 272.028 114.091 272.028Z" fill="#070707"/>
<path d="M293.025 280.9L75.1615 436.46C37.7718 463.161 28.3445 509.44 47.4175 547.796C66.5288 586.226 109.205 606.533 153.074 592.559L358.685 526.915C361.916 525.886 365.454 527.353 367.008 530.459L420.877 638.25C458.457 713.394 569.933 698.448 586.414 616.059L606.682 514.664L599.747 501.798C589.781 483.401 577.436 466.419 558.131 444.55C557.317 443.633 547.713 432.857 547.495 432.609C477.764 353.506 398.56 303.717 310.596 284.753L293.025 280.9ZM302.042 324.432C381.275 341.514 452.919 386.831 516.977 459.498C517.781 460.409 525.991 469.525 527.69 471.441C545.97 492.149 556.082 506.545 563.988 521.137L546.571 608.123C537.678 652.583 477.534 660.62 457.252 620.066L403.306 512.276C392.816 491.295 368.632 481.039 346.278 488.159L140.744 553.805C89.0021 570.285 54.632 501.07 98.8206 469.513L302.042 324.432Z" fill="white"/>
<path d="M583.362 93.5957C583.362 93.5957 547.355 99.2442 531.959 110.239L248.436 312.721L327.041 336.838C393.715 357.26 455.414 399.603 512.076 463.889C513.034 464.991 521.096 474.17 522.634 475.909C527.648 481.594 531.108 485.886 537.277 493.862C537.446 494.082 595.846 569.061 595.846 569.061L669.907 199.46C681.112 143.445 637.769 93.7424 583.362 93.5957ZM583.285 134.279C611.13 134.352 636.414 159.776 630.064 191.525L573.419 474.137C567.179 466.117 561.716 458.738 553.075 448.943C551.351 446.991 543.37 437.89 542.595 437C481.886 368.124 413.992 321.003 338.91 298.006L555.618 143.292C564.403 137.02 574.003 134.252 583.285 134.279Z" fill="white"/>
<path d="M129.259 194.683C66.7482 194.683 16.0488 245.371 16.0488 307.867C16.0488 370.364 66.7482 420.973 129.259 420.973C191.769 420.973 242.467 370.364 242.467 307.867C242.467 245.371 191.767 194.683 129.259 194.683ZM129.259 235.287C169.331 235.287 201.855 267.804 201.853 307.867C201.853 347.93 169.331 380.368 129.259 380.368C89.1865 380.368 56.7393 347.93 56.7393 307.867C56.7393 267.804 89.1865 235.287 129.259 235.287Z" fill="white"/>
<path d="M401.069 0.213623C338.559 0.213623 287.861 50.8246 287.859 113.321C287.859 175.817 338.559 226.505 401.069 226.505C463.58 226.505 514.201 175.817 514.202 113.321C514.202 50.8246 463.58 0.213623 401.069 0.213623ZM401.069 40.818C441.141 40.818 473.589 73.2579 473.589 113.321C473.589 153.384 441.141 185.901 401.069 185.901C360.997 185.901 328.473 153.384 328.473 113.321C328.473 73.2579 360.997 40.818 401.069 40.818Z" fill="white"/>
<path d="M302.259 324.434C381.492 341.515 453.138 386.832 517.196 459.5C517.999 460.411 526.209 469.527 527.907 471.443C546.189 492.151 556.301 506.547 564.205 521.139L546.789 608.125C537.896 652.585 477.751 660.622 457.469 620.068L403.523 512.277C393.034 491.297 368.851 481.04 346.495 488.161L140.961 553.807C89.2188 570.286 54.8487 501.071 99.0373 469.517L302.259 324.434Z" fill="#65DA09"/>
<path d="M583.502 134.28C611.349 134.355 636.633 159.778 630.282 191.526L573.638 474.138C567.396 466.119 561.934 458.74 553.294 448.944C551.568 446.992 543.589 437.892 542.812 437.001C482.103 368.125 414.21 321.004 339.129 298.007L555.837 143.293C564.62 137.021 574.222 134.254 583.502 134.28Z" fill="#7309DD"/>
<path d="M129.48 235.289C169.551 235.289 202.075 267.806 202.075 307.869C202.075 347.932 169.551 380.37 129.48 380.37C89.4081 380.37 56.9609 347.932 56.9609 307.869C56.9609 267.806 89.4081 235.289 129.48 235.289Z" fill="#65DA09"/>
<path d="M401.294 40.8193C441.364 40.8193 473.811 73.2592 473.811 113.322C473.811 153.385 441.366 185.902 401.294 185.902C361.221 185.902 328.697 153.385 328.697 113.322C328.697 73.2592 361.221 40.8193 401.294 40.8193Z" fill="#7309DD"/>
<path d="M3260.02 369.83C3260.02 410.402 3435.12 383.354 3435.12 515.034C3435.12 596.89 3363.94 631.767 3287.07 631.767C3215.89 631.767 3161.79 604.719 3134.03 547.065L3226.57 494.393C3235.82 521.44 3255.75 536.388 3287.07 536.388C3312.69 536.388 3325.5 528.558 3325.5 514.323C3325.5 475.174 3150.4 495.816 3150.4 372.677C3150.4 295.092 3215.89 255.944 3289.91 255.944C3347.57 255.944 3398.82 281.568 3428.71 332.105L3337.6 381.218C3327.64 362.712 3313.4 349.9 3289.91 349.9C3271.41 349.9 3260.02 357.018 3260.02 369.83Z" fill="#65DA09"/>
<path d="M2891.66 631.767C2782.05 631.767 2699.48 567.707 2699.48 460.939V123.552H2813.37V450.974C2813.37 488.698 2831.16 520.729 2891.66 520.729C2952.16 520.729 2969.96 488.698 2969.96 450.974V123.552H3083.85V460.939C3083.85 567.707 3001.28 631.767 2891.66 631.767Z" fill="#65DA09"/>
<path d="M2381.97 486.563C2395.49 523.576 2428.24 536.388 2467.38 536.388C2496.57 536.388 2521.48 524.999 2535.71 509.34L2621.13 558.453C2586.25 606.855 2533.58 631.767 2465.96 631.767C2344.24 631.767 2268.79 549.912 2268.79 443.856C2268.79 337.799 2345.67 255.944 2458.13 255.944C2562.05 255.944 2638.92 336.376 2638.92 443.856C2638.92 458.803 2637.5 473.039 2634.65 486.563H2381.97ZM2379.83 406.843H2532.87C2521.48 365.559 2489.45 350.612 2457.42 350.612C2416.85 350.612 2389.8 370.542 2379.83 406.843Z" fill="white"/>
<path d="M2101.69 621.802V102.198H2208.46V621.802H2101.69Z" fill="white"/>
<path d="M1916.59 265.909H2023.36V621.802H1916.59V588.348C1893.1 615.396 1858.23 631.767 1810.54 631.767C1717.29 631.767 1640.42 549.912 1640.42 443.856C1640.42 337.799 1717.29 255.944 1810.54 255.944C1858.23 255.944 1893.1 272.315 1916.59 299.363V265.909ZM1831.89 530.694C1881 530.694 1916.59 497.24 1916.59 443.856C1916.59 390.472 1881 357.018 1831.89 357.018C1782.78 357.018 1747.19 390.472 1747.19 443.856C1747.19 497.24 1782.78 530.694 1831.89 530.694Z" fill="white"/>
<path d="M1461.33 631.767C1353.14 631.767 1272.71 549.912 1272.71 443.856C1272.71 337.799 1353.14 255.944 1461.33 255.944C1530.38 255.944 1591.59 292.245 1622.2 347.053L1528.95 401.148C1516.85 376.236 1491.23 361.288 1459.91 361.288C1413.64 361.288 1379.48 394.742 1379.48 443.856C1379.48 492.969 1413.64 526.423 1459.91 526.423C1491.23 526.423 1517.57 511.475 1528.95 486.563L1622.2 539.947C1591.59 595.466 1531.09 631.767 1461.33 631.767Z" fill="white"/>
<path d="M1041.66 631.767C937.025 631.767 870.117 581.942 842.357 508.628L940.584 451.685C958.379 492.969 988.985 520.729 1045.22 520.729C1099.31 520.729 1112.84 499.375 1112.84 480.157C1112.84 449.55 1084.36 437.45 1009.63 416.808C935.602 396.166 862.999 360.577 862.999 265.197C862.999 169.106 944.143 113.587 1030.27 113.587C1112.12 113.587 1176.19 152.735 1212.49 226.049L1116.4 282.28C1099.31 246.691 1075.82 224.625 1030.27 224.625C994.68 224.625 976.885 242.42 976.885 262.35C976.885 285.127 988.986 300.786 1066.57 324.275C1142.02 347.053 1226.72 373.389 1226.72 478.733C1226.72 574.824 1149.85 631.767 1041.66 631.767Z" fill="white"/>
</svg>
